solid CATIA STL
  facet normal  0.000000e+000  0.000000e+000 -1.000000e+000
    outer loop
      vertex -1.586803e+001  1.715211e+001  0.000000e+000
      vertex -1.773205e+001  1.700000e+001  0.000000e+000
      vertex -1.700000e+001  1.773205e+001  0.000000e+000
    endloop
  endfacet
  facet normal  -0.000000e+000  0.000000e+000 -1.000000e+000
    outer loop
      vertex -1.773205e+001 -1.700000e+001  0.000000e+000
      vertex -1.586803e+001 -1.715211e+001  0.000000e+000
      vertex -1.700000e+001 -1.773205e+001  0.000000e+000
    endloop
  endfacet
  facet normal  0.000000e+000  0.000000e+000 -1.000000e+000
    outer loop
      vertex  1.773205e+001  1.700000e+001  0.000000e+000
      vertex  1.586803e+001  1.715211e+001  0.000000e+000
      vertex  1.700000e+001  1.773205e+001  0.000000e+000
    endloop
  endfacet
  facet normal  0.000000e+000  0.000000e+000 -1.000000e+000
    outer loop
      vertex  1.773205e+001 -1.700000e+001  0.000000e+000
      vertex  1.700000e+001 -1.773205e+001  0.000000e+000
      vertex  1.586803e+001 -1.715211e+001  0.000000e+000
    endloop
  endfacet
  facet normal  0.000000e+000  0.000000e+000 -1.000000e+000
    outer loop
      vertex  1.800000e+001  1.600000e+001  0.000000e+000
      vertex  1.800000e+001 -1.600000e+001  0.000000e+000
      vertex  1.725000e+001  1.525000e+001  0.000000e+000
    endloop
  endfacet
  facet normal  0.000000e+000  0.000000e+000 -1.000000e+000
    outer loop
      vertex  1.800000e+001  1.600000e+001  0.000000e+000
      vertex  1.725000e+001  1.525000e+001  0.000000e+000
      vertex  1.686803e+001  1.642557e+001  0.000000e+000
    endloop
  endfacet
  facet normal  0.000000e+000  0.000000e+000 -1.000000e+000
    outer loop
      vertex  1.800000e+001  1.600000e+001  0.000000e+000
      vertex  1.686803e+001  1.642557e+001  0.000000e+000
      vertex  1.586803e+001  1.715211e+001  0.000000e+000
    endloop
  endfacet
  facet normal  0.000000e+000  0.000000e+000 -1.000000e+000
    outer loop
      vertex  1.800000e+001  1.600000e+001  0.000000e+000
      vertex  1.586803e+001  1.715211e+001  0.000000e+000
      vertex  1.773205e+001  1.700000e+001  0.000000e+000
    endloop
  endfacet
  facet normal  -0.000000e+000  0.000000e+000 -1.000000e+000
    outer loop
      vertex  1.800000e+001 -1.600000e+001  0.000000e+000
      vertex  1.773205e+001 -1.700000e+001  0.000000e+000
      vertex  1.586803e+001 -1.715211e+001  0.000000e+000
    endloop
  endfacet
  facet normal  0.000000e+000  0.000000e+000 -1.000000e+000
    outer loop
      vertex  1.800000e+001 -1.600000e+001  0.000000e+000
      vertex  1.586803e+001 -1.715211e+001  0.000000e+000
      vertex  1.686803e+001 -1.642557e+001  0.000000e+000
    endloop
  endfacet
  facet normal  0.000000e+000  0.000000e+000 -1.000000e+000
    outer loop
      vertex  1.800000e+001 -1.600000e+001  0.000000e+000
      vertex  1.686803e+001 -1.642557e+001  0.000000e+000
      vertex  1.725000e+001 -1.525000e+001  0.000000e+000
    endloop
  endfacet
  facet normal  0.000000e+000  0.000000e+000 -1.000000e+000
    outer loop
      vertex  1.800000e+001 -1.600000e+001  0.000000e+000
      vertex  1.725000e+001 -1.525000e+001  0.000000e+000
      vertex  1.686803e+001 -1.407443e+001  0.000000e+000
    endloop
  endfacet
  facet normal  0.000000e+000  0.000000e+000 -1.000000e+000
    outer loop
      vertex  1.800000e+001 -1.600000e+001  0.000000e+000
      vertex  1.686803e+001 -1.407443e+001  0.000000e+000
      vertex  1.586803e+001  1.334789e+001  0.000000e+000
    endloop
  endfacet
  facet normal  0.000000e+000  0.000000e+000 -1.000000e+000
    outer loop
      vertex  1.800000e+001 -1.600000e+001  0.000000e+000
      vertex  1.586803e+001  1.334789e+001  0.000000e+000
      vertex  1.686803e+001  1.407443e+001  0.000000e+000
    endloop
  endfacet
  facet normal  0.000000e+000  0.000000e+000 -9.999999e-001
    outer loop
      vertex  1.800000e+001 -1.600000e+001  0.000000e+000
      vertex  1.686803e+001  1.407443e+001  0.000000e+000
      vertex  1.725000e+001  1.525000e+001  0.000000e+000
    endloop
  endfacet
  facet normal  0.000000e+000  0.000000e+000 -1.000000e+000
    outer loop
      vertex -1.600000e+001 -1.800000e+001  0.000000e+000
      vertex -1.700000e+001 -1.773205e+001  0.000000e+000
      vertex -1.586803e+001 -1.715211e+001  0.000000e+000
    endloop
  endfacet
  facet normal  0.000000e+000  -0.000000e+000 -1.000000e+000
    outer loop
      vertex -1.600000e+001 -1.800000e+001  0.000000e+000
      vertex -1.586803e+001 -1.715211e+001  0.000000e+000
      vertex -1.463197e+001 -1.715211e+001  0.000000e+000
    endloop
  endfacet
  facet normal  0.000000e+000  -0.000000e+000 -1.000000e+000
    outer loop
      vertex -1.600000e+001 -1.800000e+001  0.000000e+000
      vertex -1.463197e+001 -1.715211e+001  0.000000e+000
      vertex  1.463197e+001 -1.715211e+001  0.000000e+000
    endloop
  endfacet
  facet normal  0.000000e+000  -0.000000e+000 -1.000000e+000
    outer loop
      vertex -1.600000e+001 -1.800000e+001  0.000000e+000
      vertex  1.463197e+001 -1.715211e+001  0.000000e+000
      vertex  1.586803e+001 -1.715211e+001  0.000000e+000
    endloop
  endfacet
  facet normal  0.000000e+000  -0.000000e+000 -1.000000e+000
    outer loop
      vertex -1.600000e+001 -1.800000e+001  0.000000e+000
      vertex  1.586803e+001 -1.715211e+001  0.000000e+000
      vertex  1.700000e+001 -1.773205e+001  0.000000e+000
    endloop
  endfacet
  facet normal  0.000000e+000  0.000000e+000 -1.000000e+000
    outer loop
      vertex -1.600000e+001 -1.800000e+001  0.000000e+000
      vertex  1.700000e+001 -1.773205e+001  0.000000e+000
      vertex  1.600000e+001 -1.800000e+001  0.000000e+000
    endloop
  endfacet
  facet normal  0.000000e+000  -0.000000e+000 -1.000000e+000
    outer loop
      vertex -1.800000e+001 -1.600000e+001  0.000000e+000
      vertex -1.771875e+001  2.755864e+000  0.000000e+000
      vertex -1.771875e+001 -1.218291e+001  0.000000e+000
    endloop
  endfacet
  facet normal  0.000000e+000  -0.000000e+000 -1.000000e+000
    outer loop
      vertex -1.800000e+001 -1.600000e+001  0.000000e+000
      vertex -1.771875e+001 -1.218291e+001  0.000000e+000
      vertex -1.686803e+001 -1.407443e+001  0.000000e+000
    endloop
  endfacet
  facet normal  0.000000e+000  0.000000e+000 -1.000000e+000
    outer loop
      vertex -1.800000e+001 -1.600000e+001  0.000000e+000
      vertex -1.686803e+001 -1.407443e+001  0.000000e+000
      vertex -1.725000e+001 -1.525000e+001  0.000000e+000
    endloop
  endfacet
  facet normal  0.000000e+000  -0.000000e+000 -1.000000e+000
    outer loop
      vertex -1.800000e+001 -1.600000e+001  0.000000e+000
      vertex -1.725000e+001 -1.525000e+001  0.000000e+000
      vertex -1.686803e+001 -1.642557e+001  0.000000e+000
    endloop
  endfacet
  facet normal  -0.000000e+000  -0.000000e+000 -1.000000e+000
    outer loop
      vertex -1.800000e+001 -1.600000e+001  0.000000e+000
      vertex -1.686803e+001 -1.642557e+001  0.000000e+000
      vertex -1.586803e+001 -1.715211e+001  0.000000e+000
    endloop
  endfacet
  facet normal  0.000000e+000  0.000000e+000 -1.000000e+000
    outer loop
      vertex -1.800000e+001 -1.600000e+001  0.000000e+000
      vertex -1.586803e+001 -1.715211e+001  0.000000e+000
      vertex -1.773205e+001 -1.700000e+001  0.000000e+000
    endloop
  endfacet
  facet normal  -0.000000e+000  -0.000000e+000 -1.000000e+000
    outer loop
      vertex -1.600000e+001  1.800000e+001  0.000000e+000
      vertex  1.600000e+001  1.800000e+001  0.000000e+000
      vertex  1.700000e+001  1.773205e+001  0.000000e+000
    endloop
  endfacet
  facet normal  -0.000000e+000  0.000000e+000 -1.000000e+000
    outer loop
      vertex -1.600000e+001  1.800000e+001  0.000000e+000
      vertex  1.700000e+001  1.773205e+001  0.000000e+000
      vertex  1.586803e+001  1.715211e+001  0.000000e+000
    endloop
  endfacet
  facet normal  0.000000e+000  0.000000e+000 -1.000000e+000
    outer loop
      vertex -1.600000e+001  1.800000e+001  0.000000e+000
      vertex  1.586803e+001  1.715211e+001  0.000000e+000
      vertex  1.463197e+001  1.715211e+001  0.000000e+000
    endloop
  endfacet
  facet normal  0.000000e+000  0.000000e+000 -1.000000e+000
    outer loop
      vertex -1.600000e+001  1.800000e+001  0.000000e+000
      vertex  1.463197e+001  1.715211e+001  0.000000e+000
      vertex -1.463197e+001  1.715211e+001  0.000000e+000
    endloop
  endfacet
  facet normal  0.000000e+000  0.000000e+000 -1.000000e+000
    outer loop
      vertex -1.600000e+001  1.800000e+001  0.000000e+000
      vertex -1.463197e+001  1.715211e+001  0.000000e+000
      vertex -1.586803e+001  1.715211e+001  0.000000e+000
    endloop
  endfacet
  facet normal  0.000000e+000  0.000000e+000 -9.999999e-001
    outer loop
      vertex -1.600000e+001  1.800000e+001  0.000000e+000
      vertex -1.586803e+001  1.715211e+001  0.000000e+000
      vertex -1.700000e+001  1.773205e+001  0.000000e+000
    endloop
  endfacet
  facet normal  -0.000000e+000  -0.000000e+000 -1.000000e+000
    outer loop
      vertex -1.771875e+001 -1.218291e+001  0.000000e+000
      vertex -2.274246e+000 -1.218291e+001  0.000000e+000
      vertex  1.463197e+001 -1.334789e+001  0.000000e+000
    endloop
  endfacet
  facet normal  0.000000e+000  0.000000e+000 -1.000000e+000
    outer loop
      vertex -1.771875e+001 -1.218291e+001  0.000000e+000
      vertex  1.463197e+001 -1.334789e+001  0.000000e+000
      vertex -1.463197e+001 -1.334789e+001  0.000000e+000
    endloop
  endfacet
  facet normal  0.000000e+000  0.000000e+000 -1.000000e+000
    outer loop
      vertex -1.771875e+001 -1.218291e+001  0.000000e+000
      vertex -1.463197e+001 -1.334789e+001  0.000000e+000
      vertex -1.586803e+001 -1.334789e+001  0.000000e+000
    endloop
  endfacet
  facet normal  -0.000000e+000  0.000000e+000 -9.999999e-001
    outer loop
      vertex -1.771875e+001 -1.218291e+001  0.000000e+000
      vertex -1.586803e+001 -1.334789e+001  0.000000e+000
      vertex -1.686803e+001 -1.407443e+001  0.000000e+000
    endloop
  endfacet
  facet normal  0.000000e+000  -0.000000e+000 -1.000000e+000
    outer loop
      vertex -1.771875e+001  2.755864e+000  0.000000e+000
      vertex -1.725000e+001  1.525000e+001  0.000000e+000
      vertex -1.686803e+001  1.407443e+001  0.000000e+000
    endloop
  endfacet
  facet normal  0.000000e+000  -0.000000e+000 -1.000000e+000
    outer loop
      vertex -1.771875e+001  2.755864e+000  0.000000e+000
      vertex -1.686803e+001  1.407443e+001  0.000000e+000
      vertex -1.586803e+001  1.334789e+001  0.000000e+000
    endloop
  endfacet
  facet normal  0.000000e+000  -0.000000e+000 -9.999999e-001
    outer loop
      vertex -1.771875e+001  2.755864e+000  0.000000e+000
      vertex -1.586803e+001  1.334789e+001  0.000000e+000
      vertex -1.463197e+001  1.334789e+001  0.000000e+000
    endloop
  endfacet
  facet normal  0.000000e+000  -0.000000e+000 -1.000000e+000
    outer loop
      vertex -1.771875e+001  2.755864e+000  0.000000e+000
      vertex -1.463197e+001  1.334789e+001  0.000000e+000
      vertex -2.274246e+000  2.755864e+000  0.000000e+000
    endloop
  endfacet
  facet normal  0.000000e+000  -0.000000e+000 -1.000000e+000
    outer loop
      vertex -1.800000e+001  1.600000e+001  0.000000e+000
      vertex -1.773205e+001  1.700000e+001  0.000000e+000
      vertex -1.586803e+001  1.715211e+001  0.000000e+000
    endloop
  endfacet
  facet normal  0.000000e+000  0.000000e+000 -1.000000e+000
    outer loop
      vertex -1.800000e+001  1.600000e+001  0.000000e+000
      vertex -1.586803e+001  1.715211e+001  0.000000e+000
      vertex -1.686803e+001  1.642557e+001  0.000000e+000
    endloop
  endfacet
  facet normal  0.000000e+000  0.000000e+000 -1.000000e+000
    outer loop
      vertex -1.800000e+001  1.600000e+001  0.000000e+000
      vertex -1.686803e+001  1.642557e+001  0.000000e+000
      vertex -1.725000e+001  1.525000e+001  0.000000e+000
    endloop
  endfacet
  facet normal  -0.000000e+000  0.000000e+000 -1.000000e+000
    outer loop
      vertex -1.800000e+001  1.600000e+001  0.000000e+000
      vertex -1.725000e+001  1.525000e+001  0.000000e+000
      vertex -1.771875e+001  2.755864e+000  0.000000e+000
    endloop
  endfacet
  facet normal  -0.000000e+000  0.000000e+000 -1.000000e+000
    outer loop
      vertex -1.800000e+001  1.600000e+001  0.000000e+000
      vertex -1.771875e+001  2.755864e+000  0.000000e+000
      vertex -1.800000e+001 -1.600000e+001  0.000000e+000
    endloop
  endfacet
  facet normal  0.000000e+000  0.000000e+000 -1.000000e+000
    outer loop
      vertex  1.686803e+001 -1.407443e+001  0.000000e+000
      vertex  1.586803e+001 -1.334789e+001  0.000000e+000
      vertex  1.586803e+001  1.334789e+001  0.000000e+000
    endloop
  endfacet
  facet normal  0.000000e+000  -0.000000e+000 -1.000000e+000
    outer loop
      vertex  1.586803e+001  1.334789e+001  0.000000e+000
      vertex  1.586803e+001 -1.334789e+001  0.000000e+000
      vertex  1.463197e+001 -1.334789e+001  0.000000e+000
    endloop
  endfacet
  facet normal  0.000000e+000  0.000000e+000 -1.000000e+000
    outer loop
      vertex  1.586803e+001  1.334789e+001  0.000000e+000
      vertex  1.463197e+001 -1.334789e+001  0.000000e+000
      vertex  1.463197e+001  1.334789e+001  0.000000e+000
    endloop
  endfacet
  facet normal  0.000000e+000  -0.000000e+000 -1.000000e+000
    outer loop
      vertex  1.463197e+001  1.334789e+001  0.000000e+000
      vertex  1.463197e+001 -1.334789e+001  0.000000e+000
      vertex -2.274246e+000 -1.218291e+001  0.000000e+000
    endloop
  endfacet
  facet normal  0.000000e+000  0.000000e+000 -1.000000e+000
    outer loop
      vertex  1.463197e+001  1.334789e+001  0.000000e+000
      vertex -2.274246e+000 -1.218291e+001  0.000000e+000
      vertex -2.274246e+000  2.755864e+000  0.000000e+000
    endloop
  endfacet
  facet normal  0.000000e+000  0.000000e+000 -1.000000e+000
    outer loop
      vertex -2.274246e+000  2.755864e+000  0.000000e+000
      vertex -1.463197e+001  1.334789e+001  0.000000e+000
      vertex  1.463197e+001  1.334789e+001  0.000000e+000
    endloop
  endfacet
  facet normal  0.000000e+000  0.000000e+000 -1.000000e+000
    outer loop
      vertex  1.463197e+001  1.334789e+001  0.000000e+000
      vertex -1.463197e+001  1.334789e+001  0.000000e+000
      vertex -1.363197e+001  1.407443e+001  0.000000e+000
    endloop
  endfacet
  facet normal  0.000000e+000  0.000000e+000 -1.000000e+000
    outer loop
      vertex  1.463197e+001  1.334789e+001  0.000000e+000
      vertex -1.363197e+001  1.407443e+001  0.000000e+000
      vertex  1.363197e+001  1.407443e+001  0.000000e+000
    endloop
  endfacet
  facet normal  0.000000e+000  0.000000e+000 -1.000000e+000
    outer loop
      vertex  1.363197e+001  1.407443e+001  0.000000e+000
      vertex -1.363197e+001  1.407443e+001  0.000000e+000
      vertex -1.325000e+001  1.525000e+001  0.000000e+000
    endloop
  endfacet
  facet normal  0.000000e+000  0.000000e+000 -9.999999e-001
    outer loop
      vertex  1.363197e+001  1.407443e+001  0.000000e+000
      vertex -1.325000e+001  1.525000e+001  0.000000e+000
      vertex  1.325000e+001  1.525000e+001  0.000000e+000
    endloop
  endfacet
  facet normal  0.000000e+000  0.000000e+000 -9.999999e-001
    outer loop
      vertex  1.325000e+001  1.525000e+001  0.000000e+000
      vertex -1.325000e+001  1.525000e+001  0.000000e+000
      vertex -1.363197e+001  1.642557e+001  0.000000e+000
    endloop
  endfacet
  facet normal  0.000000e+000  0.000000e+000 -1.000000e+000
    outer loop
      vertex  1.325000e+001  1.525000e+001  0.000000e+000
      vertex -1.363197e+001  1.642557e+001  0.000000e+000
      vertex  1.363197e+001  1.642557e+001  0.000000e+000
    endloop
  endfacet
  facet normal  0.000000e+000  0.000000e+000 -1.000000e+000
    outer loop
      vertex  1.363197e+001  1.642557e+001  0.000000e+000
      vertex -1.363197e+001  1.642557e+001  0.000000e+000
      vertex -1.463197e+001  1.715211e+001  0.000000e+000
    endloop
  endfacet
  facet normal  0.000000e+000  0.000000e+000 -1.000000e+000
    outer loop
      vertex  1.363197e+001  1.642557e+001  0.000000e+000
      vertex -1.463197e+001  1.715211e+001  0.000000e+000
      vertex  1.463197e+001  1.715211e+001  0.000000e+000
    endloop
  endfacet
  facet normal  0.000000e+000  0.000000e+000 -1.000000e+000
    outer loop
      vertex  1.325000e+001 -1.525000e+001  0.000000e+000
      vertex -1.363197e+001 -1.407443e+001  0.000000e+000
      vertex  1.363197e+001 -1.407443e+001  0.000000e+000
    endloop
  endfacet
  facet normal  0.000000e+000  0.000000e+000 -1.000000e+000
    outer loop
      vertex  1.363197e+001 -1.407443e+001  0.000000e+000
      vertex -1.363197e+001 -1.407443e+001  0.000000e+000
      vertex -1.463197e+001 -1.334789e+001  0.000000e+000
    endloop
  endfacet
  facet normal  0.000000e+000  0.000000e+000 -1.000000e+000
    outer loop
      vertex  1.363197e+001 -1.407443e+001  0.000000e+000
      vertex -1.463197e+001 -1.334789e+001  0.000000e+000
      vertex  1.463197e+001 -1.334789e+001  0.000000e+000
    endloop
  endfacet
  facet normal  0.000000e+000  0.000000e+000 -9.999999e-001
    outer loop
      vertex -1.363197e+001 -1.407443e+001  0.000000e+000
      vertex  1.325000e+001 -1.525000e+001  0.000000e+000
      vertex -1.325000e+001 -1.525000e+001  0.000000e+000
    endloop
  endfacet
  facet normal  0.000000e+000  0.000000e+000 -9.999999e-001
    outer loop
      vertex -1.325000e+001 -1.525000e+001  0.000000e+000
      vertex  1.325000e+001 -1.525000e+001  0.000000e+000
      vertex  1.363197e+001 -1.642557e+001  0.000000e+000
    endloop
  endfacet
  facet normal  0.000000e+000  0.000000e+000 -1.000000e+000
    outer loop
      vertex -1.325000e+001 -1.525000e+001  0.000000e+000
      vertex  1.363197e+001 -1.642557e+001  0.000000e+000
      vertex -1.363197e+001 -1.642557e+001  0.000000e+000
    endloop
  endfacet
  facet normal  0.000000e+000  0.000000e+000 -1.000000e+000
    outer loop
      vertex -1.363197e+001 -1.642557e+001  0.000000e+000
      vertex  1.363197e+001 -1.642557e+001  0.000000e+000
      vertex  1.463197e+001 -1.715211e+001  0.000000e+000
    endloop
  endfacet
  facet normal  0.000000e+000  0.000000e+000 -1.000000e+000
    outer loop
      vertex -1.363197e+001 -1.642557e+001  0.000000e+000
      vertex  1.463197e+001 -1.715211e+001  0.000000e+000
      vertex -1.463197e+001 -1.715211e+001  0.000000e+000
    endloop
  endfacet
  facet normal  0.000000e+000  -0.000000e+000  1.000000e+000
    outer loop
      vertex  8.299384e+000 -8.346220e+000  2.000000e+000
      vertex  1.363197e+001 -1.407443e+001  2.000000e+000
      vertex  1.463197e+001 -1.334789e+001  2.000000e+000
    endloop
  endfacet
  facet normal  0.000000e+000  0.000000e+000  1.000000e+000
    outer loop
      vertex -1.379815e+001  1.004864e+001  2.000000e+000
      vertex -1.363197e+001  1.407443e+001  2.000000e+000
      vertex -1.463197e+001  1.334789e+001  2.000000e+000
    endloop
  endfacet
  facet normal  0.000000e+000  0.000000e+000  1.000000e+000
    outer loop
      vertex -1.700000e+001  1.773205e+001  2.000000e+000
      vertex -1.773205e+001  1.700000e+001  2.000000e+000
      vertex -1.586803e+001  1.715211e+001  2.000000e+000
    endloop
  endfacet
  facet normal  0.000000e+000  0.000000e+000  1.000000e+000
    outer loop
      vertex -1.700000e+001 -1.773205e+001  2.000000e+000
      vertex -1.586803e+001 -1.715211e+001  2.000000e+000
      vertex -1.773205e+001 -1.700000e+001  2.000000e+000
    endloop
  endfacet
  facet normal  -0.000000e+000  0.000000e+000  1.000000e+000
    outer loop
      vertex  1.700000e+001  1.773205e+001  2.000000e+000
      vertex  1.586803e+001  1.715211e+001  2.000000e+000
      vertex  1.773205e+001  1.700000e+001  2.000000e+000
    endloop
  endfacet
  facet normal  0.000000e+000  -0.000000e+000  1.000000e+000
    outer loop
      vertex  1.586803e+001 -1.715211e+001  2.000000e+000
      vertex  1.700000e+001 -1.773205e+001  2.000000e+000
      vertex  1.773205e+001 -1.700000e+001  2.000000e+000
    endloop
  endfacet
  facet normal  0.000000e+000  0.000000e+000  9.999999e-001
    outer loop
      vertex -2.338475e+000  1.004864e+001  2.000000e+000
      vertex -1.463197e+001  1.715211e+001  2.000000e+000
      vertex -1.363197e+001  1.642557e+001  2.000000e+000
    endloop
  endfacet
  facet normal  0.000000e+000  0.000000e+000  1.000000e+000
    outer loop
      vertex -2.338475e+000  1.004864e+001  2.000000e+000
      vertex -1.363197e+001  1.642557e+001  2.000000e+000
      vertex -1.325000e+001  1.525000e+001  2.000000e+000
    endloop
  endfacet
  facet normal  0.000000e+000  0.000000e+000  1.000000e+000
    outer loop
      vertex -2.338475e+000  1.004864e+001  2.000000e+000
      vertex -1.325000e+001  1.525000e+001  2.000000e+000
      vertex -1.363197e+001  1.407443e+001  2.000000e+000
    endloop
  endfacet
  facet normal  0.000000e+000  0.000000e+000  1.000000e+000
    outer loop
      vertex -2.338475e+000  1.004864e+001  2.000000e+000
      vertex -1.363197e+001  1.407443e+001  2.000000e+000
      vertex -1.379815e+001  1.004864e+001  2.000000e+000
    endloop
  endfacet
  facet normal  0.000000e+000  -0.000000e+000  1.000000e+000
    outer loop
      vertex  1.918958e+000  7.819598e+000  2.000000e+000
      vertex  1.322560e+001  2.991596e+000  2.000000e+000
      vertex  1.322560e+001  1.186142e+001  2.000000e+000
    endloop
  endfacet
  facet normal  0.000000e+000  -0.000000e+000  1.000000e+000
    outer loop
      vertex  1.918958e+000  7.819598e+000  2.000000e+000
      vertex  1.322560e+001  1.186142e+001  2.000000e+000
      vertex  1.463197e+001  1.334789e+001  2.000000e+000
    endloop
  endfacet
  facet normal  0.000000e+000  0.000000e+000  1.000000e+000
    outer loop
      vertex  1.918958e+000  7.819598e+000  2.000000e+000
      vertex  1.463197e+001  1.334789e+001  2.000000e+000
      vertex  1.363197e+001  1.407443e+001  2.000000e+000
    endloop
  endfacet
  facet normal  0.000000e+000  0.000000e+000  1.000000e+000
    outer loop
      vertex  1.918958e+000  7.819598e+000  2.000000e+000
      vertex  1.363197e+001  1.407443e+001  2.000000e+000
      vertex  1.325000e+001  1.525000e+001  2.000000e+000
    endloop
  endfacet
  facet normal  0.000000e+000  -0.000000e+000  1.000000e+000
    outer loop
      vertex  1.918958e+000  7.819598e+000  2.000000e+000
      vertex  1.325000e+001  1.525000e+001  2.000000e+000
      vertex  1.363197e+001  1.642557e+001  2.000000e+000
    endloop
  endfacet
  facet normal  0.000000e+000  0.000000e+000  1.000000e+000
    outer loop
      vertex  1.800000e+001  1.600000e+001  2.000000e+000
      vertex  1.773205e+001  1.700000e+001  2.000000e+000
      vertex  1.586803e+001  1.715211e+001  2.000000e+000
    endloop
  endfacet
  facet normal  0.000000e+000  0.000000e+000  1.000000e+000
    outer loop
      vertex  1.800000e+001  1.600000e+001  2.000000e+000
      vertex  1.586803e+001  1.715211e+001  2.000000e+000
      vertex  1.686803e+001  1.642557e+001  2.000000e+000
    endloop
  endfacet
  facet normal  0.000000e+000  0.000000e+000  1.000000e+000
    outer loop
      vertex  1.800000e+001  1.600000e+001  2.000000e+000
      vertex  1.686803e+001  1.642557e+001  2.000000e+000
      vertex  1.725000e+001  1.525000e+001  2.000000e+000
    endloop
  endfacet
  facet normal  -0.000000e+000  0.000000e+000  1.000000e+000
    outer loop
      vertex  1.800000e+001  1.600000e+001  2.000000e+000
      vertex  1.725000e+001  1.525000e+001  2.000000e+000
      vertex  1.785983e+001  1.186142e+001  2.000000e+000
    endloop
  endfacet
  facet normal  -0.000000e+000  0.000000e+000  1.000000e+000
    outer loop
      vertex  1.800000e+001  1.600000e+001  2.000000e+000
      vertex  1.785983e+001  1.186142e+001  2.000000e+000
      vertex  1.800000e+001 -1.600000e+001  2.000000e+000
    endloop
  endfacet
  facet normal  0.000000e+000  0.000000e+000  1.000000e+000
    outer loop
      vertex  1.800000e+001 -1.600000e+001  2.000000e+000
      vertex  1.785983e+001  1.186142e+001  2.000000e+000
      vertex  1.785983e+001  2.991596e+000  2.000000e+000
    endloop
  endfacet
  facet normal  0.000000e+000  0.000000e+000  9.999999e-001
    outer loop
      vertex  1.800000e+001 -1.600000e+001  2.000000e+000
      vertex  1.785983e+001  2.991596e+000  2.000000e+000
      vertex  1.322560e+001  2.991596e+000  2.000000e+000
    endloop
  endfacet
  facet normal  0.000000e+000  0.000000e+000  1.000000e+000
    outer loop
      vertex  1.800000e+001 -1.600000e+001  2.000000e+000
      vertex  1.322560e+001  2.991596e+000  2.000000e+000
      vertex  1.686803e+001 -1.407443e+001  2.000000e+000
    endloop
  endfacet
  facet normal  0.000000e+000  0.000000e+000  1.000000e+000
    outer loop
      vertex  1.800000e+001 -1.600000e+001  2.000000e+000
      vertex  1.686803e+001 -1.407443e+001  2.000000e+000
      vertex  1.725000e+001 -1.525000e+001  2.000000e+000
    endloop
  endfacet
  facet normal  0.000000e+000  0.000000e+000  1.000000e+000
    outer loop
      vertex  1.800000e+001 -1.600000e+001  2.000000e+000
      vertex  1.725000e+001 -1.525000e+001  2.000000e+000
      vertex  1.686803e+001 -1.642557e+001  2.000000e+000
    endloop
  endfacet
  facet normal  -0.000000e+000  0.000000e+000  1.000000e+000
    outer loop
      vertex  1.800000e+001 -1.600000e+001  2.000000e+000
      vertex  1.686803e+001 -1.642557e+001  2.000000e+000
      vertex  1.586803e+001 -1.715211e+001  2.000000e+000
    endloop
  endfacet
  facet normal  0.000000e+000  0.000000e+000  1.000000e+000
    outer loop
      vertex  1.800000e+001 -1.600000e+001  2.000000e+000
      vertex  1.586803e+001 -1.715211e+001  2.000000e+000
      vertex  1.773205e+001 -1.700000e+001  2.000000e+000
    endloop
  endfacet
  facet normal  -0.000000e+000  -0.000000e+000  1.000000e+000
    outer loop
      vertex -1.800000e+001 -1.600000e+001  2.000000e+000
      vertex -1.773205e+001 -1.700000e+001  2.000000e+000
      vertex -1.586803e+001 -1.715211e+001  2.000000e+000
    endloop
  endfacet
  facet normal  0.000000e+000  0.000000e+000  1.000000e+000
    outer loop
      vertex -1.800000e+001 -1.600000e+001  2.000000e+000
      vertex -1.586803e+001 -1.715211e+001  2.000000e+000
      vertex -1.686803e+001 -1.642557e+001  2.000000e+000
    endloop
  endfacet
  facet normal  0.000000e+000  0.000000e+000  1.000000e+000
    outer loop
      vertex -1.800000e+001 -1.600000e+001  2.000000e+000
      vertex -1.686803e+001 -1.642557e+001  2.000000e+000
      vertex -1.725000e+001 -1.525000e+001  2.000000e+000
    endloop
  endfacet
  facet normal  0.000000e+000  -0.000000e+000  1.000000e+000
    outer loop
      vertex -1.800000e+001 -1.600000e+001  2.000000e+000
      vertex -1.725000e+001 -1.525000e+001  2.000000e+000
      vertex -1.686803e+001 -1.407443e+001  2.000000e+000
    endloop
  endfacet
  facet normal  0.000000e+000  0.000000e+000  1.000000e+000
    outer loop
      vertex -1.800000e+001 -1.600000e+001  2.000000e+000
      vertex -1.686803e+001 -1.407443e+001  2.000000e+000
      vertex -1.783387e+001  4.824113e+000  2.000000e+000
    endloop
  endfacet
  facet normal  0.000000e+000  -0.000000e+000  1.000000e+000
    outer loop
      vertex -1.800000e+001 -1.600000e+001  2.000000e+000
      vertex -1.783387e+001  4.824113e+000  2.000000e+000
      vertex -1.783387e+001  9.971922e+000  2.000000e+000
    endloop
  endfacet
  facet normal  0.000000e+000  0.000000e+000  1.000000e+000
    outer loop
      vertex -1.783387e+001  9.971922e+000  2.000000e+000
      vertex -1.465206e+001  9.971922e+000  2.000000e+000
      vertex -1.586803e+001  1.334789e+001  2.000000e+000
    endloop
  endfacet
  facet normal  0.000000e+000  0.000000e+000  9.999999e-001
    outer loop
      vertex -1.783387e+001  9.971922e+000  2.000000e+000
      vertex -1.586803e+001  1.334789e+001  2.000000e+000
      vertex -1.686803e+001  1.407443e+001  2.000000e+000
    endloop
  endfacet
  facet normal  0.000000e+000  0.000000e+000  1.000000e+000
    outer loop
      vertex -1.783387e+001  9.971922e+000  2.000000e+000
      vertex -1.686803e+001  1.407443e+001  2.000000e+000
      vertex -1.725000e+001  1.525000e+001  2.000000e+000
    endloop
  endfacet
  facet normal  0.000000e+000  0.000000e+000  1.000000e+000
    outer loop
      vertex -1.363197e+001 -1.642557e+001  2.000000e+000
      vertex -1.463197e+001 -1.715211e+001  2.000000e+000
      vertex  8.299384e+000 -8.346220e+000  2.000000e+000
    endloop
  endfacet
  facet normal  0.000000e+000  0.000000e+000  1.000000e+000
    outer loop
      vertex -1.363197e+001 -1.642557e+001  2.000000e+000
      vertex  8.299384e+000 -8.346220e+000  2.000000e+000
      vertex -2.116158e+000 -8.346220e+000  2.000000e+000
    endloop
  endfacet
  facet normal  0.000000e+000  -0.000000e+000  9.999999e-001
    outer loop
      vertex -1.363197e+001 -1.642557e+001  2.000000e+000
      vertex -2.116158e+000 -8.346220e+000  2.000000e+000
      vertex -2.116158e+000  2.188358e+000  2.000000e+000
    endloop
  endfacet
  facet normal  0.000000e+000  0.000000e+000  1.000000e+000
    outer loop
      vertex -1.363197e+001 -1.642557e+001  2.000000e+000
      vertex -2.116158e+000  2.188358e+000  2.000000e+000
      vertex -2.338475e+000  4.891782e+000  2.000000e+000
    endloop
  endfacet
  facet normal  0.000000e+000  0.000000e+000  1.000000e+000
    outer loop
      vertex -1.363197e+001 -1.642557e+001  2.000000e+000
      vertex -2.338475e+000  4.891782e+000  2.000000e+000
      vertex -1.325000e+001 -1.525000e+001  2.000000e+000
    endloop
  endfacet
  facet normal  0.000000e+000  -0.000000e+000  1.000000e+000
    outer loop
      vertex -1.600000e+001 -1.800000e+001  2.000000e+000
      vertex  1.600000e+001 -1.800000e+001  2.000000e+000
      vertex  1.700000e+001 -1.773205e+001  2.000000e+000
    endloop
  endfacet
  facet normal  0.000000e+000  0.000000e+000  1.000000e+000
    outer loop
      vertex -1.600000e+001 -1.800000e+001  2.000000e+000
      vertex  1.700000e+001 -1.773205e+001  2.000000e+000
      vertex  1.586803e+001 -1.715211e+001  2.000000e+000
    endloop
  endfacet
  facet normal  0.000000e+000  0.000000e+000  1.000000e+000
    outer loop
      vertex -1.600000e+001 -1.800000e+001  2.000000e+000
      vertex  1.586803e+001 -1.715211e+001  2.000000e+000
      vertex  1.463197e+001 -1.715211e+001  2.000000e+000
    endloop
  endfacet
  facet normal  0.000000e+000  0.000000e+000  1.000000e+000
    outer loop
      vertex -1.600000e+001 -1.800000e+001  2.000000e+000
      vertex  1.463197e+001 -1.715211e+001  2.000000e+000
      vertex  1.363197e+001 -1.642557e+001  2.000000e+000
    endloop
  endfacet
  facet normal  0.000000e+000  0.000000e+000  1.000000e+000
    outer loop
      vertex -1.600000e+001 -1.800000e+001  2.000000e+000
      vertex  1.363197e+001 -1.642557e+001  2.000000e+000
      vertex  1.325000e+001 -1.525000e+001  2.000000e+000
    endloop
  endfacet
  facet normal  0.000000e+000  -0.000000e+000  1.000000e+000
    outer loop
      vertex -1.600000e+001 -1.800000e+001  2.000000e+000
      vertex  1.325000e+001 -1.525000e+001  2.000000e+000
      vertex  1.363197e+001 -1.407443e+001  2.000000e+000
    endloop
  endfacet
  facet normal  0.000000e+000  0.000000e+000  1.000000e+000
    outer loop
      vertex -1.600000e+001 -1.800000e+001  2.000000e+000
      vertex  1.363197e+001 -1.407443e+001  2.000000e+000
      vertex  8.299384e+000 -8.346220e+000  2.000000e+000
    endloop
  endfacet
  facet normal  0.000000e+000  0.000000e+000  1.000000e+000
    outer loop
      vertex -1.600000e+001 -1.800000e+001  2.000000e+000
      vertex  8.299384e+000 -8.346220e+000  2.000000e+000
      vertex -1.463197e+001 -1.715211e+001  2.000000e+000
    endloop
  endfacet
  facet normal  0.000000e+000  0.000000e+000  1.000000e+000
    outer loop
      vertex -1.600000e+001 -1.800000e+001  2.000000e+000
      vertex -1.463197e+001 -1.715211e+001  2.000000e+000
      vertex -1.586803e+001 -1.715211e+001  2.000000e+000
    endloop
  endfacet
  facet normal  0.000000e+000  0.000000e+000  9.999999e-001
    outer loop
      vertex -1.600000e+001 -1.800000e+001  2.000000e+000
      vertex -1.586803e+001 -1.715211e+001  2.000000e+000
      vertex -1.700000e+001 -1.773205e+001  2.000000e+000
    endloop
  endfacet
  facet normal  -0.000000e+000  0.000000e+000  1.000000e+000
    outer loop
      vertex -1.600000e+001  1.800000e+001  2.000000e+000
      vertex -1.700000e+001  1.773205e+001  2.000000e+000
      vertex -1.586803e+001  1.715211e+001  2.000000e+000
    endloop
  endfacet
  facet normal  0.000000e+000  -0.000000e+000  1.000000e+000
    outer loop
      vertex -1.600000e+001  1.800000e+001  2.000000e+000
      vertex -1.586803e+001  1.715211e+001  2.000000e+000
      vertex -1.463197e+001  1.715211e+001  2.000000e+000
    endloop
  endfacet
  facet normal  -0.000000e+000  -0.000000e+000  1.000000e+000
    outer loop
      vertex -1.600000e+001  1.800000e+001  2.000000e+000
      vertex -1.463197e+001  1.715211e+001  2.000000e+000
      vertex -2.338475e+000  1.004864e+001  2.000000e+000
    endloop
  endfacet
  facet normal  -0.000000e+000  -0.000000e+000  1.000000e+000
    outer loop
      vertex -1.600000e+001  1.800000e+001  2.000000e+000
      vertex -2.338475e+000  1.004864e+001  2.000000e+000
      vertex  1.918958e+000  7.819598e+000  2.000000e+000
    endloop
  endfacet
  facet normal  0.000000e+000  -0.000000e+000  1.000000e+000
    outer loop
      vertex -1.600000e+001  1.800000e+001  2.000000e+000
      vertex  1.918958e+000  7.819598e+000  2.000000e+000
      vertex  1.363197e+001  1.642557e+001  2.000000e+000
    endloop
  endfacet
  facet normal  0.000000e+000  -0.000000e+000  1.000000e+000
    outer loop
      vertex -1.600000e+001  1.800000e+001  2.000000e+000
      vertex  1.363197e+001  1.642557e+001  2.000000e+000
      vertex  1.463197e+001  1.715211e+001  2.000000e+000
    endloop
  endfacet
  facet normal  0.000000e+000  -0.000000e+000  1.000000e+000
    outer loop
      vertex -1.600000e+001  1.800000e+001  2.000000e+000
      vertex  1.463197e+001  1.715211e+001  2.000000e+000
      vertex  1.586803e+001  1.715211e+001  2.000000e+000
    endloop
  endfacet
  facet normal  0.000000e+000  -0.000000e+000  1.000000e+000
    outer loop
      vertex -1.600000e+001  1.800000e+001  2.000000e+000
      vertex  1.586803e+001  1.715211e+001  2.000000e+000
      vertex  1.700000e+001  1.773205e+001  2.000000e+000
    endloop
  endfacet
  facet normal  0.000000e+000  0.000000e+000  1.000000e+000
    outer loop
      vertex -1.600000e+001  1.800000e+001  2.000000e+000
      vertex  1.700000e+001  1.773205e+001  2.000000e+000
      vertex  1.600000e+001  1.800000e+001  2.000000e+000
    endloop
  endfacet
  facet normal  0.000000e+000  0.000000e+000  1.000000e+000
    outer loop
      vertex -1.800000e+001  1.600000e+001  2.000000e+000
      vertex -1.800000e+001 -1.600000e+001  2.000000e+000
      vertex -1.783387e+001  9.971922e+000  2.000000e+000
    endloop
  endfacet
  facet normal  0.000000e+000  -0.000000e+000  1.000000e+000
    outer loop
      vertex -1.800000e+001  1.600000e+001  2.000000e+000
      vertex -1.783387e+001  9.971922e+000  2.000000e+000
      vertex -1.725000e+001  1.525000e+001  2.000000e+000
    endloop
  endfacet
  facet normal  0.000000e+000  -0.000000e+000  1.000000e+000
    outer loop
      vertex -1.800000e+001  1.600000e+001  2.000000e+000
      vertex -1.725000e+001  1.525000e+001  2.000000e+000
      vertex -1.686803e+001  1.642557e+001  2.000000e+000
    endloop
  endfacet
  facet normal  0.000000e+000  -0.000000e+000  1.000000e+000
    outer loop
      vertex -1.800000e+001  1.600000e+001  2.000000e+000
      vertex -1.686803e+001  1.642557e+001  2.000000e+000
      vertex -1.586803e+001  1.715211e+001  2.000000e+000
    endloop
  endfacet
  facet normal  0.000000e+000  0.000000e+000  1.000000e+000
    outer loop
      vertex -1.800000e+001  1.600000e+001  2.000000e+000
      vertex -1.586803e+001  1.715211e+001  2.000000e+000
      vertex -1.773205e+001  1.700000e+001  2.000000e+000
    endloop
  endfacet
  facet normal  0.000000e+000  -0.000000e+000  9.999999e-001
    outer loop
      vertex -2.338475e+000  4.891782e+000  2.000000e+000
      vertex -2.116158e+000  2.188358e+000  2.000000e+000
      vertex  2.116572e+000  5.544314e+000  2.000000e+000
    endloop
  endfacet
  facet normal  0.000000e+000  0.000000e+000  1.000000e+000
    outer loop
      vertex -2.338475e+000  4.891782e+000  2.000000e+000
      vertex  2.116572e+000  5.544314e+000  2.000000e+000
      vertex  1.721345e+000  5.544314e+000  2.000000e+000
    endloop
  endfacet
  facet normal  0.000000e+000  -0.000000e+000  1.000000e+000
    outer loop
      vertex -2.338475e+000  4.891782e+000  2.000000e+000
      vertex  1.721345e+000  5.544314e+000  2.000000e+000
      vertex  1.721345e+000  7.142155e+000  2.000000e+000
    endloop
  endfacet
  facet normal  0.000000e+000  0.000000e+000  1.000000e+000
    outer loop
      vertex -2.338475e+000  4.891782e+000  2.000000e+000
      vertex  1.721345e+000  7.142155e+000  2.000000e+000
      vertex  1.421345e+000  7.142155e+000  2.000000e+000
    endloop
  endfacet
  facet normal  0.000000e+000  -0.000000e+000  1.000000e+000
    outer loop
      vertex -2.338475e+000  4.891782e+000  2.000000e+000
      vertex  1.421345e+000  7.142155e+000  2.000000e+000
      vertex  1.918958e+000  7.819598e+000  2.000000e+000
    endloop
  endfacet
  facet normal  0.000000e+000  0.000000e+000  1.000000e+000
    outer loop
      vertex -2.338475e+000  4.891782e+000  2.000000e+000
      vertex  1.918958e+000  7.819598e+000  2.000000e+000
      vertex -2.338475e+000  1.004864e+001  2.000000e+000
    endloop
  endfacet
  facet normal  0.000000e+000  0.000000e+000  1.000000e+000
    outer loop
      vertex  1.322560e+001  2.991596e+000  2.000000e+000
      vertex  1.918958e+000  7.819598e+000  2.000000e+000
      vertex  2.416572e+000  7.142155e+000  2.000000e+000
    endloop
  endfacet
  facet normal  0.000000e+000  0.000000e+000  1.000000e+000
    outer loop
      vertex  1.322560e+001  2.991596e+000  2.000000e+000
      vertex  2.416572e+000  7.142155e+000  2.000000e+000
      vertex  2.116572e+000  7.142155e+000  2.000000e+000
    endloop
  endfacet
  facet normal  0.000000e+000  0.000000e+000  1.000000e+000
    outer loop
      vertex  1.322560e+001  2.991596e+000  2.000000e+000
      vertex  2.116572e+000  7.142155e+000  2.000000e+000
      vertex  2.116572e+000  5.544314e+000  2.000000e+000
    endloop
  endfacet
  facet normal  0.000000e+000  0.000000e+000  9.999999e-001
    outer loop
      vertex  1.322560e+001  2.991596e+000  2.000000e+000
      vertex  2.116572e+000  5.544314e+000  2.000000e+000
      vertex -2.116158e+000  2.188358e+000  2.000000e+000
    endloop
  endfacet
  facet normal  0.000000e+000  0.000000e+000  1.000000e+000
    outer loop
      vertex  1.322560e+001  2.991596e+000  2.000000e+000
      vertex -2.116158e+000  2.188358e+000  2.000000e+000
      vertex  8.299384e+000  2.188358e+000  2.000000e+000
    endloop
  endfacet
  facet normal  -0.000000e+000  0.000000e+000  1.000000e+000
    outer loop
      vertex  1.322560e+001  2.991596e+000  2.000000e+000
      vertex  8.299384e+000  2.188358e+000  2.000000e+000
      vertex  8.299384e+000 -8.346220e+000  2.000000e+000
    endloop
  endfacet
  facet normal  -0.000000e+000  0.000000e+000  1.000000e+000
    outer loop
      vertex  1.322560e+001  2.991596e+000  2.000000e+000
      vertex  8.299384e+000 -8.346220e+000  2.000000e+000
      vertex  1.463197e+001 -1.334789e+001  2.000000e+000
    endloop
  endfacet
  facet normal  0.000000e+000  -0.000000e+000  1.000000e+000
    outer loop
      vertex  1.322560e+001  2.991596e+000  2.000000e+000
      vertex  1.463197e+001 -1.334789e+001  2.000000e+000
      vertex  1.586803e+001 -1.334789e+001  2.000000e+000
    endloop
  endfacet
  facet normal  -0.000000e+000  -0.000000e+000  1.000000e+000
    outer loop
      vertex  1.322560e+001  2.991596e+000  2.000000e+000
      vertex  1.586803e+001 -1.334789e+001  2.000000e+000
      vertex  1.686803e+001 -1.407443e+001  2.000000e+000
    endloop
  endfacet
  facet normal  0.000000e+000  0.000000e+000  1.000000e+000
    outer loop
      vertex  1.785983e+001  1.186142e+001  2.000000e+000
      vertex  1.725000e+001  1.525000e+001  2.000000e+000
      vertex  1.686803e+001  1.407443e+001  2.000000e+000
    endloop
  endfacet
  facet normal  0.000000e+000  0.000000e+000  9.999999e-001
    outer loop
      vertex  1.785983e+001  1.186142e+001  2.000000e+000
      vertex  1.686803e+001  1.407443e+001  2.000000e+000
      vertex  1.586803e+001  1.334789e+001  2.000000e+000
    endloop
  endfacet
  facet normal  0.000000e+000  0.000000e+000  1.000000e+000
    outer loop
      vertex  1.785983e+001  1.186142e+001  2.000000e+000
      vertex  1.586803e+001  1.334789e+001  2.000000e+000
      vertex  1.463197e+001  1.334789e+001  2.000000e+000
    endloop
  endfacet
  facet normal  0.000000e+000  0.000000e+000  1.000000e+000
    outer loop
      vertex  1.785983e+001  1.186142e+001  2.000000e+000
      vertex  1.463197e+001  1.334789e+001  2.000000e+000
      vertex  1.322560e+001  1.186142e+001  2.000000e+000
    endloop
  endfacet
  facet normal  0.000000e+000  0.000000e+000  1.000000e+000
    outer loop
      vertex -1.325000e+001 -1.525000e+001  2.000000e+000
      vertex -2.338475e+000  4.891782e+000  2.000000e+000
      vertex -1.363197e+001 -1.407443e+001  2.000000e+000
    endloop
  endfacet
  facet normal  0.000000e+000  -0.000000e+000  1.000000e+000
    outer loop
      vertex -1.363197e+001 -1.407443e+001  2.000000e+000
      vertex -2.338475e+000  4.891782e+000  2.000000e+000
      vertex -1.379815e+001  4.891782e+000  2.000000e+000
    endloop
  endfacet
  facet normal  0.000000e+000  0.000000e+000  1.000000e+000
    outer loop
      vertex -1.363197e+001 -1.407443e+001  2.000000e+000
      vertex -1.379815e+001  4.891782e+000  2.000000e+000
      vertex -1.463197e+001 -1.334789e+001  2.000000e+000
    endloop
  endfacet
  facet normal  0.000000e+000  -0.000000e+000  1.000000e+000
    outer loop
      vertex -1.463197e+001 -1.334789e+001  2.000000e+000
      vertex -1.379815e+001  4.891782e+000  2.000000e+000
      vertex -1.465206e+001  4.824113e+000  2.000000e+000
    endloop
  endfacet
  facet normal  0.000000e+000  0.000000e+000  1.000000e+000
    outer loop
      vertex -1.463197e+001 -1.334789e+001  2.000000e+000
      vertex -1.465206e+001  4.824113e+000  2.000000e+000
      vertex -1.586803e+001 -1.334789e+001  2.000000e+000
    endloop
  endfacet
  facet normal  0.000000e+000  -0.000000e+000  9.999999e-001
    outer loop
      vertex -1.586803e+001 -1.334789e+001  2.000000e+000
      vertex -1.465206e+001  4.824113e+000  2.000000e+000
      vertex -1.783387e+001  4.824113e+000  2.000000e+000
    endloop
  endfacet
  facet normal  0.000000e+000  0.000000e+000  1.000000e+000
    outer loop
      vertex -1.586803e+001 -1.334789e+001  2.000000e+000
      vertex -1.783387e+001  4.824113e+000  2.000000e+000
      vertex -1.686803e+001 -1.407443e+001  2.000000e+000
    endloop
  endfacet
  facet normal  0.000000e+000  0.000000e+000  1.000000e+000
    outer loop
      vertex -1.465206e+001  4.824113e+000  2.000000e+000
      vertex -1.379815e+001  4.891782e+000  2.000000e+000
      vertex -1.465206e+001  9.971922e+000  2.000000e+000
    endloop
  endfacet
  facet normal  -0.000000e+000  0.000000e+000  9.999999e-001
    outer loop
      vertex -1.465206e+001  9.971922e+000  2.000000e+000
      vertex -1.379815e+001  4.891782e+000  2.000000e+000
      vertex -1.379815e+001  1.004864e+001  2.000000e+000
    endloop
  endfacet
  facet normal  0.000000e+000  0.000000e+000  9.999999e-001
    outer loop
      vertex -1.465206e+001  9.971922e+000  2.000000e+000
      vertex -1.379815e+001  1.004864e+001  2.000000e+000
      vertex -1.586803e+001  1.334789e+001  2.000000e+000
    endloop
  endfacet
  facet normal  -0.000000e+000  0.000000e+000  1.000000e+000
    outer loop
      vertex -1.586803e+001  1.334789e+001  2.000000e+000
      vertex -1.379815e+001  1.004864e+001  2.000000e+000
      vertex -1.463197e+001  1.334789e+001  2.000000e+000
    endloop
  endfacet
  facet normal -9.999999e-001  0.000000e+000  0.000000e+000
    outer loop
      vertex  1.721345e+000  7.142155e+000  2.000000e+000
      vertex  1.721345e+000  5.544314e+000  2.000000e+000
      vertex  1.721345e+000  7.142155e+000  2.100000e+000
    endloop
  endfacet
  facet normal -9.999999e-001  -0.000000e+000  0.000000e+000
    outer loop
      vertex  1.721345e+000  7.142155e+000  2.100000e+000
      vertex  1.721345e+000  5.544314e+000  2.000000e+000
      vertex  1.721345e+000  5.544314e+000  2.100000e+000
    endloop
  endfacet
  facet normal  0.000000e+000 -9.999999e-001  0.000000e+000
    outer loop
      vertex  1.721345e+000  5.544314e+000  2.000000e+000
      vertex  2.116572e+000  5.544314e+000  2.000000e+000
      vertex  1.721345e+000  5.544314e+000  2.100000e+000
    endloop
  endfacet
  facet normal  0.000000e+000 -9.999999e-001  0.000000e+000
    outer loop
      vertex  1.721345e+000  5.544314e+000  2.100000e+000
      vertex  2.116572e+000  5.544314e+000  2.000000e+000
      vertex  2.116572e+000  5.544314e+000  2.100000e+000
    endloop
  endfacet
  facet normal  9.999999e-001  0.000000e+000  0.000000e+000
    outer loop
      vertex  2.116572e+000  5.544314e+000  2.000000e+000
      vertex  2.116572e+000  7.142155e+000  2.000000e+000
      vertex  2.116572e+000  5.544314e+000  2.100000e+000
    endloop
  endfacet
  facet normal  9.999999e-001  -0.000000e+000  0.000000e+000
    outer loop
      vertex  2.116572e+000  5.544314e+000  2.100000e+000
      vertex  2.116572e+000  7.142155e+000  2.000000e+000
      vertex  2.116572e+000  7.142155e+000  2.100000e+000
    endloop
  endfacet
  facet normal  0.000000e+000 -9.999999e-001  0.000000e+000
    outer loop
      vertex  2.116572e+000  7.142155e+000  2.000000e+000
      vertex  2.416572e+000  7.142155e+000  2.000000e+000
      vertex  2.116572e+000  7.142155e+000  2.100000e+000
    endloop
  endfacet
  facet normal  0.000000e+000 -9.999999e-001  0.000000e+000
    outer loop
      vertex  2.116572e+000  7.142155e+000  2.100000e+000
      vertex  2.416572e+000  7.142155e+000  2.000000e+000
      vertex  2.416572e+000  7.142155e+000  2.100000e+000
    endloop
  endfacet
  facet normal  8.059388e-001  5.919989e-001  0.000000e+000
    outer loop
      vertex  1.918958e+000  7.819598e+000  2.000000e+000
      vertex  1.918958e+000  7.819598e+000  2.100000e+000
      vertex  2.416572e+000  7.142155e+000  2.000000e+000
    endloop
  endfacet
  facet normal  8.059388e-001  5.919989e-001  -0.000000e+000
    outer loop
      vertex  2.416572e+000  7.142155e+000  2.000000e+000
      vertex  1.918958e+000  7.819598e+000  2.100000e+000
      vertex  2.416572e+000  7.142155e+000  2.100000e+000
    endloop
  endfacet
  facet normal -8.059388e-001  5.919989e-001  0.000000e+000
    outer loop
      vertex  1.421345e+000  7.142155e+000  2.000000e+000
      vertex  1.421345e+000  7.142155e+000  2.100000e+000
      vertex  1.918958e+000  7.819598e+000  2.000000e+000
    endloop
  endfacet
  facet normal -8.059388e-001  5.919989e-001  0.000000e+000
    outer loop
      vertex  1.918958e+000  7.819598e+000  2.000000e+000
      vertex  1.421345e+000  7.142155e+000  2.100000e+000
      vertex  1.918958e+000  7.819598e+000  2.100000e+000
    endloop
  endfacet
  facet normal  0.000000e+000 -9.999999e-001  0.000000e+000
    outer loop
      vertex  1.421345e+000  7.142155e+000  2.000000e+000
      vertex  1.721345e+000  7.142155e+000  2.000000e+000
      vertex  1.421345e+000  7.142155e+000  2.100000e+000
    endloop
  endfacet
  facet normal  0.000000e+000 -9.999999e-001  0.000000e+000
    outer loop
      vertex  1.421345e+000  7.142155e+000  2.100000e+000
      vertex  1.721345e+000  7.142155e+000  2.000000e+000
      vertex  1.721345e+000  7.142155e+000  2.100000e+000
    endloop
  endfacet
  facet normal  0.000000e+000  0.000000e+000  1.000000e+000
    outer loop
      vertex  1.721345e+000  7.142155e+000  2.100000e+000
      vertex  1.918958e+000  7.819598e+000  2.100000e+000
      vertex  1.421345e+000  7.142155e+000  2.100000e+000
    endloop
  endfacet
  facet normal  0.000000e+000  0.000000e+000  1.000000e+000
    outer loop
      vertex  2.116572e+000  7.142155e+000  2.100000e+000
      vertex  2.416572e+000  7.142155e+000  2.100000e+000
      vertex  1.918958e+000  7.819598e+000  2.100000e+000
    endloop
  endfacet
  facet normal  0.000000e+000  0.000000e+000  1.000000e+000
    outer loop
      vertex  2.116572e+000  7.142155e+000  2.100000e+000
      vertex  1.918958e+000  7.819598e+000  2.100000e+000
      vertex  1.721345e+000  7.142155e+000  2.100000e+000
    endloop
  endfacet
  facet normal  -0.000000e+000  0.000000e+000  1.000000e+000
    outer loop
      vertex  2.116572e+000  7.142155e+000  2.100000e+000
      vertex  1.721345e+000  7.142155e+000  2.100000e+000
      vertex  1.721345e+000  5.544314e+000  2.100000e+000
    endloop
  endfacet
  facet normal  0.000000e+000  0.000000e+000  1.000000e+000
    outer loop
      vertex  2.116572e+000  7.142155e+000  2.100000e+000
      vertex  1.721345e+000  5.544314e+000  2.100000e+000
      vertex  2.116572e+000  5.544314e+000  2.100000e+000
    endloop
  endfacet
  facet normal -1.000000e+000  0.000000e+000  0.000000e+000
    outer loop
      vertex -1.771875e+001  2.755864e+000 -2.300000e+000
      vertex -1.771875e+001 -1.218291e+001 -2.300000e+000
      vertex -1.771875e+001  2.755864e+000  0.000000e+000
    endloop
  endfacet
  facet normal -1.000000e+000  -0.000000e+000  0.000000e+000
    outer loop
      vertex -1.771875e+001  2.755864e+000  0.000000e+000
      vertex -1.771875e+001 -1.218291e+001 -2.300000e+000
      vertex -1.771875e+001 -1.218291e+001  0.000000e+000
    endloop
  endfacet
  facet normal  0.000000e+000  9.999999e-001  0.000000e+000
    outer loop
      vertex -2.274246e+000  2.755864e+000 -2.300000e+000
      vertex -1.771875e+001  2.755864e+000 -2.300000e+000
      vertex -2.274246e+000  2.755864e+000  0.000000e+000
    endloop
  endfacet
  facet normal  0.000000e+000  9.999999e-001  0.000000e+000
    outer loop
      vertex -2.274246e+000  2.755864e+000  0.000000e+000
      vertex -1.771875e+001  2.755864e+000 -2.300000e+000
      vertex -1.771875e+001  2.755864e+000  0.000000e+000
    endloop
  endfacet
  facet normal  1.000000e+000  0.000000e+000  0.000000e+000
    outer loop
      vertex -2.274246e+000 -1.218291e+001 -2.300000e+000
      vertex -2.274246e+000  2.755864e+000 -2.300000e+000
      vertex -2.274246e+000 -1.218291e+001  0.000000e+000
    endloop
  endfacet
  facet normal  1.000000e+000  -0.000000e+000  0.000000e+000
    outer loop
      vertex -2.274246e+000 -1.218291e+001  0.000000e+000
      vertex -2.274246e+000  2.755864e+000 -2.300000e+000
      vertex -2.274246e+000  2.755864e+000  0.000000e+000
    endloop
  endfacet
  facet normal  0.000000e+000 -9.999999e-001  0.000000e+000
    outer loop
      vertex -1.771875e+001 -1.218291e+001 -2.300000e+000
      vertex -2.274246e+000 -1.218291e+001 -2.300000e+000
      vertex -1.771875e+001 -1.218291e+001  0.000000e+000
    endloop
  endfacet
  facet normal  0.000000e+000 -9.999999e-001  0.000000e+000
    outer loop
      vertex -1.771875e+001 -1.218291e+001  0.000000e+000
      vertex -2.274246e+000 -1.218291e+001 -2.300000e+000
      vertex -2.274246e+000 -1.218291e+001  0.000000e+000
    endloop
  endfacet
  facet normal  0.000000e+000  0.000000e+000 -9.999999e-001
    outer loop
      vertex -1.771875e+001 -1.218291e+001 -2.300000e+000
      vertex -1.771875e+001  2.755864e+000 -2.300000e+000
      vertex -2.274246e+000 -1.218291e+001 -2.300000e+000
    endloop
  endfacet
  facet normal  0.000000e+000  0.000000e+000 -9.999999e-001
    outer loop
      vertex -2.274246e+000 -1.218291e+001 -2.300000e+000
      vertex -1.771875e+001  2.755864e+000 -2.300000e+000
      vertex -2.274246e+000  2.755864e+000 -2.300000e+000
    endloop
  endfacet
  facet normal -1.000000e+000  0.000000e+000  0.000000e+000
    outer loop
      vertex -1.783387e+001  9.971922e+000  3.200000e+000
      vertex -1.783387e+001  9.971922e+000  2.000000e+000
      vertex -1.783387e+001  4.824113e+000  3.200000e+000
    endloop
  endfacet
  facet normal -1.000000e+000  0.000000e+000  0.000000e+000
    outer loop
      vertex -1.783387e+001  4.824113e+000  3.200000e+000
      vertex -1.783387e+001  9.971922e+000  2.000000e+000
      vertex -1.783387e+001  4.824113e+000  2.000000e+000
    endloop
  endfacet
  facet normal  0.000000e+000 -1.000000e+000  -0.000000e+000
    outer loop
      vertex -1.465206e+001  4.824113e+000  2.000000e+000
      vertex -1.465206e+001  4.824113e+000  3.200000e+000
      vertex -1.783387e+001  4.824113e+000  2.000000e+000
    endloop
  endfacet
  facet normal  0.000000e+000 -1.000000e+000  0.000000e+000
    outer loop
      vertex -1.783387e+001  4.824113e+000  2.000000e+000
      vertex -1.465206e+001  4.824113e+000  3.200000e+000
      vertex -1.783387e+001  4.824113e+000  3.200000e+000
    endloop
  endfacet
  facet normal  1.000000e+000  0.000000e+000  0.000000e+000
    outer loop
      vertex -1.465206e+001  4.824113e+000  3.200000e+000
      vertex -1.465206e+001  4.824113e+000  2.000000e+000
      vertex -1.465206e+001  9.971922e+000  3.200000e+000
    endloop
  endfacet
  facet normal  1.000000e+000  0.000000e+000  0.000000e+000
    outer loop
      vertex -1.465206e+001  9.971922e+000  3.200000e+000
      vertex -1.465206e+001  4.824113e+000  2.000000e+000
      vertex -1.465206e+001  9.971922e+000  2.000000e+000
    endloop
  endfacet
  facet normal  0.000000e+000  1.000000e+000  0.000000e+000
    outer loop
      vertex -1.783387e+001  9.971922e+000  2.000000e+000
      vertex -1.783387e+001  9.971922e+000  3.200000e+000
      vertex -1.465206e+001  9.971922e+000  2.000000e+000
    endloop
  endfacet
  facet normal  0.000000e+000  1.000000e+000  -0.000000e+000
    outer loop
      vertex -1.465206e+001  9.971922e+000  2.000000e+000
      vertex -1.783387e+001  9.971922e+000  3.200000e+000
      vertex -1.465206e+001  9.971922e+000  3.200000e+000
    endloop
  endfacet
  facet normal  0.000000e+000  0.000000e+000  1.000000e+000
    outer loop
      vertex -1.783387e+001  4.824113e+000  3.200000e+000
      vertex -1.465206e+001  4.824113e+000  3.200000e+000
      vertex -1.783387e+001  9.971922e+000  3.200000e+000
    endloop
  endfacet
  facet normal  -0.000000e+000  0.000000e+000  1.000000e+000
    outer loop
      vertex -1.783387e+001  9.971922e+000  3.200000e+000
      vertex -1.465206e+001  4.824113e+000  3.200000e+000
      vertex -1.465206e+001  9.971922e+000  3.200000e+000
    endloop
  endfacet
  facet normal  0.000000e+000  1.000000e+000  0.000000e+000
    outer loop
      vertex -1.600000e+001  1.800000e+001  2.000000e+000
      vertex  1.600000e+001  1.800000e+001  2.000000e+000
      vertex -1.600000e+001  1.800000e+001  0.000000e+000
    endloop
  endfacet
  facet normal  0.000000e+000  1.000000e+000  0.000000e+000
    outer loop
      vertex -1.600000e+001  1.800000e+001  0.000000e+000
      vertex  1.600000e+001  1.800000e+001  2.000000e+000
      vertex  1.600000e+001  1.800000e+001  0.000000e+000
    endloop
  endfacet
  facet normal  1.000000e+000  -0.000000e+000  0.000000e+000
    outer loop
      vertex  1.800000e+001  1.600000e+001  2.000000e+000
      vertex  1.800000e+001 -1.600000e+001  2.000000e+000
      vertex  1.800000e+001  1.600000e+001  0.000000e+000
    endloop
  endfacet
  facet normal  1.000000e+000  0.000000e+000  0.000000e+000
    outer loop
      vertex  1.800000e+001  1.600000e+001  0.000000e+000
      vertex  1.800000e+001 -1.600000e+001  2.000000e+000
      vertex  1.800000e+001 -1.600000e+001  0.000000e+000
    endloop
  endfacet
  facet normal  2.588198e-001  9.659256e-001  0.000000e+000
    outer loop
      vertex  1.600000e+001  1.800000e+001  0.000000e+000
      vertex  1.600000e+001  1.800000e+001  2.000000e+000
      vertex  1.700000e+001  1.773205e+001  0.000000e+000
    endloop
  endfacet
  facet normal  2.588198e-001  9.659256e-001  -0.000000e+000
    outer loop
      vertex  1.700000e+001  1.773205e+001  0.000000e+000
      vertex  1.600000e+001  1.800000e+001  2.000000e+000
      vertex  1.700000e+001  1.773205e+001  2.000000e+000
    endloop
  endfacet
  facet normal  7.071068e-001  7.071068e-001  0.000000e+000
    outer loop
      vertex  1.700000e+001  1.773205e+001  0.000000e+000
      vertex  1.700000e+001  1.773205e+001  2.000000e+000
      vertex  1.773205e+001  1.700000e+001  0.000000e+000
    endloop
  endfacet
  facet normal  7.071068e-001  7.071068e-001  -0.000000e+000
    outer loop
      vertex  1.773205e+001  1.700000e+001  0.000000e+000
      vertex  1.700000e+001  1.773205e+001  2.000000e+000
      vertex  1.773205e+001  1.700000e+001  2.000000e+000
    endloop
  endfacet
  facet normal  9.659256e-001  2.588198e-001  0.000000e+000
    outer loop
      vertex  1.773205e+001  1.700000e+001  0.000000e+000
      vertex  1.773205e+001  1.700000e+001  2.000000e+000
      vertex  1.800000e+001  1.600000e+001  0.000000e+000
    endloop
  endfacet
  facet normal  9.659256e-001  2.588198e-001  -0.000000e+000
    outer loop
      vertex  1.800000e+001  1.600000e+001  0.000000e+000
      vertex  1.773205e+001  1.700000e+001  2.000000e+000
      vertex  1.800000e+001  1.600000e+001  2.000000e+000
    endloop
  endfacet
  facet normal -1.000000e+000  -0.000000e+000  0.000000e+000
    outer loop
      vertex -1.800000e+001 -1.600000e+001  2.000000e+000
      vertex -1.800000e+001  1.600000e+001  2.000000e+000
      vertex -1.800000e+001 -1.600000e+001  0.000000e+000
    endloop
  endfacet
  facet normal -1.000000e+000  0.000000e+000  0.000000e+000
    outer loop
      vertex -1.800000e+001 -1.600000e+001  0.000000e+000
      vertex -1.800000e+001  1.600000e+001  2.000000e+000
      vertex -1.800000e+001  1.600000e+001  0.000000e+000
    endloop
  endfacet
  facet normal -9.659256e-001  2.588198e-001  0.000000e+000
    outer loop
      vertex -1.800000e+001  1.600000e+001  0.000000e+000
      vertex -1.800000e+001  1.600000e+001  2.000000e+000
      vertex -1.773205e+001  1.700000e+001  0.000000e+000
    endloop
  endfacet
  facet normal -9.659256e-001  2.588198e-001  0.000000e+000
    outer loop
      vertex -1.773205e+001  1.700000e+001  0.000000e+000
      vertex -1.800000e+001  1.600000e+001  2.000000e+000
      vertex -1.773205e+001  1.700000e+001  2.000000e+000
    endloop
  endfacet
  facet normal -7.071068e-001  7.071068e-001  0.000000e+000
    outer loop
      vertex -1.773205e+001  1.700000e+001  0.000000e+000
      vertex -1.773205e+001  1.700000e+001  2.000000e+000
      vertex -1.700000e+001  1.773205e+001  0.000000e+000
    endloop
  endfacet
  facet normal -7.071068e-001  7.071068e-001  0.000000e+000
    outer loop
      vertex -1.700000e+001  1.773205e+001  0.000000e+000
      vertex -1.773205e+001  1.700000e+001  2.000000e+000
      vertex -1.700000e+001  1.773205e+001  2.000000e+000
    endloop
  endfacet
  facet normal -2.588198e-001  9.659256e-001  0.000000e+000
    outer loop
      vertex -1.700000e+001  1.773205e+001  0.000000e+000
      vertex -1.700000e+001  1.773205e+001  2.000000e+000
      vertex -1.600000e+001  1.800000e+001  0.000000e+000
    endloop
  endfacet
  facet normal -2.588198e-001  9.659256e-001  0.000000e+000
    outer loop
      vertex -1.600000e+001  1.800000e+001  0.000000e+000
      vertex -1.700000e+001  1.773205e+001  2.000000e+000
      vertex -1.600000e+001  1.800000e+001  2.000000e+000
    endloop
  endfacet
  facet normal  0.000000e+000 -1.000000e+000  0.000000e+000
    outer loop
      vertex  1.600000e+001 -1.800000e+001  2.000000e+000
      vertex -1.600000e+001 -1.800000e+001  2.000000e+000
      vertex  1.600000e+001 -1.800000e+001  0.000000e+000
    endloop
  endfacet
  facet normal  0.000000e+000 -1.000000e+000  0.000000e+000
    outer loop
      vertex  1.600000e+001 -1.800000e+001  0.000000e+000
      vertex -1.600000e+001 -1.800000e+001  2.000000e+000
      vertex -1.600000e+001 -1.800000e+001  0.000000e+000
    endloop
  endfacet
  facet normal -2.588198e-001 -9.659256e-001  -0.000000e+000
    outer loop
      vertex -1.600000e+001 -1.800000e+001  0.000000e+000
      vertex -1.600000e+001 -1.800000e+001  2.000000e+000
      vertex -1.700000e+001 -1.773205e+001  0.000000e+000
    endloop
  endfacet
  facet normal -2.588198e-001 -9.659256e-001  0.000000e+000
    outer loop
      vertex -1.700000e+001 -1.773205e+001  0.000000e+000
      vertex -1.600000e+001 -1.800000e+001  2.000000e+000
      vertex -1.700000e+001 -1.773205e+001  2.000000e+000
    endloop
  endfacet
  facet normal -7.071068e-001 -7.071068e-001  -0.000000e+000
    outer loop
      vertex -1.700000e+001 -1.773205e+001  0.000000e+000
      vertex -1.700000e+001 -1.773205e+001  2.000000e+000
      vertex -1.773205e+001 -1.700000e+001  0.000000e+000
    endloop
  endfacet
  facet normal -7.071068e-001 -7.071068e-001  0.000000e+000
    outer loop
      vertex -1.773205e+001 -1.700000e+001  0.000000e+000
      vertex -1.700000e+001 -1.773205e+001  2.000000e+000
      vertex -1.773205e+001 -1.700000e+001  2.000000e+000
    endloop
  endfacet
  facet normal -9.659256e-001 -2.588198e-001  -0.000000e+000
    outer loop
      vertex -1.773205e+001 -1.700000e+001  0.000000e+000
      vertex -1.773205e+001 -1.700000e+001  2.000000e+000
      vertex -1.800000e+001 -1.600000e+001  0.000000e+000
    endloop
  endfacet
  facet normal -9.659256e-001 -2.588198e-001  0.000000e+000
    outer loop
      vertex -1.800000e+001 -1.600000e+001  0.000000e+000
      vertex -1.773205e+001 -1.700000e+001  2.000000e+000
      vertex -1.800000e+001 -1.600000e+001  2.000000e+000
    endloop
  endfacet
  facet normal  9.659256e-001 -2.588198e-001  0.000000e+000
    outer loop
      vertex  1.800000e+001 -1.600000e+001  0.000000e+000
      vertex  1.800000e+001 -1.600000e+001  2.000000e+000
      vertex  1.773205e+001 -1.700000e+001  0.000000e+000
    endloop
  endfacet
  facet normal  9.659256e-001 -2.588198e-001  0.000000e+000
    outer loop
      vertex  1.773205e+001 -1.700000e+001  0.000000e+000
      vertex  1.800000e+001 -1.600000e+001  2.000000e+000
      vertex  1.773205e+001 -1.700000e+001  2.000000e+000
    endloop
  endfacet
  facet normal  7.071068e-001 -7.071068e-001  0.000000e+000
    outer loop
      vertex  1.773205e+001 -1.700000e+001  0.000000e+000
      vertex  1.773205e+001 -1.700000e+001  2.000000e+000
      vertex  1.700000e+001 -1.773205e+001  0.000000e+000
    endloop
  endfacet
  facet normal  7.071068e-001 -7.071068e-001  0.000000e+000
    outer loop
      vertex  1.700000e+001 -1.773205e+001  0.000000e+000
      vertex  1.773205e+001 -1.700000e+001  2.000000e+000
      vertex  1.700000e+001 -1.773205e+001  2.000000e+000
    endloop
  endfacet
  facet normal  2.588198e-001 -9.659256e-001  0.000000e+000
    outer loop
      vertex  1.700000e+001 -1.773205e+001  0.000000e+000
      vertex  1.700000e+001 -1.773205e+001  2.000000e+000
      vertex  1.600000e+001 -1.800000e+001  0.000000e+000
    endloop
  endfacet
  facet normal  2.588198e-001 -9.659256e-001  0.000000e+000
    outer loop
      vertex  1.600000e+001 -1.800000e+001  0.000000e+000
      vertex  1.700000e+001 -1.773205e+001  2.000000e+000
      vertex  1.600000e+001 -1.800000e+001  2.000000e+000
    endloop
  endfacet
  facet normal -1.000000e+000  0.000000e+000  0.000000e+000
    outer loop
      vertex -1.379815e+001  1.004864e+001  3.000000e+000
      vertex -1.379815e+001  1.004864e+001  2.000000e+000
      vertex -1.379815e+001  4.891782e+000  3.000000e+000
    endloop
  endfacet
  facet normal -1.000000e+000  0.000000e+000  0.000000e+000
    outer loop
      vertex -1.379815e+001  4.891782e+000  3.000000e+000
      vertex -1.379815e+001  1.004864e+001  2.000000e+000
      vertex -1.379815e+001  4.891782e+000  2.000000e+000
    endloop
  endfacet
  facet normal  0.000000e+000 -1.000000e+000  0.000000e+000
    outer loop
      vertex -2.338475e+000  4.891782e+000  3.000000e+000
      vertex -1.379815e+001  4.891782e+000  3.000000e+000
      vertex -2.338475e+000  4.891782e+000  2.000000e+000
    endloop
  endfacet
  facet normal  0.000000e+000 -1.000000e+000  0.000000e+000
    outer loop
      vertex -2.338475e+000  4.891782e+000  2.000000e+000
      vertex -1.379815e+001  4.891782e+000  3.000000e+000
      vertex -1.379815e+001  4.891782e+000  2.000000e+000
    endloop
  endfacet
  facet normal  1.000000e+000  0.000000e+000  0.000000e+000
    outer loop
      vertex -2.338475e+000  4.891782e+000  3.000000e+000
      vertex -2.338475e+000  4.891782e+000  2.000000e+000
      vertex -2.338475e+000  1.004864e+001  3.000000e+000
    endloop
  endfacet
  facet normal  1.000000e+000  0.000000e+000  0.000000e+000
    outer loop
      vertex -2.338475e+000  1.004864e+001  3.000000e+000
      vertex -2.338475e+000  4.891782e+000  2.000000e+000
      vertex -2.338475e+000  1.004864e+001  2.000000e+000
    endloop
  endfacet
  facet normal  0.000000e+000  1.000000e+000  0.000000e+000
    outer loop
      vertex -1.379815e+001  1.004864e+001  3.000000e+000
      vertex -2.338475e+000  1.004864e+001  3.000000e+000
      vertex -1.379815e+001  1.004864e+001  2.000000e+000
    endloop
  endfacet
  facet normal  0.000000e+000  1.000000e+000  0.000000e+000
    outer loop
      vertex -1.379815e+001  1.004864e+001  2.000000e+000
      vertex -2.338475e+000  1.004864e+001  3.000000e+000
      vertex -2.338475e+000  1.004864e+001  2.000000e+000
    endloop
  endfacet
  facet normal  0.000000e+000  0.000000e+000  1.000000e+000
    outer loop
      vertex -1.379815e+001  4.891782e+000  3.000000e+000
      vertex -2.338475e+000  4.891782e+000  3.000000e+000
      vertex -1.379815e+001  1.004864e+001  3.000000e+000
    endloop
  endfacet
  facet normal  -0.000000e+000  0.000000e+000  1.000000e+000
    outer loop
      vertex -1.379815e+001  1.004864e+001  3.000000e+000
      vertex -2.338475e+000  4.891782e+000  3.000000e+000
      vertex -2.338475e+000  1.004864e+001  3.000000e+000
    endloop
  endfacet
  facet normal  0.000000e+000  9.999999e-001  0.000000e+000
    outer loop
      vertex -2.116158e+000  2.188358e+000  3.000000e+000
      vertex  8.299384e+000  2.188358e+000  3.000000e+000
      vertex -2.116158e+000  2.188358e+000  2.000000e+000
    endloop
  endfacet
  facet normal  0.000000e+000  9.999999e-001  0.000000e+000
    outer loop
      vertex -2.116158e+000  2.188358e+000  2.000000e+000
      vertex  8.299384e+000  2.188358e+000  3.000000e+000
      vertex  8.299384e+000  2.188358e+000  2.000000e+000
    endloop
  endfacet
  facet normal -9.999999e-001  -0.000000e+000  0.000000e+000
    outer loop
      vertex -2.116158e+000 -8.346220e+000  3.000000e+000
      vertex -2.116158e+000  2.188358e+000  3.000000e+000
      vertex -2.116158e+000 -8.346220e+000  2.000000e+000
    endloop
  endfacet
  facet normal -9.999999e-001  0.000000e+000  0.000000e+000
    outer loop
      vertex -2.116158e+000 -8.346220e+000  2.000000e+000
      vertex -2.116158e+000  2.188358e+000  3.000000e+000
      vertex -2.116158e+000  2.188358e+000  2.000000e+000
    endloop
  endfacet
  facet normal  0.000000e+000 -9.999999e-001  0.000000e+000
    outer loop
      vertex  8.299384e+000 -8.346220e+000  3.000000e+000
      vertex -2.116158e+000 -8.346220e+000  3.000000e+000
      vertex  8.299384e+000 -8.346220e+000  2.000000e+000
    endloop
  endfacet
  facet normal  0.000000e+000 -9.999999e-001  0.000000e+000
    outer loop
      vertex  8.299384e+000 -8.346220e+000  2.000000e+000
      vertex -2.116158e+000 -8.346220e+000  3.000000e+000
      vertex -2.116158e+000 -8.346220e+000  2.000000e+000
    endloop
  endfacet
  facet normal  9.999999e-001  -0.000000e+000  0.000000e+000
    outer loop
      vertex  8.299384e+000  2.188358e+000  3.000000e+000
      vertex  8.299384e+000 -8.346220e+000  3.000000e+000
      vertex  8.299384e+000  2.188358e+000  2.000000e+000
    endloop
  endfacet
  facet normal  9.999999e-001  0.000000e+000  0.000000e+000
    outer loop
      vertex  8.299384e+000  2.188358e+000  2.000000e+000
      vertex  8.299384e+000 -8.346220e+000  3.000000e+000
      vertex  8.299384e+000 -8.346220e+000  2.000000e+000
    endloop
  endfacet
  facet normal  0.000000e+000  0.000000e+000  1.000000e+000
    outer loop
      vertex -2.116158e+000 -8.346220e+000  3.000000e+000
      vertex  8.299384e+000 -8.346220e+000  3.000000e+000
      vertex -2.116158e+000  2.188358e+000  3.000000e+000
    endloop
  endfacet
  facet normal  -0.000000e+000  0.000000e+000  1.000000e+000
    outer loop
      vertex -2.116158e+000  2.188358e+000  3.000000e+000
      vertex  8.299384e+000 -8.346220e+000  3.000000e+000
      vertex  8.299384e+000  2.188358e+000  3.000000e+000
    endloop
  endfacet
  facet normal  0.000000e+000  1.000000e+000  0.000000e+000
    outer loop
      vertex  1.322560e+001  1.186142e+001  3.700000e+000
      vertex  1.785983e+001  1.186142e+001  3.700000e+000
      vertex  1.322560e+001  1.186142e+001  2.000000e+000
    endloop
  endfacet
  facet normal  0.000000e+000  1.000000e+000  0.000000e+000
    outer loop
      vertex  1.322560e+001  1.186142e+001  2.000000e+000
      vertex  1.785983e+001  1.186142e+001  3.700000e+000
      vertex  1.785983e+001  1.186142e+001  2.000000e+000
    endloop
  endfacet
  facet normal -1.000000e+000  -0.000000e+000  0.000000e+000
    outer loop
      vertex  1.322560e+001  2.991596e+000  3.700000e+000
      vertex  1.322560e+001  1.186142e+001  3.700000e+000
      vertex  1.322560e+001  2.991596e+000  2.000000e+000
    endloop
  endfacet
  facet normal -1.000000e+000  0.000000e+000  0.000000e+000
    outer loop
      vertex  1.322560e+001  2.991596e+000  2.000000e+000
      vertex  1.322560e+001  1.186142e+001  3.700000e+000
      vertex  1.322560e+001  1.186142e+001  2.000000e+000
    endloop
  endfacet
  facet normal  0.000000e+000 -1.000000e+000  0.000000e+000
    outer loop
      vertex  1.785983e+001  2.991596e+000  3.700000e+000
      vertex  1.322560e+001  2.991596e+000  3.700000e+000
      vertex  1.785983e+001  2.991596e+000  2.000000e+000
    endloop
  endfacet
  facet normal  0.000000e+000 -1.000000e+000  0.000000e+000
    outer loop
      vertex  1.785983e+001  2.991596e+000  2.000000e+000
      vertex  1.322560e+001  2.991596e+000  3.700000e+000
      vertex  1.322560e+001  2.991596e+000  2.000000e+000
    endloop
  endfacet
  facet normal  1.000000e+000  -0.000000e+000  0.000000e+000
    outer loop
      vertex  1.785983e+001  1.186142e+001  3.700000e+000
      vertex  1.785983e+001  2.991596e+000  3.700000e+000
      vertex  1.785983e+001  1.186142e+001  2.000000e+000
    endloop
  endfacet
  facet normal  1.000000e+000  0.000000e+000  0.000000e+000
    outer loop
      vertex  1.785983e+001  1.186142e+001  2.000000e+000
      vertex  1.785983e+001  2.991596e+000  3.700000e+000
      vertex  1.785983e+001  2.991596e+000  2.000000e+000
    endloop
  endfacet
  facet normal  0.000000e+000  0.000000e+000  1.000000e+000
    outer loop
      vertex  1.322560e+001  2.991596e+000  3.700000e+000
      vertex  1.785983e+001  2.991596e+000  3.700000e+000
      vertex  1.322560e+001  1.186142e+001  3.700000e+000
    endloop
  endfacet
  facet normal  -0.000000e+000  0.000000e+000  1.000000e+000
    outer loop
      vertex  1.322560e+001  1.186142e+001  3.700000e+000
      vertex  1.785983e+001  2.991596e+000  3.700000e+000
      vertex  1.785983e+001  1.186142e+001  3.700000e+000
    endloop
  endfacet
  facet normal -5.877847e-001  8.090174e-001  0.000000e+000
    outer loop
      vertex  1.586803e+001 -1.715211e+001  0.000000e+000
      vertex  1.686803e+001 -1.642557e+001  2.000000e+000
      vertex  1.686803e+001 -1.642557e+001  0.000000e+000
    endloop
  endfacet
  facet normal -9.510567e-001  3.090165e-001  0.000000e+000
    outer loop
      vertex  1.686803e+001 -1.642557e+001  0.000000e+000
      vertex  1.686803e+001 -1.642557e+001  2.000000e+000
      vertex  1.725000e+001 -1.525000e+001  2.000000e+000
    endloop
  endfacet
  facet normal -9.510567e-001  3.090165e-001  0.000000e+000
    outer loop
      vertex  1.686803e+001 -1.642557e+001  0.000000e+000
      vertex  1.725000e+001 -1.525000e+001  2.000000e+000
      vertex  1.725000e+001 -1.525000e+001  0.000000e+000
    endloop
  endfacet
  facet normal -5.877847e-001  8.090174e-001  0.000000e+000
    outer loop
      vertex  1.686803e+001 -1.642557e+001  2.000000e+000
      vertex  1.586803e+001 -1.715211e+001  0.000000e+000
      vertex  1.586803e+001 -1.715211e+001  2.000000e+000
    endloop
  endfacet
  facet normal  0.000000e+000  1.000000e+000  0.000000e+000
    outer loop
      vertex  1.586803e+001 -1.715211e+001  2.000000e+000
      vertex  1.586803e+001 -1.715211e+001  0.000000e+000
      vertex  1.463197e+001 -1.715211e+001  0.000000e+000
    endloop
  endfacet
  facet normal  0.000000e+000  1.000000e+000  0.000000e+000
    outer loop
      vertex  1.586803e+001 -1.715211e+001  2.000000e+000
      vertex  1.463197e+001 -1.715211e+001  0.000000e+000
      vertex  1.463197e+001 -1.715211e+001  2.000000e+000
    endloop
  endfacet
  facet normal  5.877847e-001  8.090174e-001  0.000000e+000
    outer loop
      vertex  1.463197e+001 -1.715211e+001  2.000000e+000
      vertex  1.463197e+001 -1.715211e+001  0.000000e+000
      vertex  1.363197e+001 -1.642557e+001  0.000000e+000
    endloop
  endfacet
  facet normal  5.877847e-001  8.090174e-001  -0.000000e+000
    outer loop
      vertex  1.463197e+001 -1.715211e+001  2.000000e+000
      vertex  1.363197e+001 -1.642557e+001  0.000000e+000
      vertex  1.363197e+001 -1.642557e+001  2.000000e+000
    endloop
  endfacet
  facet normal  9.510567e-001  3.090165e-001  0.000000e+000
    outer loop
      vertex  1.363197e+001 -1.642557e+001  2.000000e+000
      vertex  1.363197e+001 -1.642557e+001  0.000000e+000
      vertex  1.325000e+001 -1.525000e+001  0.000000e+000
    endloop
  endfacet
  facet normal  9.510567e-001  3.090165e-001  -0.000000e+000
    outer loop
      vertex  1.363197e+001 -1.642557e+001  2.000000e+000
      vertex  1.325000e+001 -1.525000e+001  0.000000e+000
      vertex  1.325000e+001 -1.525000e+001  2.000000e+000
    endloop
  endfacet
  facet normal  5.877852e-001 -8.090170e-001  0.000000e+000
    outer loop
      vertex  1.463197e+001 -1.334789e+001  0.000000e+000
      vertex  1.363197e+001 -1.407443e+001  2.000000e+000
      vertex  1.363197e+001 -1.407443e+001  0.000000e+000
    endloop
  endfacet
  facet normal  9.510566e-001 -3.090167e-001  0.000000e+000
    outer loop
      vertex  1.363197e+001 -1.407443e+001  0.000000e+000
      vertex  1.363197e+001 -1.407443e+001  2.000000e+000
      vertex  1.325000e+001 -1.525000e+001  2.000000e+000
    endloop
  endfacet
  facet normal  9.510566e-001 -3.090167e-001  0.000000e+000
    outer loop
      vertex  1.363197e+001 -1.407443e+001  0.000000e+000
      vertex  1.325000e+001 -1.525000e+001  2.000000e+000
      vertex  1.325000e+001 -1.525000e+001  0.000000e+000
    endloop
  endfacet
  facet normal  5.877852e-001 -8.090170e-001  0.000000e+000
    outer loop
      vertex  1.363197e+001 -1.407443e+001  2.000000e+000
      vertex  1.463197e+001 -1.334789e+001  0.000000e+000
      vertex  1.463197e+001 -1.334789e+001  2.000000e+000
    endloop
  endfacet
  facet normal  0.000000e+000 -1.000000e+000  0.000000e+000
    outer loop
      vertex  1.463197e+001 -1.334789e+001  2.000000e+000
      vertex  1.463197e+001 -1.334789e+001  0.000000e+000
      vertex  1.586803e+001 -1.334789e+001  0.000000e+000
    endloop
  endfacet
  facet normal  0.000000e+000 -1.000000e+000  0.000000e+000
    outer loop
      vertex  1.463197e+001 -1.334789e+001  2.000000e+000
      vertex  1.586803e+001 -1.334789e+001  0.000000e+000
      vertex  1.586803e+001 -1.334789e+001  2.000000e+000
    endloop
  endfacet
  facet normal -5.877852e-001 -8.090170e-001  -0.000000e+000
    outer loop
      vertex  1.586803e+001 -1.334789e+001  2.000000e+000
      vertex  1.586803e+001 -1.334789e+001  0.000000e+000
      vertex  1.686803e+001 -1.407443e+001  0.000000e+000
    endloop
  endfacet
  facet normal -5.877852e-001 -8.090170e-001  0.000000e+000
    outer loop
      vertex  1.586803e+001 -1.334789e+001  2.000000e+000
      vertex  1.686803e+001 -1.407443e+001  0.000000e+000
      vertex  1.686803e+001 -1.407443e+001  2.000000e+000
    endloop
  endfacet
  facet normal -9.510566e-001 -3.090167e-001  -0.000000e+000
    outer loop
      vertex  1.686803e+001 -1.407443e+001  2.000000e+000
      vertex  1.686803e+001 -1.407443e+001  0.000000e+000
      vertex  1.725000e+001 -1.525000e+001  0.000000e+000
    endloop
  endfacet
  facet normal -9.510566e-001 -3.090167e-001  0.000000e+000
    outer loop
      vertex  1.686803e+001 -1.407443e+001  2.000000e+000
      vertex  1.725000e+001 -1.525000e+001  0.000000e+000
      vertex  1.725000e+001 -1.525000e+001  2.000000e+000
    endloop
  endfacet
  facet normal -5.877847e-001  8.090174e-001  0.000000e+000
    outer loop
      vertex -1.463197e+001 -1.715211e+001  0.000000e+000
      vertex -1.363197e+001 -1.642557e+001  2.000000e+000
      vertex -1.363197e+001 -1.642557e+001  0.000000e+000
    endloop
  endfacet
  facet normal -9.510567e-001  3.090165e-001  0.000000e+000
    outer loop
      vertex -1.363197e+001 -1.642557e+001  0.000000e+000
      vertex -1.363197e+001 -1.642557e+001  2.000000e+000
      vertex -1.325000e+001 -1.525000e+001  2.000000e+000
    endloop
  endfacet
  facet normal -9.510567e-001  3.090165e-001  0.000000e+000
    outer loop
      vertex -1.363197e+001 -1.642557e+001  0.000000e+000
      vertex -1.325000e+001 -1.525000e+001  2.000000e+000
      vertex -1.325000e+001 -1.525000e+001  0.000000e+000
    endloop
  endfacet
  facet normal -5.877847e-001  8.090174e-001  0.000000e+000
    outer loop
      vertex -1.363197e+001 -1.642557e+001  2.000000e+000
      vertex -1.463197e+001 -1.715211e+001  0.000000e+000
      vertex -1.463197e+001 -1.715211e+001  2.000000e+000
    endloop
  endfacet
  facet normal  0.000000e+000  1.000000e+000  0.000000e+000
    outer loop
      vertex -1.463197e+001 -1.715211e+001  2.000000e+000
      vertex -1.463197e+001 -1.715211e+001  0.000000e+000
      vertex -1.586803e+001 -1.715211e+001  0.000000e+000
    endloop
  endfacet
  facet normal  0.000000e+000  1.000000e+000  0.000000e+000
    outer loop
      vertex -1.463197e+001 -1.715211e+001  2.000000e+000
      vertex -1.586803e+001 -1.715211e+001  0.000000e+000
      vertex -1.586803e+001 -1.715211e+001  2.000000e+000
    endloop
  endfacet
  facet normal  5.877847e-001  8.090174e-001  0.000000e+000
    outer loop
      vertex -1.586803e+001 -1.715211e+001  2.000000e+000
      vertex -1.586803e+001 -1.715211e+001  0.000000e+000
      vertex -1.686803e+001 -1.642557e+001  0.000000e+000
    endloop
  endfacet
  facet normal  5.877847e-001  8.090174e-001  -0.000000e+000
    outer loop
      vertex -1.586803e+001 -1.715211e+001  2.000000e+000
      vertex -1.686803e+001 -1.642557e+001  0.000000e+000
      vertex -1.686803e+001 -1.642557e+001  2.000000e+000
    endloop
  endfacet
  facet normal  9.510567e-001  3.090165e-001  0.000000e+000
    outer loop
      vertex -1.686803e+001 -1.642557e+001  2.000000e+000
      vertex -1.686803e+001 -1.642557e+001  0.000000e+000
      vertex -1.725000e+001 -1.525000e+001  0.000000e+000
    endloop
  endfacet
  facet normal  9.510567e-001  3.090165e-001  -0.000000e+000
    outer loop
      vertex -1.686803e+001 -1.642557e+001  2.000000e+000
      vertex -1.725000e+001 -1.525000e+001  0.000000e+000
      vertex -1.725000e+001 -1.525000e+001  2.000000e+000
    endloop
  endfacet
  facet normal  5.877852e-001 -8.090170e-001  0.000000e+000
    outer loop
      vertex -1.586803e+001 -1.334789e+001  0.000000e+000
      vertex -1.686803e+001 -1.407443e+001  2.000000e+000
      vertex -1.686803e+001 -1.407443e+001  0.000000e+000
    endloop
  endfacet
  facet normal  9.510566e-001 -3.090167e-001  0.000000e+000
    outer loop
      vertex -1.686803e+001 -1.407443e+001  0.000000e+000
      vertex -1.686803e+001 -1.407443e+001  2.000000e+000
      vertex -1.725000e+001 -1.525000e+001  2.000000e+000
    endloop
  endfacet
  facet normal  9.510566e-001 -3.090167e-001  0.000000e+000
    outer loop
      vertex -1.686803e+001 -1.407443e+001  0.000000e+000
      vertex -1.725000e+001 -1.525000e+001  2.000000e+000
      vertex -1.725000e+001 -1.525000e+001  0.000000e+000
    endloop
  endfacet
  facet normal  5.877852e-001 -8.090170e-001  0.000000e+000
    outer loop
      vertex -1.686803e+001 -1.407443e+001  2.000000e+000
      vertex -1.586803e+001 -1.334789e+001  0.000000e+000
      vertex -1.586803e+001 -1.334789e+001  2.000000e+000
    endloop
  endfacet
  facet normal  0.000000e+000 -1.000000e+000  0.000000e+000
    outer loop
      vertex -1.586803e+001 -1.334789e+001  2.000000e+000
      vertex -1.586803e+001 -1.334789e+001  0.000000e+000
      vertex -1.463197e+001 -1.334789e+001  0.000000e+000
    endloop
  endfacet
  facet normal  0.000000e+000 -1.000000e+000  0.000000e+000
    outer loop
      vertex -1.586803e+001 -1.334789e+001  2.000000e+000
      vertex -1.463197e+001 -1.334789e+001  0.000000e+000
      vertex -1.463197e+001 -1.334789e+001  2.000000e+000
    endloop
  endfacet
  facet normal -5.877852e-001 -8.090170e-001  -0.000000e+000
    outer loop
      vertex -1.463197e+001 -1.334789e+001  2.000000e+000
      vertex -1.463197e+001 -1.334789e+001  0.000000e+000
      vertex -1.363197e+001 -1.407443e+001  0.000000e+000
    endloop
  endfacet
  facet normal -5.877852e-001 -8.090170e-001  0.000000e+000
    outer loop
      vertex -1.463197e+001 -1.334789e+001  2.000000e+000
      vertex -1.363197e+001 -1.407443e+001  0.000000e+000
      vertex -1.363197e+001 -1.407443e+001  2.000000e+000
    endloop
  endfacet
  facet normal -9.510566e-001 -3.090167e-001  -0.000000e+000
    outer loop
      vertex -1.363197e+001 -1.407443e+001  2.000000e+000
      vertex -1.363197e+001 -1.407443e+001  0.000000e+000
      vertex -1.325000e+001 -1.525000e+001  0.000000e+000
    endloop
  endfacet
  facet normal -9.510566e-001 -3.090167e-001  0.000000e+000
    outer loop
      vertex -1.363197e+001 -1.407443e+001  2.000000e+000
      vertex -1.325000e+001 -1.525000e+001  0.000000e+000
      vertex -1.325000e+001 -1.525000e+001  2.000000e+000
    endloop
  endfacet
  facet normal -5.877852e-001  8.090170e-001  0.000000e+000
    outer loop
      vertex -1.463197e+001  1.334789e+001  0.000000e+000
      vertex -1.363197e+001  1.407443e+001  2.000000e+000
      vertex -1.363197e+001  1.407443e+001  0.000000e+000
    endloop
  endfacet
  facet normal -9.510566e-001  3.090167e-001  0.000000e+000
    outer loop
      vertex -1.363197e+001  1.407443e+001  0.000000e+000
      vertex -1.363197e+001  1.407443e+001  2.000000e+000
      vertex -1.325000e+001  1.525000e+001  2.000000e+000
    endloop
  endfacet
  facet normal -9.510566e-001  3.090167e-001  0.000000e+000
    outer loop
      vertex -1.363197e+001  1.407443e+001  0.000000e+000
      vertex -1.325000e+001  1.525000e+001  2.000000e+000
      vertex -1.325000e+001  1.525000e+001  0.000000e+000
    endloop
  endfacet
  facet normal -5.877852e-001  8.090170e-001  0.000000e+000
    outer loop
      vertex -1.363197e+001  1.407443e+001  2.000000e+000
      vertex -1.463197e+001  1.334789e+001  0.000000e+000
      vertex -1.463197e+001  1.334789e+001  2.000000e+000
    endloop
  endfacet
  facet normal  0.000000e+000  1.000000e+000  0.000000e+000
    outer loop
      vertex -1.463197e+001  1.334789e+001  2.000000e+000
      vertex -1.463197e+001  1.334789e+001  0.000000e+000
      vertex -1.586803e+001  1.334789e+001  0.000000e+000
    endloop
  endfacet
  facet normal  0.000000e+000  1.000000e+000  0.000000e+000
    outer loop
      vertex -1.463197e+001  1.334789e+001  2.000000e+000
      vertex -1.586803e+001  1.334789e+001  0.000000e+000
      vertex -1.586803e+001  1.334789e+001  2.000000e+000
    endloop
  endfacet
  facet normal  5.877852e-001  8.090170e-001  0.000000e+000
    outer loop
      vertex -1.586803e+001  1.334789e+001  2.000000e+000
      vertex -1.586803e+001  1.334789e+001  0.000000e+000
      vertex -1.686803e+001  1.407443e+001  0.000000e+000
    endloop
  endfacet
  facet normal  5.877852e-001  8.090170e-001  -0.000000e+000
    outer loop
      vertex -1.586803e+001  1.334789e+001  2.000000e+000
      vertex -1.686803e+001  1.407443e+001  0.000000e+000
      vertex -1.686803e+001  1.407443e+001  2.000000e+000
    endloop
  endfacet
  facet normal  9.510566e-001  3.090167e-001  0.000000e+000
    outer loop
      vertex -1.686803e+001  1.407443e+001  2.000000e+000
      vertex -1.686803e+001  1.407443e+001  0.000000e+000
      vertex -1.725000e+001  1.525000e+001  0.000000e+000
    endloop
  endfacet
  facet normal  9.510566e-001  3.090167e-001  -0.000000e+000
    outer loop
      vertex -1.686803e+001  1.407443e+001  2.000000e+000
      vertex -1.725000e+001  1.525000e+001  0.000000e+000
      vertex -1.725000e+001  1.525000e+001  2.000000e+000
    endloop
  endfacet
  facet normal  5.877847e-001 -8.090174e-001  0.000000e+000
    outer loop
      vertex -1.586803e+001  1.715211e+001  0.000000e+000
      vertex -1.686803e+001  1.642557e+001  2.000000e+000
      vertex -1.686803e+001  1.642557e+001  0.000000e+000
    endloop
  endfacet
  facet normal  9.510567e-001 -3.090165e-001  0.000000e+000
    outer loop
      vertex -1.686803e+001  1.642557e+001  0.000000e+000
      vertex -1.686803e+001  1.642557e+001  2.000000e+000
      vertex -1.725000e+001  1.525000e+001  2.000000e+000
    endloop
  endfacet
  facet normal  9.510567e-001 -3.090165e-001  0.000000e+000
    outer loop
      vertex -1.686803e+001  1.642557e+001  0.000000e+000
      vertex -1.725000e+001  1.525000e+001  2.000000e+000
      vertex -1.725000e+001  1.525000e+001  0.000000e+000
    endloop
  endfacet
  facet normal  5.877847e-001 -8.090174e-001  0.000000e+000
    outer loop
      vertex -1.686803e+001  1.642557e+001  2.000000e+000
      vertex -1.586803e+001  1.715211e+001  0.000000e+000
      vertex -1.586803e+001  1.715211e+001  2.000000e+000
    endloop
  endfacet
  facet normal  0.000000e+000 -1.000000e+000  0.000000e+000
    outer loop
      vertex -1.586803e+001  1.715211e+001  2.000000e+000
      vertex -1.586803e+001  1.715211e+001  0.000000e+000
      vertex -1.463197e+001  1.715211e+001  0.000000e+000
    endloop
  endfacet
  facet normal  0.000000e+000 -1.000000e+000  0.000000e+000
    outer loop
      vertex -1.586803e+001  1.715211e+001  2.000000e+000
      vertex -1.463197e+001  1.715211e+001  0.000000e+000
      vertex -1.463197e+001  1.715211e+001  2.000000e+000
    endloop
  endfacet
  facet normal -5.877847e-001 -8.090174e-001  -0.000000e+000
    outer loop
      vertex -1.463197e+001  1.715211e+001  2.000000e+000
      vertex -1.463197e+001  1.715211e+001  0.000000e+000
      vertex -1.363197e+001  1.642557e+001  0.000000e+000
    endloop
  endfacet
  facet normal -5.877847e-001 -8.090174e-001  0.000000e+000
    outer loop
      vertex -1.463197e+001  1.715211e+001  2.000000e+000
      vertex -1.363197e+001  1.642557e+001  0.000000e+000
      vertex -1.363197e+001  1.642557e+001  2.000000e+000
    endloop
  endfacet
  facet normal -9.510567e-001 -3.090165e-001  -0.000000e+000
    outer loop
      vertex -1.363197e+001  1.642557e+001  2.000000e+000
      vertex -1.363197e+001  1.642557e+001  0.000000e+000
      vertex -1.325000e+001  1.525000e+001  0.000000e+000
    endloop
  endfacet
  facet normal -9.510567e-001 -3.090165e-001  0.000000e+000
    outer loop
      vertex -1.363197e+001  1.642557e+001  2.000000e+000
      vertex -1.325000e+001  1.525000e+001  0.000000e+000
      vertex -1.325000e+001  1.525000e+001  2.000000e+000
    endloop
  endfacet
  facet normal  5.877847e-001 -8.090174e-001  0.000000e+000
    outer loop
      vertex  1.463197e+001  1.715211e+001  0.000000e+000
      vertex  1.363197e+001  1.642557e+001  2.000000e+000
      vertex  1.363197e+001  1.642557e+001  0.000000e+000
    endloop
  endfacet
  facet normal  9.510567e-001 -3.090165e-001  0.000000e+000
    outer loop
      vertex  1.363197e+001  1.642557e+001  0.000000e+000
      vertex  1.363197e+001  1.642557e+001  2.000000e+000
      vertex  1.325000e+001  1.525000e+001  2.000000e+000
    endloop
  endfacet
  facet normal  9.510567e-001 -3.090165e-001  0.000000e+000
    outer loop
      vertex  1.363197e+001  1.642557e+001  0.000000e+000
      vertex  1.325000e+001  1.525000e+001  2.000000e+000
      vertex  1.325000e+001  1.525000e+001  0.000000e+000
    endloop
  endfacet
  facet normal  5.877847e-001 -8.090174e-001  0.000000e+000
    outer loop
      vertex  1.363197e+001  1.642557e+001  2.000000e+000
      vertex  1.463197e+001  1.715211e+001  0.000000e+000
      vertex  1.463197e+001  1.715211e+001  2.000000e+000
    endloop
  endfacet
  facet normal  0.000000e+000 -1.000000e+000  0.000000e+000
    outer loop
      vertex  1.463197e+001  1.715211e+001  2.000000e+000
      vertex  1.463197e+001  1.715211e+001  0.000000e+000
      vertex  1.586803e+001  1.715211e+001  0.000000e+000
    endloop
  endfacet
  facet normal  0.000000e+000 -1.000000e+000  0.000000e+000
    outer loop
      vertex  1.463197e+001  1.715211e+001  2.000000e+000
      vertex  1.586803e+001  1.715211e+001  0.000000e+000
      vertex  1.586803e+001  1.715211e+001  2.000000e+000
    endloop
  endfacet
  facet normal -5.877847e-001 -8.090174e-001  -0.000000e+000
    outer loop
      vertex  1.586803e+001  1.715211e+001  2.000000e+000
      vertex  1.586803e+001  1.715211e+001  0.000000e+000
      vertex  1.686803e+001  1.642557e+001  0.000000e+000
    endloop
  endfacet
  facet normal -5.877847e-001 -8.090174e-001  0.000000e+000
    outer loop
      vertex  1.586803e+001  1.715211e+001  2.000000e+000
      vertex  1.686803e+001  1.642557e+001  0.000000e+000
      vertex  1.686803e+001  1.642557e+001  2.000000e+000
    endloop
  endfacet
  facet normal -9.510567e-001 -3.090165e-001  -0.000000e+000
    outer loop
      vertex  1.686803e+001  1.642557e+001  2.000000e+000
      vertex  1.686803e+001  1.642557e+001  0.000000e+000
      vertex  1.725000e+001  1.525000e+001  0.000000e+000
    endloop
  endfacet
  facet normal -9.510567e-001 -3.090165e-001  0.000000e+000
    outer loop
      vertex  1.686803e+001  1.642557e+001  2.000000e+000
      vertex  1.725000e+001  1.525000e+001  0.000000e+000
      vertex  1.725000e+001  1.525000e+001  2.000000e+000
    endloop
  endfacet
  facet normal -5.877852e-001  8.090170e-001  0.000000e+000
    outer loop
      vertex  1.586803e+001  1.334789e+001  0.000000e+000
      vertex  1.686803e+001  1.407443e+001  2.000000e+000
      vertex  1.686803e+001  1.407443e+001  0.000000e+000
    endloop
  endfacet
  facet normal -9.510566e-001  3.090167e-001  0.000000e+000
    outer loop
      vertex  1.686803e+001  1.407443e+001  0.000000e+000
      vertex  1.686803e+001  1.407443e+001  2.000000e+000
      vertex  1.725000e+001  1.525000e+001  2.000000e+000
    endloop
  endfacet
  facet normal -9.510566e-001  3.090167e-001  0.000000e+000
    outer loop
      vertex  1.686803e+001  1.407443e+001  0.000000e+000
      vertex  1.725000e+001  1.525000e+001  2.000000e+000
      vertex  1.725000e+001  1.525000e+001  0.000000e+000
    endloop
  endfacet
  facet normal -5.877852e-001  8.090170e-001  0.000000e+000
    outer loop
      vertex  1.686803e+001  1.407443e+001  2.000000e+000
      vertex  1.586803e+001  1.334789e+001  0.000000e+000
      vertex  1.586803e+001  1.334789e+001  2.000000e+000
    endloop
  endfacet
  facet normal  0.000000e+000  1.000000e+000  0.000000e+000
    outer loop
      vertex  1.586803e+001  1.334789e+001  2.000000e+000
      vertex  1.586803e+001  1.334789e+001  0.000000e+000
      vertex  1.463197e+001  1.334789e+001  0.000000e+000
    endloop
  endfacet
  facet normal  0.000000e+000  1.000000e+000  0.000000e+000
    outer loop
      vertex  1.586803e+001  1.334789e+001  2.000000e+000
      vertex  1.463197e+001  1.334789e+001  0.000000e+000
      vertex  1.463197e+001  1.334789e+001  2.000000e+000
    endloop
  endfacet
  facet normal  5.877852e-001  8.090170e-001  0.000000e+000
    outer loop
      vertex  1.463197e+001  1.334789e+001  2.000000e+000
      vertex  1.463197e+001  1.334789e+001  0.000000e+000
      vertex  1.363197e+001  1.407443e+001  0.000000e+000
    endloop
  endfacet
  facet normal  5.877852e-001  8.090170e-001  -0.000000e+000
    outer loop
      vertex  1.463197e+001  1.334789e+001  2.000000e+000
      vertex  1.363197e+001  1.407443e+001  0.000000e+000
      vertex  1.363197e+001  1.407443e+001  2.000000e+000
    endloop
  endfacet
  facet normal  9.510566e-001  3.090167e-001  0.000000e+000
    outer loop
      vertex  1.363197e+001  1.407443e+001  2.000000e+000
      vertex  1.363197e+001  1.407443e+001  0.000000e+000
      vertex  1.325000e+001  1.525000e+001  0.000000e+000
    endloop
  endfacet
  facet normal  9.510566e-001  3.090167e-001  -0.000000e+000
    outer loop
      vertex  1.363197e+001  1.407443e+001  2.000000e+000
      vertex  1.325000e+001  1.525000e+001  0.000000e+000
      vertex  1.325000e+001  1.525000e+001  2.000000e+000
    endloop
  endfacet
endsolid CATIA STL
