solid CATIA STL
  facet normal  0.000000e+000  -0.000000e+000  9.999999e-001
    outer loop
      vertex -4.550000e+001 -3.019807e-013  1.000000e+000
      vertex -3.580000e+001 -2.379500e-013  1.000000e+000
      vertex -3.580000e+001  2.555667e+001  1.000000e+000
    endloop
  endfacet
  facet normal  0.000000e+000  0.000000e+000  1.000000e+000
    outer loop
      vertex -4.550000e+001 -3.019807e-013  1.000000e+000
      vertex -3.580000e+001  2.555667e+001  1.000000e+000
      vertex -4.104782e+001  2.145649e+001  1.000000e+000
    endloop
  endfacet
  facet normal  0.000000e+000  0.000000e+000  1.000000e+000
    outer loop
      vertex -4.550000e+001 -3.019807e-013  1.000000e+000
      vertex -4.104782e+001  2.145649e+001  1.000000e+000
      vertex -4.172283e+001  2.096607e+001  1.000000e+000
    endloop
  endfacet
  facet normal  0.000000e+000  0.000000e+000  1.000000e+000
    outer loop
      vertex -4.550000e+001 -3.019807e-013  1.000000e+000
      vertex -4.172283e+001  2.096607e+001  1.000000e+000
      vertex -4.255717e+001  2.096607e+001  1.000000e+000
    endloop
  endfacet
  facet normal  0.000000e+000  0.000000e+000  1.000000e+000
    outer loop
      vertex -4.550000e+001 -3.019807e-013  1.000000e+000
      vertex -4.255717e+001  2.096607e+001  1.000000e+000
      vertex -4.323217e+001  2.145649e+001  1.000000e+000
    endloop
  endfacet
  facet normal  0.000000e+000  0.000000e+000  1.000000e+000
    outer loop
      vertex -4.550000e+001 -3.019807e-013  1.000000e+000
      vertex -4.323217e+001  2.145649e+001  1.000000e+000
      vertex -4.550000e+001  2.555667e+001  1.000000e+000
    endloop
  endfacet
  facet normal  0.000000e+000  0.000000e+000  1.000000e+000
    outer loop
      vertex -4.550000e+001  2.555667e+001  1.000000e+000
      vertex -4.323217e+001  2.145649e+001  1.000000e+000
      vertex -4.349000e+001  2.225000e+001  1.000000e+000
    endloop
  endfacet
  facet normal  0.000000e+000  -0.000000e+000  1.000000e+000
    outer loop
      vertex -4.550000e+001  2.555667e+001  1.000000e+000
      vertex -4.349000e+001  2.225000e+001  1.000000e+000
      vertex -4.323217e+001  2.304351e+001  1.000000e+000
    endloop
  endfacet
  facet normal  0.000000e+000  -0.000000e+000  1.000000e+000
    outer loop
      vertex -4.550000e+001  2.555667e+001  1.000000e+000
      vertex -4.323217e+001  2.304351e+001  1.000000e+000
      vertex -4.255717e+001  2.353393e+001  1.000000e+000
    endloop
  endfacet
  facet normal  0.000000e+000  -0.000000e+000  1.000000e+000
    outer loop
      vertex -4.550000e+001  2.555667e+001  1.000000e+000
      vertex -4.255717e+001  2.353393e+001  1.000000e+000
      vertex -4.172283e+001  2.353393e+001  1.000000e+000
    endloop
  endfacet
  facet normal  0.000000e+000  -0.000000e+000  1.000000e+000
    outer loop
      vertex -4.550000e+001  2.555667e+001  1.000000e+000
      vertex -4.172283e+001  2.353393e+001  1.000000e+000
      vertex -3.580000e+001  2.555667e+001  1.000000e+000
    endloop
  endfacet
  facet normal  -0.000000e+000  0.000000e+000  1.000000e+000
    outer loop
      vertex -3.580000e+001  2.555667e+001  1.000000e+000
      vertex -4.172283e+001  2.353393e+001  1.000000e+000
      vertex -4.104782e+001  2.304351e+001  1.000000e+000
    endloop
  endfacet
  facet normal  -0.000000e+000  0.000000e+000  1.000000e+000
    outer loop
      vertex -3.580000e+001  2.555667e+001  1.000000e+000
      vertex -4.104782e+001  2.304351e+001  1.000000e+000
      vertex -4.079000e+001  2.225000e+001  1.000000e+000
    endloop
  endfacet
  facet normal  -0.000000e+000  0.000000e+000  1.000000e+000
    outer loop
      vertex -3.580000e+001  2.555667e+001  1.000000e+000
      vertex -4.079000e+001  2.225000e+001  1.000000e+000
      vertex -4.104782e+001  2.145649e+001  1.000000e+000
    endloop
  endfacet
  facet normal  0.000000e+000  -0.000000e+000  1.000000e+000
    outer loop
      vertex -4.550000e+001 -3.019807e-013  1.000000e+000
      vertex -4.323217e+001 -2.145649e+001  1.000000e+000
      vertex -4.255717e+001 -2.096607e+001  1.000000e+000
    endloop
  endfacet
  facet normal  0.000000e+000  -0.000000e+000  9.999999e-001
    outer loop
      vertex -4.550000e+001 -3.019807e-013  1.000000e+000
      vertex -4.349000e+001 -2.225000e+001  1.000000e+000
      vertex -4.323217e+001 -2.145649e+001  1.000000e+000
    endloop
  endfacet
  facet normal  -0.000000e+000  0.000000e+000  1.000000e+000
    outer loop
      vertex -3.580000e+001 -2.379500e-013  1.000000e+000
      vertex -4.550000e+001 -3.019807e-013  1.000000e+000
      vertex -4.255717e+001 -2.096607e+001  1.000000e+000
    endloop
  endfacet
  facet normal  0.000000e+000  0.000000e+000  1.000000e+000
    outer loop
      vertex -3.580000e+001 -2.379500e-013  1.000000e+000
      vertex -4.255717e+001 -2.096607e+001  1.000000e+000
      vertex -4.172283e+001 -2.096607e+001  1.000000e+000
    endloop
  endfacet
  facet normal  -0.000000e+000  0.000000e+000  1.000000e+000
    outer loop
      vertex -3.580000e+001 -2.379500e-013  1.000000e+000
      vertex -4.172283e+001 -2.096607e+001  1.000000e+000
      vertex -4.104782e+001 -2.145649e+001  1.000000e+000
    endloop
  endfacet
  facet normal  -0.000000e+000  0.000000e+000  1.000000e+000
    outer loop
      vertex -3.580000e+001 -2.379500e-013  1.000000e+000
      vertex -4.104782e+001 -2.145649e+001  1.000000e+000
      vertex -4.079000e+001 -2.225000e+001  1.000000e+000
    endloop
  endfacet
  facet normal  0.000000e+000  0.000000e+000  1.000000e+000
    outer loop
      vertex -3.580000e+001 -2.555667e+001  1.000000e+000
      vertex -3.580000e+001 -2.379500e-013  1.000000e+000
      vertex -4.079000e+001 -2.225000e+001  1.000000e+000
    endloop
  endfacet
  facet normal  0.000000e+000  0.000000e+000  1.000000e+000
    outer loop
      vertex -3.580000e+001 -2.555667e+001  1.000000e+000
      vertex -4.079000e+001 -2.225000e+001  1.000000e+000
      vertex -4.104782e+001 -2.304351e+001  1.000000e+000
    endloop
  endfacet
  facet normal  0.000000e+000  0.000000e+000  1.000000e+000
    outer loop
      vertex -3.580000e+001 -2.555667e+001  1.000000e+000
      vertex -4.104782e+001 -2.304351e+001  1.000000e+000
      vertex -4.172283e+001 -2.353393e+001  1.000000e+000
    endloop
  endfacet
  facet normal  0.000000e+000  0.000000e+000  1.000000e+000
    outer loop
      vertex -3.580000e+001 -2.555667e+001  1.000000e+000
      vertex -4.172283e+001 -2.353393e+001  1.000000e+000
      vertex -4.255717e+001 -2.353393e+001  1.000000e+000
    endloop
  endfacet
  facet normal  0.000000e+000  0.000000e+000  1.000000e+000
    outer loop
      vertex -3.580000e+001 -2.555667e+001  1.000000e+000
      vertex -4.255717e+001 -2.353393e+001  1.000000e+000
      vertex -4.550000e+001 -2.555667e+001  1.000000e+000
    endloop
  endfacet
  facet normal  0.000000e+000  0.000000e+000  1.000000e+000
    outer loop
      vertex -4.550000e+001 -2.555667e+001  1.000000e+000
      vertex -4.255717e+001 -2.353393e+001  1.000000e+000
      vertex -4.323217e+001 -2.304351e+001  1.000000e+000
    endloop
  endfacet
  facet normal  0.000000e+000  0.000000e+000  1.000000e+000
    outer loop
      vertex -4.550000e+001 -2.555667e+001  1.000000e+000
      vertex -4.323217e+001 -2.304351e+001  1.000000e+000
      vertex -4.349000e+001 -2.225000e+001  1.000000e+000
    endloop
  endfacet
  facet normal  0.000000e+000  0.000000e+000  1.000000e+000
    outer loop
      vertex -4.550000e+001 -2.555667e+001  1.000000e+000
      vertex -4.349000e+001 -2.225000e+001  1.000000e+000
      vertex -4.550000e+001 -3.019807e-013  1.000000e+000
    endloop
  endfacet
  facet normal  2.058375e-015 -4.197303e-016 -1.000000e+000
    outer loop
      vertex -3.580000e+001 -2.565000e+001 -7.329249e-014
      vertex -4.550000e+001 -2.565000e+001 -9.325873e-014
      vertex -4.255717e+001 -2.353393e+001 -8.808947e-014
    endloop
  endfacet
  facet normal  2.058382e-015 -4.197084e-016 -1.000000e+000
    outer loop
      vertex -3.580000e+001 -2.565000e+001 -7.329249e-014
      vertex -4.255717e+001 -2.353393e+001 -8.808947e-014
      vertex -4.172283e+001 -2.353393e+001 -8.637207e-014
    endloop
  endfacet
  facet normal  2.158898e-015 -1.383675e-016 -1.000000e+000
    outer loop
      vertex -3.580000e+001 -2.565000e+001 -7.329249e-014
      vertex -4.172283e+001 -2.353393e+001 -8.637207e-014
      vertex -4.104782e+001 -2.304351e+001 -8.498267e-014
    endloop
  endfacet
  facet normal  2.306121e-015  1.580467e-016 -1.000000e+000
    outer loop
      vertex -3.580000e+001 -2.565000e+001 -7.329249e-014
      vertex -4.104782e+001 -2.304351e+001 -8.498267e-014
      vertex -4.079000e+001 -2.225000e+001 -8.426268e-014
    endloop
  endfacet
  facet normal  2.058375e-015 -1.332789e-022 -1.000000e+000
    outer loop
      vertex -4.550000e+001 -3.019807e-013 -9.414691e-014
      vertex -3.580000e+001 -2.379500e-013 -7.418067e-014
      vertex -4.172283e+001 -2.096607e+001 -8.637207e-014
    endloop
  endfacet
  facet normal  2.058382e-015  1.065274e-021 -1.000000e+000
    outer loop
      vertex -4.550000e+001 -3.019807e-013 -9.414691e-014
      vertex -4.172283e+001 -2.096607e+001 -8.637207e-014
      vertex -4.255717e+001 -2.096607e+001 -8.808947e-014
    endloop
  endfacet
  facet normal  2.058369e-015 -7.332267e-022 -1.000000e+000
    outer loop
      vertex -4.550000e+001 -3.019807e-013 -9.414691e-014
      vertex -4.255717e+001 -2.096607e+001 -8.808947e-014
      vertex -4.323217e+001 -2.145649e+001 -8.947887e-014
    endloop
  endfacet
  facet normal  1.504419e-015 -5.855002e-017 -1.000000e+000
    outer loop
      vertex -4.550000e+001 -3.019807e-013 -9.414691e-014
      vertex -4.323217e+001 -2.145649e+001 -8.947887e-014
      vertex -4.349000e+001 -2.225000e+001 -8.982029e-014
    endloop
  endfacet
  facet normal  2.174841e-015 -3.462684e-017 -1.000000e+000
    outer loop
      vertex -3.580000e+001 -2.379500e-013 -7.418067e-014
      vertex -3.580000e+001 -2.565000e+001 -7.329249e-014
      vertex -4.079000e+001 -2.225000e+001 -8.426268e-014
    endloop
  endfacet
  facet normal  2.477243e-015 -1.024465e-016 -1.000000e+000
    outer loop
      vertex -3.580000e+001 -2.379500e-013 -7.418067e-014
      vertex -4.079000e+001 -2.225000e+001 -8.426268e-014
      vertex -4.104782e+001 -2.145649e+001 -8.498267e-014
    endloop
  endfacet
  facet normal  2.058369e-015  1.390466e-021 -1.000000e+000
    outer loop
      vertex -3.580000e+001 -2.379500e-013 -7.418067e-014
      vertex -4.104782e+001 -2.145649e+001 -8.498267e-014
      vertex -4.172283e+001 -2.096607e+001 -8.637207e-014
    endloop
  endfacet
  facet normal  1.769240e-015 -3.462684e-017 -1.000000e+000
    outer loop
      vertex -4.550000e+001 -2.565000e+001 -9.325873e-014
      vertex -4.550000e+001 -3.019807e-013 -9.414691e-014
      vertex -4.349000e+001 -2.225000e+001 -8.982029e-014
    endloop
  endfacet
  facet normal  1.573604e-015  8.102909e-017 -1.000000e+000
    outer loop
      vertex -4.550000e+001 -2.565000e+001 -9.325873e-014
      vertex -4.349000e+001 -2.225000e+001 -8.982029e-014
      vertex -4.323217e+001 -2.304351e+001 -8.947887e-014
    endloop
  endfacet
  facet normal  1.906686e-015 -2.087752e-016 -1.000000e+000
    outer loop
      vertex -4.550000e+001 -2.565000e+001 -9.325873e-014
      vertex -4.323217e+001 -2.304351e+001 -8.947887e-014
      vertex -4.255717e+001 -2.353393e+001 -8.808947e-014
    endloop
  endfacet
  facet normal  2.058376e-015  0.000000e+000 -1.000000e+000
    outer loop
      vertex -4.550000e+001 -3.019807e-013 -9.414691e-014
      vertex -4.550000e+001  2.565000e+001 -9.414691e-014
      vertex -4.323217e+001  2.145649e+001 -8.947887e-014
    endloop
  endfacet
  facet normal  2.058369e-015  7.468050e-022 -1.000000e+000
    outer loop
      vertex -4.550000e+001 -3.019807e-013 -9.414691e-014
      vertex -4.323217e+001  2.145649e+001 -8.947887e-014
      vertex -4.255717e+001  2.096607e+001 -8.808947e-014
    endloop
  endfacet
  facet normal  2.058382e-015 -1.065274e-021 -1.000000e+000
    outer loop
      vertex -4.550000e+001 -3.019807e-013 -9.414691e-014
      vertex -4.255717e+001  2.096607e+001 -8.808947e-014
      vertex -4.172283e+001  2.096607e+001 -8.637207e-014
    endloop
  endfacet
  facet normal  2.058368e-015  1.549478e-021 -1.000000e+000
    outer loop
      vertex -4.550000e+001 -3.019807e-013 -9.414691e-014
      vertex -4.172283e+001  2.096607e+001 -8.637207e-014
      vertex -4.104782e+001  2.145649e+001 -8.498267e-014
    endloop
  endfacet
  facet normal  2.058375e-015 -3.607094e-023 -1.000000e+000
    outer loop
      vertex -4.550000e+001 -3.019807e-013 -9.414691e-014
      vertex -4.104782e+001  2.145649e+001 -8.498267e-014
      vertex -3.580000e+001  2.565000e+001 -7.418067e-014
    endloop
  endfacet
  facet normal  2.058375e-015  0.000000e+000 -1.000000e+000
    outer loop
      vertex -4.550000e+001 -3.019807e-013 -9.414691e-014
      vertex -3.580000e+001  2.565000e+001 -7.418067e-014
      vertex -3.580000e+001 -2.379500e-013 -7.418067e-014
    endloop
  endfacet
  facet normal  2.058375e-015 -1.320528e-021 -1.000000e+000
    outer loop
      vertex -4.550000e+001  2.565000e+001 -9.414691e-014
      vertex -3.580000e+001  2.565000e+001 -7.418067e-014
      vertex -4.172283e+001  2.353393e+001 -8.637207e-014
    endloop
  endfacet
  facet normal  2.058382e-015  1.055474e-020 -1.000000e+000
    outer loop
      vertex -4.550000e+001  2.565000e+001 -9.414691e-014
      vertex -4.172283e+001  2.353393e+001 -8.637207e-014
      vertex -4.255717e+001  2.353393e+001 -8.808947e-014
    endloop
  endfacet
  facet normal  2.058372e-015 -3.982129e-021 -1.000000e+000
    outer loop
      vertex -4.550000e+001  2.565000e+001 -9.414691e-014
      vertex -4.255717e+001  2.353393e+001 -8.808947e-014
      vertex -4.323217e+001  2.304351e+001 -8.947887e-014
    endloop
  endfacet
  facet normal  1.858759e-015 -1.736806e-016 -1.000000e+000
    outer loop
      vertex -4.550000e+001  2.565000e+001 -9.414691e-014
      vertex -4.323217e+001  2.304351e+001 -8.947887e-014
      vertex -4.349000e+001  2.225000e+001 -8.982029e-014
    endloop
  endfacet
  facet normal  3.163346e-015  5.975612e-016 -1.000000e+000
    outer loop
      vertex -4.550000e+001  2.565000e+001 -9.414691e-014
      vertex -4.349000e+001  2.225000e+001 -8.982029e-014
      vertex -4.323217e+001  2.145649e+001 -8.947887e-014
    endloop
  endfacet
  facet normal  1.800908e-015  3.221980e-016 -1.000000e+000
    outer loop
      vertex -3.580000e+001  2.565000e+001 -7.418067e-014
      vertex -4.104782e+001  2.145649e+001 -8.498267e-014
      vertex -4.079000e+001  2.225000e+001 -8.426268e-014
    endloop
  endfacet
  facet normal  2.160391e-015 -2.053964e-016 -1.000000e+000
    outer loop
      vertex -3.580000e+001  2.565000e+001 -7.418067e-014
      vertex -4.079000e+001  2.225000e+001 -8.426268e-014
      vertex -4.104782e+001  2.304351e+001 -8.498267e-014
    endloop
  endfacet
  facet normal  2.058373e-015  5.473553e-021 -1.000000e+000
    outer loop
      vertex -3.580000e+001  2.565000e+001 -7.418067e-014
      vertex -4.104782e+001  2.304351e+001 -8.498267e-014
      vertex -4.172283e+001  2.353393e+001 -8.637207e-014
    endloop
  endfacet
  facet normal  5.877830e-001 -8.090186e-001  0.000000e+000
    outer loop
      vertex -4.255717e+001 -2.096607e+001 -8.808947e-014
      vertex -4.323217e+001 -2.145649e+001  1.000000e+000
      vertex -4.323217e+001 -2.145649e+001 -8.947887e-014
    endloop
  endfacet
  facet normal  9.510577e-001 -3.090135e-001  0.000000e+000
    outer loop
      vertex -4.323217e+001 -2.145649e+001 -8.947887e-014
      vertex -4.323217e+001 -2.145649e+001  1.000000e+000
      vertex -4.349000e+001 -2.225000e+001  1.000000e+000
    endloop
  endfacet
  facet normal  9.510577e-001 -3.090135e-001  0.000000e+000
    outer loop
      vertex -4.323217e+001 -2.145649e+001 -8.947887e-014
      vertex -4.349000e+001 -2.225000e+001  1.000000e+000
      vertex -4.349000e+001 -2.225000e+001 -8.982029e-014
    endloop
  endfacet
  facet normal  5.877830e-001 -8.090186e-001  0.000000e+000
    outer loop
      vertex -4.323217e+001 -2.145649e+001  1.000000e+000
      vertex -4.255717e+001 -2.096607e+001 -8.808947e-014
      vertex -4.255717e+001 -2.096607e+001  1.000000e+000
    endloop
  endfacet
  facet normal  0.000000e+000 -1.000000e+000  0.000000e+000
    outer loop
      vertex -4.255717e+001 -2.096607e+001  1.000000e+000
      vertex -4.255717e+001 -2.096607e+001 -8.808947e-014
      vertex -4.172283e+001 -2.096607e+001 -8.637207e-014
    endloop
  endfacet
  facet normal  0.000000e+000 -1.000000e+000  0.000000e+000
    outer loop
      vertex -4.255717e+001 -2.096607e+001  1.000000e+000
      vertex -4.172283e+001 -2.096607e+001 -8.637207e-014
      vertex -4.172283e+001 -2.096607e+001  1.000000e+000
    endloop
  endfacet
  facet normal -5.877830e-001 -8.090186e-001  -0.000000e+000
    outer loop
      vertex -4.172283e+001 -2.096607e+001  1.000000e+000
      vertex -4.172283e+001 -2.096607e+001 -8.637207e-014
      vertex -4.104782e+001 -2.145649e+001 -8.498267e-014
    endloop
  endfacet
  facet normal -5.877830e-001 -8.090186e-001  0.000000e+000
    outer loop
      vertex -4.172283e+001 -2.096607e+001  1.000000e+000
      vertex -4.104782e+001 -2.145649e+001 -8.498267e-014
      vertex -4.104782e+001 -2.145649e+001  1.000000e+000
    endloop
  endfacet
  facet normal -9.510577e-001 -3.090135e-001  -0.000000e+000
    outer loop
      vertex -4.104782e+001 -2.145649e+001  1.000000e+000
      vertex -4.104782e+001 -2.145649e+001 -8.498267e-014
      vertex -4.079000e+001 -2.225000e+001 -8.426268e-014
    endloop
  endfacet
  facet normal -9.510577e-001 -3.090135e-001  0.000000e+000
    outer loop
      vertex -4.104782e+001 -2.145649e+001  1.000000e+000
      vertex -4.079000e+001 -2.225000e+001 -8.426268e-014
      vertex -4.079000e+001 -2.225000e+001  1.000000e+000
    endloop
  endfacet
  facet normal -5.877830e-001  8.090186e-001  0.000000e+000
    outer loop
      vertex -4.172283e+001 -2.353393e+001 -8.637207e-014
      vertex -4.104782e+001 -2.304351e+001  1.000000e+000
      vertex -4.104782e+001 -2.304351e+001 -8.498267e-014
    endloop
  endfacet
  facet normal -9.510577e-001  3.090135e-001  0.000000e+000
    outer loop
      vertex -4.104782e+001 -2.304351e+001 -8.498267e-014
      vertex -4.104782e+001 -2.304351e+001  1.000000e+000
      vertex -4.079000e+001 -2.225000e+001  1.000000e+000
    endloop
  endfacet
  facet normal -9.510577e-001  3.090135e-001  0.000000e+000
    outer loop
      vertex -4.104782e+001 -2.304351e+001 -8.498267e-014
      vertex -4.079000e+001 -2.225000e+001  1.000000e+000
      vertex -4.079000e+001 -2.225000e+001 -8.426268e-014
    endloop
  endfacet
  facet normal -5.877830e-001  8.090186e-001  0.000000e+000
    outer loop
      vertex -4.104782e+001 -2.304351e+001  1.000000e+000
      vertex -4.172283e+001 -2.353393e+001 -8.637207e-014
      vertex -4.172283e+001 -2.353393e+001  1.000000e+000
    endloop
  endfacet
  facet normal  0.000000e+000  1.000000e+000  0.000000e+000
    outer loop
      vertex -4.172283e+001 -2.353393e+001  1.000000e+000
      vertex -4.172283e+001 -2.353393e+001 -8.637207e-014
      vertex -4.255717e+001 -2.353393e+001 -8.808947e-014
    endloop
  endfacet
  facet normal  0.000000e+000  1.000000e+000  0.000000e+000
    outer loop
      vertex -4.172283e+001 -2.353393e+001  1.000000e+000
      vertex -4.255717e+001 -2.353393e+001 -8.808947e-014
      vertex -4.255717e+001 -2.353393e+001  1.000000e+000
    endloop
  endfacet
  facet normal  5.877830e-001  8.090186e-001  0.000000e+000
    outer loop
      vertex -4.255717e+001 -2.353393e+001  1.000000e+000
      vertex -4.255717e+001 -2.353393e+001 -8.808947e-014
      vertex -4.323217e+001 -2.304351e+001 -8.947887e-014
    endloop
  endfacet
  facet normal  5.877830e-001  8.090186e-001  -0.000000e+000
    outer loop
      vertex -4.255717e+001 -2.353393e+001  1.000000e+000
      vertex -4.323217e+001 -2.304351e+001 -8.947887e-014
      vertex -4.323217e+001 -2.304351e+001  1.000000e+000
    endloop
  endfacet
  facet normal  9.510577e-001  3.090135e-001  0.000000e+000
    outer loop
      vertex -4.323217e+001 -2.304351e+001  1.000000e+000
      vertex -4.323217e+001 -2.304351e+001 -8.947887e-014
      vertex -4.349000e+001 -2.225000e+001 -8.982029e-014
    endloop
  endfacet
  facet normal  9.510577e-001  3.090135e-001  -0.000000e+000
    outer loop
      vertex -4.323217e+001 -2.304351e+001  1.000000e+000
      vertex -4.349000e+001 -2.225000e+001 -8.982029e-014
      vertex -4.349000e+001 -2.225000e+001  1.000000e+000
    endloop
  endfacet
  facet normal  5.877830e-001 -8.090186e-001  0.000000e+000
    outer loop
      vertex -4.255717e+001  2.353393e+001 -8.808947e-014
      vertex -4.323217e+001  2.304351e+001  1.000000e+000
      vertex -4.323217e+001  2.304351e+001 -8.947887e-014
    endloop
  endfacet
  facet normal  9.510577e-001 -3.090135e-001  0.000000e+000
    outer loop
      vertex -4.323217e+001  2.304351e+001 -8.947887e-014
      vertex -4.323217e+001  2.304351e+001  1.000000e+000
      vertex -4.349000e+001  2.225000e+001  1.000000e+000
    endloop
  endfacet
  facet normal  9.510577e-001 -3.090135e-001  0.000000e+000
    outer loop
      vertex -4.323217e+001  2.304351e+001 -8.947887e-014
      vertex -4.349000e+001  2.225000e+001  1.000000e+000
      vertex -4.349000e+001  2.225000e+001 -8.982029e-014
    endloop
  endfacet
  facet normal  5.877830e-001 -8.090186e-001  0.000000e+000
    outer loop
      vertex -4.323217e+001  2.304351e+001  1.000000e+000
      vertex -4.255717e+001  2.353393e+001 -8.808947e-014
      vertex -4.255717e+001  2.353393e+001  1.000000e+000
    endloop
  endfacet
  facet normal  0.000000e+000 -1.000000e+000  0.000000e+000
    outer loop
      vertex -4.255717e+001  2.353393e+001  1.000000e+000
      vertex -4.255717e+001  2.353393e+001 -8.808947e-014
      vertex -4.172283e+001  2.353393e+001 -8.637207e-014
    endloop
  endfacet
  facet normal  0.000000e+000 -1.000000e+000  0.000000e+000
    outer loop
      vertex -4.255717e+001  2.353393e+001  1.000000e+000
      vertex -4.172283e+001  2.353393e+001 -8.637207e-014
      vertex -4.172283e+001  2.353393e+001  1.000000e+000
    endloop
  endfacet
  facet normal -5.877830e-001 -8.090186e-001  -0.000000e+000
    outer loop
      vertex -4.172283e+001  2.353393e+001  1.000000e+000
      vertex -4.172283e+001  2.353393e+001 -8.637207e-014
      vertex -4.104782e+001  2.304351e+001 -8.498267e-014
    endloop
  endfacet
  facet normal -5.877830e-001 -8.090186e-001  0.000000e+000
    outer loop
      vertex -4.172283e+001  2.353393e+001  1.000000e+000
      vertex -4.104782e+001  2.304351e+001 -8.498267e-014
      vertex -4.104782e+001  2.304351e+001  1.000000e+000
    endloop
  endfacet
  facet normal -9.510577e-001 -3.090135e-001  -0.000000e+000
    outer loop
      vertex -4.104782e+001  2.304351e+001  1.000000e+000
      vertex -4.104782e+001  2.304351e+001 -8.498267e-014
      vertex -4.079000e+001  2.225000e+001 -8.426268e-014
    endloop
  endfacet
  facet normal -9.510577e-001 -3.090135e-001  0.000000e+000
    outer loop
      vertex -4.104782e+001  2.304351e+001  1.000000e+000
      vertex -4.079000e+001  2.225000e+001 -8.426268e-014
      vertex -4.079000e+001  2.225000e+001  1.000000e+000
    endloop
  endfacet
  facet normal -5.877830e-001  8.090186e-001  0.000000e+000
    outer loop
      vertex -4.172283e+001  2.096607e+001 -8.637207e-014
      vertex -4.104782e+001  2.145649e+001  1.000000e+000
      vertex -4.104782e+001  2.145649e+001 -8.498267e-014
    endloop
  endfacet
  facet normal -9.510577e-001  3.090135e-001  0.000000e+000
    outer loop
      vertex -4.104782e+001  2.145649e+001 -8.498267e-014
      vertex -4.104782e+001  2.145649e+001  1.000000e+000
      vertex -4.079000e+001  2.225000e+001  1.000000e+000
    endloop
  endfacet
  facet normal -9.510577e-001  3.090135e-001  0.000000e+000
    outer loop
      vertex -4.104782e+001  2.145649e+001 -8.498267e-014
      vertex -4.079000e+001  2.225000e+001  1.000000e+000
      vertex -4.079000e+001  2.225000e+001 -8.426268e-014
    endloop
  endfacet
  facet normal -5.877830e-001  8.090186e-001  0.000000e+000
    outer loop
      vertex -4.104782e+001  2.145649e+001  1.000000e+000
      vertex -4.172283e+001  2.096607e+001 -8.637207e-014
      vertex -4.172283e+001  2.096607e+001  1.000000e+000
    endloop
  endfacet
  facet normal  0.000000e+000  1.000000e+000  0.000000e+000
    outer loop
      vertex -4.172283e+001  2.096607e+001  1.000000e+000
      vertex -4.172283e+001  2.096607e+001 -8.637207e-014
      vertex -4.255717e+001  2.096607e+001 -8.808947e-014
    endloop
  endfacet
  facet normal  0.000000e+000  1.000000e+000  0.000000e+000
    outer loop
      vertex -4.172283e+001  2.096607e+001  1.000000e+000
      vertex -4.255717e+001  2.096607e+001 -8.808947e-014
      vertex -4.255717e+001  2.096607e+001  1.000000e+000
    endloop
  endfacet
  facet normal  5.877830e-001  8.090186e-001  0.000000e+000
    outer loop
      vertex -4.255717e+001  2.096607e+001  1.000000e+000
      vertex -4.255717e+001  2.096607e+001 -8.808947e-014
      vertex -4.323217e+001  2.145649e+001 -8.947887e-014
    endloop
  endfacet
  facet normal  5.877830e-001  8.090186e-001  -0.000000e+000
    outer loop
      vertex -4.255717e+001  2.096607e+001  1.000000e+000
      vertex -4.323217e+001  2.145649e+001 -8.947887e-014
      vertex -4.323217e+001  2.145649e+001  1.000000e+000
    endloop
  endfacet
  facet normal  9.510577e-001  3.090135e-001  0.000000e+000
    outer loop
      vertex -4.323217e+001  2.145649e+001  1.000000e+000
      vertex -4.323217e+001  2.145649e+001 -8.947887e-014
      vertex -4.349000e+001  2.225000e+001 -8.982029e-014
    endloop
  endfacet
  facet normal  9.510577e-001  3.090135e-001  -0.000000e+000
    outer loop
      vertex -4.323217e+001  2.145649e+001  1.000000e+000
      vertex -4.349000e+001  2.225000e+001 -8.982029e-014
      vertex -4.349000e+001  2.225000e+001  1.000000e+000
    endloop
  endfacet
  facet normal -2.347566e-007 -1.850392e-001  9.827312e-001
    outer loop
      vertex -4.550000e+001  2.555667e+001  1.000000e+000
      vertex -4.186353e+001  2.936475e+001  1.717027e+000
      vertex -4.215000e+001  3.023121e+001  1.880172e+000
    endloop
  endfacet
  facet normal  1.646274e-007 -1.850396e-001  9.827310e-001
    outer loop
      vertex -4.550000e+001  2.555667e+001  1.000000e+000
      vertex -4.111353e+001  2.882926e+001  1.616198e+000
      vertex -4.186353e+001  2.936475e+001  1.717027e+000
    endloop
  endfacet
  facet normal  0.000000e+000 -1.850394e-001  9.827310e-001
    outer loop
      vertex -3.580000e+001  3.499745e+001  2.777613e+000
      vertex -4.550000e+001  3.499745e+001  2.777613e+000
      vertex -4.111353e+001  3.163316e+001  2.144146e+000
    endloop
  endfacet
  facet normal  0.000000e+000 -1.850394e-001  9.827311e-001
    outer loop
      vertex -3.580000e+001  3.499745e+001  2.777613e+000
      vertex -4.111353e+001  3.163316e+001  2.144146e+000
      vertex -4.018647e+001  3.163316e+001  2.144146e+000
    endloop
  endfacet
  facet normal  0.000000e+000 -1.850394e-001  9.827310e-001
    outer loop
      vertex -3.580000e+001  3.499745e+001  2.777613e+000
      vertex -4.018647e+001  3.163316e+001  2.144146e+000
      vertex -3.943647e+001  3.109766e+001  2.043317e+000
    endloop
  endfacet
  facet normal  1.235184e-007 -1.850395e-001  9.827310e-001
    outer loop
      vertex -3.580000e+001  3.499745e+001  2.777613e+000
      vertex -3.943647e+001  3.109766e+001  2.043317e+000
      vertex -3.915000e+001  3.023121e+001  1.880172e+000
    endloop
  endfacet
  facet normal  0.000000e+000 -1.850394e-001  9.827311e-001
    outer loop
      vertex -3.580000e+001  2.555667e+001  1.000000e+000
      vertex -3.580000e+001  3.499745e+001  2.777613e+000
      vertex -3.915000e+001  3.023121e+001  1.880172e+000
    endloop
  endfacet
  facet normal  2.347574e-007 -1.850392e-001  9.827312e-001
    outer loop
      vertex -3.580000e+001  2.555667e+001  1.000000e+000
      vertex -3.915000e+001  3.023121e+001  1.880172e+000
      vertex -3.943647e+001  2.936475e+001  1.717027e+000
    endloop
  endfacet
  facet normal -1.646274e-007 -1.850396e-001  9.827310e-001
    outer loop
      vertex -3.580000e+001  2.555667e+001  1.000000e+000
      vertex -3.943647e+001  2.936475e+001  1.717027e+000
      vertex -4.018647e+001  2.882926e+001  1.616198e+000
    endloop
  endfacet
  facet normal  0.000000e+000 -1.850394e-001  9.827310e-001
    outer loop
      vertex -3.580000e+001  2.555667e+001  1.000000e+000
      vertex -4.018647e+001  2.882926e+001  1.616198e+000
      vertex -4.111353e+001  2.882926e+001  1.616198e+000
    endloop
  endfacet
  facet normal  0.000000e+000 -1.850394e-001  9.827311e-001
    outer loop
      vertex -3.580000e+001  2.555667e+001  1.000000e+000
      vertex -4.111353e+001  2.882926e+001  1.616198e+000
      vertex -4.550000e+001  2.555667e+001  1.000000e+000
    endloop
  endfacet
  facet normal  2.963347e-008 -1.850394e-001  9.827311e-001
    outer loop
      vertex -4.550000e+001  3.499745e+001  2.777613e+000
      vertex -4.550000e+001  2.555667e+001  1.000000e+000
      vertex -4.215000e+001  3.023121e+001  1.880172e+000
    endloop
  endfacet
  facet normal -1.235180e-007 -1.850395e-001  9.827311e-001
    outer loop
      vertex -4.550000e+001  3.499745e+001  2.777613e+000
      vertex -4.215000e+001  3.023121e+001  1.880172e+000
      vertex -4.186353e+001  3.109766e+001  2.043317e+000
    endloop
  endfacet
  facet normal  0.000000e+000 -1.850394e-001  9.827311e-001
    outer loop
      vertex -4.550000e+001  3.499745e+001  2.777613e+000
      vertex -4.186353e+001  3.109766e+001  2.043317e+000
      vertex -4.111353e+001  3.163316e+001  2.144146e+000
    endloop
  endfacet
  facet normal  1.784149e-007  1.850395e-001 -9.827311e-001
    outer loop
      vertex -4.550000e+001  3.518249e+001  1.794882e+000
      vertex -4.186353e+001  3.128270e+001  1.060586e+000
      vertex -4.215000e+001  3.041625e+001  8.974410e-001
    endloop
  endfacet
  facet normal -9.617950e-008  1.850393e-001 -9.827312e-001
    outer loop
      vertex -4.550000e+001  3.518249e+001  1.794882e+000
      vertex -4.111353e+001  3.181820e+001  1.161415e+000
      vertex -4.186353e+001  3.128270e+001  1.060586e+000
    endloop
  endfacet
  facet normal -1.784155e-007  1.850395e-001 -9.827310e-001
    outer loop
      vertex -3.580000e+001  3.518249e+001  1.794882e+000
      vertex -3.915000e+001  3.041625e+001  8.974410e-001
      vertex -3.943647e+001  3.128270e+001  1.060586e+000
    endloop
  endfacet
  facet normal  9.617949e-008  1.850393e-001 -9.827312e-001
    outer loop
      vertex -3.580000e+001  3.518249e+001  1.794882e+000
      vertex -3.943647e+001  3.128270e+001  1.060586e+000
      vertex -4.018647e+001  3.181820e+001  1.161415e+000
    endloop
  endfacet
  facet normal  0.000000e+000  1.850394e-001 -9.827311e-001
    outer loop
      vertex -3.580000e+001  3.518249e+001  1.794882e+000
      vertex -4.018647e+001  3.181820e+001  1.161415e+000
      vertex -4.111353e+001  3.181820e+001  1.161415e+000
    endloop
  endfacet
  facet normal  0.000000e+000  1.850394e-001 -9.827310e-001
    outer loop
      vertex -3.580000e+001  3.518249e+001  1.794882e+000
      vertex -4.111353e+001  3.181820e+001  1.161415e+000
      vertex -4.550000e+001  3.518249e+001  1.794882e+000
    endloop
  endfacet
  facet normal -5.869671e-008  1.850394e-001 -9.827311e-001
    outer loop
      vertex -4.550000e+001  2.565000e+001 -9.414691e-014
      vertex -4.550000e+001  3.518249e+001  1.794882e+000
      vertex -4.215000e+001  3.041625e+001  8.974410e-001
    endloop
  endfacet
  facet normal  1.509662e-007  1.850392e-001 -9.827311e-001
    outer loop
      vertex -4.550000e+001  2.565000e+001 -9.414691e-014
      vertex -4.215000e+001  3.041625e+001  8.974410e-001
      vertex -4.186353e+001  2.954979e+001  7.342958e-001
    endloop
  endfacet
  facet normal -1.863480e-007  1.850395e-001 -9.827310e-001
    outer loop
      vertex -4.550000e+001  2.565000e+001 -9.414691e-014
      vertex -4.186353e+001  2.954979e+001  7.342958e-001
      vertex -4.111353e+001  2.901430e+001  6.334666e-001
    endloop
  endfacet
  facet normal  0.000000e+000  1.850393e-001 -9.827310e-001
    outer loop
      vertex -4.550000e+001  2.565000e+001 -9.414691e-014
      vertex -4.111353e+001  2.901430e+001  6.334666e-001
      vertex -4.018647e+001  2.901430e+001  6.334666e-001
    endloop
  endfacet
  facet normal  0.000000e+000  1.850393e-001 -9.827310e-001
    outer loop
      vertex -4.550000e+001  2.565000e+001 -9.414691e-014
      vertex -4.018647e+001  2.901430e+001  6.334666e-001
      vertex -3.580000e+001  2.565000e+001 -7.418067e-014
    endloop
  endfacet
  facet normal  1.863480e-007  1.850395e-001 -9.827310e-001
    outer loop
      vertex -3.580000e+001  2.565000e+001 -7.418067e-014
      vertex -4.018647e+001  2.901430e+001  6.334666e-001
      vertex -3.943647e+001  2.954979e+001  7.342958e-001
    endloop
  endfacet
  facet normal -1.509668e-007  1.850393e-001 -9.827312e-001
    outer loop
      vertex -3.580000e+001  2.565000e+001 -7.418067e-014
      vertex -3.943647e+001  2.954979e+001  7.342958e-001
      vertex -3.915000e+001  3.041625e+001  8.974410e-001
    endloop
  endfacet
  facet normal  5.869664e-008  1.850394e-001 -9.827311e-001
    outer loop
      vertex -3.580000e+001  2.565000e+001 -7.418067e-014
      vertex -3.915000e+001  3.041625e+001  8.974410e-001
      vertex -3.580000e+001  3.518249e+001  1.794882e+000
    endloop
  endfacet
  facet normal  5.877857e-001 -7.950457e-001 -1.497000e-001
    outer loop
      vertex -4.111353e+001  3.181820e+001  1.161415e+000
      vertex -4.186353e+001  3.109766e+001  2.043317e+000
      vertex -4.186353e+001  3.128270e+001  1.060586e+000
    endloop
  endfacet
  facet normal  9.510559e-001 -3.036825e-001 -5.718071e-002
    outer loop
      vertex -4.186353e+001  3.128270e+001  1.060586e+000
      vertex -4.186353e+001  3.109766e+001  2.043317e+000
      vertex -4.215000e+001  3.023121e+001  1.880172e+000
    endloop
  endfacet
  facet normal  9.510559e-001 -3.036825e-001 -5.718071e-002
    outer loop
      vertex -4.186353e+001  3.128270e+001  1.060586e+000
      vertex -4.215000e+001  3.023121e+001  1.880172e+000
      vertex -4.215000e+001  3.041625e+001  8.974410e-001
    endloop
  endfacet
  facet normal  5.877858e-001 -7.950458e-001 -1.497000e-001
    outer loop
      vertex -4.186353e+001  3.109766e+001  2.043317e+000
      vertex -4.111353e+001  3.181820e+001  1.161415e+000
      vertex -4.111353e+001  3.163316e+001  2.144146e+000
    endloop
  endfacet
  facet normal  0.000000e+000 -9.827310e-001 -1.850395e-001
    outer loop
      vertex -4.111353e+001  3.163316e+001  2.144146e+000
      vertex -4.111353e+001  3.181820e+001  1.161415e+000
      vertex -4.018647e+001  3.181820e+001  1.161415e+000
    endloop
  endfacet
  facet normal  0.000000e+000 -9.827310e-001 -1.850395e-001
    outer loop
      vertex -4.111353e+001  3.163316e+001  2.144146e+000
      vertex -4.018647e+001  3.181820e+001  1.161415e+000
      vertex -4.018647e+001  3.163316e+001  2.144146e+000
    endloop
  endfacet
  facet normal -5.877858e-001 -7.950458e-001 -1.497000e-001
    outer loop
      vertex -4.018647e+001  3.163316e+001  2.144146e+000
      vertex -4.018647e+001  3.181820e+001  1.161415e+000
      vertex -3.943647e+001  3.128270e+001  1.060586e+000
    endloop
  endfacet
  facet normal -5.877857e-001 -7.950457e-001 -1.497000e-001
    outer loop
      vertex -4.018647e+001  3.163316e+001  2.144146e+000
      vertex -3.943647e+001  3.128270e+001  1.060586e+000
      vertex -3.943647e+001  3.109766e+001  2.043317e+000
    endloop
  endfacet
  facet normal -9.510571e-001 -3.036788e-001 -5.718003e-002
    outer loop
      vertex -3.943647e+001  3.109766e+001  2.043317e+000
      vertex -3.943647e+001  3.128270e+001  1.060586e+000
      vertex -3.915000e+001  3.041625e+001  8.974410e-001
    endloop
  endfacet
  facet normal -9.510571e-001 -3.036788e-001 -5.718002e-002
    outer loop
      vertex -3.943647e+001  3.109766e+001  2.043317e+000
      vertex -3.915000e+001  3.041625e+001  8.974410e-001
      vertex -3.915000e+001  3.023121e+001  1.880172e+000
    endloop
  endfacet
  facet normal -5.877844e-001  7.950467e-001  1.497002e-001
    outer loop
      vertex -4.018647e+001  2.901430e+001  6.334666e-001
      vertex -3.943647e+001  2.936475e+001  1.717027e+000
      vertex -3.943647e+001  2.954979e+001  7.342958e-001
    endloop
  endfacet
  facet normal -9.510573e-001  3.036782e-001  5.717991e-002
    outer loop
      vertex -3.943647e+001  2.954979e+001  7.342958e-001
      vertex -3.943647e+001  2.936475e+001  1.717027e+000
      vertex -3.915000e+001  3.023121e+001  1.880172e+000
    endloop
  endfacet
  facet normal -9.510573e-001  3.036782e-001  5.717992e-002
    outer loop
      vertex -3.943647e+001  2.954979e+001  7.342958e-001
      vertex -3.915000e+001  3.023121e+001  1.880172e+000
      vertex -3.915000e+001  3.041625e+001  8.974410e-001
    endloop
  endfacet
  facet normal -5.877844e-001  7.950467e-001  1.497002e-001
    outer loop
      vertex -3.943647e+001  2.936475e+001  1.717027e+000
      vertex -4.018647e+001  2.901430e+001  6.334666e-001
      vertex -4.018647e+001  2.882926e+001  1.616198e+000
    endloop
  endfacet
  facet normal  0.000000e+000  9.827310e-001  1.850395e-001
    outer loop
      vertex -4.018647e+001  2.882926e+001  1.616198e+000
      vertex -4.018647e+001  2.901430e+001  6.334666e-001
      vertex -4.111353e+001  2.901430e+001  6.334666e-001
    endloop
  endfacet
  facet normal  0.000000e+000  9.827310e-001  1.850395e-001
    outer loop
      vertex -4.018647e+001  2.882926e+001  1.616198e+000
      vertex -4.111353e+001  2.901430e+001  6.334666e-001
      vertex -4.111353e+001  2.882926e+001  1.616198e+000
    endloop
  endfacet
  facet normal  5.877845e-001  7.950467e-001  1.497002e-001
    outer loop
      vertex -4.111353e+001  2.882926e+001  1.616198e+000
      vertex -4.111353e+001  2.901430e+001  6.334666e-001
      vertex -4.186353e+001  2.954979e+001  7.342958e-001
    endloop
  endfacet
  facet normal  5.877845e-001  7.950467e-001  1.497002e-001
    outer loop
      vertex -4.111353e+001  2.882926e+001  1.616198e+000
      vertex -4.186353e+001  2.954979e+001  7.342958e-001
      vertex -4.186353e+001  2.936475e+001  1.717027e+000
    endloop
  endfacet
  facet normal  9.510561e-001  3.036819e-001  5.718059e-002
    outer loop
      vertex -4.186353e+001  2.936475e+001  1.717027e+000
      vertex -4.186353e+001  2.954979e+001  7.342958e-001
      vertex -4.215000e+001  3.041625e+001  8.974410e-001
    endloop
  endfacet
  facet normal  9.510561e-001  3.036819e-001  5.718060e-002
    outer loop
      vertex -4.186353e+001  2.936475e+001  1.717027e+000
      vertex -4.215000e+001  3.041625e+001  8.974410e-001
      vertex -4.215000e+001  3.023121e+001  1.880172e+000
    endloop
  endfacet
  facet normal -2.347566e-007  1.850392e-001  9.827312e-001
    outer loop
      vertex -4.215000e+001 -3.023121e+001  1.880172e+000
      vertex -4.186353e+001 -2.936475e+001  1.717027e+000
      vertex -4.550000e+001 -2.555667e+001  1.000000e+000
    endloop
  endfacet
  facet normal  1.646274e-007  1.850396e-001  9.827310e-001
    outer loop
      vertex -4.186353e+001 -2.936475e+001  1.717027e+000
      vertex -4.111353e+001 -2.882926e+001  1.616198e+000
      vertex -4.550000e+001 -2.555667e+001  1.000000e+000
    endloop
  endfacet
  facet normal  -0.000000e+000  1.850393e-001  9.827311e-001
    outer loop
      vertex -3.580000e+001 -2.555667e+001  1.000000e+000
      vertex -4.550000e+001 -2.555667e+001  1.000000e+000
      vertex -4.111353e+001 -2.882926e+001  1.616198e+000
    endloop
  endfacet
  facet normal  -0.000000e+000  1.850394e-001  9.827310e-001
    outer loop
      vertex -3.580000e+001 -2.555667e+001  1.000000e+000
      vertex -4.111353e+001 -2.882926e+001  1.616198e+000
      vertex -4.018647e+001 -2.882926e+001  1.616198e+000
    endloop
  endfacet
  facet normal -1.646274e-007  1.850396e-001  9.827310e-001
    outer loop
      vertex -3.580000e+001 -2.555667e+001  1.000000e+000
      vertex -4.018647e+001 -2.882926e+001  1.616198e+000
      vertex -3.943647e+001 -2.936475e+001  1.717027e+000
    endloop
  endfacet
  facet normal  2.347574e-007  1.850392e-001  9.827312e-001
    outer loop
      vertex -3.580000e+001 -2.555667e+001  1.000000e+000
      vertex -3.943647e+001 -2.936475e+001  1.717027e+000
      vertex -3.915000e+001 -3.023121e+001  1.880172e+000
    endloop
  endfacet
  facet normal  0.000000e+000  1.850394e-001  9.827310e-001
    outer loop
      vertex -4.550000e+001 -3.499745e+001  2.777613e+000
      vertex -3.580000e+001 -3.499745e+001  2.777613e+000
      vertex -4.018647e+001 -3.163316e+001  2.144146e+000
    endloop
  endfacet
  facet normal  0.000000e+000  1.850394e-001  9.827311e-001
    outer loop
      vertex -4.550000e+001 -3.499745e+001  2.777613e+000
      vertex -4.018647e+001 -3.163316e+001  2.144146e+000
      vertex -4.111353e+001 -3.163316e+001  2.144146e+000
    endloop
  endfacet
  facet normal  0.000000e+000  1.850394e-001  9.827310e-001
    outer loop
      vertex -4.550000e+001 -3.499745e+001  2.777613e+000
      vertex -4.111353e+001 -3.163316e+001  2.144146e+000
      vertex -4.186353e+001 -3.109766e+001  2.043317e+000
    endloop
  endfacet
  facet normal -1.235180e-007  1.850395e-001  9.827311e-001
    outer loop
      vertex -4.550000e+001 -3.499745e+001  2.777613e+000
      vertex -4.186353e+001 -3.109766e+001  2.043317e+000
      vertex -4.215000e+001 -3.023121e+001  1.880172e+000
    endloop
  endfacet
  facet normal  1.481673e-008  1.850394e-001  9.827310e-001
    outer loop
      vertex -4.550000e+001 -3.499745e+001  2.777613e+000
      vertex -4.215000e+001 -3.023121e+001  1.880172e+000
      vertex -4.550000e+001 -2.555667e+001  1.000000e+000
    endloop
  endfacet
  facet normal -2.963343e-008  1.850394e-001  9.827311e-001
    outer loop
      vertex -3.580000e+001 -3.499745e+001  2.777613e+000
      vertex -3.580000e+001 -2.555667e+001  1.000000e+000
      vertex -3.915000e+001 -3.023121e+001  1.880172e+000
    endloop
  endfacet
  facet normal  1.235184e-007  1.850395e-001  9.827310e-001
    outer loop
      vertex -3.580000e+001 -3.499745e+001  2.777613e+000
      vertex -3.915000e+001 -3.023121e+001  1.880172e+000
      vertex -3.943647e+001 -3.109766e+001  2.043317e+000
    endloop
  endfacet
  facet normal  0.000000e+000  1.850394e-001  9.827311e-001
    outer loop
      vertex -3.580000e+001 -3.499745e+001  2.777613e+000
      vertex -3.943647e+001 -3.109766e+001  2.043317e+000
      vertex -4.018647e+001 -3.163316e+001  2.144146e+000
    endloop
  endfacet
  facet normal  1.784149e-007 -1.850395e-001 -9.827311e-001
    outer loop
      vertex -4.215000e+001 -3.041625e+001  8.974410e-001
      vertex -4.186353e+001 -3.128270e+001  1.060586e+000
      vertex -4.550000e+001 -3.518249e+001  1.794882e+000
    endloop
  endfacet
  facet normal -9.617950e-008 -1.850393e-001 -9.827312e-001
    outer loop
      vertex -4.186353e+001 -3.128270e+001  1.060586e+000
      vertex -4.111353e+001 -3.181820e+001  1.161415e+000
      vertex -4.550000e+001 -3.518249e+001  1.794882e+000
    endloop
  endfacet
  facet normal  0.000000e+000 -1.850394e-001 -9.827310e-001
    outer loop
      vertex -3.580000e+001 -3.518249e+001  1.794882e+000
      vertex -4.550000e+001 -3.518249e+001  1.794882e+000
      vertex -4.111353e+001 -3.181820e+001  1.161415e+000
    endloop
  endfacet
  facet normal  0.000000e+000 -1.850394e-001 -9.827311e-001
    outer loop
      vertex -3.580000e+001 -3.518249e+001  1.794882e+000
      vertex -4.111353e+001 -3.181820e+001  1.161415e+000
      vertex -4.018647e+001 -3.181820e+001  1.161415e+000
    endloop
  endfacet
  facet normal  9.617950e-008 -1.850393e-001 -9.827312e-001
    outer loop
      vertex -3.580000e+001 -3.518249e+001  1.794882e+000
      vertex -4.018647e+001 -3.181820e+001  1.161415e+000
      vertex -3.943647e+001 -3.128270e+001  1.060586e+000
    endloop
  endfacet
  facet normal -1.784155e-007 -1.850395e-001 -9.827310e-001
    outer loop
      vertex -3.580000e+001 -3.518249e+001  1.794882e+000
      vertex -3.943647e+001 -3.128270e+001  1.060586e+000
      vertex -3.915000e+001 -3.041625e+001  8.974410e-001
    endloop
  endfacet
  facet normal  2.022829e-015 -1.850393e-001 -9.827310e-001
    outer loop
      vertex -4.550000e+001 -2.565000e+001 -9.325873e-014
      vertex -3.580000e+001 -2.565000e+001 -7.329249e-014
      vertex -4.018647e+001 -2.901430e+001  6.334666e-001
    endloop
  endfacet
  facet normal  -0.000000e+000 -1.850393e-001 -9.827310e-001
    outer loop
      vertex -4.550000e+001 -2.565000e+001 -9.325873e-014
      vertex -4.018647e+001 -2.901430e+001  6.334666e-001
      vertex -4.111353e+001 -2.901430e+001  6.334666e-001
    endloop
  endfacet
  facet normal -1.863480e-007 -1.850395e-001 -9.827310e-001
    outer loop
      vertex -4.550000e+001 -2.565000e+001 -9.325873e-014
      vertex -4.111353e+001 -2.901430e+001  6.334666e-001
      vertex -4.186353e+001 -2.954979e+001  7.342958e-001
    endloop
  endfacet
  facet normal  1.509662e-007 -1.850392e-001 -9.827312e-001
    outer loop
      vertex -4.550000e+001 -2.565000e+001 -9.325873e-014
      vertex -4.186353e+001 -2.954979e+001  7.342958e-001
      vertex -4.215000e+001 -3.041625e+001  8.974410e-001
    endloop
  endfacet
  facet normal -5.869670e-008 -1.850394e-001 -9.827310e-001
    outer loop
      vertex -4.550000e+001 -2.565000e+001 -9.325873e-014
      vertex -4.215000e+001 -3.041625e+001  8.974410e-001
      vertex -4.550000e+001 -3.518249e+001  1.794882e+000
    endloop
  endfacet
  facet normal  5.869664e-008 -1.850394e-001 -9.827311e-001
    outer loop
      vertex -3.580000e+001 -2.565000e+001 -7.329249e-014
      vertex -3.580000e+001 -3.518249e+001  1.794882e+000
      vertex -3.915000e+001 -3.041625e+001  8.974410e-001
    endloop
  endfacet
  facet normal -1.509668e-007 -1.850393e-001 -9.827312e-001
    outer loop
      vertex -3.580000e+001 -2.565000e+001 -7.329249e-014
      vertex -3.915000e+001 -3.041625e+001  8.974410e-001
      vertex -3.943647e+001 -2.954979e+001  7.342958e-001
    endloop
  endfacet
  facet normal  1.863480e-007 -1.850395e-001 -9.827310e-001
    outer loop
      vertex -3.580000e+001 -2.565000e+001 -7.329249e-014
      vertex -3.943647e+001 -2.954979e+001  7.342958e-001
      vertex -4.018647e+001 -2.901430e+001  6.334666e-001
    endloop
  endfacet
  facet normal  5.877857e-001  7.950457e-001 -1.497000e-001
    outer loop
      vertex -4.111353e+001 -3.163316e+001  2.144146e+000
      vertex -4.186353e+001 -3.128270e+001  1.060586e+000
      vertex -4.186353e+001 -3.109766e+001  2.043317e+000
    endloop
  endfacet
  facet normal  9.510559e-001  3.036825e-001 -5.718071e-002
    outer loop
      vertex -4.186353e+001 -3.109766e+001  2.043317e+000
      vertex -4.186353e+001 -3.128270e+001  1.060586e+000
      vertex -4.215000e+001 -3.041625e+001  8.974410e-001
    endloop
  endfacet
  facet normal  9.510559e-001  3.036825e-001 -5.718071e-002
    outer loop
      vertex -4.186353e+001 -3.109766e+001  2.043317e+000
      vertex -4.215000e+001 -3.041625e+001  8.974410e-001
      vertex -4.215000e+001 -3.023121e+001  1.880172e+000
    endloop
  endfacet
  facet normal  5.877858e-001  7.950458e-001 -1.497000e-001
    outer loop
      vertex -4.186353e+001 -3.128270e+001  1.060586e+000
      vertex -4.111353e+001 -3.163316e+001  2.144146e+000
      vertex -4.111353e+001 -3.181820e+001  1.161415e+000
    endloop
  endfacet
  facet normal  0.000000e+000  9.827310e-001 -1.850395e-001
    outer loop
      vertex -4.111353e+001 -3.181820e+001  1.161415e+000
      vertex -4.111353e+001 -3.163316e+001  2.144146e+000
      vertex -4.018647e+001 -3.163316e+001  2.144146e+000
    endloop
  endfacet
  facet normal  0.000000e+000  9.827310e-001 -1.850395e-001
    outer loop
      vertex -4.111353e+001 -3.181820e+001  1.161415e+000
      vertex -4.018647e+001 -3.163316e+001  2.144146e+000
      vertex -4.018647e+001 -3.181820e+001  1.161415e+000
    endloop
  endfacet
  facet normal -5.877858e-001  7.950458e-001 -1.497000e-001
    outer loop
      vertex -4.018647e+001 -3.181820e+001  1.161415e+000
      vertex -4.018647e+001 -3.163316e+001  2.144146e+000
      vertex -3.943647e+001 -3.109766e+001  2.043317e+000
    endloop
  endfacet
  facet normal -5.877857e-001  7.950457e-001 -1.497000e-001
    outer loop
      vertex -4.018647e+001 -3.181820e+001  1.161415e+000
      vertex -3.943647e+001 -3.109766e+001  2.043317e+000
      vertex -3.943647e+001 -3.128270e+001  1.060586e+000
    endloop
  endfacet
  facet normal -9.510571e-001  3.036788e-001 -5.718003e-002
    outer loop
      vertex -3.943647e+001 -3.128270e+001  1.060586e+000
      vertex -3.943647e+001 -3.109766e+001  2.043317e+000
      vertex -3.915000e+001 -3.023121e+001  1.880172e+000
    endloop
  endfacet
  facet normal -9.510571e-001  3.036789e-001 -5.718003e-002
    outer loop
      vertex -3.943647e+001 -3.128270e+001  1.060586e+000
      vertex -3.915000e+001 -3.023121e+001  1.880172e+000
      vertex -3.915000e+001 -3.041625e+001  8.974410e-001
    endloop
  endfacet
  facet normal -5.877845e-001 -7.950467e-001  1.497002e-001
    outer loop
      vertex -4.018647e+001 -2.882926e+001  1.616198e+000
      vertex -3.943647e+001 -2.954979e+001  7.342958e-001
      vertex -3.943647e+001 -2.936475e+001  1.717027e+000
    endloop
  endfacet
  facet normal -9.510573e-001 -3.036782e-001  5.717991e-002
    outer loop
      vertex -3.943647e+001 -2.936475e+001  1.717027e+000
      vertex -3.943647e+001 -2.954979e+001  7.342958e-001
      vertex -3.915000e+001 -3.041625e+001  8.974410e-001
    endloop
  endfacet
  facet normal -9.510573e-001 -3.036782e-001  5.717992e-002
    outer loop
      vertex -3.943647e+001 -2.936475e+001  1.717027e+000
      vertex -3.915000e+001 -3.041625e+001  8.974410e-001
      vertex -3.915000e+001 -3.023121e+001  1.880172e+000
    endloop
  endfacet
  facet normal -5.877845e-001 -7.950467e-001  1.497002e-001
    outer loop
      vertex -3.943647e+001 -2.954979e+001  7.342958e-001
      vertex -4.018647e+001 -2.882926e+001  1.616198e+000
      vertex -4.018647e+001 -2.901430e+001  6.334666e-001
    endloop
  endfacet
  facet normal  0.000000e+000 -9.827310e-001  1.850395e-001
    outer loop
      vertex -4.018647e+001 -2.901430e+001  6.334666e-001
      vertex -4.018647e+001 -2.882926e+001  1.616198e+000
      vertex -4.111353e+001 -2.882926e+001  1.616198e+000
    endloop
  endfacet
  facet normal  0.000000e+000 -9.827310e-001  1.850395e-001
    outer loop
      vertex -4.018647e+001 -2.901430e+001  6.334666e-001
      vertex -4.111353e+001 -2.882926e+001  1.616198e+000
      vertex -4.111353e+001 -2.901430e+001  6.334666e-001
    endloop
  endfacet
  facet normal  5.877844e-001 -7.950467e-001  1.497002e-001
    outer loop
      vertex -4.111353e+001 -2.901430e+001  6.334666e-001
      vertex -4.111353e+001 -2.882926e+001  1.616198e+000
      vertex -4.186353e+001 -2.936475e+001  1.717027e+000
    endloop
  endfacet
  facet normal  5.877844e-001 -7.950467e-001  1.497002e-001
    outer loop
      vertex -4.111353e+001 -2.901430e+001  6.334666e-001
      vertex -4.186353e+001 -2.936475e+001  1.717027e+000
      vertex -4.186353e+001 -2.954979e+001  7.342958e-001
    endloop
  endfacet
  facet normal  9.510561e-001 -3.036819e-001  5.718060e-002
    outer loop
      vertex -4.186353e+001 -2.954979e+001  7.342958e-001
      vertex -4.186353e+001 -2.936475e+001  1.717027e+000
      vertex -4.215000e+001 -3.023121e+001  1.880172e+000
    endloop
  endfacet
  facet normal  9.510561e-001 -3.036819e-001  5.718060e-002
    outer loop
      vertex -4.186353e+001 -2.954979e+001  7.342958e-001
      vertex -4.215000e+001 -3.023121e+001  1.880172e+000
      vertex -4.215000e+001 -3.041625e+001  8.974410e-001
    endloop
  endfacet
  facet normal  1.000000e+000  0.000000e+000  0.000000e+000
    outer loop
      vertex -3.580000e+001  2.565000e+001 -7.418067e-014
      vertex -3.580000e+001  3.518249e+001  1.794882e+000
      vertex -3.580000e+001  3.499745e+001  2.777613e+000
    endloop
  endfacet
  facet normal  1.000000e+000  0.000000e+000  0.000000e+000
    outer loop
      vertex -3.580000e+001  2.565000e+001 -7.418067e-014
      vertex -3.580000e+001  3.499745e+001  2.777613e+000
      vertex -3.580000e+001  2.555667e+001  1.000000e+000
    endloop
  endfacet
  facet normal  1.000000e+000  0.000000e+000  0.000000e+000
    outer loop
      vertex -3.580000e+001  2.565000e+001 -7.418067e-014
      vertex -3.580000e+001  2.555667e+001  1.000000e+000
      vertex -3.580000e+001 -2.379500e-013  1.000000e+000
    endloop
  endfacet
  facet normal  1.000000e+000  0.000000e+000  0.000000e+000
    outer loop
      vertex -3.580000e+001  2.565000e+001 -7.418067e-014
      vertex -3.580000e+001 -2.379500e-013  1.000000e+000
      vertex -3.580000e+001 -2.555667e+001  1.000000e+000
    endloop
  endfacet
  facet normal  1.000000e+000  0.000000e+000  0.000000e+000
    outer loop
      vertex -3.580000e+001  2.565000e+001 -7.418067e-014
      vertex -3.580000e+001 -2.555667e+001  1.000000e+000
      vertex -3.580000e+001 -2.379500e-013 -7.418067e-014
    endloop
  endfacet
  facet normal  1.000000e+000  -0.000000e+000  0.000000e+000
    outer loop
      vertex -3.580000e+001 -3.499745e+001  2.777613e+000
      vertex -3.580000e+001 -3.518249e+001  1.794882e+000
      vertex -3.580000e+001 -2.555667e+001  1.000000e+000
    endloop
  endfacet
  facet normal  1.000000e+000  0.000000e+000  0.000000e+000
    outer loop
      vertex -3.580000e+001 -2.555667e+001  1.000000e+000
      vertex -3.580000e+001 -3.518249e+001  1.794882e+000
      vertex -3.580000e+001 -2.565000e+001 -7.329249e-014
    endloop
  endfacet
  facet normal  1.000000e+000  -0.000000e+000  0.000000e+000
    outer loop
      vertex -3.580000e+001 -2.555667e+001  1.000000e+000
      vertex -3.580000e+001 -2.565000e+001 -7.329249e-014
      vertex -3.580000e+001 -2.379500e-013 -7.418067e-014
    endloop
  endfacet
  facet normal -1.000000e+000  0.000000e+000  0.000000e+000
    outer loop
      vertex -4.550000e+001  2.565000e+001 -9.414691e-014
      vertex -4.550000e+001 -3.019807e-013 -9.414691e-014
      vertex -4.550000e+001 -2.555667e+001  1.000000e+000
    endloop
  endfacet
  facet normal -1.000000e+000  0.000000e+000  0.000000e+000
    outer loop
      vertex -4.550000e+001  2.565000e+001 -9.414691e-014
      vertex -4.550000e+001 -2.555667e+001  1.000000e+000
      vertex -4.550000e+001 -3.019807e-013  1.000000e+000
    endloop
  endfacet
  facet normal -1.000000e+000  0.000000e+000  0.000000e+000
    outer loop
      vertex -4.550000e+001  2.565000e+001 -9.414691e-014
      vertex -4.550000e+001 -3.019807e-013  1.000000e+000
      vertex -4.550000e+001  2.555667e+001  1.000000e+000
    endloop
  endfacet
  facet normal -1.000000e+000  0.000000e+000  0.000000e+000
    outer loop
      vertex -4.550000e+001  2.565000e+001 -9.414691e-014
      vertex -4.550000e+001  2.555667e+001  1.000000e+000
      vertex -4.550000e+001  3.499745e+001  2.777613e+000
    endloop
  endfacet
  facet normal -9.999999e-001  0.000000e+000  -0.000000e+000
    outer loop
      vertex -4.550000e+001  2.565000e+001 -9.414691e-014
      vertex -4.550000e+001  3.499745e+001  2.777613e+000
      vertex -4.550000e+001  3.518249e+001  1.794882e+000
    endloop
  endfacet
  facet normal -1.000000e+000  0.000000e+000  0.000000e+000
    outer loop
      vertex -4.550000e+001 -3.019807e-013 -9.414691e-014
      vertex -4.550000e+001 -2.565000e+001 -9.325873e-014
      vertex -4.550000e+001 -2.555667e+001  1.000000e+000
    endloop
  endfacet
  facet normal -1.000000e+000  -0.000000e+000  0.000000e+000
    outer loop
      vertex -4.550000e+001 -2.555667e+001  1.000000e+000
      vertex -4.550000e+001 -2.565000e+001 -9.325873e-014
      vertex -4.550000e+001 -3.518249e+001  1.794882e+000
    endloop
  endfacet
  facet normal -1.000000e+000  0.000000e+000  0.000000e+000
    outer loop
      vertex -4.550000e+001 -2.555667e+001  1.000000e+000
      vertex -4.550000e+001 -3.518249e+001  1.794882e+000
      vertex -4.550000e+001 -3.499745e+001  2.777613e+000
    endloop
  endfacet
  facet normal  0.000000e+000 -9.827311e-001  1.850395e-001
    outer loop
      vertex -4.550000e+001 -3.518249e+001  1.794882e+000
      vertex -3.580000e+001 -3.518249e+001  1.794882e+000
      vertex -4.550000e+001 -3.499745e+001  2.777613e+000
    endloop
  endfacet
  facet normal  0.000000e+000 -9.827311e-001  1.850395e-001
    outer loop
      vertex -4.550000e+001 -3.499745e+001  2.777613e+000
      vertex -3.580000e+001 -3.518249e+001  1.794882e+000
      vertex -3.580000e+001 -3.499745e+001  2.777613e+000
    endloop
  endfacet
  facet normal  0.000000e+000  9.827311e-001  1.850395e-001
    outer loop
      vertex -4.550000e+001  3.518249e+001  1.794882e+000
      vertex -4.550000e+001  3.499745e+001  2.777613e+000
      vertex -3.580000e+001  3.518249e+001  1.794882e+000
    endloop
  endfacet
  facet normal  0.000000e+000  9.827311e-001  1.850395e-001
    outer loop
      vertex -3.580000e+001  3.518249e+001  1.794882e+000
      vertex -4.550000e+001  3.499745e+001  2.777613e+000
      vertex -3.580000e+001  3.499745e+001  2.777613e+000
    endloop
  endfacet
endsolid CATIA STL
