solid CATIA STL
  facet normal  -0.000000e+000  0.000000e+000  1.000000e+000
    outer loop
      vertex  1.381510e+000  9.608617e+000  3.000000e+000
      vertex -1.381511e+000  9.608617e+000  3.000000e+000
      vertex  4.032609e+000  8.830184e+000  3.000000e+000
    endloop
  endfacet
  facet normal  0.000000e+000  0.000000e+000  1.000000e+000
    outer loop
      vertex  4.032609e+000  8.830184e+000  3.000000e+000
      vertex -1.381511e+000  9.608617e+000  3.000000e+000
      vertex -4.032610e+000  8.830184e+000  3.000000e+000
    endloop
  endfacet
  facet normal  -0.000000e+000  0.000000e+000  1.000000e+000
    outer loop
      vertex  4.032609e+000  8.830184e+000  3.000000e+000
      vertex -4.032610e+000  8.830184e+000  3.000000e+000
      vertex  6.357011e+000  7.336382e+000  3.000000e+000
    endloop
  endfacet
  facet normal  0.000000e+000  0.000000e+000  1.000000e+000
    outer loop
      vertex  6.357011e+000  7.336382e+000  3.000000e+000
      vertex -4.032610e+000  8.830184e+000  3.000000e+000
      vertex -6.357011e+000  7.336381e+000  3.000000e+000
    endloop
  endfacet
  facet normal  -0.000000e+000  0.000000e+000  1.000000e+000
    outer loop
      vertex  6.357011e+000  7.336382e+000  3.000000e+000
      vertex -6.357011e+000  7.336381e+000  3.000000e+000
      vertex  8.166405e+000  5.248230e+000  3.000000e+000
    endloop
  endfacet
  facet normal  0.000000e+000  0.000000e+000  1.000000e+000
    outer loop
      vertex  8.166405e+000  5.248230e+000  3.000000e+000
      vertex -6.357011e+000  7.336381e+000  3.000000e+000
      vertex -8.166405e+000  5.248230e+000  3.000000e+000
    endloop
  endfacet
  facet normal  -0.000000e+000  0.000000e+000  1.000000e+000
    outer loop
      vertex  8.166405e+000  5.248230e+000  3.000000e+000
      vertex -8.166405e+000  5.248230e+000  3.000000e+000
      vertex  9.314205e+000  2.734898e+000  3.000000e+000
    endloop
  endfacet
  facet normal  0.000000e+000  0.000000e+000  1.000000e+000
    outer loop
      vertex  9.314205e+000  2.734898e+000  3.000000e+000
      vertex -8.166405e+000  5.248230e+000  3.000000e+000
      vertex -9.314205e+000  2.734897e+000  3.000000e+000
    endloop
  endfacet
  facet normal  -0.000000e+000  0.000000e+000  1.000000e+000
    outer loop
      vertex  9.314205e+000  2.734898e+000  3.000000e+000
      vertex -9.314205e+000  2.734897e+000  3.000000e+000
      vertex  9.707424e+000  8.750101e-016  3.000000e+000
    endloop
  endfacet
  facet normal  0.000000e+000  0.000000e+000  1.000000e+000
    outer loop
      vertex  9.707424e+000  8.750101e-016  3.000000e+000
      vertex -9.314205e+000  2.734897e+000  3.000000e+000
      vertex -9.707424e+000 -2.687483e-007  3.000000e+000
    endloop
  endfacet
  facet normal  -0.000000e+000  0.000000e+000  1.000000e+000
    outer loop
      vertex  9.707424e+000  8.750101e-016  3.000000e+000
      vertex -9.707424e+000 -2.687483e-007  3.000000e+000
      vertex  9.314205e+000 -2.734897e+000  3.000000e+000
    endloop
  endfacet
  facet normal  0.000000e+000  0.000000e+000  9.999999e-001
    outer loop
      vertex  9.314205e+000 -2.734897e+000  3.000000e+000
      vertex -9.707424e+000 -2.687483e-007  3.000000e+000
      vertex -9.314205e+000 -2.734898e+000  3.000000e+000
    endloop
  endfacet
  facet normal  -0.000000e+000  0.000000e+000  1.000000e+000
    outer loop
      vertex  9.314205e+000 -2.734897e+000  3.000000e+000
      vertex -9.314205e+000 -2.734898e+000  3.000000e+000
      vertex  8.166405e+000 -5.248230e+000  3.000000e+000
    endloop
  endfacet
  facet normal  0.000000e+000  0.000000e+000  1.000000e+000
    outer loop
      vertex  8.166405e+000 -5.248230e+000  3.000000e+000
      vertex -9.314205e+000 -2.734898e+000  3.000000e+000
      vertex -8.166405e+000 -5.248230e+000  3.000000e+000
    endloop
  endfacet
  facet normal  -0.000000e+000  0.000000e+000  1.000000e+000
    outer loop
      vertex  8.166405e+000 -5.248230e+000  3.000000e+000
      vertex -8.166405e+000 -5.248230e+000  3.000000e+000
      vertex  6.357011e+000 -7.336382e+000  3.000000e+000
    endloop
  endfacet
  facet normal  0.000000e+000  0.000000e+000  1.000000e+000
    outer loop
      vertex  6.357011e+000 -7.336382e+000  3.000000e+000
      vertex -8.166405e+000 -5.248230e+000  3.000000e+000
      vertex -6.357011e+000 -7.336382e+000  3.000000e+000
    endloop
  endfacet
  facet normal  -0.000000e+000  0.000000e+000  1.000000e+000
    outer loop
      vertex  6.357011e+000 -7.336382e+000  3.000000e+000
      vertex -6.357011e+000 -7.336382e+000  3.000000e+000
      vertex  4.032610e+000 -8.830184e+000  3.000000e+000
    endloop
  endfacet
  facet normal  0.000000e+000  0.000000e+000  1.000000e+000
    outer loop
      vertex  4.032610e+000 -8.830184e+000  3.000000e+000
      vertex -6.357011e+000 -7.336382e+000  3.000000e+000
      vertex -4.032609e+000 -8.830184e+000  3.000000e+000
    endloop
  endfacet
  facet normal  -0.000000e+000  0.000000e+000  1.000000e+000
    outer loop
      vertex  4.032610e+000 -8.830184e+000  3.000000e+000
      vertex -4.032609e+000 -8.830184e+000  3.000000e+000
      vertex  1.381511e+000 -9.608617e+000  3.000000e+000
    endloop
  endfacet
  facet normal  0.000000e+000  0.000000e+000  1.000000e+000
    outer loop
      vertex  1.381511e+000 -9.608617e+000  3.000000e+000
      vertex -4.032609e+000 -8.830184e+000  3.000000e+000
      vertex -1.381510e+000 -9.608617e+000  3.000000e+000
    endloop
  endfacet
  facet normal  0.000000e+000  0.000000e+000 -1.000000e+000
    outer loop
      vertex -3.179824e+000 -1.393172e+001  0.000000e+000
      vertex -6.200199e+000 -1.287485e+001  0.000000e+000
      vertex -2.625030e-015 -1.429000e+001  0.000000e+000
    endloop
  endfacet
  facet normal  0.000000e+000  0.000000e+000 -1.000000e+000
    outer loop
      vertex -8.909669e+000 -1.117237e+001  0.000000e+000
      vertex -1.117237e+001 -8.909669e+000  0.000000e+000
      vertex -5.557500e+000 -9.625873e+000  0.000000e+000
    endloop
  endfacet
  facet normal  0.000000e+000  -0.000000e+000 -9.999999e-001
    outer loop
      vertex -8.909669e+000 -1.117237e+001  0.000000e+000
      vertex -5.557500e+000 -9.625873e+000  0.000000e+000
      vertex -2.876774e+000 -1.073627e+001  0.000000e+000
    endloop
  endfacet
  facet normal  0.000000e+000  -0.000000e+000 -1.000000e+000
    outer loop
      vertex -8.909669e+000 -1.117237e+001  0.000000e+000
      vertex -2.876774e+000 -1.073627e+001  0.000000e+000
      vertex -2.041792e-015 -1.111500e+001  0.000000e+000
    endloop
  endfacet
  facet normal  0.000000e+000  0.000000e+000 -9.999999e-001
    outer loop
      vertex -8.909669e+000 -1.117237e+001  0.000000e+000
      vertex -2.041792e-015 -1.111500e+001  0.000000e+000
      vertex -2.625030e-015 -1.429000e+001  0.000000e+000
    endloop
  endfacet
  facet normal  0.000000e+000  0.000000e+000 -1.000000e+000
    outer loop
      vertex -8.909669e+000 -1.117237e+001  0.000000e+000
      vertex -2.625030e-015 -1.429000e+001  0.000000e+000
      vertex -6.200199e+000 -1.287485e+001  0.000000e+000
    endloop
  endfacet
  facet normal  0.000000e+000  0.000000e+000 -1.000000e+000
    outer loop
      vertex  6.805975e-016  1.111500e+001  0.000000e+000
      vertex -2.876774e+000  1.073627e+001  0.000000e+000
      vertex -8.909669e+000  1.117237e+001  0.000000e+000
    endloop
  endfacet
  facet normal  0.000000e+000  0.000000e+000 -1.000000e+000
    outer loop
      vertex  6.805975e-016  1.111500e+001  0.000000e+000
      vertex -8.909669e+000  1.117237e+001  0.000000e+000
      vertex -6.200199e+000  1.287485e+001  0.000000e+000
    endloop
  endfacet
  facet normal  0.000000e+000  0.000000e+000 -1.000000e+000
    outer loop
      vertex  6.805975e-016  1.111500e+001  0.000000e+000
      vertex -6.200199e+000  1.287485e+001  0.000000e+000
      vertex -3.179824e+000  1.393172e+001  0.000000e+000
    endloop
  endfacet
  facet normal  0.000000e+000  0.000000e+000 -1.000000e+000
    outer loop
      vertex  6.805975e-016  1.111500e+001  0.000000e+000
      vertex -3.179824e+000  1.393172e+001  0.000000e+000
      vertex  8.750101e-016  1.429000e+001  0.000000e+000
    endloop
  endfacet
  facet normal  0.000000e+000  -0.000000e+000 -1.000000e+000
    outer loop
      vertex  6.805975e-016  1.111500e+001  0.000000e+000
      vertex  8.750101e-016  1.429000e+001  0.000000e+000
      vertex  3.179824e+000  1.393172e+001  0.000000e+000
    endloop
  endfacet
  facet normal  0.000000e+000  -0.000000e+000 -1.000000e+000
    outer loop
      vertex  6.805975e-016  1.111500e+001  0.000000e+000
      vertex  3.179824e+000  1.393172e+001  0.000000e+000
      vertex  6.200199e+000  1.287485e+001  0.000000e+000
    endloop
  endfacet
  facet normal  0.000000e+000  -0.000000e+000 -1.000000e+000
    outer loop
      vertex  6.805975e-016  1.111500e+001  0.000000e+000
      vertex  6.200199e+000  1.287485e+001  0.000000e+000
      vertex  8.909669e+000  1.117237e+001  0.000000e+000
    endloop
  endfacet
  facet normal  0.000000e+000  0.000000e+000 -1.000000e+000
    outer loop
      vertex  6.805975e-016  1.111500e+001  0.000000e+000
      vertex  8.909669e+000  1.117237e+001  0.000000e+000
      vertex  2.876774e+000  1.073627e+001  0.000000e+000
    endloop
  endfacet
  facet normal  0.000000e+000  -0.000000e+000 -9.999999e-001
    outer loop
      vertex -2.625030e-015 -1.429000e+001  0.000000e+000
      vertex -2.041792e-015 -1.111500e+001  0.000000e+000
      vertex  8.909669e+000 -1.117237e+001  0.000000e+000
    endloop
  endfacet
  facet normal  0.000000e+000  0.000000e+000 -1.000000e+000
    outer loop
      vertex -2.625030e-015 -1.429000e+001  0.000000e+000
      vertex  8.909669e+000 -1.117237e+001  0.000000e+000
      vertex  6.200199e+000 -1.287485e+001  0.000000e+000
    endloop
  endfacet
  facet normal  0.000000e+000  0.000000e+000 -1.000000e+000
    outer loop
      vertex -2.625030e-015 -1.429000e+001  0.000000e+000
      vertex  6.200199e+000 -1.287485e+001  0.000000e+000
      vertex  3.179824e+000 -1.393172e+001  0.000000e+000
    endloop
  endfacet
  facet normal  0.000000e+000  0.000000e+000 -1.000000e+000
    outer loop
      vertex -9.625873e+000  5.557500e+000  0.000000e+000
      vertex -1.287485e+001  6.200199e+000  0.000000e+000
      vertex -7.859492e+000  7.859492e+000  0.000000e+000
    endloop
  endfacet
  facet normal  -0.000000e+000  0.000000e+000 -1.000000e+000
    outer loop
      vertex -7.859492e+000  7.859492e+000  0.000000e+000
      vertex -1.287485e+001  6.200199e+000  0.000000e+000
      vertex -1.117237e+001  8.909669e+000  0.000000e+000
    endloop
  endfacet
  facet normal  0.000000e+000  0.000000e+000 -1.000000e+000
    outer loop
      vertex -7.859492e+000  7.859492e+000  0.000000e+000
      vertex -1.117237e+001  8.909669e+000  0.000000e+000
      vertex -5.557500e+000  9.625873e+000  0.000000e+000
    endloop
  endfacet
  facet normal  -0.000000e+000  0.000000e+000 -1.000000e+000
    outer loop
      vertex -5.557500e+000  9.625873e+000  0.000000e+000
      vertex -1.117237e+001  8.909669e+000  0.000000e+000
      vertex -8.909669e+000  1.117237e+001  0.000000e+000
    endloop
  endfacet
  facet normal  0.000000e+000  0.000000e+000 -9.999999e-001
    outer loop
      vertex -5.557500e+000  9.625873e+000  0.000000e+000
      vertex -8.909669e+000  1.117237e+001  0.000000e+000
      vertex -2.876774e+000  1.073627e+001  0.000000e+000
    endloop
  endfacet
  facet normal  0.000000e+000  0.000000e+000 -1.000000e+000
    outer loop
      vertex -5.557500e+000 -9.625873e+000  0.000000e+000
      vertex -1.117237e+001 -8.909669e+000  0.000000e+000
      vertex -7.859492e+000 -7.859492e+000  0.000000e+000
    endloop
  endfacet
  facet normal  -0.000000e+000  0.000000e+000 -1.000000e+000
    outer loop
      vertex -7.859492e+000 -7.859492e+000  0.000000e+000
      vertex -1.117237e+001 -8.909669e+000  0.000000e+000
      vertex -1.287485e+001 -6.200199e+000  0.000000e+000
    endloop
  endfacet
  facet normal  0.000000e+000  0.000000e+000 -1.000000e+000
    outer loop
      vertex -7.859492e+000 -7.859492e+000  0.000000e+000
      vertex -1.287485e+001 -6.200199e+000  0.000000e+000
      vertex -9.625873e+000 -5.557500e+000  0.000000e+000
    endloop
  endfacet
  facet normal  -0.000000e+000  0.000000e+000 -1.000000e+000
    outer loop
      vertex -9.625873e+000 -5.557500e+000  0.000000e+000
      vertex -1.287485e+001 -6.200199e+000  0.000000e+000
      vertex -1.393172e+001 -3.179824e+000  0.000000e+000
    endloop
  endfacet
  facet normal  0.000000e+000  0.000000e+000 -1.000000e+000
    outer loop
      vertex -9.625873e+000 -5.557500e+000  0.000000e+000
      vertex -1.393172e+001 -3.179824e+000  0.000000e+000
      vertex -1.073627e+001 -2.876774e+000  0.000000e+000
    endloop
  endfacet
  facet normal  -0.000000e+000  0.000000e+000 -1.000000e+000
    outer loop
      vertex -1.073627e+001 -2.876774e+000  0.000000e+000
      vertex -1.393172e+001 -3.179824e+000  0.000000e+000
      vertex -1.429000e+001  1.750020e-015  0.000000e+000
    endloop
  endfacet
  facet normal  0.000000e+000  0.000000e+000 -1.000000e+000
    outer loop
      vertex -1.073627e+001 -2.876774e+000  0.000000e+000
      vertex -1.429000e+001  1.750020e-015  0.000000e+000
      vertex -1.111500e+001  1.361195e-015  0.000000e+000
    endloop
  endfacet
  facet normal  0.000000e+000  0.000000e+000 -1.000000e+000
    outer loop
      vertex -1.111500e+001  1.361195e-015  0.000000e+000
      vertex -1.429000e+001  1.750020e-015  0.000000e+000
      vertex -1.393172e+001  3.179824e+000  0.000000e+000
    endloop
  endfacet
  facet normal  0.000000e+000  0.000000e+000 -1.000000e+000
    outer loop
      vertex -1.111500e+001  1.361195e-015  0.000000e+000
      vertex -1.393172e+001  3.179824e+000  0.000000e+000
      vertex -1.073627e+001  2.876774e+000  0.000000e+000
    endloop
  endfacet
  facet normal  0.000000e+000  0.000000e+000 -1.000000e+000
    outer loop
      vertex -1.073627e+001  2.876774e+000  0.000000e+000
      vertex -1.393172e+001  3.179824e+000  0.000000e+000
      vertex -1.287485e+001  6.200199e+000  0.000000e+000
    endloop
  endfacet
  facet normal  0.000000e+000  0.000000e+000 -1.000000e+000
    outer loop
      vertex -1.073627e+001  2.876774e+000  0.000000e+000
      vertex -1.287485e+001  6.200199e+000  0.000000e+000
      vertex -9.625873e+000  5.557500e+000  0.000000e+000
    endloop
  endfacet
  facet normal  0.000000e+000  0.000000e+000 -1.000000e+000
    outer loop
      vertex  9.625873e+000  5.557500e+000  0.000000e+000
      vertex  7.859492e+000  7.859492e+000  0.000000e+000
      vertex  1.287485e+001  6.200199e+000  0.000000e+000
    endloop
  endfacet
  facet normal  0.000000e+000  0.000000e+000 -1.000000e+000
    outer loop
      vertex  1.287485e+001  6.200199e+000  0.000000e+000
      vertex  7.859492e+000  7.859492e+000  0.000000e+000
      vertex  5.557500e+000  9.625873e+000  0.000000e+000
    endloop
  endfacet
  facet normal  0.000000e+000  0.000000e+000 -1.000000e+000
    outer loop
      vertex  1.287485e+001  6.200199e+000  0.000000e+000
      vertex  5.557500e+000  9.625873e+000  0.000000e+000
      vertex  1.117237e+001  8.909669e+000  0.000000e+000
    endloop
  endfacet
  facet normal  0.000000e+000  0.000000e+000 -1.000000e+000
    outer loop
      vertex  1.117237e+001  8.909669e+000  0.000000e+000
      vertex  5.557500e+000  9.625873e+000  0.000000e+000
      vertex  2.876774e+000  1.073627e+001  0.000000e+000
    endloop
  endfacet
  facet normal  0.000000e+000  0.000000e+000 -1.000000e+000
    outer loop
      vertex  1.117237e+001  8.909669e+000  0.000000e+000
      vertex  2.876774e+000  1.073627e+001  0.000000e+000
      vertex  8.909669e+000  1.117237e+001  0.000000e+000
    endloop
  endfacet
  facet normal  0.000000e+000  -0.000000e+000 -1.000000e+000
    outer loop
      vertex  5.557500e+000 -9.625873e+000  0.000000e+000
      vertex  7.859492e+000 -7.859492e+000  0.000000e+000
      vertex  1.117237e+001 -8.909669e+000  0.000000e+000
    endloop
  endfacet
  facet normal  0.000000e+000  0.000000e+000 -1.000000e+000
    outer loop
      vertex  1.117237e+001 -8.909669e+000  0.000000e+000
      vertex  7.859492e+000 -7.859492e+000  0.000000e+000
      vertex  9.625873e+000 -5.557500e+000  0.000000e+000
    endloop
  endfacet
  facet normal  0.000000e+000  0.000000e+000 -1.000000e+000
    outer loop
      vertex  1.117237e+001 -8.909669e+000  0.000000e+000
      vertex  9.625873e+000 -5.557500e+000  0.000000e+000
      vertex  1.287485e+001 -6.200199e+000  0.000000e+000
    endloop
  endfacet
  facet normal  0.000000e+000  0.000000e+000 -1.000000e+000
    outer loop
      vertex  1.287485e+001 -6.200199e+000  0.000000e+000
      vertex  9.625873e+000 -5.557500e+000  0.000000e+000
      vertex  1.073627e+001 -2.876774e+000  0.000000e+000
    endloop
  endfacet
  facet normal  0.000000e+000  0.000000e+000 -1.000000e+000
    outer loop
      vertex  1.287485e+001 -6.200199e+000  0.000000e+000
      vertex  1.073627e+001 -2.876774e+000  0.000000e+000
      vertex  1.393172e+001 -3.179824e+000  0.000000e+000
    endloop
  endfacet
  facet normal  0.000000e+000  0.000000e+000 -1.000000e+000
    outer loop
      vertex  1.393172e+001 -3.179824e+000  0.000000e+000
      vertex  1.073627e+001 -2.876774e+000  0.000000e+000
      vertex  1.111500e+001  0.000000e+000  0.000000e+000
    endloop
  endfacet
  facet normal -6.993530e-017 -6.194939e-017 -1.000000e+000
    outer loop
      vertex  1.393172e+001 -3.179824e+000  0.000000e+000
      vertex  1.111500e+001  0.000000e+000  0.000000e+000
      vertex  1.429000e+001  1.776357e-015 -2.220446e-016
    endloop
  endfacet
  facet normal -6.993531e-017 -9.207162e-018 -1.000000e+000
    outer loop
      vertex  1.429000e+001  1.776357e-015 -2.220446e-016
      vertex  1.111500e+001  0.000000e+000  0.000000e+000
      vertex  1.073627e+001  2.876774e+000  0.000000e+000
    endloop
  endfacet
  facet normal -6.552445e-018  6.909092e-017 -1.000000e+000
    outer loop
      vertex  1.429000e+001  1.776357e-015 -2.220446e-016
      vertex  1.073627e+001  2.876774e+000  0.000000e+000
      vertex  1.393172e+001  3.179824e+000  0.000000e+000
    endloop
  endfacet
  facet normal  -0.000000e+000  0.000000e+000 -1.000000e+000
    outer loop
      vertex  1.393172e+001  3.179824e+000  0.000000e+000
      vertex  1.073627e+001  2.876774e+000  0.000000e+000
      vertex  9.625873e+000  5.557500e+000  0.000000e+000
    endloop
  endfacet
  facet normal  0.000000e+000  0.000000e+000 -1.000000e+000
    outer loop
      vertex  1.393172e+001  3.179824e+000  0.000000e+000
      vertex  9.625873e+000  5.557500e+000  0.000000e+000
      vertex  1.287485e+001  6.200199e+000  0.000000e+000
    endloop
  endfacet
  facet normal  0.000000e+000  -0.000000e+000 -1.000000e+000
    outer loop
      vertex -2.041792e-015 -1.111500e+001  0.000000e+000
      vertex  2.876774e+000 -1.073627e+001  0.000000e+000
      vertex  8.909669e+000 -1.117237e+001  0.000000e+000
    endloop
  endfacet
  facet normal  0.000000e+000  0.000000e+000 -9.999999e-001
    outer loop
      vertex  8.909669e+000 -1.117237e+001  0.000000e+000
      vertex  2.876774e+000 -1.073627e+001  0.000000e+000
      vertex  5.557500e+000 -9.625873e+000  0.000000e+000
    endloop
  endfacet
  facet normal  0.000000e+000  0.000000e+000 -1.000000e+000
    outer loop
      vertex  8.909669e+000 -1.117237e+001  0.000000e+000
      vertex  5.557500e+000 -9.625873e+000  0.000000e+000
      vertex  1.117237e+001 -8.909669e+000  0.000000e+000
    endloop
  endfacet
  facet normal  1.843791e-001 -2.650972e-002  9.824977e-001
    outer loop
      vertex  9.707424e+000  8.750101e-016  3.000000e+000
      vertex  9.314205e+000 -2.734897e+000  3.000000e+000
      vertex  1.130120e+001 -2.579424e+000  2.631309e+000
    endloop
  endfacet
  facet normal -1.843791e-001 -2.650972e-002  9.824977e-001
    outer loop
      vertex -9.707424e+000 -2.687483e-007  3.000000e+000
      vertex -1.130120e+001 -2.579425e+000  2.631309e+000
      vertex -9.314205e+000 -2.734898e+000  3.000000e+000
    endloop
  endfacet
  facet normal -1.664532e-001 -7.601664e-002  9.831149e-001
    outer loop
      vertex -1.044388e+001 -5.029506e+000  2.631309e+000
      vertex -8.166405e+000 -5.248230e+000  3.000000e+000
      vertex -9.314205e+000 -2.734898e+000  3.000000e+000
    endloop
  endfacet
  facet normal -1.387842e-001 -1.202572e-001  9.829940e-001
    outer loop
      vertex -9.062857e+000 -7.227387e+000  2.631309e+000
      vertex -6.357011e+000 -7.336382e+000  3.000000e+000
      vertex -8.166405e+000 -5.248230e+000  3.000000e+000
    endloop
  endfacet
  facet normal -1.031730e-001 -1.605403e-001  9.816223e-001
    outer loop
      vertex -5.029506e+000 -1.044388e+001  2.631309e+000
      vertex -4.032609e+000 -8.830184e+000  3.000000e+000
      vertex -6.357011e+000 -7.336382e+000  3.000000e+000
    endloop
  endfacet
  facet normal -5.204389e-002 -1.772453e-001  9.827896e-001
    outer loop
      vertex -2.579424e+000 -1.130120e+001  2.631309e+000
      vertex -1.381510e+000 -9.608617e+000  3.000000e+000
      vertex -4.032609e+000 -8.830184e+000  3.000000e+000
    endloop
  endfacet
  facet normal  0.000000e+000 -1.827745e-001  9.831548e-001
    outer loop
      vertex  1.604588e-007 -1.159183e+001  2.631309e+000
      vertex  1.381511e+000 -9.608617e+000  3.000000e+000
      vertex -1.381510e+000 -9.608617e+000  3.000000e+000
    endloop
  endfacet
  facet normal  5.204389e-002 -1.772452e-001  9.827896e-001
    outer loop
      vertex  2.579425e+000 -1.130120e+001  2.631309e+000
      vertex  4.032610e+000 -8.830184e+000  3.000000e+000
      vertex  1.381511e+000 -9.608617e+000  3.000000e+000
    endloop
  endfacet
  facet normal  1.018032e-001 -1.584088e-001  9.821113e-001
    outer loop
      vertex  7.227387e+000 -9.062857e+000  2.631309e+000
      vertex  6.357011e+000 -7.336382e+000  3.000000e+000
      vertex  4.032610e+000 -8.830184e+000  3.000000e+000
    endloop
  endfacet
  facet normal  1.387842e-001 -1.202572e-001  9.829940e-001
    outer loop
      vertex  9.062857e+000 -7.227387e+000  2.631309e+000
      vertex  8.166405e+000 -5.248230e+000  3.000000e+000
      vertex  6.357011e+000 -7.336382e+000  3.000000e+000
    endloop
  endfacet
  facet normal  1.664532e-001 -7.601663e-002  9.831148e-001
    outer loop
      vertex  1.044388e+001 -5.029506e+000  2.631309e+000
      vertex  9.314205e+000 -2.734897e+000  3.000000e+000
      vertex  8.166405e+000 -5.248230e+000  3.000000e+000
    endloop
  endfacet
  facet normal  8.191442e-001 -9.229539e-002  5.661134e-001
    outer loop
      vertex  1.393172e+001 -3.179824e+000  0.000000e+000
      vertex  1.429000e+001  1.776357e-015 -2.220446e-016
      vertex  1.286742e+001 -2.936904e+000  1.579608e+000
    endloop
  endfacet
  facet normal  8.191441e-001 -9.229541e-002  5.661134e-001
    outer loop
      vertex  1.286742e+001 -2.936904e+000  1.579608e+000
      vertex  1.429000e+001  1.776357e-015 -2.220446e-016
      vertex  1.319833e+001  1.776357e-015  1.579608e+000
    endloop
  endfacet
  facet normal  5.466825e-001 -6.159635e-002  8.350713e-001
    outer loop
      vertex  1.286742e+001 -2.936904e+000  1.579608e+000
      vertex  1.319833e+001  1.776357e-015  1.579608e+000
      vertex  1.130120e+001 -2.579424e+000  2.631309e+000
    endloop
  endfacet
  facet normal  5.466825e-001 -6.159632e-002  8.350713e-001
    outer loop
      vertex  1.130120e+001 -2.579424e+000  2.631309e+000
      vertex  1.319833e+001  1.776357e-015  1.579608e+000
      vertex  1.159183e+001  2.664535e-015  2.631309e+000
    endloop
  endfacet
  facet normal  1.919684e-001 -2.162964e-002  9.811627e-001
    outer loop
      vertex  1.130120e+001 -2.579424e+000  2.631309e+000
      vertex  1.159183e+001  2.664535e-015  2.631309e+000
      vertex  9.707424e+000  8.750101e-016  3.000000e+000
    endloop
  endfacet
  facet normal -8.191442e-001 -9.229539e-002  5.661134e-001
    outer loop
      vertex -1.429000e+001  1.750020e-015  0.000000e+000
      vertex -1.393172e+001 -3.179824e+000  0.000000e+000
      vertex -1.319833e+001 -5.931265e-007  1.579608e+000
    endloop
  endfacet
  facet normal -8.191441e-001 -9.229542e-002  5.661134e-001
    outer loop
      vertex -1.319833e+001 -5.931265e-007  1.579608e+000
      vertex -1.393172e+001 -3.179824e+000  0.000000e+000
      vertex -1.286742e+001 -2.936904e+000  1.579608e+000
    endloop
  endfacet
  facet normal -5.466825e-001 -6.159635e-002  8.350713e-001
    outer loop
      vertex -1.319833e+001 -5.931265e-007  1.579608e+000
      vertex -1.286742e+001 -2.936904e+000  1.579608e+000
      vertex -1.159183e+001 -5.209312e-007  2.631309e+000
    endloop
  endfacet
  facet normal -5.466825e-001 -6.159632e-002  8.350713e-001
    outer loop
      vertex -1.159183e+001 -5.209312e-007  2.631309e+000
      vertex -1.286742e+001 -2.936904e+000  1.579608e+000
      vertex -1.130120e+001 -2.579425e+000  2.631309e+000
    endloop
  endfacet
  facet normal -1.919684e-001 -2.162964e-002  9.811627e-001
    outer loop
      vertex -1.159183e+001 -5.209312e-007  2.631309e+000
      vertex -1.130120e+001 -2.579425e+000  2.631309e+000
      vertex -9.707424e+000 -2.687483e-007  3.000000e+000
    endloop
  endfacet
  facet normal -7.780689e-001 -2.722580e-001  5.661134e-001
    outer loop
      vertex -1.393172e+001 -3.179824e+000  0.000000e+000
      vertex -1.287485e+001 -6.200199e+000  0.000000e+000
      vertex -1.286742e+001 -2.936904e+000  1.579608e+000
    endloop
  endfacet
  facet normal -7.780688e-001 -2.722580e-001  5.661134e-001
    outer loop
      vertex -1.286742e+001 -2.936904e+000  1.579608e+000
      vertex -1.287485e+001 -6.200199e+000  0.000000e+000
      vertex -1.189128e+001 -5.726540e+000  1.579608e+000
    endloop
  endfacet
  facet normal -5.192696e-001 -1.817002e-001  8.350713e-001
    outer loop
      vertex -1.286742e+001 -2.936904e+000  1.579608e+000
      vertex -1.189128e+001 -5.726540e+000  1.579608e+000
      vertex -1.130120e+001 -2.579425e+000  2.631309e+000
    endloop
  endfacet
  facet normal -5.192695e-001 -1.817003e-001  8.350714e-001
    outer loop
      vertex -1.130120e+001 -2.579425e+000  2.631309e+000
      vertex -1.189128e+001 -5.726540e+000  1.579608e+000
      vertex -1.044388e+001 -5.029506e+000  2.631309e+000
    endloop
  endfacet
  facet normal -1.869945e-001 -6.543221e-002  9.801794e-001
    outer loop
      vertex -1.130120e+001 -2.579425e+000  2.631309e+000
      vertex -1.044388e+001 -5.029506e+000  2.631309e+000
      vertex -9.314205e+000 -2.734898e+000  3.000000e+000
    endloop
  endfacet
  facet normal -6.979779e-001 -4.385688e-001  5.661133e-001
    outer loop
      vertex -1.287485e+001 -6.200199e+000  0.000000e+000
      vertex -1.117237e+001 -8.909669e+000  0.000000e+000
      vertex -1.189128e+001 -5.726540e+000  1.579608e+000
    endloop
  endfacet
  facet normal -6.979780e-001 -4.385687e-001  5.661132e-001
    outer loop
      vertex -1.189128e+001 -5.726540e+000  1.579608e+000
      vertex -1.117237e+001 -8.909669e+000  0.000000e+000
      vertex -1.031887e+001 -8.229023e+000  1.579608e+000
    endloop
  endfacet
  facet normal -4.658182e-001 -2.926930e-001  8.350714e-001
    outer loop
      vertex -1.189128e+001 -5.726540e+000  1.579608e+000
      vertex -1.031887e+001 -8.229023e+000  1.579608e+000
      vertex -1.044388e+001 -5.029506e+000  2.631309e+000
    endloop
  endfacet
  facet normal -4.658183e-001 -2.926930e-001  8.350713e-001
    outer loop
      vertex -1.044388e+001 -5.029506e+000  2.631309e+000
      vertex -1.031887e+001 -8.229023e+000  1.579608e+000
      vertex -9.062857e+000 -7.227387e+000  2.631309e+000
    endloop
  endfacet
  facet normal -1.688233e-001 -1.060787e-001  9.799215e-001
    outer loop
      vertex -1.044388e+001 -5.029506e+000  2.631309e+000
      vertex -9.062857e+000 -7.227387e+000  2.631309e+000
      vertex -8.166405e+000 -5.248230e+000  3.000000e+000
    endloop
  endfacet
  facet normal -5.828876e-001 -5.828876e-001  5.661132e-001
    outer loop
      vertex -1.117237e+001 -8.909669e+000  0.000000e+000
      vertex -8.909669e+000 -1.117237e+001  0.000000e+000
      vertex -1.031887e+001 -8.229023e+000  1.579608e+000
    endloop
  endfacet
  facet normal -5.828873e-001 -5.828876e-001  5.661134e-001
    outer loop
      vertex -1.031887e+001 -8.229023e+000  1.579608e+000
      vertex -8.909669e+000 -1.117237e+001  0.000000e+000
      vertex -8.229022e+000 -1.031887e+001  1.579608e+000
    endloop
  endfacet
  facet normal -3.890088e-001 -3.890090e-001  8.350714e-001
    outer loop
      vertex -1.031887e+001 -8.229023e+000  1.579608e+000
      vertex -8.229022e+000 -1.031887e+001  1.579608e+000
      vertex -9.062857e+000 -7.227387e+000  2.631309e+000
    endloop
  endfacet
  facet normal -3.890089e-001 -3.890090e-001  8.350713e-001
    outer loop
      vertex -9.062857e+000 -7.227387e+000  2.631309e+000
      vertex -8.229022e+000 -1.031887e+001  1.579608e+000
      vertex -7.227386e+000 -9.062857e+000  2.631309e+000
    endloop
  endfacet
  facet normal -1.391982e-001 -1.391982e-001  9.804325e-001
    outer loop
      vertex -9.062857e+000 -7.227387e+000  2.631309e+000
      vertex -7.227386e+000 -9.062857e+000  2.631309e+000
      vertex -6.357011e+000 -7.336382e+000  3.000000e+000
    endloop
  endfacet
  facet normal -4.385687e-001 -6.979778e-001  5.661134e-001
    outer loop
      vertex -8.909669e+000 -1.117237e+001  0.000000e+000
      vertex -6.200199e+000 -1.287485e+001  0.000000e+000
      vertex -8.229022e+000 -1.031887e+001  1.579608e+000
    endloop
  endfacet
  facet normal -4.385687e-001 -6.979778e-001  5.661134e-001
    outer loop
      vertex -8.229022e+000 -1.031887e+001  1.579608e+000
      vertex -6.200199e+000 -1.287485e+001  0.000000e+000
      vertex -5.726540e+000 -1.189128e+001  1.579608e+000
    endloop
  endfacet
  facet normal -2.926931e-001 -4.658183e-001  8.350713e-001
    outer loop
      vertex -8.229022e+000 -1.031887e+001  1.579608e+000
      vertex -5.726540e+000 -1.189128e+001  1.579608e+000
      vertex -7.227386e+000 -9.062857e+000  2.631309e+000
    endloop
  endfacet
  facet normal -2.926929e-001 -4.658182e-001  8.350714e-001
    outer loop
      vertex -7.227386e+000 -9.062857e+000  2.631309e+000
      vertex -5.726540e+000 -1.189128e+001  1.579608e+000
      vertex -5.029506e+000 -1.044388e+001  2.631309e+000
    endloop
  endfacet
  facet normal -1.000841e-001 -1.592830e-001  9.821466e-001
    outer loop
      vertex -7.227386e+000 -9.062857e+000  2.631309e+000
      vertex -5.029506e+000 -1.044388e+001  2.631309e+000
      vertex -6.357011e+000 -7.336382e+000  3.000000e+000
    endloop
  endfacet
  facet normal -2.722580e-001 -7.780689e-001  5.661135e-001
    outer loop
      vertex -6.200199e+000 -1.287485e+001  0.000000e+000
      vertex -3.179824e+000 -1.393172e+001  0.000000e+000
      vertex -5.726540e+000 -1.189128e+001  1.579608e+000
    endloop
  endfacet
  facet normal -2.722580e-001 -7.780688e-001  5.661134e-001
    outer loop
      vertex -5.726540e+000 -1.189128e+001  1.579608e+000
      vertex -3.179824e+000 -1.393172e+001  0.000000e+000
      vertex -2.936904e+000 -1.286742e+001  1.579608e+000
    endloop
  endfacet
  facet normal -1.817002e-001 -5.192695e-001  8.350714e-001
    outer loop
      vertex -5.726540e+000 -1.189128e+001  1.579608e+000
      vertex -2.936904e+000 -1.286742e+001  1.579608e+000
      vertex -5.029506e+000 -1.044388e+001  2.631309e+000
    endloop
  endfacet
  facet normal -1.817003e-001 -5.192696e-001  8.350713e-001
    outer loop
      vertex -5.029506e+000 -1.044388e+001  2.631309e+000
      vertex -2.936904e+000 -1.286742e+001  1.579608e+000
      vertex -2.579424e+000 -1.130120e+001  2.631309e+000
    endloop
  endfacet
  facet normal -6.447256e-002 -1.842520e-001  9.807623e-001
    outer loop
      vertex -5.029506e+000 -1.044388e+001  2.631309e+000
      vertex -2.579424e+000 -1.130120e+001  2.631309e+000
      vertex -4.032609e+000 -8.830184e+000  3.000000e+000
    endloop
  endfacet
  facet normal -9.229539e-002 -8.191442e-001  5.661134e-001
    outer loop
      vertex -3.179824e+000 -1.393172e+001  0.000000e+000
      vertex -2.625030e-015 -1.429000e+001  0.000000e+000
      vertex -2.936904e+000 -1.286742e+001  1.579608e+000
    endloop
  endfacet
  facet normal -9.229541e-002 -8.191441e-001  5.661134e-001
    outer loop
      vertex -2.936904e+000 -1.286742e+001  1.579608e+000
      vertex -2.625030e-015 -1.429000e+001  0.000000e+000
      vertex  1.826967e-007 -1.319833e+001  1.579608e+000
    endloop
  endfacet
  facet normal -6.159635e-002 -5.466825e-001  8.350713e-001
    outer loop
      vertex -2.936904e+000 -1.286742e+001  1.579608e+000
      vertex  1.826967e-007 -1.319833e+001  1.579608e+000
      vertex -2.579424e+000 -1.130120e+001  2.631309e+000
    endloop
  endfacet
  facet normal -6.159631e-002 -5.466825e-001  8.350713e-001
    outer loop
      vertex -2.579424e+000 -1.130120e+001  2.631309e+000
      vertex  1.826967e-007 -1.319833e+001  1.579608e+000
      vertex  1.604588e-007 -1.159183e+001  2.631309e+000
    endloop
  endfacet
  facet normal -2.227625e-002 -1.977072e-001  9.800079e-001
    outer loop
      vertex -2.579424e+000 -1.130120e+001  2.631309e+000
      vertex  1.604588e-007 -1.159183e+001  2.631309e+000
      vertex -1.381510e+000 -9.608617e+000  3.000000e+000
    endloop
  endfacet
  facet normal  9.229539e-002 -8.191442e-001  5.661134e-001
    outer loop
      vertex -2.625030e-015 -1.429000e+001  0.000000e+000
      vertex  3.179824e+000 -1.393172e+001  0.000000e+000
      vertex  1.826967e-007 -1.319833e+001  1.579608e+000
    endloop
  endfacet
  facet normal  9.229542e-002 -8.191441e-001  5.661134e-001
    outer loop
      vertex  1.826967e-007 -1.319833e+001  1.579608e+000
      vertex  3.179824e+000 -1.393172e+001  0.000000e+000
      vertex  2.936904e+000 -1.286742e+001  1.579608e+000
    endloop
  endfacet
  facet normal  6.159635e-002 -5.466825e-001  8.350713e-001
    outer loop
      vertex  1.826967e-007 -1.319833e+001  1.579608e+000
      vertex  2.936904e+000 -1.286742e+001  1.579608e+000
      vertex  1.604588e-007 -1.159183e+001  2.631309e+000
    endloop
  endfacet
  facet normal  6.159632e-002 -5.466825e-001  8.350713e-001
    outer loop
      vertex  1.604588e-007 -1.159183e+001  2.631309e+000
      vertex  2.936904e+000 -1.286742e+001  1.579608e+000
      vertex  2.579425e+000 -1.130120e+001  2.631309e+000
    endloop
  endfacet
  facet normal  2.227625e-002 -1.977072e-001  9.800079e-001
    outer loop
      vertex  1.604588e-007 -1.159183e+001  2.631309e+000
      vertex  2.579425e+000 -1.130120e+001  2.631309e+000
      vertex  1.381511e+000 -9.608617e+000  3.000000e+000
    endloop
  endfacet
  facet normal  2.722580e-001 -7.780689e-001  5.661134e-001
    outer loop
      vertex  3.179824e+000 -1.393172e+001  0.000000e+000
      vertex  6.200199e+000 -1.287485e+001  0.000000e+000
      vertex  2.936904e+000 -1.286742e+001  1.579608e+000
    endloop
  endfacet
  facet normal  2.722580e-001 -7.780688e-001  5.661134e-001
    outer loop
      vertex  2.936904e+000 -1.286742e+001  1.579608e+000
      vertex  6.200199e+000 -1.287485e+001  0.000000e+000
      vertex  5.726540e+000 -1.189128e+001  1.579608e+000
    endloop
  endfacet
  facet normal  1.817002e-001 -5.192696e-001  8.350713e-001
    outer loop
      vertex  2.936904e+000 -1.286742e+001  1.579608e+000
      vertex  5.726540e+000 -1.189128e+001  1.579608e+000
      vertex  2.579425e+000 -1.130120e+001  2.631309e+000
    endloop
  endfacet
  facet normal  1.817003e-001 -5.192695e-001  8.350714e-001
    outer loop
      vertex  2.579425e+000 -1.130120e+001  2.631309e+000
      vertex  5.726540e+000 -1.189128e+001  1.579608e+000
      vertex  5.029506e+000 -1.044388e+001  2.631309e+000
    endloop
  endfacet
  facet normal  6.447255e-002 -1.842519e-001  9.807622e-001
    outer loop
      vertex  2.579425e+000 -1.130120e+001  2.631309e+000
      vertex  5.029506e+000 -1.044388e+001  2.631309e+000
      vertex  4.032610e+000 -8.830184e+000  3.000000e+000
    endloop
  endfacet
  facet normal  4.385687e-001 -6.979778e-001  5.661134e-001
    outer loop
      vertex  6.200199e+000 -1.287485e+001  0.000000e+000
      vertex  8.909669e+000 -1.117237e+001  0.000000e+000
      vertex  5.726540e+000 -1.189128e+001  1.579608e+000
    endloop
  endfacet
  facet normal  4.385687e-001 -6.979781e-001  5.661132e-001
    outer loop
      vertex  5.726540e+000 -1.189128e+001  1.579608e+000
      vertex  8.909669e+000 -1.117237e+001  0.000000e+000
      vertex  8.229023e+000 -1.031887e+001  1.579608e+000
    endloop
  endfacet
  facet normal  2.926930e-001 -4.658183e-001  8.350714e-001
    outer loop
      vertex  5.726540e+000 -1.189128e+001  1.579608e+000
      vertex  8.229023e+000 -1.031887e+001  1.579608e+000
      vertex  5.029506e+000 -1.044388e+001  2.631309e+000
    endloop
  endfacet
  facet normal  2.926930e-001 -4.658183e-001  8.350713e-001
    outer loop
      vertex  5.029506e+000 -1.044388e+001  2.631309e+000
      vertex  8.229023e+000 -1.031887e+001  1.579608e+000
      vertex  7.227387e+000 -9.062857e+000  2.631309e+000
    endloop
  endfacet
  facet normal  1.015174e-001 -1.615641e-001  9.816269e-001
    outer loop
      vertex  5.029506e+000 -1.044388e+001  2.631309e+000
      vertex  7.227387e+000 -9.062857e+000  2.631309e+000
      vertex  4.032610e+000 -8.830184e+000  3.000000e+000
    endloop
  endfacet
  facet normal  5.828876e-001 -5.828876e-001  5.661132e-001
    outer loop
      vertex  8.909669e+000 -1.117237e+001  0.000000e+000
      vertex  1.117237e+001 -8.909669e+000  0.000000e+000
      vertex  8.229023e+000 -1.031887e+001  1.579608e+000
    endloop
  endfacet
  facet normal  5.828876e-001 -5.828873e-001  5.661134e-001
    outer loop
      vertex  8.229023e+000 -1.031887e+001  1.579608e+000
      vertex  1.117237e+001 -8.909669e+000  0.000000e+000
      vertex  1.031887e+001 -8.229022e+000  1.579608e+000
    endloop
  endfacet
  facet normal  3.890090e-001 -3.890088e-001  8.350714e-001
    outer loop
      vertex  8.229023e+000 -1.031887e+001  1.579608e+000
      vertex  1.031887e+001 -8.229022e+000  1.579608e+000
      vertex  7.227387e+000 -9.062857e+000  2.631309e+000
    endloop
  endfacet
  facet normal  3.890090e-001 -3.890090e-001  8.350711e-001
    outer loop
      vertex  7.227387e+000 -9.062857e+000  2.631309e+000
      vertex  1.031887e+001 -8.229022e+000  1.579608e+000
      vertex  9.062857e+000 -7.227387e+000  2.631309e+000
    endloop
  endfacet
  facet normal  1.391982e-001 -1.391982e-001  9.804325e-001
    outer loop
      vertex  7.227387e+000 -9.062857e+000  2.631309e+000
      vertex  9.062857e+000 -7.227387e+000  2.631309e+000
      vertex  6.357011e+000 -7.336382e+000  3.000000e+000
    endloop
  endfacet
  facet normal  6.979778e-001 -4.385687e-001  5.661134e-001
    outer loop
      vertex  1.117237e+001 -8.909669e+000  0.000000e+000
      vertex  1.287485e+001 -6.200199e+000  0.000000e+000
      vertex  1.031887e+001 -8.229022e+000  1.579608e+000
    endloop
  endfacet
  facet normal  6.979778e-001 -4.385687e-001  5.661134e-001
    outer loop
      vertex  1.031887e+001 -8.229022e+000  1.579608e+000
      vertex  1.287485e+001 -6.200199e+000  0.000000e+000
      vertex  1.189128e+001 -5.726540e+000  1.579608e+000
    endloop
  endfacet
  facet normal  4.658183e-001 -2.926932e-001  8.350713e-001
    outer loop
      vertex  1.031887e+001 -8.229022e+000  1.579608e+000
      vertex  1.189128e+001 -5.726540e+000  1.579608e+000
      vertex  9.062857e+000 -7.227387e+000  2.631309e+000
    endloop
  endfacet
  facet normal  4.658183e-001 -2.926929e-001  8.350714e-001
    outer loop
      vertex  9.062857e+000 -7.227387e+000  2.631309e+000
      vertex  1.189128e+001 -5.726540e+000  1.579608e+000
      vertex  1.044388e+001 -5.029506e+000  2.631309e+000
    endloop
  endfacet
  facet normal  1.688234e-001 -1.060787e-001  9.799215e-001
    outer loop
      vertex  9.062857e+000 -7.227387e+000  2.631309e+000
      vertex  1.044388e+001 -5.029506e+000  2.631309e+000
      vertex  8.166405e+000 -5.248230e+000  3.000000e+000
    endloop
  endfacet
  facet normal  7.780689e-001 -2.722580e-001  5.661135e-001
    outer loop
      vertex  1.287485e+001 -6.200199e+000  0.000000e+000
      vertex  1.393172e+001 -3.179824e+000  0.000000e+000
      vertex  1.189128e+001 -5.726540e+000  1.579608e+000
    endloop
  endfacet
  facet normal  7.780688e-001 -2.722580e-001  5.661134e-001
    outer loop
      vertex  1.189128e+001 -5.726540e+000  1.579608e+000
      vertex  1.393172e+001 -3.179824e+000  0.000000e+000
      vertex  1.286742e+001 -2.936904e+000  1.579608e+000
    endloop
  endfacet
  facet normal  5.192695e-001 -1.817002e-001  8.350714e-001
    outer loop
      vertex  1.189128e+001 -5.726540e+000  1.579608e+000
      vertex  1.286742e+001 -2.936904e+000  1.579608e+000
      vertex  1.044388e+001 -5.029506e+000  2.631309e+000
    endloop
  endfacet
  facet normal  5.192696e-001 -1.817003e-001  8.350713e-001
    outer loop
      vertex  1.044388e+001 -5.029506e+000  2.631309e+000
      vertex  1.286742e+001 -2.936904e+000  1.579608e+000
      vertex  1.130120e+001 -2.579424e+000  2.631309e+000
    endloop
  endfacet
  facet normal  1.869945e-001 -6.543221e-002  9.801794e-001
    outer loop
      vertex  1.044388e+001 -5.029506e+000  2.631309e+000
      vertex  1.130120e+001 -2.579424e+000  2.631309e+000
      vertex  9.314205e+000 -2.734897e+000  3.000000e+000
    endloop
  endfacet
  facet normal -1.843791e-001  2.650972e-002  9.824977e-001
    outer loop
      vertex -9.707424e+000 -2.687483e-007  3.000000e+000
      vertex -9.314205e+000  2.734897e+000  3.000000e+000
      vertex -1.130120e+001  2.579424e+000  2.631309e+000
    endloop
  endfacet
  facet normal  1.843791e-001  2.650972e-002  9.824977e-001
    outer loop
      vertex  9.707424e+000  8.750101e-016  3.000000e+000
      vertex  1.130120e+001  2.579425e+000  2.631309e+000
      vertex  9.314205e+000  2.734898e+000  3.000000e+000
    endloop
  endfacet
  facet normal  1.664532e-001  7.601664e-002  9.831149e-001
    outer loop
      vertex  1.044388e+001  5.029506e+000  2.631309e+000
      vertex  8.166405e+000  5.248230e+000  3.000000e+000
      vertex  9.314205e+000  2.734898e+000  3.000000e+000
    endloop
  endfacet
  facet normal  1.387842e-001  1.202572e-001  9.829940e-001
    outer loop
      vertex  9.062857e+000  7.227387e+000  2.631309e+000
      vertex  6.357011e+000  7.336382e+000  3.000000e+000
      vertex  8.166405e+000  5.248230e+000  3.000000e+000
    endloop
  endfacet
  facet normal  1.031730e-001  1.605403e-001  9.816223e-001
    outer loop
      vertex  5.029506e+000  1.044388e+001  2.631309e+000
      vertex  4.032609e+000  8.830184e+000  3.000000e+000
      vertex  6.357011e+000  7.336382e+000  3.000000e+000
    endloop
  endfacet
  facet normal  5.204389e-002  1.772453e-001  9.827896e-001
    outer loop
      vertex  2.579424e+000  1.130120e+001  2.631309e+000
      vertex  1.381510e+000  9.608617e+000  3.000000e+000
      vertex  4.032609e+000  8.830184e+000  3.000000e+000
    endloop
  endfacet
  facet normal  -0.000000e+000  1.827745e-001  9.831548e-001
    outer loop
      vertex -2.604656e-007  1.159183e+001  2.631309e+000
      vertex -1.381511e+000  9.608617e+000  3.000000e+000
      vertex  1.381510e+000  9.608617e+000  3.000000e+000
    endloop
  endfacet
  facet normal -5.204389e-002  1.772452e-001  9.827896e-001
    outer loop
      vertex -2.579425e+000  1.130120e+001  2.631309e+000
      vertex -4.032610e+000  8.830184e+000  3.000000e+000
      vertex -1.381511e+000  9.608617e+000  3.000000e+000
    endloop
  endfacet
  facet normal -1.018032e-001  1.584088e-001  9.821113e-001
    outer loop
      vertex -7.227387e+000  9.062856e+000  2.631309e+000
      vertex -6.357011e+000  7.336381e+000  3.000000e+000
      vertex -4.032610e+000  8.830184e+000  3.000000e+000
    endloop
  endfacet
  facet normal -1.387842e-001  1.202572e-001  9.829939e-001
    outer loop
      vertex -9.062857e+000  7.227386e+000  2.631309e+000
      vertex -8.166405e+000  5.248230e+000  3.000000e+000
      vertex -6.357011e+000  7.336381e+000  3.000000e+000
    endloop
  endfacet
  facet normal -1.664532e-001  7.601664e-002  9.831149e-001
    outer loop
      vertex -1.044388e+001  5.029505e+000  2.631309e+000
      vertex -9.314205e+000  2.734897e+000  3.000000e+000
      vertex -8.166405e+000  5.248230e+000  3.000000e+000
    endloop
  endfacet
  facet normal -8.191441e-001  9.229539e-002  5.661134e-001
    outer loop
      vertex -1.393172e+001  3.179824e+000  0.000000e+000
      vertex -1.429000e+001  1.750020e-015  0.000000e+000
      vertex -1.286742e+001  2.936903e+000  1.579608e+000
    endloop
  endfacet
  facet normal -8.191441e-001  9.229542e-002  5.661134e-001
    outer loop
      vertex -1.286742e+001  2.936903e+000  1.579608e+000
      vertex -1.429000e+001  1.750020e-015  0.000000e+000
      vertex -1.319833e+001 -5.931265e-007  1.579608e+000
    endloop
  endfacet
  facet normal -5.466825e-001  6.159635e-002  8.350713e-001
    outer loop
      vertex -1.286742e+001  2.936903e+000  1.579608e+000
      vertex -1.319833e+001 -5.931265e-007  1.579608e+000
      vertex -1.130120e+001  2.579424e+000  2.631309e+000
    endloop
  endfacet
  facet normal -5.466825e-001  6.159632e-002  8.350713e-001
    outer loop
      vertex -1.130120e+001  2.579424e+000  2.631309e+000
      vertex -1.319833e+001 -5.931265e-007  1.579608e+000
      vertex -1.159183e+001 -5.209312e-007  2.631309e+000
    endloop
  endfacet
  facet normal -1.919684e-001  2.162964e-002  9.811627e-001
    outer loop
      vertex -1.130120e+001  2.579424e+000  2.631309e+000
      vertex -1.159183e+001 -5.209312e-007  2.631309e+000
      vertex -9.707424e+000 -2.687483e-007  3.000000e+000
    endloop
  endfacet
  facet normal  8.191442e-001  9.229539e-002  5.661134e-001
    outer loop
      vertex  1.429000e+001  1.776357e-015 -2.220446e-016
      vertex  1.393172e+001  3.179824e+000  0.000000e+000
      vertex  1.319833e+001  1.776357e-015  1.579608e+000
    endloop
  endfacet
  facet normal  8.191441e-001  9.229541e-002  5.661134e-001
    outer loop
      vertex  1.319833e+001  1.776357e-015  1.579608e+000
      vertex  1.393172e+001  3.179824e+000  0.000000e+000
      vertex  1.286742e+001  2.936904e+000  1.579608e+000
    endloop
  endfacet
  facet normal  5.466825e-001  6.159634e-002  8.350713e-001
    outer loop
      vertex  1.319833e+001  1.776357e-015  1.579608e+000
      vertex  1.286742e+001  2.936904e+000  1.579608e+000
      vertex  1.159183e+001  2.664535e-015  2.631309e+000
    endloop
  endfacet
  facet normal  5.466826e-001  6.159632e-002  8.350713e-001
    outer loop
      vertex  1.159183e+001  2.664535e-015  2.631309e+000
      vertex  1.286742e+001  2.936904e+000  1.579608e+000
      vertex  1.130120e+001  2.579425e+000  2.631309e+000
    endloop
  endfacet
  facet normal  1.919684e-001  2.162964e-002  9.811627e-001
    outer loop
      vertex  1.159183e+001  2.664535e-015  2.631309e+000
      vertex  1.130120e+001  2.579425e+000  2.631309e+000
      vertex  9.707424e+000  8.750101e-016  3.000000e+000
    endloop
  endfacet
  facet normal  7.780689e-001  2.722580e-001  5.661134e-001
    outer loop
      vertex  1.393172e+001  3.179824e+000  0.000000e+000
      vertex  1.287485e+001  6.200199e+000  0.000000e+000
      vertex  1.286742e+001  2.936904e+000  1.579608e+000
    endloop
  endfacet
  facet normal  7.780688e-001  2.722580e-001  5.661134e-001
    outer loop
      vertex  1.286742e+001  2.936904e+000  1.579608e+000
      vertex  1.287485e+001  6.200199e+000  0.000000e+000
      vertex  1.189128e+001  5.726540e+000  1.579608e+000
    endloop
  endfacet
  facet normal  5.192696e-001  1.817002e-001  8.350713e-001
    outer loop
      vertex  1.286742e+001  2.936904e+000  1.579608e+000
      vertex  1.189128e+001  5.726540e+000  1.579608e+000
      vertex  1.130120e+001  2.579425e+000  2.631309e+000
    endloop
  endfacet
  facet normal  5.192694e-001  1.817003e-001  8.350714e-001
    outer loop
      vertex  1.130120e+001  2.579425e+000  2.631309e+000
      vertex  1.189128e+001  5.726540e+000  1.579608e+000
      vertex  1.044388e+001  5.029506e+000  2.631309e+000
    endloop
  endfacet
  facet normal  1.869945e-001  6.543221e-002  9.801794e-001
    outer loop
      vertex  1.130120e+001  2.579425e+000  2.631309e+000
      vertex  1.044388e+001  5.029506e+000  2.631309e+000
      vertex  9.314205e+000  2.734898e+000  3.000000e+000
    endloop
  endfacet
  facet normal  6.979778e-001  4.385687e-001  5.661134e-001
    outer loop
      vertex  1.287485e+001  6.200199e+000  0.000000e+000
      vertex  1.117237e+001  8.909669e+000  0.000000e+000
      vertex  1.189128e+001  5.726540e+000  1.579608e+000
    endloop
  endfacet
  facet normal  6.979781e-001  4.385687e-001  5.661132e-001
    outer loop
      vertex  1.189128e+001  5.726540e+000  1.579608e+000
      vertex  1.117237e+001  8.909669e+000  0.000000e+000
      vertex  1.031887e+001  8.229023e+000  1.579608e+000
    endloop
  endfacet
  facet normal  4.658182e-001  2.926930e-001  8.350713e-001
    outer loop
      vertex  1.189128e+001  5.726540e+000  1.579608e+000
      vertex  1.031887e+001  8.229023e+000  1.579608e+000
      vertex  1.044388e+001  5.029506e+000  2.631309e+000
    endloop
  endfacet
  facet normal  4.658184e-001  2.926930e-001  8.350713e-001
    outer loop
      vertex  1.044388e+001  5.029506e+000  2.631309e+000
      vertex  1.031887e+001  8.229023e+000  1.579608e+000
      vertex  9.062857e+000  7.227387e+000  2.631309e+000
    endloop
  endfacet
  facet normal  1.688234e-001  1.060787e-001  9.799215e-001
    outer loop
      vertex  1.044388e+001  5.029506e+000  2.631309e+000
      vertex  9.062857e+000  7.227387e+000  2.631309e+000
      vertex  8.166405e+000  5.248230e+000  3.000000e+000
    endloop
  endfacet
  facet normal  5.828876e-001  5.828876e-001  5.661132e-001
    outer loop
      vertex  1.117237e+001  8.909669e+000  0.000000e+000
      vertex  8.909669e+000  1.117237e+001  0.000000e+000
      vertex  1.031887e+001  8.229023e+000  1.579608e+000
    endloop
  endfacet
  facet normal  5.828873e-001  5.828876e-001  5.661134e-001
    outer loop
      vertex  1.031887e+001  8.229023e+000  1.579608e+000
      vertex  8.909669e+000  1.117237e+001  0.000000e+000
      vertex  8.229022e+000  1.031887e+001  1.579608e+000
    endloop
  endfacet
  facet normal  3.890088e-001  3.890090e-001  8.350714e-001
    outer loop
      vertex  1.031887e+001  8.229023e+000  1.579608e+000
      vertex  8.229022e+000  1.031887e+001  1.579608e+000
      vertex  9.062857e+000  7.227387e+000  2.631309e+000
    endloop
  endfacet
  facet normal  3.890089e-001  3.890090e-001  8.350713e-001
    outer loop
      vertex  9.062857e+000  7.227387e+000  2.631309e+000
      vertex  8.229022e+000  1.031887e+001  1.579608e+000
      vertex  7.227386e+000  9.062857e+000  2.631309e+000
    endloop
  endfacet
  facet normal  1.391982e-001  1.391982e-001  9.804325e-001
    outer loop
      vertex  9.062857e+000  7.227387e+000  2.631309e+000
      vertex  7.227386e+000  9.062857e+000  2.631309e+000
      vertex  6.357011e+000  7.336382e+000  3.000000e+000
    endloop
  endfacet
  facet normal  4.385687e-001  6.979778e-001  5.661134e-001
    outer loop
      vertex  8.909669e+000  1.117237e+001  0.000000e+000
      vertex  6.200199e+000  1.287485e+001  0.000000e+000
      vertex  8.229022e+000  1.031887e+001  1.579608e+000
    endloop
  endfacet
  facet normal  4.385687e-001  6.979778e-001  5.661134e-001
    outer loop
      vertex  8.229022e+000  1.031887e+001  1.579608e+000
      vertex  6.200199e+000  1.287485e+001  0.000000e+000
      vertex  5.726540e+000  1.189128e+001  1.579608e+000
    endloop
  endfacet
  facet normal  2.926931e-001  4.658183e-001  8.350713e-001
    outer loop
      vertex  8.229022e+000  1.031887e+001  1.579608e+000
      vertex  5.726540e+000  1.189128e+001  1.579608e+000
      vertex  7.227386e+000  9.062857e+000  2.631309e+000
    endloop
  endfacet
  facet normal  2.926929e-001  4.658182e-001  8.350714e-001
    outer loop
      vertex  7.227386e+000  9.062857e+000  2.631309e+000
      vertex  5.726540e+000  1.189128e+001  1.579608e+000
      vertex  5.029506e+000  1.044388e+001  2.631309e+000
    endloop
  endfacet
  facet normal  1.000841e-001  1.592830e-001  9.821466e-001
    outer loop
      vertex  7.227386e+000  9.062857e+000  2.631309e+000
      vertex  5.029506e+000  1.044388e+001  2.631309e+000
      vertex  6.357011e+000  7.336382e+000  3.000000e+000
    endloop
  endfacet
  facet normal  2.722580e-001  7.780689e-001  5.661135e-001
    outer loop
      vertex  6.200199e+000  1.287485e+001  0.000000e+000
      vertex  3.179824e+000  1.393172e+001  0.000000e+000
      vertex  5.726540e+000  1.189128e+001  1.579608e+000
    endloop
  endfacet
  facet normal  2.722580e-001  7.780688e-001  5.661134e-001
    outer loop
      vertex  5.726540e+000  1.189128e+001  1.579608e+000
      vertex  3.179824e+000  1.393172e+001  0.000000e+000
      vertex  2.936904e+000  1.286742e+001  1.579608e+000
    endloop
  endfacet
  facet normal  1.817002e-001  5.192695e-001  8.350714e-001
    outer loop
      vertex  5.726540e+000  1.189128e+001  1.579608e+000
      vertex  2.936904e+000  1.286742e+001  1.579608e+000
      vertex  5.029506e+000  1.044388e+001  2.631309e+000
    endloop
  endfacet
  facet normal  1.817003e-001  5.192696e-001  8.350713e-001
    outer loop
      vertex  5.029506e+000  1.044388e+001  2.631309e+000
      vertex  2.936904e+000  1.286742e+001  1.579608e+000
      vertex  2.579424e+000  1.130120e+001  2.631309e+000
    endloop
  endfacet
  facet normal  6.447256e-002  1.842520e-001  9.807623e-001
    outer loop
      vertex  5.029506e+000  1.044388e+001  2.631309e+000
      vertex  2.579424e+000  1.130120e+001  2.631309e+000
      vertex  4.032609e+000  8.830184e+000  3.000000e+000
    endloop
  endfacet
  facet normal  9.229539e-002  8.191442e-001  5.661134e-001
    outer loop
      vertex  3.179824e+000  1.393172e+001  0.000000e+000
      vertex  8.750101e-016  1.429000e+001  0.000000e+000
      vertex  2.936904e+000  1.286742e+001  1.579608e+000
    endloop
  endfacet
  facet normal  9.229541e-002  8.191441e-001  5.661134e-001
    outer loop
      vertex  2.936904e+000  1.286742e+001  1.579608e+000
      vertex  8.750101e-016  1.429000e+001  0.000000e+000
      vertex -2.965633e-007  1.319833e+001  1.579608e+000
    endloop
  endfacet
  facet normal  6.159635e-002  5.466825e-001  8.350713e-001
    outer loop
      vertex  2.936904e+000  1.286742e+001  1.579608e+000
      vertex -2.965633e-007  1.319833e+001  1.579608e+000
      vertex  2.579424e+000  1.130120e+001  2.631309e+000
    endloop
  endfacet
  facet normal  6.159631e-002  5.466825e-001  8.350713e-001
    outer loop
      vertex  2.579424e+000  1.130120e+001  2.631309e+000
      vertex -2.965633e-007  1.319833e+001  1.579608e+000
      vertex -2.604656e-007  1.159183e+001  2.631309e+000
    endloop
  endfacet
  facet normal  2.227625e-002  1.977072e-001  9.800079e-001
    outer loop
      vertex  2.579424e+000  1.130120e+001  2.631309e+000
      vertex -2.604656e-007  1.159183e+001  2.631309e+000
      vertex  1.381510e+000  9.608617e+000  3.000000e+000
    endloop
  endfacet
  facet normal -9.229539e-002  8.191442e-001  5.661134e-001
    outer loop
      vertex  8.750101e-016  1.429000e+001  0.000000e+000
      vertex -3.179824e+000  1.393172e+001  0.000000e+000
      vertex -2.965633e-007  1.319833e+001  1.579608e+000
    endloop
  endfacet
  facet normal -9.229541e-002  8.191441e-001  5.661134e-001
    outer loop
      vertex -2.965633e-007  1.319833e+001  1.579608e+000
      vertex -3.179824e+000  1.393172e+001  0.000000e+000
      vertex -2.936904e+000  1.286742e+001  1.579608e+000
    endloop
  endfacet
  facet normal -6.159634e-002  5.466825e-001  8.350713e-001
    outer loop
      vertex -2.965633e-007  1.319833e+001  1.579608e+000
      vertex -2.936904e+000  1.286742e+001  1.579608e+000
      vertex -2.604656e-007  1.159183e+001  2.631309e+000
    endloop
  endfacet
  facet normal -6.159632e-002  5.466826e-001  8.350713e-001
    outer loop
      vertex -2.604656e-007  1.159183e+001  2.631309e+000
      vertex -2.936904e+000  1.286742e+001  1.579608e+000
      vertex -2.579425e+000  1.130120e+001  2.631309e+000
    endloop
  endfacet
  facet normal -2.227625e-002  1.977072e-001  9.800079e-001
    outer loop
      vertex -2.604656e-007  1.159183e+001  2.631309e+000
      vertex -2.579425e+000  1.130120e+001  2.631309e+000
      vertex -1.381511e+000  9.608617e+000  3.000000e+000
    endloop
  endfacet
  facet normal -2.722580e-001  7.780689e-001  5.661134e-001
    outer loop
      vertex -3.179824e+000  1.393172e+001  0.000000e+000
      vertex -6.200199e+000  1.287485e+001  0.000000e+000
      vertex -2.936904e+000  1.286742e+001  1.579608e+000
    endloop
  endfacet
  facet normal -2.722580e-001  7.780688e-001  5.661134e-001
    outer loop
      vertex -2.936904e+000  1.286742e+001  1.579608e+000
      vertex -6.200199e+000  1.287485e+001  0.000000e+000
      vertex -5.726540e+000  1.189128e+001  1.579608e+000
    endloop
  endfacet
  facet normal -1.817002e-001  5.192696e-001  8.350713e-001
    outer loop
      vertex -2.936904e+000  1.286742e+001  1.579608e+000
      vertex -5.726540e+000  1.189128e+001  1.579608e+000
      vertex -2.579425e+000  1.130120e+001  2.631309e+000
    endloop
  endfacet
  facet normal -1.817003e-001  5.192695e-001  8.350714e-001
    outer loop
      vertex -2.579425e+000  1.130120e+001  2.631309e+000
      vertex -5.726540e+000  1.189128e+001  1.579608e+000
      vertex -5.029506e+000  1.044388e+001  2.631309e+000
    endloop
  endfacet
  facet normal -6.447256e-002  1.842520e-001  9.807623e-001
    outer loop
      vertex -2.579425e+000  1.130120e+001  2.631309e+000
      vertex -5.029506e+000  1.044388e+001  2.631309e+000
      vertex -4.032610e+000  8.830184e+000  3.000000e+000
    endloop
  endfacet
  facet normal -4.385688e-001  6.979779e-001  5.661133e-001
    outer loop
      vertex -6.200199e+000  1.287485e+001  0.000000e+000
      vertex -8.909669e+000  1.117237e+001  0.000000e+000
      vertex -5.726540e+000  1.189128e+001  1.579608e+000
    endloop
  endfacet
  facet normal -4.385687e-001  6.979780e-001  5.661132e-001
    outer loop
      vertex -5.726540e+000  1.189128e+001  1.579608e+000
      vertex -8.909669e+000  1.117237e+001  0.000000e+000
      vertex -8.229023e+000  1.031887e+001  1.579608e+000
    endloop
  endfacet
  facet normal -2.926930e-001  4.658182e-001  8.350714e-001
    outer loop
      vertex -5.726540e+000  1.189128e+001  1.579608e+000
      vertex -8.229023e+000  1.031887e+001  1.579608e+000
      vertex -5.029506e+000  1.044388e+001  2.631309e+000
    endloop
  endfacet
  facet normal -2.926930e-001  4.658181e-001  8.350714e-001
    outer loop
      vertex -5.029506e+000  1.044388e+001  2.631309e+000
      vertex -8.229023e+000  1.031887e+001  1.579608e+000
      vertex -7.227387e+000  9.062856e+000  2.631309e+000
    endloop
  endfacet
  facet normal -1.015175e-001  1.615641e-001  9.816269e-001
    outer loop
      vertex -5.029506e+000  1.044388e+001  2.631309e+000
      vertex -7.227387e+000  9.062856e+000  2.631309e+000
      vertex -4.032610e+000  8.830184e+000  3.000000e+000
    endloop
  endfacet
  facet normal -5.828876e-001  5.828876e-001  5.661132e-001
    outer loop
      vertex -8.909669e+000  1.117237e+001  0.000000e+000
      vertex -1.117237e+001  8.909669e+000  0.000000e+000
      vertex -8.229023e+000  1.031887e+001  1.579608e+000
    endloop
  endfacet
  facet normal -5.828876e-001  5.828873e-001  5.661134e-001
    outer loop
      vertex -8.229023e+000  1.031887e+001  1.579608e+000
      vertex -1.117237e+001  8.909669e+000  0.000000e+000
      vertex -1.031887e+001  8.229022e+000  1.579608e+000
    endloop
  endfacet
  facet normal -3.890089e-001  3.890087e-001  8.350714e-001
    outer loop
      vertex -8.229023e+000  1.031887e+001  1.579608e+000
      vertex -1.031887e+001  8.229022e+000  1.579608e+000
      vertex -7.227387e+000  9.062856e+000  2.631309e+000
    endloop
  endfacet
  facet normal -3.890089e-001  3.890090e-001  8.350713e-001
    outer loop
      vertex -7.227387e+000  9.062856e+000  2.631309e+000
      vertex -1.031887e+001  8.229022e+000  1.579608e+000
      vertex -9.062857e+000  7.227386e+000  2.631309e+000
    endloop
  endfacet
  facet normal -1.391982e-001  1.391982e-001  9.804325e-001
    outer loop
      vertex -7.227387e+000  9.062856e+000  2.631309e+000
      vertex -9.062857e+000  7.227386e+000  2.631309e+000
      vertex -6.357011e+000  7.336381e+000  3.000000e+000
    endloop
  endfacet
  facet normal -6.979778e-001  4.385687e-001  5.661134e-001
    outer loop
      vertex -1.117237e+001  8.909669e+000  0.000000e+000
      vertex -1.287485e+001  6.200199e+000  0.000000e+000
      vertex -1.031887e+001  8.229022e+000  1.579608e+000
    endloop
  endfacet
  facet normal -6.979778e-001  4.385686e-001  5.661135e-001
    outer loop
      vertex -1.031887e+001  8.229022e+000  1.579608e+000
      vertex -1.287485e+001  6.200199e+000  0.000000e+000
      vertex -1.189128e+001  5.726539e+000  1.579608e+000
    endloop
  endfacet
  facet normal -4.658183e-001  2.926931e-001  8.350713e-001
    outer loop
      vertex -1.031887e+001  8.229022e+000  1.579608e+000
      vertex -1.189128e+001  5.726539e+000  1.579608e+000
      vertex -9.062857e+000  7.227386e+000  2.631309e+000
    endloop
  endfacet
  facet normal -4.658183e-001  2.926929e-001  8.350714e-001
    outer loop
      vertex -9.062857e+000  7.227386e+000  2.631309e+000
      vertex -1.189128e+001  5.726539e+000  1.579608e+000
      vertex -1.044388e+001  5.029505e+000  2.631309e+000
    endloop
  endfacet
  facet normal -1.688234e-001  1.060787e-001  9.799215e-001
    outer loop
      vertex -9.062857e+000  7.227386e+000  2.631309e+000
      vertex -1.044388e+001  5.029505e+000  2.631309e+000
      vertex -8.166405e+000  5.248230e+000  3.000000e+000
    endloop
  endfacet
  facet normal -7.780688e-001  2.722580e-001  5.661135e-001
    outer loop
      vertex -1.287485e+001  6.200199e+000  0.000000e+000
      vertex -1.393172e+001  3.179824e+000  0.000000e+000
      vertex -1.189128e+001  5.726539e+000  1.579608e+000
    endloop
  endfacet
  facet normal -7.780688e-001  2.722580e-001  5.661135e-001
    outer loop
      vertex -1.189128e+001  5.726539e+000  1.579608e+000
      vertex -1.393172e+001  3.179824e+000  0.000000e+000
      vertex -1.286742e+001  2.936903e+000  1.579608e+000
    endloop
  endfacet
  facet normal -5.192695e-001  1.817002e-001  8.350714e-001
    outer loop
      vertex -1.189128e+001  5.726539e+000  1.579608e+000
      vertex -1.286742e+001  2.936903e+000  1.579608e+000
      vertex -1.044388e+001  5.029505e+000  2.631309e+000
    endloop
  endfacet
  facet normal -5.192696e-001  1.817003e-001  8.350713e-001
    outer loop
      vertex -1.044388e+001  5.029505e+000  2.631309e+000
      vertex -1.286742e+001  2.936903e+000  1.579608e+000
      vertex -1.130120e+001  2.579424e+000  2.631309e+000
    endloop
  endfacet
  facet normal -1.869945e-001  6.543221e-002  9.801794e-001
    outer loop
      vertex -1.044388e+001  5.029505e+000  2.631309e+000
      vertex -1.130120e+001  2.579424e+000  2.631309e+000
      vertex -9.314205e+000  2.734897e+000  3.000000e+000
    endloop
  endfacet
  facet normal  9.914449e-001 -1.305263e-001  0.000000e+000
    outer loop
      vertex  1.111500e+001  0.000000e+000 -3.000000e+000
      vertex  1.111500e+001  0.000000e+000  0.000000e+000
      vertex  1.073627e+001 -2.876774e+000 -3.000000e+000
    endloop
  endfacet
  facet normal  9.914449e-001 -1.305263e-001  0.000000e+000
    outer loop
      vertex  1.073627e+001 -2.876774e+000 -3.000000e+000
      vertex  1.111500e+001  0.000000e+000  0.000000e+000
      vertex  1.073627e+001 -2.876774e+000  0.000000e+000
    endloop
  endfacet
  facet normal  9.238796e-001 -3.826832e-001  0.000000e+000
    outer loop
      vertex  1.073627e+001 -2.876774e+000 -3.000000e+000
      vertex  1.073627e+001 -2.876774e+000  0.000000e+000
      vertex  9.625873e+000 -5.557500e+000 -3.000000e+000
    endloop
  endfacet
  facet normal  9.238796e-001 -3.826832e-001  0.000000e+000
    outer loop
      vertex  9.625873e+000 -5.557500e+000 -3.000000e+000
      vertex  1.073627e+001 -2.876774e+000  0.000000e+000
      vertex  9.625873e+000 -5.557500e+000  0.000000e+000
    endloop
  endfacet
  facet normal  7.933533e-001 -6.087615e-001  0.000000e+000
    outer loop
      vertex  9.625873e+000 -5.557500e+000 -3.000000e+000
      vertex  9.625873e+000 -5.557500e+000  0.000000e+000
      vertex  7.859492e+000 -7.859492e+000 -3.000000e+000
    endloop
  endfacet
  facet normal  7.933533e-001 -6.087615e-001  0.000000e+000
    outer loop
      vertex  7.859492e+000 -7.859492e+000 -3.000000e+000
      vertex  9.625873e+000 -5.557500e+000  0.000000e+000
      vertex  7.859492e+000 -7.859492e+000  0.000000e+000
    endloop
  endfacet
  facet normal  6.087615e-001 -7.933533e-001  0.000000e+000
    outer loop
      vertex  7.859492e+000 -7.859492e+000 -3.000000e+000
      vertex  7.859492e+000 -7.859492e+000  0.000000e+000
      vertex  5.557500e+000 -9.625873e+000 -3.000000e+000
    endloop
  endfacet
  facet normal  6.087615e-001 -7.933533e-001  0.000000e+000
    outer loop
      vertex  5.557500e+000 -9.625873e+000 -3.000000e+000
      vertex  7.859492e+000 -7.859492e+000  0.000000e+000
      vertex  5.557500e+000 -9.625873e+000  0.000000e+000
    endloop
  endfacet
  facet normal  3.826832e-001 -9.238796e-001  0.000000e+000
    outer loop
      vertex  5.557500e+000 -9.625873e+000 -3.000000e+000
      vertex  5.557500e+000 -9.625873e+000  0.000000e+000
      vertex  2.876774e+000 -1.073627e+001 -3.000000e+000
    endloop
  endfacet
  facet normal  3.826832e-001 -9.238796e-001  0.000000e+000
    outer loop
      vertex  2.876774e+000 -1.073627e+001 -3.000000e+000
      vertex  5.557500e+000 -9.625873e+000  0.000000e+000
      vertex  2.876774e+000 -1.073627e+001  0.000000e+000
    endloop
  endfacet
  facet normal  1.305263e-001 -9.914449e-001  0.000000e+000
    outer loop
      vertex  2.876774e+000 -1.073627e+001 -3.000000e+000
      vertex  2.876774e+000 -1.073627e+001  0.000000e+000
      vertex -2.041792e-015 -1.111500e+001 -3.000000e+000
    endloop
  endfacet
  facet normal  1.305263e-001 -9.914449e-001  0.000000e+000
    outer loop
      vertex -2.041792e-015 -1.111500e+001 -3.000000e+000
      vertex  2.876774e+000 -1.073627e+001  0.000000e+000
      vertex -2.041792e-015 -1.111500e+001  0.000000e+000
    endloop
  endfacet
  facet normal -1.305263e-001 -9.914449e-001  -0.000000e+000
    outer loop
      vertex -2.041792e-015 -1.111500e+001 -3.000000e+000
      vertex -2.041792e-015 -1.111500e+001  0.000000e+000
      vertex -2.876774e+000 -1.073627e+001 -3.000000e+000
    endloop
  endfacet
  facet normal -1.305263e-001 -9.914449e-001  0.000000e+000
    outer loop
      vertex -2.876774e+000 -1.073627e+001 -3.000000e+000
      vertex -2.041792e-015 -1.111500e+001  0.000000e+000
      vertex -2.876774e+000 -1.073627e+001  0.000000e+000
    endloop
  endfacet
  facet normal -3.826832e-001 -9.238796e-001  -0.000000e+000
    outer loop
      vertex -2.876774e+000 -1.073627e+001 -3.000000e+000
      vertex -2.876774e+000 -1.073627e+001  0.000000e+000
      vertex -5.557500e+000 -9.625873e+000 -3.000000e+000
    endloop
  endfacet
  facet normal -3.826832e-001 -9.238796e-001  0.000000e+000
    outer loop
      vertex -5.557500e+000 -9.625873e+000 -3.000000e+000
      vertex -2.876774e+000 -1.073627e+001  0.000000e+000
      vertex -5.557500e+000 -9.625873e+000  0.000000e+000
    endloop
  endfacet
  facet normal -6.087615e-001 -7.933533e-001  -0.000000e+000
    outer loop
      vertex -5.557500e+000 -9.625873e+000 -3.000000e+000
      vertex -5.557500e+000 -9.625873e+000  0.000000e+000
      vertex -7.859492e+000 -7.859492e+000 -3.000000e+000
    endloop
  endfacet
  facet normal -6.087615e-001 -7.933533e-001  0.000000e+000
    outer loop
      vertex -7.859492e+000 -7.859492e+000 -3.000000e+000
      vertex -5.557500e+000 -9.625873e+000  0.000000e+000
      vertex -7.859492e+000 -7.859492e+000  0.000000e+000
    endloop
  endfacet
  facet normal -7.933533e-001 -6.087615e-001  -0.000000e+000
    outer loop
      vertex -7.859492e+000 -7.859492e+000 -3.000000e+000
      vertex -7.859492e+000 -7.859492e+000  0.000000e+000
      vertex -9.625873e+000 -5.557500e+000 -3.000000e+000
    endloop
  endfacet
  facet normal -7.933533e-001 -6.087615e-001  0.000000e+000
    outer loop
      vertex -9.625873e+000 -5.557500e+000 -3.000000e+000
      vertex -7.859492e+000 -7.859492e+000  0.000000e+000
      vertex -9.625873e+000 -5.557500e+000  0.000000e+000
    endloop
  endfacet
  facet normal -9.238796e-001 -3.826832e-001  -0.000000e+000
    outer loop
      vertex -9.625873e+000 -5.557500e+000 -3.000000e+000
      vertex -9.625873e+000 -5.557500e+000  0.000000e+000
      vertex -1.073627e+001 -2.876774e+000 -3.000000e+000
    endloop
  endfacet
  facet normal -9.238796e-001 -3.826832e-001  0.000000e+000
    outer loop
      vertex -1.073627e+001 -2.876774e+000 -3.000000e+000
      vertex -9.625873e+000 -5.557500e+000  0.000000e+000
      vertex -1.073627e+001 -2.876774e+000  0.000000e+000
    endloop
  endfacet
  facet normal -9.914449e-001 -1.305263e-001  -0.000000e+000
    outer loop
      vertex -1.073627e+001 -2.876774e+000 -3.000000e+000
      vertex -1.073627e+001 -2.876774e+000  0.000000e+000
      vertex -1.111500e+001  1.361195e-015 -3.000000e+000
    endloop
  endfacet
  facet normal -9.914449e-001 -1.305263e-001  0.000000e+000
    outer loop
      vertex -1.111500e+001  1.361195e-015 -3.000000e+000
      vertex -1.073627e+001 -2.876774e+000  0.000000e+000
      vertex -1.111500e+001  1.361195e-015  0.000000e+000
    endloop
  endfacet
  facet normal -9.914449e-001  1.305263e-001  0.000000e+000
    outer loop
      vertex -1.111500e+001  1.361195e-015 -3.000000e+000
      vertex -1.111500e+001  1.361195e-015  0.000000e+000
      vertex -1.073627e+001  2.876774e+000 -3.000000e+000
    endloop
  endfacet
  facet normal -9.914449e-001  1.305263e-001  0.000000e+000
    outer loop
      vertex -1.073627e+001  2.876774e+000 -3.000000e+000
      vertex -1.111500e+001  1.361195e-015  0.000000e+000
      vertex -1.073627e+001  2.876774e+000  0.000000e+000
    endloop
  endfacet
  facet normal -9.238796e-001  3.826832e-001  0.000000e+000
    outer loop
      vertex -1.073627e+001  2.876774e+000 -3.000000e+000
      vertex -1.073627e+001  2.876774e+000  0.000000e+000
      vertex -9.625873e+000  5.557500e+000 -3.000000e+000
    endloop
  endfacet
  facet normal -9.238796e-001  3.826832e-001  0.000000e+000
    outer loop
      vertex -9.625873e+000  5.557500e+000 -3.000000e+000
      vertex -1.073627e+001  2.876774e+000  0.000000e+000
      vertex -9.625873e+000  5.557500e+000  0.000000e+000
    endloop
  endfacet
  facet normal -7.933533e-001  6.087615e-001  0.000000e+000
    outer loop
      vertex -9.625873e+000  5.557500e+000 -3.000000e+000
      vertex -9.625873e+000  5.557500e+000  0.000000e+000
      vertex -7.859492e+000  7.859492e+000 -3.000000e+000
    endloop
  endfacet
  facet normal -7.933533e-001  6.087615e-001  0.000000e+000
    outer loop
      vertex -7.859492e+000  7.859492e+000 -3.000000e+000
      vertex -9.625873e+000  5.557500e+000  0.000000e+000
      vertex -7.859492e+000  7.859492e+000  0.000000e+000
    endloop
  endfacet
  facet normal -6.087615e-001  7.933533e-001  0.000000e+000
    outer loop
      vertex -7.859492e+000  7.859492e+000 -3.000000e+000
      vertex -7.859492e+000  7.859492e+000  0.000000e+000
      vertex -5.557500e+000  9.625873e+000 -3.000000e+000
    endloop
  endfacet
  facet normal -6.087615e-001  7.933533e-001  0.000000e+000
    outer loop
      vertex -5.557500e+000  9.625873e+000 -3.000000e+000
      vertex -7.859492e+000  7.859492e+000  0.000000e+000
      vertex -5.557500e+000  9.625873e+000  0.000000e+000
    endloop
  endfacet
  facet normal -3.826832e-001  9.238796e-001  0.000000e+000
    outer loop
      vertex -5.557500e+000  9.625873e+000 -3.000000e+000
      vertex -5.557500e+000  9.625873e+000  0.000000e+000
      vertex -2.876774e+000  1.073627e+001 -3.000000e+000
    endloop
  endfacet
  facet normal -3.826832e-001  9.238796e-001  0.000000e+000
    outer loop
      vertex -2.876774e+000  1.073627e+001 -3.000000e+000
      vertex -5.557500e+000  9.625873e+000  0.000000e+000
      vertex -2.876774e+000  1.073627e+001  0.000000e+000
    endloop
  endfacet
  facet normal -1.305263e-001  9.914449e-001  0.000000e+000
    outer loop
      vertex -2.876774e+000  1.073627e+001 -3.000000e+000
      vertex -2.876774e+000  1.073627e+001  0.000000e+000
      vertex  6.805975e-016  1.111500e+001 -3.000000e+000
    endloop
  endfacet
  facet normal -1.305263e-001  9.914449e-001  0.000000e+000
    outer loop
      vertex  6.805975e-016  1.111500e+001 -3.000000e+000
      vertex -2.876774e+000  1.073627e+001  0.000000e+000
      vertex  6.805975e-016  1.111500e+001  0.000000e+000
    endloop
  endfacet
  facet normal  1.305263e-001  9.914449e-001  0.000000e+000
    outer loop
      vertex  6.805975e-016  1.111500e+001 -3.000000e+000
      vertex  6.805975e-016  1.111500e+001  0.000000e+000
      vertex  2.876774e+000  1.073627e+001 -3.000000e+000
    endloop
  endfacet
  facet normal  1.305263e-001  9.914449e-001  -0.000000e+000
    outer loop
      vertex  2.876774e+000  1.073627e+001 -3.000000e+000
      vertex  6.805975e-016  1.111500e+001  0.000000e+000
      vertex  2.876774e+000  1.073627e+001  0.000000e+000
    endloop
  endfacet
  facet normal  3.826832e-001  9.238796e-001  0.000000e+000
    outer loop
      vertex  2.876774e+000  1.073627e+001 -3.000000e+000
      vertex  2.876774e+000  1.073627e+001  0.000000e+000
      vertex  5.557500e+000  9.625873e+000 -3.000000e+000
    endloop
  endfacet
  facet normal  3.826832e-001  9.238796e-001  -0.000000e+000
    outer loop
      vertex  5.557500e+000  9.625873e+000 -3.000000e+000
      vertex  2.876774e+000  1.073627e+001  0.000000e+000
      vertex  5.557500e+000  9.625873e+000  0.000000e+000
    endloop
  endfacet
  facet normal  6.087615e-001  7.933533e-001  0.000000e+000
    outer loop
      vertex  5.557500e+000  9.625873e+000 -3.000000e+000
      vertex  5.557500e+000  9.625873e+000  0.000000e+000
      vertex  7.859492e+000  7.859492e+000 -3.000000e+000
    endloop
  endfacet
  facet normal  6.087615e-001  7.933533e-001  -0.000000e+000
    outer loop
      vertex  7.859492e+000  7.859492e+000 -3.000000e+000
      vertex  5.557500e+000  9.625873e+000  0.000000e+000
      vertex  7.859492e+000  7.859492e+000  0.000000e+000
    endloop
  endfacet
  facet normal  7.933533e-001  6.087615e-001  0.000000e+000
    outer loop
      vertex  7.859492e+000  7.859492e+000 -3.000000e+000
      vertex  7.859492e+000  7.859492e+000  0.000000e+000
      vertex  9.625873e+000  5.557500e+000 -3.000000e+000
    endloop
  endfacet
  facet normal  7.933533e-001  6.087615e-001  -0.000000e+000
    outer loop
      vertex  9.625873e+000  5.557500e+000 -3.000000e+000
      vertex  7.859492e+000  7.859492e+000  0.000000e+000
      vertex  9.625873e+000  5.557500e+000  0.000000e+000
    endloop
  endfacet
  facet normal  9.238796e-001  3.826832e-001  0.000000e+000
    outer loop
      vertex  9.625873e+000  5.557500e+000 -3.000000e+000
      vertex  9.625873e+000  5.557500e+000  0.000000e+000
      vertex  1.073627e+001  2.876774e+000 -3.000000e+000
    endloop
  endfacet
  facet normal  9.238796e-001  3.826832e-001  -0.000000e+000
    outer loop
      vertex  1.073627e+001  2.876774e+000 -3.000000e+000
      vertex  9.625873e+000  5.557500e+000  0.000000e+000
      vertex  1.073627e+001  2.876774e+000  0.000000e+000
    endloop
  endfacet
  facet normal  9.914449e-001  1.305263e-001  0.000000e+000
    outer loop
      vertex  1.073627e+001  2.876774e+000 -3.000000e+000
      vertex  1.073627e+001  2.876774e+000  0.000000e+000
      vertex  1.111500e+001  0.000000e+000 -3.000000e+000
    endloop
  endfacet
  facet normal  9.914449e-001  1.305263e-001  -0.000000e+000
    outer loop
      vertex  1.111500e+001  0.000000e+000 -3.000000e+000
      vertex  1.073627e+001  2.876774e+000  0.000000e+000
      vertex  1.111500e+001  0.000000e+000  0.000000e+000
    endloop
  endfacet
  facet normal  0.000000e+000  0.000000e+000 -1.000000e+000
    outer loop
      vertex  6.805975e-016  1.111500e+001 -3.000000e+000
      vertex  2.876774e+000  1.073627e+001 -3.000000e+000
      vertex -2.876774e+000  1.073627e+001 -3.000000e+000
    endloop
  endfacet
  facet normal  0.000000e+000  0.000000e+000 -1.000000e+000
    outer loop
      vertex -2.041792e-015 -1.111500e+001 -3.000000e+000
      vertex -2.876774e+000 -1.073627e+001 -3.000000e+000
      vertex  2.876774e+000 -1.073627e+001 -3.000000e+000
    endloop
  endfacet
  facet normal  0.000000e+000  0.000000e+000 -1.000000e+000
    outer loop
      vertex  2.876774e+000 -1.073627e+001 -3.000000e+000
      vertex -2.876774e+000 -1.073627e+001 -3.000000e+000
      vertex -5.557500e+000 -9.625873e+000 -3.000000e+000
    endloop
  endfacet
  facet normal  0.000000e+000  0.000000e+000 -1.000000e+000
    outer loop
      vertex  2.876774e+000 -1.073627e+001 -3.000000e+000
      vertex -5.557500e+000 -9.625873e+000 -3.000000e+000
      vertex  5.557500e+000 -9.625873e+000 -3.000000e+000
    endloop
  endfacet
  facet normal  0.000000e+000  0.000000e+000 -1.000000e+000
    outer loop
      vertex  5.557500e+000 -9.625873e+000 -3.000000e+000
      vertex -5.557500e+000 -9.625873e+000 -3.000000e+000
      vertex -7.859492e+000 -7.859492e+000 -3.000000e+000
    endloop
  endfacet
  facet normal  0.000000e+000  0.000000e+000 -1.000000e+000
    outer loop
      vertex  5.557500e+000 -9.625873e+000 -3.000000e+000
      vertex -7.859492e+000 -7.859492e+000 -3.000000e+000
      vertex  7.859492e+000 -7.859492e+000 -3.000000e+000
    endloop
  endfacet
  facet normal  0.000000e+000  0.000000e+000 -1.000000e+000
    outer loop
      vertex  7.859492e+000 -7.859492e+000 -3.000000e+000
      vertex -7.859492e+000 -7.859492e+000 -3.000000e+000
      vertex -9.625873e+000 -5.557500e+000 -3.000000e+000
    endloop
  endfacet
  facet normal  0.000000e+000  0.000000e+000 -1.000000e+000
    outer loop
      vertex  7.859492e+000 -7.859492e+000 -3.000000e+000
      vertex -9.625873e+000 -5.557500e+000 -3.000000e+000
      vertex  9.625873e+000 -5.557500e+000 -3.000000e+000
    endloop
  endfacet
  facet normal  0.000000e+000  0.000000e+000 -1.000000e+000
    outer loop
      vertex  9.625873e+000 -5.557500e+000 -3.000000e+000
      vertex -9.625873e+000 -5.557500e+000 -3.000000e+000
      vertex -1.073627e+001 -2.876774e+000 -3.000000e+000
    endloop
  endfacet
  facet normal  0.000000e+000  0.000000e+000 -9.999999e-001
    outer loop
      vertex  9.625873e+000 -5.557500e+000 -3.000000e+000
      vertex -1.073627e+001 -2.876774e+000 -3.000000e+000
      vertex  1.073627e+001 -2.876774e+000 -3.000000e+000
    endloop
  endfacet
  facet normal  0.000000e+000  0.000000e+000 -1.000000e+000
    outer loop
      vertex  1.073627e+001 -2.876774e+000 -3.000000e+000
      vertex -1.073627e+001 -2.876774e+000 -3.000000e+000
      vertex -1.111500e+001  1.361195e-015 -3.000000e+000
    endloop
  endfacet
  facet normal  0.000000e+000  0.000000e+000 -1.000000e+000
    outer loop
      vertex  1.073627e+001 -2.876774e+000 -3.000000e+000
      vertex -1.111500e+001  1.361195e-015 -3.000000e+000
      vertex  1.111500e+001  0.000000e+000 -3.000000e+000
    endloop
  endfacet
  facet normal  0.000000e+000  0.000000e+000 -1.000000e+000
    outer loop
      vertex  1.111500e+001  0.000000e+000 -3.000000e+000
      vertex -1.111500e+001  1.361195e-015 -3.000000e+000
      vertex -1.073627e+001  2.876774e+000 -3.000000e+000
    endloop
  endfacet
  facet normal  0.000000e+000  0.000000e+000 -1.000000e+000
    outer loop
      vertex  1.111500e+001  0.000000e+000 -3.000000e+000
      vertex -1.073627e+001  2.876774e+000 -3.000000e+000
      vertex  1.073627e+001  2.876774e+000 -3.000000e+000
    endloop
  endfacet
  facet normal  0.000000e+000  0.000000e+000 -9.999999e-001
    outer loop
      vertex  1.073627e+001  2.876774e+000 -3.000000e+000
      vertex -1.073627e+001  2.876774e+000 -3.000000e+000
      vertex -9.625873e+000  5.557500e+000 -3.000000e+000
    endloop
  endfacet
  facet normal  0.000000e+000  0.000000e+000 -1.000000e+000
    outer loop
      vertex  1.073627e+001  2.876774e+000 -3.000000e+000
      vertex -9.625873e+000  5.557500e+000 -3.000000e+000
      vertex  9.625873e+000  5.557500e+000 -3.000000e+000
    endloop
  endfacet
  facet normal  0.000000e+000  0.000000e+000 -1.000000e+000
    outer loop
      vertex  9.625873e+000  5.557500e+000 -3.000000e+000
      vertex -9.625873e+000  5.557500e+000 -3.000000e+000
      vertex -7.859492e+000  7.859492e+000 -3.000000e+000
    endloop
  endfacet
  facet normal  0.000000e+000  0.000000e+000 -1.000000e+000
    outer loop
      vertex  9.625873e+000  5.557500e+000 -3.000000e+000
      vertex -7.859492e+000  7.859492e+000 -3.000000e+000
      vertex  7.859492e+000  7.859492e+000 -3.000000e+000
    endloop
  endfacet
  facet normal  0.000000e+000  0.000000e+000 -1.000000e+000
    outer loop
      vertex  7.859492e+000  7.859492e+000 -3.000000e+000
      vertex -7.859492e+000  7.859492e+000 -3.000000e+000
      vertex -5.557500e+000  9.625873e+000 -3.000000e+000
    endloop
  endfacet
  facet normal  0.000000e+000  0.000000e+000 -1.000000e+000
    outer loop
      vertex  7.859492e+000  7.859492e+000 -3.000000e+000
      vertex -5.557500e+000  9.625873e+000 -3.000000e+000
      vertex  5.557500e+000  9.625873e+000 -3.000000e+000
    endloop
  endfacet
  facet normal  0.000000e+000  0.000000e+000 -1.000000e+000
    outer loop
      vertex  5.557500e+000  9.625873e+000 -3.000000e+000
      vertex -5.557500e+000  9.625873e+000 -3.000000e+000
      vertex -2.876774e+000  1.073627e+001 -3.000000e+000
    endloop
  endfacet
  facet normal  0.000000e+000  0.000000e+000 -1.000000e+000
    outer loop
      vertex  5.557500e+000  9.625873e+000 -3.000000e+000
      vertex -2.876774e+000  1.073627e+001 -3.000000e+000
      vertex  2.876774e+000  1.073627e+001 -3.000000e+000
    endloop
  endfacet
endsolid CATIA STL
