solid CATIA STL
  facet normal  0.000000e+000  1.000000e+000  0.000000e+000
    outer loop
      vertex  2.625030e-015  9.500000e+001 -1.429000e+001
      vertex  6.200199e+000  9.500000e+001 -1.287485e+001
      vertex  3.179824e+000  9.500000e+001 -1.393172e+001
    endloop
  endfacet
  facet normal  0.000000e+000  1.000000e+000  -0.000000e+000
    outer loop
      vertex  8.909669e+000  9.500000e+001 -1.117237e+001
      vertex  6.200199e+000  9.500000e+001 -1.287485e+001
      vertex  2.625030e-015  9.500000e+001 -1.429000e+001
    endloop
  endfacet
  facet normal  0.000000e+000  9.999999e-001  -0.000000e+000
    outer loop
      vertex  8.909669e+000  9.500000e+001 -1.117237e+001
      vertex  2.625030e-015  9.500000e+001 -1.429000e+001
      vertex  2.041792e-015  9.500000e+001 -1.111500e+001
    endloop
  endfacet
  facet normal  -0.000000e+000  1.000000e+000  0.000000e+000
    outer loop
      vertex  8.909669e+000  9.500000e+001 -1.117237e+001
      vertex  2.041792e-015  9.500000e+001 -1.111500e+001
      vertex  2.876774e+000  9.500000e+001 -1.073627e+001
    endloop
  endfacet
  facet normal  -0.000000e+000  9.999999e-001  0.000000e+000
    outer loop
      vertex  8.909669e+000  9.500000e+001 -1.117237e+001
      vertex  2.876774e+000  9.500000e+001 -1.073627e+001
      vertex  5.557500e+000  9.500000e+001 -9.625873e+000
    endloop
  endfacet
  facet normal  -0.000000e+000  1.000000e+000  0.000000e+000
    outer loop
      vertex  8.909669e+000  9.500000e+001 -1.117237e+001
      vertex  5.557500e+000  9.500000e+001 -9.625873e+000
      vertex  1.117237e+001  9.500000e+001 -8.909669e+000
    endloop
  endfacet
  facet normal  0.000000e+000  1.000000e+000  -0.000000e+000
    outer loop
      vertex -6.805975e-016  9.500000e+001  1.111500e+001
      vertex -2.876774e+000  9.500000e+001  1.073627e+001
      vertex -8.909669e+000  9.500000e+001  1.117237e+001
    endloop
  endfacet
  facet normal  -0.000000e+000  1.000000e+000  0.000000e+000
    outer loop
      vertex -6.805975e-016  9.500000e+001  1.111500e+001
      vertex -8.909669e+000  9.500000e+001  1.117237e+001
      vertex -6.200199e+000  9.500000e+001  1.287485e+001
    endloop
  endfacet
  facet normal  -0.000000e+000  1.000000e+000  0.000000e+000
    outer loop
      vertex -6.805975e-016  9.500000e+001  1.111500e+001
      vertex -6.200199e+000  9.500000e+001  1.287485e+001
      vertex -3.179824e+000  9.500000e+001  1.393172e+001
    endloop
  endfacet
  facet normal  -0.000000e+000  1.000000e+000  0.000000e+000
    outer loop
      vertex -6.805975e-016  9.500000e+001  1.111500e+001
      vertex -3.179824e+000  9.500000e+001  1.393172e+001
      vertex -8.750101e-016  9.500000e+001  1.429000e+001
    endloop
  endfacet
  facet normal  0.000000e+000  1.000000e+000  0.000000e+000
    outer loop
      vertex -6.805975e-016  9.500000e+001  1.111500e+001
      vertex -8.750101e-016  9.500000e+001  1.429000e+001
      vertex  3.179824e+000  9.500000e+001  1.393172e+001
    endloop
  endfacet
  facet normal  0.000000e+000  1.000000e+000  0.000000e+000
    outer loop
      vertex -6.805975e-016  9.500000e+001  1.111500e+001
      vertex  3.179824e+000  9.500000e+001  1.393172e+001
      vertex  6.200199e+000  9.500000e+001  1.287485e+001
    endloop
  endfacet
  facet normal  0.000000e+000  1.000000e+000  0.000000e+000
    outer loop
      vertex -6.805975e-016  9.500000e+001  1.111500e+001
      vertex  6.200199e+000  9.500000e+001  1.287485e+001
      vertex  8.909669e+000  9.500000e+001  1.117237e+001
    endloop
  endfacet
  facet normal  0.000000e+000  1.000000e+000  0.000000e+000
    outer loop
      vertex -6.805975e-016  9.500000e+001  1.111500e+001
      vertex  8.909669e+000  9.500000e+001  1.117237e+001
      vertex  2.876774e+000  9.500000e+001  1.073627e+001
    endloop
  endfacet
  facet normal  -0.000000e+000  1.000000e+000  -0.000000e+000
    outer loop
      vertex  2.625030e-015  9.500000e+001 -1.429000e+001
      vertex -3.179824e+000  9.500000e+001 -1.393172e+001
      vertex -6.200199e+000  9.500000e+001 -1.287485e+001
    endloop
  endfacet
  facet normal  -0.000000e+000  1.000000e+000  -0.000000e+000
    outer loop
      vertex  2.625030e-015  9.500000e+001 -1.429000e+001
      vertex -6.200199e+000  9.500000e+001 -1.287485e+001
      vertex -8.909669e+000  9.500000e+001 -1.117237e+001
    endloop
  endfacet
  facet normal  -0.000000e+000  9.999999e-001  0.000000e+000
    outer loop
      vertex  2.625030e-015  9.500000e+001 -1.429000e+001
      vertex -8.909669e+000  9.500000e+001 -1.117237e+001
      vertex  2.041792e-015  9.500000e+001 -1.111500e+001
    endloop
  endfacet
  facet normal  0.000000e+000  9.999999e-001  0.000000e+000
    outer loop
      vertex  2.876774e+000  9.500000e+001  1.073627e+001
      vertex  8.909669e+000  9.500000e+001  1.117237e+001
      vertex  5.557500e+000  9.500000e+001  9.625873e+000
    endloop
  endfacet
  facet normal  -0.000000e+000  1.000000e+000  0.000000e+000
    outer loop
      vertex  5.557500e+000  9.500000e+001  9.625873e+000
      vertex  8.909669e+000  9.500000e+001  1.117237e+001
      vertex  1.117237e+001  9.500000e+001  8.909669e+000
    endloop
  endfacet
  facet normal  0.000000e+000  1.000000e+000  0.000000e+000
    outer loop
      vertex  5.557500e+000  9.500000e+001  9.625873e+000
      vertex  1.117237e+001  9.500000e+001  8.909669e+000
      vertex  7.859492e+000  9.500000e+001  7.859492e+000
    endloop
  endfacet
  facet normal  -0.000000e+000  1.000000e+000  0.000000e+000
    outer loop
      vertex  7.859492e+000  9.500000e+001  7.859492e+000
      vertex  1.117237e+001  9.500000e+001  8.909669e+000
      vertex  1.287485e+001  9.500000e+001  6.200199e+000
    endloop
  endfacet
  facet normal  0.000000e+000  1.000000e+000  0.000000e+000
    outer loop
      vertex  7.859492e+000  9.500000e+001  7.859492e+000
      vertex  1.287485e+001  9.500000e+001  6.200199e+000
      vertex  9.625873e+000  9.500000e+001  5.557500e+000
    endloop
  endfacet
  facet normal  0.000000e+000  1.000000e+000  0.000000e+000
    outer loop
      vertex  9.625873e+000  9.500000e+001  5.557500e+000
      vertex  1.287485e+001  9.500000e+001  6.200199e+000
      vertex  1.073627e+001  9.500000e+001  2.876774e+000
    endloop
  endfacet
  facet normal  0.000000e+000  1.000000e+000  0.000000e+000
    outer loop
      vertex  1.073627e+001  9.500000e+001  2.876774e+000
      vertex  1.287485e+001  9.500000e+001  6.200199e+000
      vertex  1.393172e+001  9.500000e+001  3.179824e+000
    endloop
  endfacet
  facet normal  0.000000e+000  1.000000e+000  0.000000e+000
    outer loop
      vertex  1.073627e+001  9.500000e+001  2.876774e+000
      vertex  1.393172e+001  9.500000e+001  3.179824e+000
      vertex  1.111500e+001  9.500000e+001  1.361195e-015
    endloop
  endfacet
  facet normal  0.000000e+000  1.000000e+000  0.000000e+000
    outer loop
      vertex  1.111500e+001  9.500000e+001  1.361195e-015
      vertex  1.393172e+001  9.500000e+001  3.179824e+000
      vertex  1.429000e+001  9.500000e+001  1.750020e-015
    endloop
  endfacet
  facet normal  0.000000e+000  1.000000e+000  0.000000e+000
    outer loop
      vertex  1.111500e+001  9.500000e+001  1.361195e-015
      vertex  1.429000e+001  9.500000e+001  1.750020e-015
      vertex  1.073627e+001  9.500000e+001 -2.876774e+000
    endloop
  endfacet
  facet normal  -0.000000e+000  1.000000e+000  0.000000e+000
    outer loop
      vertex  1.073627e+001  9.500000e+001 -2.876774e+000
      vertex  1.429000e+001  9.500000e+001  1.750020e-015
      vertex  1.393172e+001  9.500000e+001 -3.179824e+000
    endloop
  endfacet
  facet normal  0.000000e+000  1.000000e+000  0.000000e+000
    outer loop
      vertex  1.073627e+001  9.500000e+001 -2.876774e+000
      vertex  1.393172e+001  9.500000e+001 -3.179824e+000
      vertex  9.625873e+000  9.500000e+001 -5.557500e+000
    endloop
  endfacet
  facet normal  -0.000000e+000  1.000000e+000  0.000000e+000
    outer loop
      vertex  9.625873e+000  9.500000e+001 -5.557500e+000
      vertex  1.393172e+001  9.500000e+001 -3.179824e+000
      vertex  1.287485e+001  9.500000e+001 -6.200199e+000
    endloop
  endfacet
  facet normal  0.000000e+000  1.000000e+000  0.000000e+000
    outer loop
      vertex  9.625873e+000  9.500000e+001 -5.557500e+000
      vertex  1.287485e+001  9.500000e+001 -6.200199e+000
      vertex  7.859492e+000  9.500000e+001 -7.859492e+000
    endloop
  endfacet
  facet normal  -0.000000e+000  1.000000e+000  0.000000e+000
    outer loop
      vertex  7.859492e+000  9.500000e+001 -7.859492e+000
      vertex  1.287485e+001  9.500000e+001 -6.200199e+000
      vertex  1.117237e+001  9.500000e+001 -8.909669e+000
    endloop
  endfacet
  facet normal  0.000000e+000  1.000000e+000  0.000000e+000
    outer loop
      vertex  7.859492e+000  9.500000e+001 -7.859492e+000
      vertex  1.117237e+001  9.500000e+001 -8.909669e+000
      vertex  5.557500e+000  9.500000e+001 -9.625873e+000
    endloop
  endfacet
  facet normal  0.000000e+000  1.000000e+000  0.000000e+000
    outer loop
      vertex -8.909669e+000  9.500000e+001  1.117237e+001
      vertex -2.876774e+000  9.500000e+001  1.073627e+001
      vertex -1.117237e+001  9.500000e+001  8.909669e+000
    endloop
  endfacet
  facet normal  0.000000e+000  1.000000e+000  0.000000e+000
    outer loop
      vertex -1.117237e+001  9.500000e+001  8.909669e+000
      vertex -2.876774e+000  9.500000e+001  1.073627e+001
      vertex -5.557500e+000  9.500000e+001  9.625873e+000
    endloop
  endfacet
  facet normal  0.000000e+000  1.000000e+000  0.000000e+000
    outer loop
      vertex -1.117237e+001  9.500000e+001  8.909669e+000
      vertex -5.557500e+000  9.500000e+001  9.625873e+000
      vertex -1.287485e+001  9.500000e+001  6.200199e+000
    endloop
  endfacet
  facet normal  0.000000e+000  1.000000e+000  0.000000e+000
    outer loop
      vertex -1.287485e+001  9.500000e+001  6.200199e+000
      vertex -5.557500e+000  9.500000e+001  9.625873e+000
      vertex -7.859492e+000  9.500000e+001  7.859492e+000
    endloop
  endfacet
  facet normal  0.000000e+000  1.000000e+000  0.000000e+000
    outer loop
      vertex -1.287485e+001  9.500000e+001  6.200199e+000
      vertex -7.859492e+000  9.500000e+001  7.859492e+000
      vertex -9.625873e+000  9.500000e+001  5.557500e+000
    endloop
  endfacet
  facet normal  0.000000e+000  1.000000e+000  0.000000e+000
    outer loop
      vertex -1.287485e+001  9.500000e+001  6.200199e+000
      vertex -9.625873e+000  9.500000e+001  5.557500e+000
      vertex -1.393172e+001  9.500000e+001  3.179824e+000
    endloop
  endfacet
  facet normal  -0.000000e+000  1.000000e+000  0.000000e+000
    outer loop
      vertex -1.393172e+001  9.500000e+001  3.179824e+000
      vertex -9.625873e+000  9.500000e+001  5.557500e+000
      vertex -1.073627e+001  9.500000e+001  2.876774e+000
    endloop
  endfacet
  facet normal  0.000000e+000  1.000000e+000  0.000000e+000
    outer loop
      vertex -1.393172e+001  9.500000e+001  3.179824e+000
      vertex -1.073627e+001  9.500000e+001  2.876774e+000
      vertex -1.429000e+001  9.500000e+001  0.000000e+000
    endloop
  endfacet
  facet normal  0.000000e+000  1.000000e+000  0.000000e+000
    outer loop
      vertex -1.429000e+001  9.500000e+001  0.000000e+000
      vertex -1.073627e+001  9.500000e+001  2.876774e+000
      vertex -1.111500e+001  9.500000e+001  0.000000e+000
    endloop
  endfacet
  facet normal  0.000000e+000  1.000000e+000  0.000000e+000
    outer loop
      vertex -1.429000e+001  9.500000e+001  0.000000e+000
      vertex -1.111500e+001  9.500000e+001  0.000000e+000
      vertex -1.393172e+001  9.500000e+001 -3.179824e+000
    endloop
  endfacet
  facet normal  0.000000e+000  1.000000e+000  0.000000e+000
    outer loop
      vertex -1.393172e+001  9.500000e+001 -3.179824e+000
      vertex -1.111500e+001  9.500000e+001  0.000000e+000
      vertex -1.073627e+001  9.500000e+001 -2.876774e+000
    endloop
  endfacet
  facet normal  0.000000e+000  1.000000e+000  0.000000e+000
    outer loop
      vertex -1.393172e+001  9.500000e+001 -3.179824e+000
      vertex -1.073627e+001  9.500000e+001 -2.876774e+000
      vertex -1.287485e+001  9.500000e+001 -6.200199e+000
    endloop
  endfacet
  facet normal  0.000000e+000  1.000000e+000  0.000000e+000
    outer loop
      vertex -1.287485e+001  9.500000e+001 -6.200199e+000
      vertex -1.073627e+001  9.500000e+001 -2.876774e+000
      vertex -9.625873e+000  9.500000e+001 -5.557500e+000
    endloop
  endfacet
  facet normal  0.000000e+000  1.000000e+000  0.000000e+000
    outer loop
      vertex -1.287485e+001  9.500000e+001 -6.200199e+000
      vertex -9.625873e+000  9.500000e+001 -5.557500e+000
      vertex -1.117237e+001  9.500000e+001 -8.909669e+000
    endloop
  endfacet
  facet normal  0.000000e+000  1.000000e+000  0.000000e+000
    outer loop
      vertex -1.117237e+001  9.500000e+001 -8.909669e+000
      vertex -9.625873e+000  9.500000e+001 -5.557500e+000
      vertex -7.859492e+000  9.500000e+001 -7.859492e+000
    endloop
  endfacet
  facet normal  0.000000e+000  1.000000e+000  0.000000e+000
    outer loop
      vertex -1.117237e+001  9.500000e+001 -8.909669e+000
      vertex -7.859492e+000  9.500000e+001 -7.859492e+000
      vertex -5.557500e+000  9.500000e+001 -9.625873e+000
    endloop
  endfacet
  facet normal  0.000000e+000  1.000000e+000  0.000000e+000
    outer loop
      vertex -1.117237e+001  9.500000e+001 -8.909669e+000
      vertex -5.557500e+000  9.500000e+001 -9.625873e+000
      vertex -8.909669e+000  9.500000e+001 -1.117237e+001
    endloop
  endfacet
  facet normal  0.000000e+000  9.999999e-001  0.000000e+000
    outer loop
      vertex -8.909669e+000  9.500000e+001 -1.117237e+001
      vertex -5.557500e+000  9.500000e+001 -9.625873e+000
      vertex -2.876774e+000  9.500000e+001 -1.073627e+001
    endloop
  endfacet
  facet normal  0.000000e+000  1.000000e+000  0.000000e+000
    outer loop
      vertex -8.909669e+000  9.500000e+001 -1.117237e+001
      vertex -2.876774e+000  9.500000e+001 -1.073627e+001
      vertex  2.041792e-015  9.500000e+001 -1.111500e+001
    endloop
  endfacet
  facet normal  0.000000e+000 -1.000000e+000  0.000000e+000
    outer loop
      vertex  3.179824e+000  0.000000e+000 -1.393172e+001
      vertex  6.200199e+000  0.000000e+000 -1.287485e+001
      vertex  2.625030e-015  0.000000e+000 -1.429000e+001
    endloop
  endfacet
  facet normal  0.000000e+000 -1.000000e+000  0.000000e+000
    outer loop
      vertex  8.909669e+000  0.000000e+000 -1.117237e+001
      vertex  1.117237e+001  0.000000e+000 -8.909669e+000
      vertex  5.557500e+000  0.000000e+000 -9.625873e+000
    endloop
  endfacet
  facet normal  0.000000e+000 -9.999999e-001  -0.000000e+000
    outer loop
      vertex  8.909669e+000  0.000000e+000 -1.117237e+001
      vertex  5.557500e+000  0.000000e+000 -9.625873e+000
      vertex  2.876774e+000  0.000000e+000 -1.073627e+001
    endloop
  endfacet
  facet normal  0.000000e+000 -1.000000e+000  -0.000000e+000
    outer loop
      vertex  8.909669e+000  0.000000e+000 -1.117237e+001
      vertex  2.876774e+000  0.000000e+000 -1.073627e+001
      vertex  2.041792e-015  0.000000e+000 -1.111500e+001
    endloop
  endfacet
  facet normal  0.000000e+000 -9.999999e-001  0.000000e+000
    outer loop
      vertex  8.909669e+000  0.000000e+000 -1.117237e+001
      vertex  2.041792e-015  0.000000e+000 -1.111500e+001
      vertex  2.625030e-015  0.000000e+000 -1.429000e+001
    endloop
  endfacet
  facet normal  0.000000e+000 -1.000000e+000  0.000000e+000
    outer loop
      vertex  8.909669e+000  0.000000e+000 -1.117237e+001
      vertex  2.625030e-015  0.000000e+000 -1.429000e+001
      vertex  6.200199e+000  0.000000e+000 -1.287485e+001
    endloop
  endfacet
  facet normal  0.000000e+000 -1.000000e+000  0.000000e+000
    outer loop
      vertex -6.805975e-016  0.000000e+000  1.111500e+001
      vertex  2.876774e+000  0.000000e+000  1.073627e+001
      vertex  8.909669e+000  0.000000e+000  1.117237e+001
    endloop
  endfacet
  facet normal  -0.000000e+000 -1.000000e+000  0.000000e+000
    outer loop
      vertex -6.805975e-016  0.000000e+000  1.111500e+001
      vertex  8.909669e+000  0.000000e+000  1.117237e+001
      vertex  6.200199e+000  0.000000e+000  1.287485e+001
    endloop
  endfacet
  facet normal  -0.000000e+000 -1.000000e+000  0.000000e+000
    outer loop
      vertex -6.805975e-016  0.000000e+000  1.111500e+001
      vertex  6.200199e+000  0.000000e+000  1.287485e+001
      vertex  3.179824e+000  0.000000e+000  1.393172e+001
    endloop
  endfacet
  facet normal  -0.000000e+000 -1.000000e+000  0.000000e+000
    outer loop
      vertex -6.805975e-016  0.000000e+000  1.111500e+001
      vertex  3.179824e+000  0.000000e+000  1.393172e+001
      vertex -8.750101e-016  0.000000e+000  1.429000e+001
    endloop
  endfacet
  facet normal  0.000000e+000 -1.000000e+000  -0.000000e+000
    outer loop
      vertex -6.805975e-016  0.000000e+000  1.111500e+001
      vertex -8.750101e-016  0.000000e+000  1.429000e+001
      vertex -3.179824e+000  0.000000e+000  1.393172e+001
    endloop
  endfacet
  facet normal  0.000000e+000 -1.000000e+000  -0.000000e+000
    outer loop
      vertex -6.805975e-016  0.000000e+000  1.111500e+001
      vertex -3.179824e+000  0.000000e+000  1.393172e+001
      vertex -6.200199e+000  0.000000e+000  1.287485e+001
    endloop
  endfacet
  facet normal  0.000000e+000 -1.000000e+000  -0.000000e+000
    outer loop
      vertex -6.805975e-016  0.000000e+000  1.111500e+001
      vertex -6.200199e+000  0.000000e+000  1.287485e+001
      vertex -8.909669e+000  0.000000e+000  1.117237e+001
    endloop
  endfacet
  facet normal  0.000000e+000 -1.000000e+000  0.000000e+000
    outer loop
      vertex -6.805975e-016  0.000000e+000  1.111500e+001
      vertex -8.909669e+000  0.000000e+000  1.117237e+001
      vertex -2.876774e+000  0.000000e+000  1.073627e+001
    endloop
  endfacet
  facet normal  0.000000e+000 -9.999999e-001  -0.000000e+000
    outer loop
      vertex  2.625030e-015  0.000000e+000 -1.429000e+001
      vertex  2.041792e-015  0.000000e+000 -1.111500e+001
      vertex -8.909669e+000  0.000000e+000 -1.117237e+001
    endloop
  endfacet
  facet normal  0.000000e+000 -1.000000e+000  0.000000e+000
    outer loop
      vertex  2.625030e-015  0.000000e+000 -1.429000e+001
      vertex -8.909669e+000  0.000000e+000 -1.117237e+001
      vertex -6.200199e+000  0.000000e+000 -1.287485e+001
    endloop
  endfacet
  facet normal  0.000000e+000 -1.000000e+000  0.000000e+000
    outer loop
      vertex  2.625030e-015  0.000000e+000 -1.429000e+001
      vertex -6.200199e+000  0.000000e+000 -1.287485e+001
      vertex -3.179824e+000  0.000000e+000 -1.393172e+001
    endloop
  endfacet
  facet normal  -0.000000e+000 -1.000000e+000  0.000000e+000
    outer loop
      vertex  9.625873e+000  0.000000e+000  5.557500e+000
      vertex  1.287485e+001  0.000000e+000  6.200199e+000
      vertex  7.859492e+000  0.000000e+000  7.859492e+000
    endloop
  endfacet
  facet normal  0.000000e+000 -1.000000e+000  0.000000e+000
    outer loop
      vertex  7.859492e+000  0.000000e+000  7.859492e+000
      vertex  1.287485e+001  0.000000e+000  6.200199e+000
      vertex  1.117237e+001  0.000000e+000  8.909669e+000
    endloop
  endfacet
  facet normal  -0.000000e+000 -1.000000e+000  0.000000e+000
    outer loop
      vertex  7.859492e+000  0.000000e+000  7.859492e+000
      vertex  1.117237e+001  0.000000e+000  8.909669e+000
      vertex  5.557500e+000  0.000000e+000  9.625873e+000
    endloop
  endfacet
  facet normal  0.000000e+000 -1.000000e+000  0.000000e+000
    outer loop
      vertex  5.557500e+000  0.000000e+000  9.625873e+000
      vertex  1.117237e+001  0.000000e+000  8.909669e+000
      vertex  8.909669e+000  0.000000e+000  1.117237e+001
    endloop
  endfacet
  facet normal  0.000000e+000 -9.999999e-001  0.000000e+000
    outer loop
      vertex  5.557500e+000  0.000000e+000  9.625873e+000
      vertex  8.909669e+000  0.000000e+000  1.117237e+001
      vertex  2.876774e+000  0.000000e+000  1.073627e+001
    endloop
  endfacet
  facet normal  -0.000000e+000 -1.000000e+000  0.000000e+000
    outer loop
      vertex  5.557500e+000  0.000000e+000 -9.625873e+000
      vertex  1.117237e+001  0.000000e+000 -8.909669e+000
      vertex  7.859492e+000  0.000000e+000 -7.859492e+000
    endloop
  endfacet
  facet normal  0.000000e+000 -1.000000e+000  0.000000e+000
    outer loop
      vertex  7.859492e+000  0.000000e+000 -7.859492e+000
      vertex  1.117237e+001  0.000000e+000 -8.909669e+000
      vertex  1.287485e+001  0.000000e+000 -6.200199e+000
    endloop
  endfacet
  facet normal  -0.000000e+000 -1.000000e+000  0.000000e+000
    outer loop
      vertex  7.859492e+000  0.000000e+000 -7.859492e+000
      vertex  1.287485e+001  0.000000e+000 -6.200199e+000
      vertex  9.625873e+000  0.000000e+000 -5.557500e+000
    endloop
  endfacet
  facet normal  0.000000e+000 -1.000000e+000  0.000000e+000
    outer loop
      vertex  9.625873e+000  0.000000e+000 -5.557500e+000
      vertex  1.287485e+001  0.000000e+000 -6.200199e+000
      vertex  1.393172e+001  0.000000e+000 -3.179824e+000
    endloop
  endfacet
  facet normal  -0.000000e+000 -1.000000e+000  0.000000e+000
    outer loop
      vertex  9.625873e+000  0.000000e+000 -5.557500e+000
      vertex  1.393172e+001  0.000000e+000 -3.179824e+000
      vertex  1.073627e+001  0.000000e+000 -2.876774e+000
    endloop
  endfacet
  facet normal  0.000000e+000 -1.000000e+000  0.000000e+000
    outer loop
      vertex  1.073627e+001  0.000000e+000 -2.876774e+000
      vertex  1.393172e+001  0.000000e+000 -3.179824e+000
      vertex  1.429000e+001  0.000000e+000  1.750020e-015
    endloop
  endfacet
  facet normal  0.000000e+000 -1.000000e+000  0.000000e+000
    outer loop
      vertex  1.073627e+001  0.000000e+000 -2.876774e+000
      vertex  1.429000e+001  0.000000e+000  1.750020e-015
      vertex  1.111500e+001  0.000000e+000  1.361195e-015
    endloop
  endfacet
  facet normal  0.000000e+000 -1.000000e+000  0.000000e+000
    outer loop
      vertex  1.111500e+001  0.000000e+000  1.361195e-015
      vertex  1.429000e+001  0.000000e+000  1.750020e-015
      vertex  1.393172e+001  0.000000e+000  3.179824e+000
    endloop
  endfacet
  facet normal  0.000000e+000 -1.000000e+000  0.000000e+000
    outer loop
      vertex  1.111500e+001  0.000000e+000  1.361195e-015
      vertex  1.393172e+001  0.000000e+000  3.179824e+000
      vertex  1.073627e+001  0.000000e+000  2.876774e+000
    endloop
  endfacet
  facet normal  0.000000e+000 -1.000000e+000  0.000000e+000
    outer loop
      vertex  1.073627e+001  0.000000e+000  2.876774e+000
      vertex  1.393172e+001  0.000000e+000  3.179824e+000
      vertex  1.287485e+001  0.000000e+000  6.200199e+000
    endloop
  endfacet
  facet normal  0.000000e+000 -1.000000e+000  0.000000e+000
    outer loop
      vertex  1.073627e+001  0.000000e+000  2.876774e+000
      vertex  1.287485e+001  0.000000e+000  6.200199e+000
      vertex  9.625873e+000  0.000000e+000  5.557500e+000
    endloop
  endfacet
  facet normal  0.000000e+000 -1.000000e+000  0.000000e+000
    outer loop
      vertex -9.625873e+000  0.000000e+000  5.557500e+000
      vertex -7.859492e+000  0.000000e+000  7.859492e+000
      vertex -1.287485e+001  0.000000e+000  6.200199e+000
    endloop
  endfacet
  facet normal  0.000000e+000 -1.000000e+000  0.000000e+000
    outer loop
      vertex -1.287485e+001  0.000000e+000  6.200199e+000
      vertex -7.859492e+000  0.000000e+000  7.859492e+000
      vertex -5.557500e+000  0.000000e+000  9.625873e+000
    endloop
  endfacet
  facet normal  0.000000e+000 -1.000000e+000  0.000000e+000
    outer loop
      vertex -1.287485e+001  0.000000e+000  6.200199e+000
      vertex -5.557500e+000  0.000000e+000  9.625873e+000
      vertex -1.117237e+001  0.000000e+000  8.909669e+000
    endloop
  endfacet
  facet normal  0.000000e+000 -1.000000e+000  0.000000e+000
    outer loop
      vertex -1.117237e+001  0.000000e+000  8.909669e+000
      vertex -5.557500e+000  0.000000e+000  9.625873e+000
      vertex -2.876774e+000  0.000000e+000  1.073627e+001
    endloop
  endfacet
  facet normal  -0.000000e+000 -1.000000e+000  0.000000e+000
    outer loop
      vertex -1.117237e+001  0.000000e+000  8.909669e+000
      vertex -2.876774e+000  0.000000e+000  1.073627e+001
      vertex -8.909669e+000  0.000000e+000  1.117237e+001
    endloop
  endfacet
  facet normal  0.000000e+000 -1.000000e+000  -0.000000e+000
    outer loop
      vertex -5.557500e+000  0.000000e+000 -9.625873e+000
      vertex -7.859492e+000  0.000000e+000 -7.859492e+000
      vertex -1.117237e+001  0.000000e+000 -8.909669e+000
    endloop
  endfacet
  facet normal  0.000000e+000 -1.000000e+000  0.000000e+000
    outer loop
      vertex -1.117237e+001  0.000000e+000 -8.909669e+000
      vertex -7.859492e+000  0.000000e+000 -7.859492e+000
      vertex -9.625873e+000  0.000000e+000 -5.557500e+000
    endloop
  endfacet
  facet normal  0.000000e+000 -1.000000e+000  0.000000e+000
    outer loop
      vertex -1.117237e+001  0.000000e+000 -8.909669e+000
      vertex -9.625873e+000  0.000000e+000 -5.557500e+000
      vertex -1.287485e+001  0.000000e+000 -6.200199e+000
    endloop
  endfacet
  facet normal  0.000000e+000 -1.000000e+000  0.000000e+000
    outer loop
      vertex -1.287485e+001  0.000000e+000 -6.200199e+000
      vertex -9.625873e+000  0.000000e+000 -5.557500e+000
      vertex -1.073627e+001  0.000000e+000 -2.876774e+000
    endloop
  endfacet
  facet normal  0.000000e+000 -1.000000e+000  0.000000e+000
    outer loop
      vertex -1.287485e+001  0.000000e+000 -6.200199e+000
      vertex -1.073627e+001  0.000000e+000 -2.876774e+000
      vertex -1.393172e+001  0.000000e+000 -3.179824e+000
    endloop
  endfacet
  facet normal  0.000000e+000 -1.000000e+000  0.000000e+000
    outer loop
      vertex -1.393172e+001  0.000000e+000 -3.179824e+000
      vertex -1.073627e+001  0.000000e+000 -2.876774e+000
      vertex -1.111500e+001  0.000000e+000  0.000000e+000
    endloop
  endfacet
  facet normal  -0.000000e+000 -1.000000e+000  0.000000e+000
    outer loop
      vertex -1.393172e+001  0.000000e+000 -3.179824e+000
      vertex -1.111500e+001  0.000000e+000  0.000000e+000
      vertex -1.429000e+001  0.000000e+000  0.000000e+000
    endloop
  endfacet
  facet normal  0.000000e+000 -1.000000e+000  0.000000e+000
    outer loop
      vertex -1.429000e+001  0.000000e+000  0.000000e+000
      vertex -1.111500e+001  0.000000e+000  0.000000e+000
      vertex -1.073627e+001  0.000000e+000  2.876774e+000
    endloop
  endfacet
  facet normal  -0.000000e+000 -1.000000e+000  0.000000e+000
    outer loop
      vertex -1.429000e+001  0.000000e+000  0.000000e+000
      vertex -1.073627e+001  0.000000e+000  2.876774e+000
      vertex -1.393172e+001  0.000000e+000  3.179824e+000
    endloop
  endfacet
  facet normal  0.000000e+000 -1.000000e+000  0.000000e+000
    outer loop
      vertex -1.393172e+001  0.000000e+000  3.179824e+000
      vertex -1.073627e+001  0.000000e+000  2.876774e+000
      vertex -9.625873e+000  0.000000e+000  5.557500e+000
    endloop
  endfacet
  facet normal  -0.000000e+000 -1.000000e+000  0.000000e+000
    outer loop
      vertex -1.393172e+001  0.000000e+000  3.179824e+000
      vertex -9.625873e+000  0.000000e+000  5.557500e+000
      vertex -1.287485e+001  0.000000e+000  6.200199e+000
    endloop
  endfacet
  facet normal  0.000000e+000 -1.000000e+000  -0.000000e+000
    outer loop
      vertex  2.041792e-015  0.000000e+000 -1.111500e+001
      vertex -2.876774e+000  0.000000e+000 -1.073627e+001
      vertex -8.909669e+000  0.000000e+000 -1.117237e+001
    endloop
  endfacet
  facet normal  0.000000e+000 -9.999999e-001  0.000000e+000
    outer loop
      vertex -8.909669e+000  0.000000e+000 -1.117237e+001
      vertex -2.876774e+000  0.000000e+000 -1.073627e+001
      vertex -5.557500e+000  0.000000e+000 -9.625873e+000
    endloop
  endfacet
  facet normal  -0.000000e+000 -1.000000e+000  0.000000e+000
    outer loop
      vertex -8.909669e+000  0.000000e+000 -1.117237e+001
      vertex -5.557500e+000  0.000000e+000 -9.625873e+000
      vertex -1.117237e+001  0.000000e+000 -8.909669e+000
    endloop
  endfacet
  facet normal -1.305262e-001  -0.000000e+000 -9.914449e-001
    outer loop
      vertex -6.805975e-016  0.000000e+000  1.111500e+001
      vertex  2.876774e+000  9.500000e+001  1.073627e+001
      vertex  2.876774e+000  0.000000e+000  1.073627e+001
    endloop
  endfacet
  facet normal -3.826833e-001  0.000000e+000 -9.238796e-001
    outer loop
      vertex  2.876774e+000  0.000000e+000  1.073627e+001
      vertex  2.876774e+000  9.500000e+001  1.073627e+001
      vertex  5.557500e+000  9.500000e+001  9.625873e+000
    endloop
  endfacet
  facet normal -3.826833e-001  -0.000000e+000 -9.238796e-001
    outer loop
      vertex  2.876774e+000  0.000000e+000  1.073627e+001
      vertex  5.557500e+000  9.500000e+001  9.625873e+000
      vertex  5.557500e+000  0.000000e+000  9.625873e+000
    endloop
  endfacet
  facet normal -6.087614e-001  0.000000e+000 -7.933533e-001
    outer loop
      vertex  5.557500e+000  0.000000e+000  9.625873e+000
      vertex  5.557500e+000  9.500000e+001  9.625873e+000
      vertex  7.859492e+000  9.500000e+001  7.859492e+000
    endloop
  endfacet
  facet normal -6.087614e-001  -0.000000e+000 -7.933533e-001
    outer loop
      vertex  5.557500e+000  0.000000e+000  9.625873e+000
      vertex  7.859492e+000  9.500000e+001  7.859492e+000
      vertex  7.859492e+000  0.000000e+000  7.859492e+000
    endloop
  endfacet
  facet normal -7.933533e-001  0.000000e+000 -6.087614e-001
    outer loop
      vertex  7.859492e+000  0.000000e+000  7.859492e+000
      vertex  7.859492e+000  9.500000e+001  7.859492e+000
      vertex  9.625873e+000  9.500000e+001  5.557500e+000
    endloop
  endfacet
  facet normal -7.933533e-001  -0.000000e+000 -6.087614e-001
    outer loop
      vertex  7.859492e+000  0.000000e+000  7.859492e+000
      vertex  9.625873e+000  9.500000e+001  5.557500e+000
      vertex  9.625873e+000  0.000000e+000  5.557500e+000
    endloop
  endfacet
  facet normal -9.238796e-001  0.000000e+000 -3.826833e-001
    outer loop
      vertex  9.625873e+000  0.000000e+000  5.557500e+000
      vertex  9.625873e+000  9.500000e+001  5.557500e+000
      vertex  1.073627e+001  9.500000e+001  2.876774e+000
    endloop
  endfacet
  facet normal -9.238796e-001  -0.000000e+000 -3.826833e-001
    outer loop
      vertex  9.625873e+000  0.000000e+000  5.557500e+000
      vertex  1.073627e+001  9.500000e+001  2.876774e+000
      vertex  1.073627e+001  0.000000e+000  2.876774e+000
    endloop
  endfacet
  facet normal -9.914449e-001  0.000000e+000 -1.305262e-001
    outer loop
      vertex  1.073627e+001  0.000000e+000  2.876774e+000
      vertex  1.073627e+001  9.500000e+001  2.876774e+000
      vertex  1.111500e+001  9.500000e+001  1.361195e-015
    endloop
  endfacet
  facet normal -9.914449e-001  -0.000000e+000 -1.305262e-001
    outer loop
      vertex  1.073627e+001  0.000000e+000  2.876774e+000
      vertex  1.111500e+001  9.500000e+001  1.361195e-015
      vertex  1.111500e+001  0.000000e+000  1.361195e-015
    endloop
  endfacet
  facet normal -1.305262e-001  0.000000e+000 -9.914449e-001
    outer loop
      vertex  2.876774e+000  9.500000e+001  1.073627e+001
      vertex -6.805975e-016  0.000000e+000  1.111500e+001
      vertex -6.805975e-016  9.500000e+001  1.111500e+001
    endloop
  endfacet
  facet normal  1.305262e-001  0.000000e+000 -9.914449e-001
    outer loop
      vertex -6.805975e-016  9.500000e+001  1.111500e+001
      vertex -6.805975e-016  0.000000e+000  1.111500e+001
      vertex -2.876774e+000  0.000000e+000  1.073627e+001
    endloop
  endfacet
  facet normal  1.305262e-001  0.000000e+000 -9.914449e-001
    outer loop
      vertex -6.805975e-016  9.500000e+001  1.111500e+001
      vertex -2.876774e+000  0.000000e+000  1.073627e+001
      vertex -2.876774e+000  9.500000e+001  1.073627e+001
    endloop
  endfacet
  facet normal  3.826833e-001  0.000000e+000 -9.238796e-001
    outer loop
      vertex -2.876774e+000  9.500000e+001  1.073627e+001
      vertex -2.876774e+000  0.000000e+000  1.073627e+001
      vertex -5.557500e+000  0.000000e+000  9.625873e+000
    endloop
  endfacet
  facet normal  3.826833e-001  0.000000e+000 -9.238796e-001
    outer loop
      vertex -2.876774e+000  9.500000e+001  1.073627e+001
      vertex -5.557500e+000  0.000000e+000  9.625873e+000
      vertex -5.557500e+000  9.500000e+001  9.625873e+000
    endloop
  endfacet
  facet normal  6.087614e-001  0.000000e+000 -7.933533e-001
    outer loop
      vertex -5.557500e+000  9.500000e+001  9.625873e+000
      vertex -5.557500e+000  0.000000e+000  9.625873e+000
      vertex -7.859492e+000  0.000000e+000  7.859492e+000
    endloop
  endfacet
  facet normal  6.087614e-001  0.000000e+000 -7.933533e-001
    outer loop
      vertex -5.557500e+000  9.500000e+001  9.625873e+000
      vertex -7.859492e+000  0.000000e+000  7.859492e+000
      vertex -7.859492e+000  9.500000e+001  7.859492e+000
    endloop
  endfacet
  facet normal  7.933533e-001  0.000000e+000 -6.087614e-001
    outer loop
      vertex -7.859492e+000  9.500000e+001  7.859492e+000
      vertex -7.859492e+000  0.000000e+000  7.859492e+000
      vertex -9.625873e+000  0.000000e+000  5.557500e+000
    endloop
  endfacet
  facet normal  7.933533e-001  0.000000e+000 -6.087614e-001
    outer loop
      vertex -7.859492e+000  9.500000e+001  7.859492e+000
      vertex -9.625873e+000  0.000000e+000  5.557500e+000
      vertex -9.625873e+000  9.500000e+001  5.557500e+000
    endloop
  endfacet
  facet normal  9.238796e-001  0.000000e+000 -3.826833e-001
    outer loop
      vertex -9.625873e+000  9.500000e+001  5.557500e+000
      vertex -9.625873e+000  0.000000e+000  5.557500e+000
      vertex -1.073627e+001  0.000000e+000  2.876774e+000
    endloop
  endfacet
  facet normal  9.238796e-001  0.000000e+000 -3.826833e-001
    outer loop
      vertex -9.625873e+000  9.500000e+001  5.557500e+000
      vertex -1.073627e+001  0.000000e+000  2.876774e+000
      vertex -1.073627e+001  9.500000e+001  2.876774e+000
    endloop
  endfacet
  facet normal  9.914449e-001  0.000000e+000 -1.305262e-001
    outer loop
      vertex -1.073627e+001  9.500000e+001  2.876774e+000
      vertex -1.073627e+001  0.000000e+000  2.876774e+000
      vertex -1.111500e+001  0.000000e+000  0.000000e+000
    endloop
  endfacet
  facet normal  9.914449e-001  0.000000e+000 -1.305262e-001
    outer loop
      vertex -1.073627e+001  9.500000e+001  2.876774e+000
      vertex -1.111500e+001  0.000000e+000  0.000000e+000
      vertex -1.111500e+001  9.500000e+001  0.000000e+000
    endloop
  endfacet
  facet normal  1.305262e-001  0.000000e+000  9.914449e-001
    outer loop
      vertex  2.041792e-015  0.000000e+000 -1.111500e+001
      vertex -2.876774e+000  9.500000e+001 -1.073627e+001
      vertex -2.876774e+000  0.000000e+000 -1.073627e+001
    endloop
  endfacet
  facet normal  3.826833e-001  -0.000000e+000  9.238796e-001
    outer loop
      vertex -2.876774e+000  0.000000e+000 -1.073627e+001
      vertex -2.876774e+000  9.500000e+001 -1.073627e+001
      vertex -5.557500e+000  9.500000e+001 -9.625873e+000
    endloop
  endfacet
  facet normal  3.826833e-001  0.000000e+000  9.238796e-001
    outer loop
      vertex -2.876774e+000  0.000000e+000 -1.073627e+001
      vertex -5.557500e+000  9.500000e+001 -9.625873e+000
      vertex -5.557500e+000  0.000000e+000 -9.625873e+000
    endloop
  endfacet
  facet normal  6.087614e-001  -0.000000e+000  7.933533e-001
    outer loop
      vertex -5.557500e+000  0.000000e+000 -9.625873e+000
      vertex -5.557500e+000  9.500000e+001 -9.625873e+000
      vertex -7.859492e+000  9.500000e+001 -7.859492e+000
    endloop
  endfacet
  facet normal  6.087614e-001  0.000000e+000  7.933533e-001
    outer loop
      vertex -5.557500e+000  0.000000e+000 -9.625873e+000
      vertex -7.859492e+000  9.500000e+001 -7.859492e+000
      vertex -7.859492e+000  0.000000e+000 -7.859492e+000
    endloop
  endfacet
  facet normal  7.933533e-001  -0.000000e+000  6.087614e-001
    outer loop
      vertex -7.859492e+000  0.000000e+000 -7.859492e+000
      vertex -7.859492e+000  9.500000e+001 -7.859492e+000
      vertex -9.625873e+000  9.500000e+001 -5.557500e+000
    endloop
  endfacet
  facet normal  7.933533e-001  0.000000e+000  6.087614e-001
    outer loop
      vertex -7.859492e+000  0.000000e+000 -7.859492e+000
      vertex -9.625873e+000  9.500000e+001 -5.557500e+000
      vertex -9.625873e+000  0.000000e+000 -5.557500e+000
    endloop
  endfacet
  facet normal  9.238796e-001  -0.000000e+000  3.826833e-001
    outer loop
      vertex -9.625873e+000  0.000000e+000 -5.557500e+000
      vertex -9.625873e+000  9.500000e+001 -5.557500e+000
      vertex -1.073627e+001  9.500000e+001 -2.876774e+000
    endloop
  endfacet
  facet normal  9.238796e-001  0.000000e+000  3.826833e-001
    outer loop
      vertex -9.625873e+000  0.000000e+000 -5.557500e+000
      vertex -1.073627e+001  9.500000e+001 -2.876774e+000
      vertex -1.073627e+001  0.000000e+000 -2.876774e+000
    endloop
  endfacet
  facet normal  9.914449e-001  -0.000000e+000  1.305262e-001
    outer loop
      vertex -1.073627e+001  0.000000e+000 -2.876774e+000
      vertex -1.073627e+001  9.500000e+001 -2.876774e+000
      vertex -1.111500e+001  9.500000e+001  0.000000e+000
    endloop
  endfacet
  facet normal  9.914449e-001  0.000000e+000  1.305262e-001
    outer loop
      vertex -1.073627e+001  0.000000e+000 -2.876774e+000
      vertex -1.111500e+001  9.500000e+001  0.000000e+000
      vertex -1.111500e+001  0.000000e+000  0.000000e+000
    endloop
  endfacet
  facet normal  1.305262e-001  -0.000000e+000  9.914449e-001
    outer loop
      vertex -2.876774e+000  9.500000e+001 -1.073627e+001
      vertex  2.041792e-015  0.000000e+000 -1.111500e+001
      vertex  2.041792e-015  9.500000e+001 -1.111500e+001
    endloop
  endfacet
  facet normal -1.305262e-001  0.000000e+000  9.914449e-001
    outer loop
      vertex  2.041792e-015  9.500000e+001 -1.111500e+001
      vertex  2.041792e-015  0.000000e+000 -1.111500e+001
      vertex  2.876774e+000  0.000000e+000 -1.073627e+001
    endloop
  endfacet
  facet normal -1.305262e-001  0.000000e+000  9.914449e-001
    outer loop
      vertex  2.041792e-015  9.500000e+001 -1.111500e+001
      vertex  2.876774e+000  0.000000e+000 -1.073627e+001
      vertex  2.876774e+000  9.500000e+001 -1.073627e+001
    endloop
  endfacet
  facet normal -3.826833e-001  0.000000e+000  9.238796e-001
    outer loop
      vertex  2.876774e+000  9.500000e+001 -1.073627e+001
      vertex  2.876774e+000  0.000000e+000 -1.073627e+001
      vertex  5.557500e+000  0.000000e+000 -9.625873e+000
    endloop
  endfacet
  facet normal -3.826833e-001  0.000000e+000  9.238796e-001
    outer loop
      vertex  2.876774e+000  9.500000e+001 -1.073627e+001
      vertex  5.557500e+000  0.000000e+000 -9.625873e+000
      vertex  5.557500e+000  9.500000e+001 -9.625873e+000
    endloop
  endfacet
  facet normal -6.087614e-001  0.000000e+000  7.933533e-001
    outer loop
      vertex  5.557500e+000  9.500000e+001 -9.625873e+000
      vertex  5.557500e+000  0.000000e+000 -9.625873e+000
      vertex  7.859492e+000  0.000000e+000 -7.859492e+000
    endloop
  endfacet
  facet normal -6.087614e-001  0.000000e+000  7.933533e-001
    outer loop
      vertex  5.557500e+000  9.500000e+001 -9.625873e+000
      vertex  7.859492e+000  0.000000e+000 -7.859492e+000
      vertex  7.859492e+000  9.500000e+001 -7.859492e+000
    endloop
  endfacet
  facet normal -7.933533e-001  0.000000e+000  6.087614e-001
    outer loop
      vertex  7.859492e+000  9.500000e+001 -7.859492e+000
      vertex  7.859492e+000  0.000000e+000 -7.859492e+000
      vertex  9.625873e+000  0.000000e+000 -5.557500e+000
    endloop
  endfacet
  facet normal -7.933533e-001  0.000000e+000  6.087614e-001
    outer loop
      vertex  7.859492e+000  9.500000e+001 -7.859492e+000
      vertex  9.625873e+000  0.000000e+000 -5.557500e+000
      vertex  9.625873e+000  9.500000e+001 -5.557500e+000
    endloop
  endfacet
  facet normal -9.238796e-001  0.000000e+000  3.826833e-001
    outer loop
      vertex  9.625873e+000  9.500000e+001 -5.557500e+000
      vertex  9.625873e+000  0.000000e+000 -5.557500e+000
      vertex  1.073627e+001  0.000000e+000 -2.876774e+000
    endloop
  endfacet
  facet normal -9.238796e-001  0.000000e+000  3.826833e-001
    outer loop
      vertex  9.625873e+000  9.500000e+001 -5.557500e+000
      vertex  1.073627e+001  0.000000e+000 -2.876774e+000
      vertex  1.073627e+001  9.500000e+001 -2.876774e+000
    endloop
  endfacet
  facet normal -9.914449e-001  0.000000e+000  1.305262e-001
    outer loop
      vertex  1.073627e+001  9.500000e+001 -2.876774e+000
      vertex  1.073627e+001  0.000000e+000 -2.876774e+000
      vertex  1.111500e+001  0.000000e+000  1.361195e-015
    endloop
  endfacet
  facet normal -9.914449e-001  0.000000e+000  1.305262e-001
    outer loop
      vertex  1.073627e+001  9.500000e+001 -2.876774e+000
      vertex  1.111500e+001  0.000000e+000  1.361195e-015
      vertex  1.111500e+001  9.500000e+001  1.361195e-015
    endloop
  endfacet
  facet normal -9.937122e-001  -0.000000e+000 -1.119645e-001
    outer loop
      vertex -1.429000e+001  0.000000e+000  0.000000e+000
      vertex -1.429000e+001  9.500000e+001  0.000000e+000
      vertex -1.393172e+001  0.000000e+000 -3.179824e+000
    endloop
  endfacet
  facet normal -9.937122e-001  0.000000e+000 -1.119645e-001
    outer loop
      vertex -1.393172e+001  0.000000e+000 -3.179824e+000
      vertex -1.429000e+001  9.500000e+001  0.000000e+000
      vertex -1.393172e+001  9.500000e+001 -3.179824e+000
    endloop
  endfacet
  facet normal -9.438834e-001  -0.000000e+000 -3.302789e-001
    outer loop
      vertex -1.393172e+001  0.000000e+000 -3.179824e+000
      vertex -1.393172e+001  9.500000e+001 -3.179824e+000
      vertex -1.287485e+001  0.000000e+000 -6.200199e+000
    endloop
  endfacet
  facet normal -9.438834e-001  0.000000e+000 -3.302789e-001
    outer loop
      vertex -1.287485e+001  0.000000e+000 -6.200199e+000
      vertex -1.393172e+001  9.500000e+001 -3.179824e+000
      vertex -1.287485e+001  9.500000e+001 -6.200199e+000
    endloop
  endfacet
  facet normal -8.467242e-001  -0.000000e+000 -5.320322e-001
    outer loop
      vertex -1.287485e+001  0.000000e+000 -6.200199e+000
      vertex -1.287485e+001  9.500000e+001 -6.200199e+000
      vertex -1.117237e+001  0.000000e+000 -8.909669e+000
    endloop
  endfacet
  facet normal -8.467242e-001  0.000000e+000 -5.320322e-001
    outer loop
      vertex -1.117237e+001  0.000000e+000 -8.909669e+000
      vertex -1.287485e+001  9.500000e+001 -6.200199e+000
      vertex -1.117237e+001  9.500000e+001 -8.909669e+000
    endloop
  endfacet
  facet normal -7.071068e-001  -0.000000e+000 -7.071068e-001
    outer loop
      vertex -1.117237e+001  0.000000e+000 -8.909669e+000
      vertex -1.117237e+001  9.500000e+001 -8.909669e+000
      vertex -8.909669e+000  0.000000e+000 -1.117237e+001
    endloop
  endfacet
  facet normal -7.071068e-001  0.000000e+000 -7.071068e-001
    outer loop
      vertex -8.909669e+000  0.000000e+000 -1.117237e+001
      vertex -1.117237e+001  9.500000e+001 -8.909669e+000
      vertex -8.909669e+000  9.500000e+001 -1.117237e+001
    endloop
  endfacet
  facet normal -5.320322e-001  -0.000000e+000 -8.467242e-001
    outer loop
      vertex -8.909669e+000  0.000000e+000 -1.117237e+001
      vertex -8.909669e+000  9.500000e+001 -1.117237e+001
      vertex -6.200199e+000  0.000000e+000 -1.287485e+001
    endloop
  endfacet
  facet normal -5.320322e-001  0.000000e+000 -8.467242e-001
    outer loop
      vertex -6.200199e+000  0.000000e+000 -1.287485e+001
      vertex -8.909669e+000  9.500000e+001 -1.117237e+001
      vertex -6.200199e+000  9.500000e+001 -1.287485e+001
    endloop
  endfacet
  facet normal -3.302789e-001  -0.000000e+000 -9.438834e-001
    outer loop
      vertex -6.200199e+000  0.000000e+000 -1.287485e+001
      vertex -6.200199e+000  9.500000e+001 -1.287485e+001
      vertex -3.179824e+000  0.000000e+000 -1.393172e+001
    endloop
  endfacet
  facet normal -3.302789e-001  0.000000e+000 -9.438834e-001
    outer loop
      vertex -3.179824e+000  0.000000e+000 -1.393172e+001
      vertex -6.200199e+000  9.500000e+001 -1.287485e+001
      vertex -3.179824e+000  9.500000e+001 -1.393172e+001
    endloop
  endfacet
  facet normal -1.119645e-001  -0.000000e+000 -9.937122e-001
    outer loop
      vertex -3.179824e+000  0.000000e+000 -1.393172e+001
      vertex -3.179824e+000  9.500000e+001 -1.393172e+001
      vertex  2.625030e-015  0.000000e+000 -1.429000e+001
    endloop
  endfacet
  facet normal -1.119645e-001  0.000000e+000 -9.937122e-001
    outer loop
      vertex  2.625030e-015  0.000000e+000 -1.429000e+001
      vertex -3.179824e+000  9.500000e+001 -1.393172e+001
      vertex  2.625030e-015  9.500000e+001 -1.429000e+001
    endloop
  endfacet
  facet normal  1.119645e-001  0.000000e+000 -9.937122e-001
    outer loop
      vertex  2.625030e-015  0.000000e+000 -1.429000e+001
      vertex  2.625030e-015  9.500000e+001 -1.429000e+001
      vertex  3.179824e+000  0.000000e+000 -1.393172e+001
    endloop
  endfacet
  facet normal  1.119645e-001  0.000000e+000 -9.937122e-001
    outer loop
      vertex  3.179824e+000  0.000000e+000 -1.393172e+001
      vertex  2.625030e-015  9.500000e+001 -1.429000e+001
      vertex  3.179824e+000  9.500000e+001 -1.393172e+001
    endloop
  endfacet
  facet normal  3.302789e-001  0.000000e+000 -9.438834e-001
    outer loop
      vertex  3.179824e+000  0.000000e+000 -1.393172e+001
      vertex  3.179824e+000  9.500000e+001 -1.393172e+001
      vertex  6.200199e+000  0.000000e+000 -1.287485e+001
    endloop
  endfacet
  facet normal  3.302789e-001  0.000000e+000 -9.438834e-001
    outer loop
      vertex  6.200199e+000  0.000000e+000 -1.287485e+001
      vertex  3.179824e+000  9.500000e+001 -1.393172e+001
      vertex  6.200199e+000  9.500000e+001 -1.287485e+001
    endloop
  endfacet
  facet normal  5.320322e-001  0.000000e+000 -8.467242e-001
    outer loop
      vertex  6.200199e+000  0.000000e+000 -1.287485e+001
      vertex  6.200199e+000  9.500000e+001 -1.287485e+001
      vertex  8.909669e+000  0.000000e+000 -1.117237e+001
    endloop
  endfacet
  facet normal  5.320322e-001  0.000000e+000 -8.467242e-001
    outer loop
      vertex  8.909669e+000  0.000000e+000 -1.117237e+001
      vertex  6.200199e+000  9.500000e+001 -1.287485e+001
      vertex  8.909669e+000  9.500000e+001 -1.117237e+001
    endloop
  endfacet
  facet normal  7.071068e-001  0.000000e+000 -7.071068e-001
    outer loop
      vertex  8.909669e+000  0.000000e+000 -1.117237e+001
      vertex  8.909669e+000  9.500000e+001 -1.117237e+001
      vertex  1.117237e+001  0.000000e+000 -8.909669e+000
    endloop
  endfacet
  facet normal  7.071068e-001  0.000000e+000 -7.071068e-001
    outer loop
      vertex  1.117237e+001  0.000000e+000 -8.909669e+000
      vertex  8.909669e+000  9.500000e+001 -1.117237e+001
      vertex  1.117237e+001  9.500000e+001 -8.909669e+000
    endloop
  endfacet
  facet normal  8.467242e-001  0.000000e+000 -5.320322e-001
    outer loop
      vertex  1.117237e+001  0.000000e+000 -8.909669e+000
      vertex  1.117237e+001  9.500000e+001 -8.909669e+000
      vertex  1.287485e+001  0.000000e+000 -6.200199e+000
    endloop
  endfacet
  facet normal  8.467242e-001  0.000000e+000 -5.320322e-001
    outer loop
      vertex  1.287485e+001  0.000000e+000 -6.200199e+000
      vertex  1.117237e+001  9.500000e+001 -8.909669e+000
      vertex  1.287485e+001  9.500000e+001 -6.200199e+000
    endloop
  endfacet
  facet normal  9.438834e-001  0.000000e+000 -3.302789e-001
    outer loop
      vertex  1.287485e+001  0.000000e+000 -6.200199e+000
      vertex  1.287485e+001  9.500000e+001 -6.200199e+000
      vertex  1.393172e+001  0.000000e+000 -3.179824e+000
    endloop
  endfacet
  facet normal  9.438834e-001  0.000000e+000 -3.302789e-001
    outer loop
      vertex  1.393172e+001  0.000000e+000 -3.179824e+000
      vertex  1.287485e+001  9.500000e+001 -6.200199e+000
      vertex  1.393172e+001  9.500000e+001 -3.179824e+000
    endloop
  endfacet
  facet normal  9.937122e-001  0.000000e+000 -1.119645e-001
    outer loop
      vertex  1.393172e+001  0.000000e+000 -3.179824e+000
      vertex  1.393172e+001  9.500000e+001 -3.179824e+000
      vertex  1.429000e+001  0.000000e+000  1.750020e-015
    endloop
  endfacet
  facet normal  9.937122e-001  0.000000e+000 -1.119645e-001
    outer loop
      vertex  1.429000e+001  0.000000e+000  1.750020e-015
      vertex  1.393172e+001  9.500000e+001 -3.179824e+000
      vertex  1.429000e+001  9.500000e+001  1.750020e-015
    endloop
  endfacet
  facet normal  9.937122e-001  0.000000e+000  1.119645e-001
    outer loop
      vertex  1.429000e+001  0.000000e+000  1.750020e-015
      vertex  1.429000e+001  9.500000e+001  1.750020e-015
      vertex  1.393172e+001  0.000000e+000  3.179824e+000
    endloop
  endfacet
  facet normal  9.937122e-001  -0.000000e+000  1.119645e-001
    outer loop
      vertex  1.393172e+001  0.000000e+000  3.179824e+000
      vertex  1.429000e+001  9.500000e+001  1.750020e-015
      vertex  1.393172e+001  9.500000e+001  3.179824e+000
    endloop
  endfacet
  facet normal  9.438834e-001  0.000000e+000  3.302789e-001
    outer loop
      vertex  1.393172e+001  0.000000e+000  3.179824e+000
      vertex  1.393172e+001  9.500000e+001  3.179824e+000
      vertex  1.287485e+001  0.000000e+000  6.200199e+000
    endloop
  endfacet
  facet normal  9.438834e-001  -0.000000e+000  3.302789e-001
    outer loop
      vertex  1.287485e+001  0.000000e+000  6.200199e+000
      vertex  1.393172e+001  9.500000e+001  3.179824e+000
      vertex  1.287485e+001  9.500000e+001  6.200199e+000
    endloop
  endfacet
  facet normal  8.467242e-001  0.000000e+000  5.320322e-001
    outer loop
      vertex  1.287485e+001  0.000000e+000  6.200199e+000
      vertex  1.287485e+001  9.500000e+001  6.200199e+000
      vertex  1.117237e+001  0.000000e+000  8.909669e+000
    endloop
  endfacet
  facet normal  8.467242e-001  -0.000000e+000  5.320322e-001
    outer loop
      vertex  1.117237e+001  0.000000e+000  8.909669e+000
      vertex  1.287485e+001  9.500000e+001  6.200199e+000
      vertex  1.117237e+001  9.500000e+001  8.909669e+000
    endloop
  endfacet
  facet normal  7.071068e-001  0.000000e+000  7.071068e-001
    outer loop
      vertex  1.117237e+001  0.000000e+000  8.909669e+000
      vertex  1.117237e+001  9.500000e+001  8.909669e+000
      vertex  8.909669e+000  0.000000e+000  1.117237e+001
    endloop
  endfacet
  facet normal  7.071068e-001  -0.000000e+000  7.071068e-001
    outer loop
      vertex  8.909669e+000  0.000000e+000  1.117237e+001
      vertex  1.117237e+001  9.500000e+001  8.909669e+000
      vertex  8.909669e+000  9.500000e+001  1.117237e+001
    endloop
  endfacet
  facet normal  5.320322e-001  0.000000e+000  8.467242e-001
    outer loop
      vertex  8.909669e+000  0.000000e+000  1.117237e+001
      vertex  8.909669e+000  9.500000e+001  1.117237e+001
      vertex  6.200199e+000  0.000000e+000  1.287485e+001
    endloop
  endfacet
  facet normal  5.320322e-001  -0.000000e+000  8.467242e-001
    outer loop
      vertex  6.200199e+000  0.000000e+000  1.287485e+001
      vertex  8.909669e+000  9.500000e+001  1.117237e+001
      vertex  6.200199e+000  9.500000e+001  1.287485e+001
    endloop
  endfacet
  facet normal  3.302789e-001  0.000000e+000  9.438834e-001
    outer loop
      vertex  6.200199e+000  0.000000e+000  1.287485e+001
      vertex  6.200199e+000  9.500000e+001  1.287485e+001
      vertex  3.179824e+000  0.000000e+000  1.393172e+001
    endloop
  endfacet
  facet normal  3.302789e-001  -0.000000e+000  9.438834e-001
    outer loop
      vertex  3.179824e+000  0.000000e+000  1.393172e+001
      vertex  6.200199e+000  9.500000e+001  1.287485e+001
      vertex  3.179824e+000  9.500000e+001  1.393172e+001
    endloop
  endfacet
  facet normal  1.119645e-001  0.000000e+000  9.937122e-001
    outer loop
      vertex  3.179824e+000  0.000000e+000  1.393172e+001
      vertex  3.179824e+000  9.500000e+001  1.393172e+001
      vertex -8.750101e-016  0.000000e+000  1.429000e+001
    endloop
  endfacet
  facet normal  1.119645e-001  -0.000000e+000  9.937122e-001
    outer loop
      vertex -8.750101e-016  0.000000e+000  1.429000e+001
      vertex  3.179824e+000  9.500000e+001  1.393172e+001
      vertex -8.750101e-016  9.500000e+001  1.429000e+001
    endloop
  endfacet
  facet normal -1.119645e-001  0.000000e+000  9.937122e-001
    outer loop
      vertex -8.750101e-016  0.000000e+000  1.429000e+001
      vertex -8.750101e-016  9.500000e+001  1.429000e+001
      vertex -3.179824e+000  0.000000e+000  1.393172e+001
    endloop
  endfacet
  facet normal -1.119645e-001  0.000000e+000  9.937122e-001
    outer loop
      vertex -3.179824e+000  0.000000e+000  1.393172e+001
      vertex -8.750101e-016  9.500000e+001  1.429000e+001
      vertex -3.179824e+000  9.500000e+001  1.393172e+001
    endloop
  endfacet
  facet normal -3.302789e-001  0.000000e+000  9.438834e-001
    outer loop
      vertex -3.179824e+000  0.000000e+000  1.393172e+001
      vertex -3.179824e+000  9.500000e+001  1.393172e+001
      vertex -6.200199e+000  0.000000e+000  1.287485e+001
    endloop
  endfacet
  facet normal -3.302789e-001  0.000000e+000  9.438834e-001
    outer loop
      vertex -6.200199e+000  0.000000e+000  1.287485e+001
      vertex -3.179824e+000  9.500000e+001  1.393172e+001
      vertex -6.200199e+000  9.500000e+001  1.287485e+001
    endloop
  endfacet
  facet normal -5.320322e-001  0.000000e+000  8.467242e-001
    outer loop
      vertex -6.200199e+000  0.000000e+000  1.287485e+001
      vertex -6.200199e+000  9.500000e+001  1.287485e+001
      vertex -8.909669e+000  0.000000e+000  1.117237e+001
    endloop
  endfacet
  facet normal -5.320322e-001  0.000000e+000  8.467242e-001
    outer loop
      vertex -8.909669e+000  0.000000e+000  1.117237e+001
      vertex -6.200199e+000  9.500000e+001  1.287485e+001
      vertex -8.909669e+000  9.500000e+001  1.117237e+001
    endloop
  endfacet
  facet normal -7.071068e-001  0.000000e+000  7.071068e-001
    outer loop
      vertex -8.909669e+000  0.000000e+000  1.117237e+001
      vertex -8.909669e+000  9.500000e+001  1.117237e+001
      vertex -1.117237e+001  0.000000e+000  8.909669e+000
    endloop
  endfacet
  facet normal -7.071068e-001  0.000000e+000  7.071068e-001
    outer loop
      vertex -1.117237e+001  0.000000e+000  8.909669e+000
      vertex -8.909669e+000  9.500000e+001  1.117237e+001
      vertex -1.117237e+001  9.500000e+001  8.909669e+000
    endloop
  endfacet
  facet normal -8.467242e-001  0.000000e+000  5.320322e-001
    outer loop
      vertex -1.117237e+001  0.000000e+000  8.909669e+000
      vertex -1.117237e+001  9.500000e+001  8.909669e+000
      vertex -1.287485e+001  0.000000e+000  6.200199e+000
    endloop
  endfacet
  facet normal -8.467242e-001  0.000000e+000  5.320322e-001
    outer loop
      vertex -1.287485e+001  0.000000e+000  6.200199e+000
      vertex -1.117237e+001  9.500000e+001  8.909669e+000
      vertex -1.287485e+001  9.500000e+001  6.200199e+000
    endloop
  endfacet
  facet normal -9.438834e-001  0.000000e+000  3.302789e-001
    outer loop
      vertex -1.287485e+001  0.000000e+000  6.200199e+000
      vertex -1.287485e+001  9.500000e+001  6.200199e+000
      vertex -1.393172e+001  0.000000e+000  3.179824e+000
    endloop
  endfacet
  facet normal -9.438834e-001  0.000000e+000  3.302789e-001
    outer loop
      vertex -1.393172e+001  0.000000e+000  3.179824e+000
      vertex -1.287485e+001  9.500000e+001  6.200199e+000
      vertex -1.393172e+001  9.500000e+001  3.179824e+000
    endloop
  endfacet
  facet normal -9.937122e-001  0.000000e+000  1.119645e-001
    outer loop
      vertex -1.393172e+001  0.000000e+000  3.179824e+000
      vertex -1.393172e+001  9.500000e+001  3.179824e+000
      vertex -1.429000e+001  0.000000e+000  0.000000e+000
    endloop
  endfacet
  facet normal -9.937122e-001  0.000000e+000  1.119645e-001
    outer loop
      vertex -1.429000e+001  0.000000e+000  0.000000e+000
      vertex -1.393172e+001  9.500000e+001  3.179824e+000
      vertex -1.429000e+001  9.500000e+001  0.000000e+000
    endloop
  endfacet
endsolid CATIA STL
