solid CATIA STL
  facet normal  -0.000000e+000 -2.588191e-001 -9.659259e-001
    outer loop
      vertex -6.550000e+001 -2.000000e+001  0.000000e+000
      vertex  6.550000e+001 -2.000000e+001  0.000000e+000
      vertex -6.550000e+001 -2.100000e+001  2.679492e-001
    endloop
  endfacet
  facet normal  0.000000e+000 -2.588191e-001 -9.659259e-001
    outer loop
      vertex -6.550000e+001 -2.100000e+001  2.679492e-001
      vertex  6.550000e+001 -2.000000e+001  0.000000e+000
      vertex  6.550000e+001 -2.100000e+001  2.679492e-001
    endloop
  endfacet
  facet normal  -0.000000e+000 -7.071072e-001 -7.071064e-001
    outer loop
      vertex -6.550000e+001 -2.100000e+001  2.679492e-001
      vertex  6.550000e+001 -2.100000e+001  2.679492e-001
      vertex -6.550000e+001 -2.173205e+001  1.000000e+000
    endloop
  endfacet
  facet normal  0.000000e+000 -7.071072e-001 -7.071064e-001
    outer loop
      vertex -6.550000e+001 -2.173205e+001  1.000000e+000
      vertex  6.550000e+001 -2.100000e+001  2.679492e-001
      vertex  6.550000e+001 -2.173205e+001  1.000000e+000
    endloop
  endfacet
  facet normal  -0.000000e+000 -9.659256e-001 -2.588198e-001
    outer loop
      vertex -6.550000e+001 -2.173205e+001  1.000000e+000
      vertex  6.550000e+001 -2.173205e+001  1.000000e+000
      vertex -6.550000e+001 -2.200000e+001  2.000000e+000
    endloop
  endfacet
  facet normal  0.000000e+000 -9.659256e-001 -2.588198e-001
    outer loop
      vertex -6.550000e+001 -2.200000e+001  2.000000e+000
      vertex  6.550000e+001 -2.173205e+001  1.000000e+000
      vertex  6.550000e+001 -2.200000e+001  2.000000e+000
    endloop
  endfacet
  facet normal  0.000000e+000 -1.000000e+000  0.000000e+000
    outer loop
      vertex -6.550000e+001 -2.200000e+001  2.600000e+001
      vertex -6.550000e+001 -2.200000e+001  2.000000e+000
      vertex  6.550000e+001 -2.200000e+001  2.600000e+001
    endloop
  endfacet
  facet normal  0.000000e+000 -1.000000e+000  -0.000000e+000
    outer loop
      vertex  6.550000e+001 -2.200000e+001  2.600000e+001
      vertex -6.550000e+001 -2.200000e+001  2.000000e+000
      vertex  6.550000e+001 -2.200000e+001  2.000000e+000
    endloop
  endfacet
  facet normal  0.000000e+000  0.000000e+000 -1.000000e+000
    outer loop
      vertex -6.550000e+001 -2.000000e+001  0.000000e+000
      vertex -6.550000e+001  2.000000e+001  0.000000e+000
      vertex  6.550000e+001 -2.000000e+001  0.000000e+000
    endloop
  endfacet
  facet normal  0.000000e+000  0.000000e+000 -1.000000e+000
    outer loop
      vertex  6.550000e+001 -2.000000e+001  0.000000e+000
      vertex -6.550000e+001  2.000000e+001  0.000000e+000
      vertex  6.550000e+001  2.000000e+001  0.000000e+000
    endloop
  endfacet
  facet normal  0.000000e+000 -9.659256e-001  2.588198e-001
    outer loop
      vertex -6.550000e+001 -2.200000e+001  2.600000e+001
      vertex  6.550000e+001 -2.200000e+001  2.600000e+001
      vertex -6.550000e+001 -2.173205e+001  2.700000e+001
    endloop
  endfacet
  facet normal  0.000000e+000 -9.659256e-001  2.588198e-001
    outer loop
      vertex -6.550000e+001 -2.173205e+001  2.700000e+001
      vertex  6.550000e+001 -2.200000e+001  2.600000e+001
      vertex  6.550000e+001 -2.173205e+001  2.700000e+001
    endloop
  endfacet
  facet normal  0.000000e+000 -7.071067e-001  7.071067e-001
    outer loop
      vertex -6.550000e+001 -2.173205e+001  2.700000e+001
      vertex  6.550000e+001 -2.173205e+001  2.700000e+001
      vertex -6.550000e+001 -2.100000e+001  2.773205e+001
    endloop
  endfacet
  facet normal  0.000000e+000 -7.071067e-001  7.071067e-001
    outer loop
      vertex -6.550000e+001 -2.100000e+001  2.773205e+001
      vertex  6.550000e+001 -2.173205e+001  2.700000e+001
      vertex  6.550000e+001 -2.100000e+001  2.773205e+001
    endloop
  endfacet
  facet normal  0.000000e+000 -2.588198e-001  9.659256e-001
    outer loop
      vertex -6.550000e+001 -2.100000e+001  2.773205e+001
      vertex  6.550000e+001 -2.100000e+001  2.773205e+001
      vertex -6.550000e+001 -2.000000e+001  2.800000e+001
    endloop
  endfacet
  facet normal  0.000000e+000 -2.588198e-001  9.659256e-001
    outer loop
      vertex -6.550000e+001 -2.000000e+001  2.800000e+001
      vertex  6.550000e+001 -2.100000e+001  2.773205e+001
      vertex  6.550000e+001 -2.000000e+001  2.800000e+001
    endloop
  endfacet
  facet normal  0.000000e+000  0.000000e+000  1.000000e+000
    outer loop
      vertex -6.550000e+001 -2.000000e+001  2.800000e+001
      vertex  6.550000e+001 -2.000000e+001  2.800000e+001
      vertex -6.550000e+001  2.000000e+001  2.800000e+001
    endloop
  endfacet
  facet normal  -0.000000e+000  0.000000e+000  1.000000e+000
    outer loop
      vertex -6.550000e+001  2.000000e+001  2.800000e+001
      vertex  6.550000e+001 -2.000000e+001  2.800000e+001
      vertex  6.550000e+001  2.000000e+001  2.800000e+001
    endloop
  endfacet
  facet normal  0.000000e+000  2.588191e-001 -9.659259e-001
    outer loop
      vertex  6.550000e+001  2.000000e+001  0.000000e+000
      vertex -6.550000e+001  2.000000e+001  0.000000e+000
      vertex  6.550000e+001  2.100000e+001  2.679492e-001
    endloop
  endfacet
  facet normal  0.000000e+000  2.588191e-001 -9.659259e-001
    outer loop
      vertex  6.550000e+001  2.100000e+001  2.679492e-001
      vertex -6.550000e+001  2.000000e+001  0.000000e+000
      vertex -6.550000e+001  2.100000e+001  2.679492e-001
    endloop
  endfacet
  facet normal  0.000000e+000  7.071072e-001 -7.071064e-001
    outer loop
      vertex  6.550000e+001  2.100000e+001  2.679492e-001
      vertex -6.550000e+001  2.100000e+001  2.679492e-001
      vertex  6.550000e+001  2.173205e+001  1.000000e+000
    endloop
  endfacet
  facet normal  0.000000e+000  7.071072e-001 -7.071064e-001
    outer loop
      vertex  6.550000e+001  2.173205e+001  1.000000e+000
      vertex -6.550000e+001  2.100000e+001  2.679492e-001
      vertex -6.550000e+001  2.173205e+001  1.000000e+000
    endloop
  endfacet
  facet normal  0.000000e+000  9.659256e-001 -2.588198e-001
    outer loop
      vertex  6.550000e+001  2.173205e+001  1.000000e+000
      vertex -6.550000e+001  2.173205e+001  1.000000e+000
      vertex  6.550000e+001  2.200000e+001  2.000000e+000
    endloop
  endfacet
  facet normal  0.000000e+000  9.659256e-001 -2.588198e-001
    outer loop
      vertex  6.550000e+001  2.200000e+001  2.000000e+000
      vertex -6.550000e+001  2.173205e+001  1.000000e+000
      vertex -6.550000e+001  2.200000e+001  2.000000e+000
    endloop
  endfacet
  facet normal  0.000000e+000  1.000000e+000  -0.000000e+000
    outer loop
      vertex  6.550000e+001  2.200000e+001  2.600000e+001
      vertex  6.550000e+001  2.200000e+001  2.000000e+000
      vertex -6.550000e+001  2.200000e+001  2.600000e+001
    endloop
  endfacet
  facet normal  0.000000e+000  1.000000e+000  0.000000e+000
    outer loop
      vertex -6.550000e+001  2.200000e+001  2.600000e+001
      vertex  6.550000e+001  2.200000e+001  2.000000e+000
      vertex -6.550000e+001  2.200000e+001  2.000000e+000
    endloop
  endfacet
  facet normal  -0.000000e+000  9.659256e-001  2.588198e-001
    outer loop
      vertex  6.550000e+001  2.200000e+001  2.600000e+001
      vertex -6.550000e+001  2.200000e+001  2.600000e+001
      vertex  6.550000e+001  2.173205e+001  2.700000e+001
    endloop
  endfacet
  facet normal  0.000000e+000  9.659256e-001  2.588198e-001
    outer loop
      vertex  6.550000e+001  2.173205e+001  2.700000e+001
      vertex -6.550000e+001  2.200000e+001  2.600000e+001
      vertex -6.550000e+001  2.173205e+001  2.700000e+001
    endloop
  endfacet
  facet normal  -0.000000e+000  7.071067e-001  7.071067e-001
    outer loop
      vertex  6.550000e+001  2.173205e+001  2.700000e+001
      vertex -6.550000e+001  2.173205e+001  2.700000e+001
      vertex  6.550000e+001  2.100000e+001  2.773205e+001
    endloop
  endfacet
  facet normal  0.000000e+000  7.071067e-001  7.071067e-001
    outer loop
      vertex  6.550000e+001  2.100000e+001  2.773205e+001
      vertex -6.550000e+001  2.173205e+001  2.700000e+001
      vertex -6.550000e+001  2.100000e+001  2.773205e+001
    endloop
  endfacet
  facet normal  -0.000000e+000  2.588198e-001  9.659256e-001
    outer loop
      vertex  6.550000e+001  2.100000e+001  2.773205e+001
      vertex -6.550000e+001  2.100000e+001  2.773205e+001
      vertex  6.550000e+001  2.000000e+001  2.800000e+001
    endloop
  endfacet
  facet normal  0.000000e+000  2.588198e-001  9.659256e-001
    outer loop
      vertex  6.550000e+001  2.000000e+001  2.800000e+001
      vertex -6.550000e+001  2.100000e+001  2.773205e+001
      vertex -6.550000e+001  2.000000e+001  2.800000e+001
    endloop
  endfacet
  facet normal  1.000000e+000  -0.000000e+000  0.000000e+000
    outer loop
      vertex  6.750000e+001  2.000000e+001  2.600000e+001
      vertex  6.750000e+001 -2.000000e+001  2.600000e+001
      vertex  6.750000e+001  2.000000e+001  2.000000e+000
    endloop
  endfacet
  facet normal  1.000000e+000  0.000000e+000  0.000000e+000
    outer loop
      vertex  6.750000e+001  2.000000e+001  2.000000e+000
      vertex  6.750000e+001 -2.000000e+001  2.600000e+001
      vertex  6.750000e+001 -2.000000e+001  2.000000e+000
    endloop
  endfacet
  facet normal  9.636107e-001  6.918483e-002 -2.582014e-001
    outer loop
      vertex  6.750000e+001  2.000000e+001  2.000000e+000
      vertex  6.723205e+001  2.000000e+001  1.000000e+000
      vertex  6.723205e+001  2.050000e+001  1.133975e+000
    endloop
  endfacet
  facet normal  9.636106e-001  1.890164e-001 -1.890166e-001
    outer loop
      vertex  6.750000e+001  2.000000e+001  2.000000e+000
      vertex  6.723205e+001  2.050000e+001  1.133975e+000
      vertex  6.723205e+001  2.086603e+001  1.500000e+000
    endloop
  endfacet
  facet normal  9.636107e-001  2.582014e-001 -6.918459e-002
    outer loop
      vertex  6.750000e+001  2.000000e+001  2.000000e+000
      vertex  6.723205e+001  2.086603e+001  1.500000e+000
      vertex  6.723205e+001  2.100000e+001  2.000000e+000
    endloop
  endfacet
  facet normal  6.947476e-001  6.947458e-001 -1.861559e-001
    outer loop
      vertex  6.723205e+001  2.100000e+001  2.000000e+000
      vertex  6.723205e+001  2.086603e+001  1.500000e+000
      vertex  6.650000e+001  2.173205e+001  2.000000e+000
    endloop
  endfacet
  facet normal  6.947476e-001  6.947458e-001 -1.861559e-001
    outer loop
      vertex  6.650000e+001  2.173205e+001  2.000000e+000
      vertex  6.723205e+001  2.086603e+001  1.500000e+000
      vertex  6.650000e+001  2.150000e+001  1.133975e+000
    endloop
  endfacet
  facet normal  2.505637e-001  9.351133e-001 -2.505619e-001
    outer loop
      vertex  6.650000e+001  2.173205e+001  2.000000e+000
      vertex  6.650000e+001  2.150000e+001  1.133975e+000
      vertex  6.550000e+001  2.200000e+001  2.000000e+000
    endloop
  endfacet
  facet normal  2.505621e-001  9.351131e-001 -2.505636e-001
    outer loop
      vertex  6.550000e+001  2.200000e+001  2.000000e+000
      vertex  6.650000e+001  2.150000e+001  1.133975e+000
      vertex  6.550000e+001  2.173205e+001  1.000000e+000
    endloop
  endfacet
  facet normal  6.947480e-001  1.861564e-001 -6.947453e-001
    outer loop
      vertex  6.723205e+001  2.050000e+001  1.133975e+000
      vertex  6.723205e+001  2.000000e+001  1.000000e+000
      vertex  6.650000e+001  2.086603e+001  5.000000e-001
    endloop
  endfacet
  facet normal  6.947480e-001  1.861563e-001 -6.947454e-001
    outer loop
      vertex  6.650000e+001  2.086603e+001  5.000000e-001
      vertex  6.723205e+001  2.000000e+001  1.000000e+000
      vertex  6.650000e+001  2.000000e+001  2.679492e-001
    endloop
  endfacet
  facet normal  2.505627e-001  2.505627e-001 -9.351133e-001
    outer loop
      vertex  6.650000e+001  2.086603e+001  5.000000e-001
      vertex  6.650000e+001  2.000000e+001  2.679492e-001
      vertex  6.550000e+001  2.100000e+001  2.679492e-001
    endloop
  endfacet
  facet normal  2.505628e-001  2.505628e-001 -9.351131e-001
    outer loop
      vertex  6.550000e+001  2.100000e+001  2.679492e-001
      vertex  6.650000e+001  2.000000e+001  2.679492e-001
      vertex  6.550000e+001  2.000000e+001  0.000000e+000
    endloop
  endfacet
  facet normal  6.947477e-001  5.085887e-001 -5.085893e-001
    outer loop
      vertex  6.723205e+001  2.086603e+001  1.500000e+000
      vertex  6.723205e+001  2.050000e+001  1.133975e+000
      vertex  6.650000e+001  2.150000e+001  1.133975e+000
    endloop
  endfacet
  facet normal  6.947481e-001  5.085890e-001 -5.085886e-001
    outer loop
      vertex  6.650000e+001  2.150000e+001  1.133975e+000
      vertex  6.723205e+001  2.050000e+001  1.133975e+000
      vertex  6.650000e+001  2.086603e+001  5.000000e-001
    endloop
  endfacet
  facet normal  2.505623e-001  6.845507e-001 -6.845502e-001
    outer loop
      vertex  6.650000e+001  2.150000e+001  1.133975e+000
      vertex  6.650000e+001  2.086603e+001  5.000000e-001
      vertex  6.550000e+001  2.173205e+001  1.000000e+000
    endloop
  endfacet
  facet normal  2.505624e-001  6.845508e-001 -6.845500e-001
    outer loop
      vertex  6.550000e+001  2.173205e+001  1.000000e+000
      vertex  6.650000e+001  2.086603e+001  5.000000e-001
      vertex  6.550000e+001  2.100000e+001  2.679492e-001
    endloop
  endfacet
  facet normal  9.659252e-001  0.000000e+000 -2.588215e-001
    outer loop
      vertex  6.750000e+001  2.000000e+001  2.000000e+000
      vertex  6.750000e+001 -2.000000e+001  2.000000e+000
      vertex  6.723205e+001  2.000000e+001  1.000000e+000
    endloop
  endfacet
  facet normal  9.659252e-001  0.000000e+000 -2.588215e-001
    outer loop
      vertex  6.723205e+001  2.000000e+001  1.000000e+000
      vertex  6.750000e+001 -2.000000e+001  2.000000e+000
      vertex  6.723205e+001 -2.000000e+001  1.000000e+000
    endloop
  endfacet
  facet normal  7.071081e-001  0.000000e+000 -7.071055e-001
    outer loop
      vertex  6.723205e+001  2.000000e+001  1.000000e+000
      vertex  6.723205e+001 -2.000000e+001  1.000000e+000
      vertex  6.650000e+001  2.000000e+001  2.679492e-001
    endloop
  endfacet
  facet normal  7.071081e-001  0.000000e+000 -7.071055e-001
    outer loop
      vertex  6.650000e+001  2.000000e+001  2.679492e-001
      vertex  6.723205e+001 -2.000000e+001  1.000000e+000
      vertex  6.650000e+001 -2.000000e+001  2.679492e-001
    endloop
  endfacet
  facet normal  2.588190e-001  0.000000e+000 -9.659258e-001
    outer loop
      vertex  6.650000e+001  2.000000e+001  2.679492e-001
      vertex  6.650000e+001 -2.000000e+001  2.679492e-001
      vertex  6.550000e+001  2.000000e+001  0.000000e+000
    endloop
  endfacet
  facet normal  2.588190e-001  0.000000e+000 -9.659258e-001
    outer loop
      vertex  6.550000e+001  2.000000e+001  0.000000e+000
      vertex  6.650000e+001 -2.000000e+001  2.679492e-001
      vertex  6.550000e+001 -2.000000e+001  0.000000e+000
    endloop
  endfacet
  facet normal  9.636107e-001 -2.582014e-001 -6.918459e-002
    outer loop
      vertex  6.750000e+001 -2.000000e+001  2.000000e+000
      vertex  6.723205e+001 -2.100000e+001  2.000000e+000
      vertex  6.723205e+001 -2.086603e+001  1.500000e+000
    endloop
  endfacet
  facet normal  9.636106e-001 -1.890164e-001 -1.890166e-001
    outer loop
      vertex  6.750000e+001 -2.000000e+001  2.000000e+000
      vertex  6.723205e+001 -2.086603e+001  1.500000e+000
      vertex  6.723205e+001 -2.050000e+001  1.133975e+000
    endloop
  endfacet
  facet normal  9.636107e-001 -6.918483e-002 -2.582014e-001
    outer loop
      vertex  6.750000e+001 -2.000000e+001  2.000000e+000
      vertex  6.723205e+001 -2.050000e+001  1.133975e+000
      vertex  6.723205e+001 -2.000000e+001  1.000000e+000
    endloop
  endfacet
  facet normal  6.947479e-001 -1.861564e-001 -6.947454e-001
    outer loop
      vertex  6.723205e+001 -2.000000e+001  1.000000e+000
      vertex  6.723205e+001 -2.050000e+001  1.133975e+000
      vertex  6.650000e+001 -2.000000e+001  2.679492e-001
    endloop
  endfacet
  facet normal  6.947480e-001 -1.861563e-001 -6.947454e-001
    outer loop
      vertex  6.650000e+001 -2.000000e+001  2.679492e-001
      vertex  6.723205e+001 -2.050000e+001  1.133975e+000
      vertex  6.650000e+001 -2.086603e+001  5.000000e-001
    endloop
  endfacet
  facet normal  2.505628e-001 -2.505627e-001 -9.351131e-001
    outer loop
      vertex  6.650000e+001 -2.000000e+001  2.679492e-001
      vertex  6.650000e+001 -2.086603e+001  5.000000e-001
      vertex  6.550000e+001 -2.000000e+001  0.000000e+000
    endloop
  endfacet
  facet normal  2.505627e-001 -2.505628e-001 -9.351132e-001
    outer loop
      vertex  6.550000e+001 -2.000000e+001  0.000000e+000
      vertex  6.650000e+001 -2.086603e+001  5.000000e-001
      vertex  6.550000e+001 -2.100000e+001  2.679492e-001
    endloop
  endfacet
  facet normal  6.947476e-001 -6.947458e-001 -1.861559e-001
    outer loop
      vertex  6.723205e+001 -2.086603e+001  1.500000e+000
      vertex  6.723205e+001 -2.100000e+001  2.000000e+000
      vertex  6.650000e+001 -2.150000e+001  1.133975e+000
    endloop
  endfacet
  facet normal  6.947476e-001 -6.947458e-001 -1.861559e-001
    outer loop
      vertex  6.650000e+001 -2.150000e+001  1.133975e+000
      vertex  6.723205e+001 -2.100000e+001  2.000000e+000
      vertex  6.650000e+001 -2.173205e+001  2.000000e+000
    endloop
  endfacet
  facet normal  2.505620e-001 -9.351135e-001 -2.505620e-001
    outer loop
      vertex  6.650000e+001 -2.150000e+001  1.133975e+000
      vertex  6.650000e+001 -2.173205e+001  2.000000e+000
      vertex  6.550000e+001 -2.173205e+001  1.000000e+000
    endloop
  endfacet
  facet normal  2.505635e-001 -9.351127e-001 -2.505635e-001
    outer loop
      vertex  6.550000e+001 -2.173205e+001  1.000000e+000
      vertex  6.650000e+001 -2.173205e+001  2.000000e+000
      vertex  6.550000e+001 -2.200000e+001  2.000000e+000
    endloop
  endfacet
  facet normal  6.947481e-001 -5.085883e-001 -5.085890e-001
    outer loop
      vertex  6.723205e+001 -2.050000e+001  1.133975e+000
      vertex  6.723205e+001 -2.086603e+001  1.500000e+000
      vertex  6.650000e+001 -2.086603e+001  5.000000e-001
    endloop
  endfacet
  facet normal  6.947478e-001 -5.085891e-001 -5.085888e-001
    outer loop
      vertex  6.650000e+001 -2.086603e+001  5.000000e-001
      vertex  6.723205e+001 -2.086603e+001  1.500000e+000
      vertex  6.650000e+001 -2.150000e+001  1.133975e+000
    endloop
  endfacet
  facet normal  2.505625e-001 -6.845506e-001 -6.845501e-001
    outer loop
      vertex  6.650000e+001 -2.086603e+001  5.000000e-001
      vertex  6.650000e+001 -2.150000e+001  1.133975e+000
      vertex  6.550000e+001 -2.100000e+001  2.679492e-001
    endloop
  endfacet
  facet normal  2.505623e-001 -6.845508e-001 -6.845500e-001
    outer loop
      vertex  6.550000e+001 -2.100000e+001  2.679492e-001
      vertex  6.650000e+001 -2.150000e+001  1.133975e+000
      vertex  6.550000e+001 -2.173205e+001  1.000000e+000
    endloop
  endfacet
  facet normal  9.659252e-001 -2.588215e-001  0.000000e+000
    outer loop
      vertex  6.750000e+001 -2.000000e+001  2.000000e+000
      vertex  6.750000e+001 -2.000000e+001  2.600000e+001
      vertex  6.723205e+001 -2.100000e+001  2.000000e+000
    endloop
  endfacet
  facet normal  9.659252e-001 -2.588215e-001  0.000000e+000
    outer loop
      vertex  6.723205e+001 -2.100000e+001  2.000000e+000
      vertex  6.750000e+001 -2.000000e+001  2.600000e+001
      vertex  6.723205e+001 -2.100000e+001  2.600000e+001
    endloop
  endfacet
  facet normal  7.071077e-001 -7.071058e-001  0.000000e+000
    outer loop
      vertex  6.723205e+001 -2.100000e+001  2.000000e+000
      vertex  6.723205e+001 -2.100000e+001  2.600000e+001
      vertex  6.650000e+001 -2.173205e+001  2.000000e+000
    endloop
  endfacet
  facet normal  7.071077e-001 -7.071058e-001  0.000000e+000
    outer loop
      vertex  6.650000e+001 -2.173205e+001  2.000000e+000
      vertex  6.723205e+001 -2.100000e+001  2.600000e+001
      vertex  6.650000e+001 -2.173205e+001  2.600000e+001
    endloop
  endfacet
  facet normal  2.588198e-001 -9.659256e-001  0.000000e+000
    outer loop
      vertex  6.650000e+001 -2.173205e+001  2.000000e+000
      vertex  6.650000e+001 -2.173205e+001  2.600000e+001
      vertex  6.550000e+001 -2.200000e+001  2.000000e+000
    endloop
  endfacet
  facet normal  2.588198e-001 -9.659256e-001  0.000000e+000
    outer loop
      vertex  6.550000e+001 -2.200000e+001  2.000000e+000
      vertex  6.650000e+001 -2.173205e+001  2.600000e+001
      vertex  6.550000e+001 -2.200000e+001  2.600000e+001
    endloop
  endfacet
  facet normal  9.636107e-001 -6.918459e-002  2.582014e-001
    outer loop
      vertex  6.750000e+001 -2.000000e+001  2.600000e+001
      vertex  6.723205e+001 -2.000000e+001  2.700000e+001
      vertex  6.723205e+001 -2.050000e+001  2.686603e+001
    endloop
  endfacet
  facet normal  9.636106e-001 -1.890164e-001  1.890164e-001
    outer loop
      vertex  6.750000e+001 -2.000000e+001  2.600000e+001
      vertex  6.723205e+001 -2.050000e+001  2.686603e+001
      vertex  6.723205e+001 -2.086603e+001  2.650000e+001
    endloop
  endfacet
  facet normal  9.636107e-001 -2.582014e-001  6.918459e-002
    outer loop
      vertex  6.750000e+001 -2.000000e+001  2.600000e+001
      vertex  6.723205e+001 -2.086603e+001  2.650000e+001
      vertex  6.723205e+001 -2.100000e+001  2.600000e+001
    endloop
  endfacet
  facet normal  6.947476e-001 -6.947458e-001  1.861559e-001
    outer loop
      vertex  6.723205e+001 -2.100000e+001  2.600000e+001
      vertex  6.723205e+001 -2.086603e+001  2.650000e+001
      vertex  6.650000e+001 -2.173205e+001  2.600000e+001
    endloop
  endfacet
  facet normal  6.947476e-001 -6.947458e-001  1.861558e-001
    outer loop
      vertex  6.650000e+001 -2.173205e+001  2.600000e+001
      vertex  6.723205e+001 -2.086603e+001  2.650000e+001
      vertex  6.650000e+001 -2.150000e+001  2.686603e+001
    endloop
  endfacet
  facet normal  2.505637e-001 -9.351133e-001  2.505617e-001
    outer loop
      vertex  6.650000e+001 -2.173205e+001  2.600000e+001
      vertex  6.650000e+001 -2.150000e+001  2.686603e+001
      vertex  6.550000e+001 -2.200000e+001  2.600000e+001
    endloop
  endfacet
  facet normal  2.505620e-001 -9.351131e-001  2.505636e-001
    outer loop
      vertex  6.550000e+001 -2.200000e+001  2.600000e+001
      vertex  6.650000e+001 -2.150000e+001  2.686603e+001
      vertex  6.550000e+001 -2.173205e+001  2.700000e+001
    endloop
  endfacet
  facet normal  6.947477e-001 -1.861558e-001  6.947457e-001
    outer loop
      vertex  6.723205e+001 -2.050000e+001  2.686603e+001
      vertex  6.723205e+001 -2.000000e+001  2.700000e+001
      vertex  6.650000e+001 -2.086603e+001  2.750000e+001
    endloop
  endfacet
  facet normal  6.947476e-001 -1.861558e-001  6.947459e-001
    outer loop
      vertex  6.650000e+001 -2.086603e+001  2.750000e+001
      vertex  6.723205e+001 -2.000000e+001  2.700000e+001
      vertex  6.650000e+001 -2.000000e+001  2.773205e+001
    endloop
  endfacet
  facet normal  2.505619e-001 -2.505619e-001  9.351136e-001
    outer loop
      vertex  6.650000e+001 -2.086603e+001  2.750000e+001
      vertex  6.650000e+001 -2.000000e+001  2.773205e+001
      vertex  6.550000e+001 -2.100000e+001  2.773205e+001
    endloop
  endfacet
  facet normal  2.505635e-001 -2.505635e-001  9.351127e-001
    outer loop
      vertex  6.550000e+001 -2.100000e+001  2.773205e+001
      vertex  6.650000e+001 -2.000000e+001  2.773205e+001
      vertex  6.550000e+001 -2.000000e+001  2.800000e+001
    endloop
  endfacet
  facet normal  6.947479e-001 -5.085889e-001  5.085889e-001
    outer loop
      vertex  6.723205e+001 -2.086603e+001  2.650000e+001
      vertex  6.723205e+001 -2.050000e+001  2.686603e+001
      vertex  6.650000e+001 -2.150000e+001  2.686603e+001
    endloop
  endfacet
  facet normal  6.947480e-001 -5.085889e-001  5.085889e-001
    outer loop
      vertex  6.650000e+001 -2.150000e+001  2.686603e+001
      vertex  6.723205e+001 -2.050000e+001  2.686603e+001
      vertex  6.650000e+001 -2.086603e+001  2.750000e+001
    endloop
  endfacet
  facet normal  2.505620e-001 -6.845505e-001  6.845505e-001
    outer loop
      vertex  6.650000e+001 -2.150000e+001  2.686603e+001
      vertex  6.650000e+001 -2.086603e+001  2.750000e+001
      vertex  6.550000e+001 -2.173205e+001  2.700000e+001
    endloop
  endfacet
  facet normal  2.505619e-001 -6.845505e-001  6.845505e-001
    outer loop
      vertex  6.550000e+001 -2.173205e+001  2.700000e+001
      vertex  6.650000e+001 -2.086603e+001  2.750000e+001
      vertex  6.550000e+001 -2.100000e+001  2.773205e+001
    endloop
  endfacet
  facet normal  2.588198e-001  -0.000000e+000  9.659256e-001
    outer loop
      vertex  6.550000e+001  2.000000e+001  2.800000e+001
      vertex  6.550000e+001 -2.000000e+001  2.800000e+001
      vertex  6.650000e+001  2.000000e+001  2.773205e+001
    endloop
  endfacet
  facet normal  2.588198e-001  0.000000e+000  9.659256e-001
    outer loop
      vertex  6.650000e+001  2.000000e+001  2.773205e+001
      vertex  6.550000e+001 -2.000000e+001  2.800000e+001
      vertex  6.650000e+001 -2.000000e+001  2.773205e+001
    endloop
  endfacet
  facet normal  7.071077e-001  -0.000000e+000  7.071059e-001
    outer loop
      vertex  6.650000e+001  2.000000e+001  2.773205e+001
      vertex  6.650000e+001 -2.000000e+001  2.773205e+001
      vertex  6.723205e+001  2.000000e+001  2.700000e+001
    endloop
  endfacet
  facet normal  7.071077e-001  0.000000e+000  7.071059e-001
    outer loop
      vertex  6.723205e+001  2.000000e+001  2.700000e+001
      vertex  6.650000e+001 -2.000000e+001  2.773205e+001
      vertex  6.723205e+001 -2.000000e+001  2.700000e+001
    endloop
  endfacet
  facet normal  9.659252e-001  -0.000000e+000  2.588215e-001
    outer loop
      vertex  6.723205e+001  2.000000e+001  2.700000e+001
      vertex  6.723205e+001 -2.000000e+001  2.700000e+001
      vertex  6.750000e+001  2.000000e+001  2.600000e+001
    endloop
  endfacet
  facet normal  9.659252e-001  0.000000e+000  2.588215e-001
    outer loop
      vertex  6.750000e+001  2.000000e+001  2.600000e+001
      vertex  6.723205e+001 -2.000000e+001  2.700000e+001
      vertex  6.750000e+001 -2.000000e+001  2.600000e+001
    endloop
  endfacet
  facet normal  9.636107e-001  2.582014e-001  6.918459e-002
    outer loop
      vertex  6.750000e+001  2.000000e+001  2.600000e+001
      vertex  6.723205e+001  2.100000e+001  2.600000e+001
      vertex  6.723205e+001  2.086603e+001  2.650000e+001
    endloop
  endfacet
  facet normal  9.636106e-001  1.890164e-001  1.890164e-001
    outer loop
      vertex  6.750000e+001  2.000000e+001  2.600000e+001
      vertex  6.723205e+001  2.086603e+001  2.650000e+001
      vertex  6.723205e+001  2.050000e+001  2.686603e+001
    endloop
  endfacet
  facet normal  9.636107e-001  6.918459e-002  2.582014e-001
    outer loop
      vertex  6.750000e+001  2.000000e+001  2.600000e+001
      vertex  6.723205e+001  2.050000e+001  2.686603e+001
      vertex  6.723205e+001  2.000000e+001  2.700000e+001
    endloop
  endfacet
  facet normal  6.947476e-001  1.861558e-001  6.947457e-001
    outer loop
      vertex  6.723205e+001  2.000000e+001  2.700000e+001
      vertex  6.723205e+001  2.050000e+001  2.686603e+001
      vertex  6.650000e+001  2.000000e+001  2.773205e+001
    endloop
  endfacet
  facet normal  6.947476e-001  1.861558e-001  6.947458e-001
    outer loop
      vertex  6.650000e+001  2.000000e+001  2.773205e+001
      vertex  6.723205e+001  2.050000e+001  2.686603e+001
      vertex  6.650000e+001  2.086603e+001  2.750000e+001
    endloop
  endfacet
  facet normal  2.505637e-001  2.505617e-001  9.351133e-001
    outer loop
      vertex  6.650000e+001  2.000000e+001  2.773205e+001
      vertex  6.650000e+001  2.086603e+001  2.750000e+001
      vertex  6.550000e+001  2.000000e+001  2.800000e+001
    endloop
  endfacet
  facet normal  2.505620e-001  2.505636e-001  9.351131e-001
    outer loop
      vertex  6.550000e+001  2.000000e+001  2.800000e+001
      vertex  6.650000e+001  2.086603e+001  2.750000e+001
      vertex  6.550000e+001  2.100000e+001  2.773205e+001
    endloop
  endfacet
  facet normal  6.947477e-001  6.947457e-001  1.861558e-001
    outer loop
      vertex  6.723205e+001  2.086603e+001  2.650000e+001
      vertex  6.723205e+001  2.100000e+001  2.600000e+001
      vertex  6.650000e+001  2.150000e+001  2.686603e+001
    endloop
  endfacet
  facet normal  6.947476e-001  6.947459e-001  1.861558e-001
    outer loop
      vertex  6.650000e+001  2.150000e+001  2.686603e+001
      vertex  6.723205e+001  2.100000e+001  2.600000e+001
      vertex  6.650000e+001  2.173205e+001  2.600000e+001
    endloop
  endfacet
  facet normal  2.505619e-001  9.351136e-001  2.505619e-001
    outer loop
      vertex  6.650000e+001  2.150000e+001  2.686603e+001
      vertex  6.650000e+001  2.173205e+001  2.600000e+001
      vertex  6.550000e+001  2.173205e+001  2.700000e+001
    endloop
  endfacet
  facet normal  2.505635e-001  9.351127e-001  2.505635e-001
    outer loop
      vertex  6.550000e+001  2.173205e+001  2.700000e+001
      vertex  6.650000e+001  2.173205e+001  2.600000e+001
      vertex  6.550000e+001  2.200000e+001  2.600000e+001
    endloop
  endfacet
  facet normal  6.947479e-001  5.085889e-001  5.085889e-001
    outer loop
      vertex  6.723205e+001  2.050000e+001  2.686603e+001
      vertex  6.723205e+001  2.086603e+001  2.650000e+001
      vertex  6.650000e+001  2.086603e+001  2.750000e+001
    endloop
  endfacet
  facet normal  6.947480e-001  5.085889e-001  5.085889e-001
    outer loop
      vertex  6.650000e+001  2.086603e+001  2.750000e+001
      vertex  6.723205e+001  2.086603e+001  2.650000e+001
      vertex  6.650000e+001  2.150000e+001  2.686603e+001
    endloop
  endfacet
  facet normal  2.505620e-001  6.845505e-001  6.845505e-001
    outer loop
      vertex  6.650000e+001  2.086603e+001  2.750000e+001
      vertex  6.650000e+001  2.150000e+001  2.686603e+001
      vertex  6.550000e+001  2.100000e+001  2.773205e+001
    endloop
  endfacet
  facet normal  2.505619e-001  6.845505e-001  6.845505e-001
    outer loop
      vertex  6.550000e+001  2.100000e+001  2.773205e+001
      vertex  6.650000e+001  2.150000e+001  2.686603e+001
      vertex  6.550000e+001  2.173205e+001  2.700000e+001
    endloop
  endfacet
  facet normal  2.588198e-001  9.659256e-001  0.000000e+000
    outer loop
      vertex  6.550000e+001  2.200000e+001  2.000000e+000
      vertex  6.550000e+001  2.200000e+001  2.600000e+001
      vertex  6.650000e+001  2.173205e+001  2.000000e+000
    endloop
  endfacet
  facet normal  2.588198e-001  9.659256e-001  -0.000000e+000
    outer loop
      vertex  6.650000e+001  2.173205e+001  2.000000e+000
      vertex  6.550000e+001  2.200000e+001  2.600000e+001
      vertex  6.650000e+001  2.173205e+001  2.600000e+001
    endloop
  endfacet
  facet normal  7.071077e-001  7.071058e-001  0.000000e+000
    outer loop
      vertex  6.650000e+001  2.173205e+001  2.000000e+000
      vertex  6.650000e+001  2.173205e+001  2.600000e+001
      vertex  6.723205e+001  2.100000e+001  2.000000e+000
    endloop
  endfacet
  facet normal  7.071077e-001  7.071058e-001  -0.000000e+000
    outer loop
      vertex  6.723205e+001  2.100000e+001  2.000000e+000
      vertex  6.650000e+001  2.173205e+001  2.600000e+001
      vertex  6.723205e+001  2.100000e+001  2.600000e+001
    endloop
  endfacet
  facet normal  9.659252e-001  2.588215e-001  0.000000e+000
    outer loop
      vertex  6.723205e+001  2.100000e+001  2.000000e+000
      vertex  6.723205e+001  2.100000e+001  2.600000e+001
      vertex  6.750000e+001  2.000000e+001  2.000000e+000
    endloop
  endfacet
  facet normal  9.659252e-001  2.588215e-001  -0.000000e+000
    outer loop
      vertex  6.750000e+001  2.000000e+001  2.000000e+000
      vertex  6.723205e+001  2.100000e+001  2.600000e+001
      vertex  6.750000e+001  2.000000e+001  2.600000e+001
    endloop
  endfacet
  facet normal -1.000000e+000  -0.000000e+000  0.000000e+000
    outer loop
      vertex -6.750000e+001 -2.000000e+001  2.600000e+001
      vertex -6.750000e+001  2.000000e+001  2.600000e+001
      vertex -6.750000e+001 -2.000000e+001  2.000000e+000
    endloop
  endfacet
  facet normal -1.000000e+000  0.000000e+000  0.000000e+000
    outer loop
      vertex -6.750000e+001 -2.000000e+001  2.000000e+000
      vertex -6.750000e+001  2.000000e+001  2.600000e+001
      vertex -6.750000e+001  2.000000e+001  2.000000e+000
    endloop
  endfacet
  facet normal -9.636107e-001  2.582014e-001 -6.918459e-002
    outer loop
      vertex -6.750000e+001  2.000000e+001  2.000000e+000
      vertex -6.723205e+001  2.100000e+001  2.000000e+000
      vertex -6.723205e+001  2.086603e+001  1.500000e+000
    endloop
  endfacet
  facet normal -9.636106e-001  1.890164e-001 -1.890166e-001
    outer loop
      vertex -6.750000e+001  2.000000e+001  2.000000e+000
      vertex -6.723205e+001  2.086603e+001  1.500000e+000
      vertex -6.723205e+001  2.050000e+001  1.133975e+000
    endloop
  endfacet
  facet normal -9.636107e-001  6.918483e-002 -2.582014e-001
    outer loop
      vertex -6.750000e+001  2.000000e+001  2.000000e+000
      vertex -6.723205e+001  2.050000e+001  1.133975e+000
      vertex -6.723205e+001  2.000000e+001  1.000000e+000
    endloop
  endfacet
  facet normal -6.947479e-001  1.861564e-001 -6.947454e-001
    outer loop
      vertex -6.723205e+001  2.000000e+001  1.000000e+000
      vertex -6.723205e+001  2.050000e+001  1.133975e+000
      vertex -6.650000e+001  2.000000e+001  2.679492e-001
    endloop
  endfacet
  facet normal -6.947480e-001  1.861563e-001 -6.947454e-001
    outer loop
      vertex -6.650000e+001  2.000000e+001  2.679492e-001
      vertex -6.723205e+001  2.050000e+001  1.133975e+000
      vertex -6.650000e+001  2.086603e+001  5.000000e-001
    endloop
  endfacet
  facet normal -2.505628e-001  2.505627e-001 -9.351131e-001
    outer loop
      vertex -6.650000e+001  2.000000e+001  2.679492e-001
      vertex -6.650000e+001  2.086603e+001  5.000000e-001
      vertex -6.550000e+001  2.000000e+001  0.000000e+000
    endloop
  endfacet
  facet normal -2.505627e-001  2.505628e-001 -9.351132e-001
    outer loop
      vertex -6.550000e+001  2.000000e+001  0.000000e+000
      vertex -6.650000e+001  2.086603e+001  5.000000e-001
      vertex -6.550000e+001  2.100000e+001  2.679492e-001
    endloop
  endfacet
  facet normal -6.947476e-001  6.947458e-001 -1.861559e-001
    outer loop
      vertex -6.723205e+001  2.086603e+001  1.500000e+000
      vertex -6.723205e+001  2.100000e+001  2.000000e+000
      vertex -6.650000e+001  2.150000e+001  1.133975e+000
    endloop
  endfacet
  facet normal -6.947476e-001  6.947458e-001 -1.861559e-001
    outer loop
      vertex -6.650000e+001  2.150000e+001  1.133975e+000
      vertex -6.723205e+001  2.100000e+001  2.000000e+000
      vertex -6.650000e+001  2.173205e+001  2.000000e+000
    endloop
  endfacet
  facet normal -2.505620e-001  9.351135e-001 -2.505620e-001
    outer loop
      vertex -6.650000e+001  2.150000e+001  1.133975e+000
      vertex -6.650000e+001  2.173205e+001  2.000000e+000
      vertex -6.550000e+001  2.173205e+001  1.000000e+000
    endloop
  endfacet
  facet normal -2.505635e-001  9.351127e-001 -2.505635e-001
    outer loop
      vertex -6.550000e+001  2.173205e+001  1.000000e+000
      vertex -6.650000e+001  2.173205e+001  2.000000e+000
      vertex -6.550000e+001  2.200000e+001  2.000000e+000
    endloop
  endfacet
  facet normal -6.947481e-001  5.085883e-001 -5.085890e-001
    outer loop
      vertex -6.723205e+001  2.050000e+001  1.133975e+000
      vertex -6.723205e+001  2.086603e+001  1.500000e+000
      vertex -6.650000e+001  2.086603e+001  5.000000e-001
    endloop
  endfacet
  facet normal -6.947478e-001  5.085891e-001 -5.085888e-001
    outer loop
      vertex -6.650000e+001  2.086603e+001  5.000000e-001
      vertex -6.723205e+001  2.086603e+001  1.500000e+000
      vertex -6.650000e+001  2.150000e+001  1.133975e+000
    endloop
  endfacet
  facet normal -2.505625e-001  6.845506e-001 -6.845501e-001
    outer loop
      vertex -6.650000e+001  2.086603e+001  5.000000e-001
      vertex -6.650000e+001  2.150000e+001  1.133975e+000
      vertex -6.550000e+001  2.100000e+001  2.679492e-001
    endloop
  endfacet
  facet normal -2.505623e-001  6.845508e-001 -6.845500e-001
    outer loop
      vertex -6.550000e+001  2.100000e+001  2.679492e-001
      vertex -6.650000e+001  2.150000e+001  1.133975e+000
      vertex -6.550000e+001  2.173205e+001  1.000000e+000
    endloop
  endfacet
  facet normal -9.659252e-001  -0.000000e+000 -2.588215e-001
    outer loop
      vertex -6.750000e+001 -2.000000e+001  2.000000e+000
      vertex -6.750000e+001  2.000000e+001  2.000000e+000
      vertex -6.723205e+001 -2.000000e+001  1.000000e+000
    endloop
  endfacet
  facet normal -9.659252e-001  0.000000e+000 -2.588215e-001
    outer loop
      vertex -6.723205e+001 -2.000000e+001  1.000000e+000
      vertex -6.750000e+001  2.000000e+001  2.000000e+000
      vertex -6.723205e+001  2.000000e+001  1.000000e+000
    endloop
  endfacet
  facet normal -7.071081e-001  -0.000000e+000 -7.071055e-001
    outer loop
      vertex -6.723205e+001 -2.000000e+001  1.000000e+000
      vertex -6.723205e+001  2.000000e+001  1.000000e+000
      vertex -6.650000e+001 -2.000000e+001  2.679492e-001
    endloop
  endfacet
  facet normal -7.071081e-001  0.000000e+000 -7.071055e-001
    outer loop
      vertex -6.650000e+001 -2.000000e+001  2.679492e-001
      vertex -6.723205e+001  2.000000e+001  1.000000e+000
      vertex -6.650000e+001  2.000000e+001  2.679492e-001
    endloop
  endfacet
  facet normal -2.588190e-001  -0.000000e+000 -9.659258e-001
    outer loop
      vertex -6.650000e+001 -2.000000e+001  2.679492e-001
      vertex -6.650000e+001  2.000000e+001  2.679492e-001
      vertex -6.550000e+001 -2.000000e+001  0.000000e+000
    endloop
  endfacet
  facet normal -2.588190e-001  0.000000e+000 -9.659258e-001
    outer loop
      vertex -6.550000e+001 -2.000000e+001  0.000000e+000
      vertex -6.650000e+001  2.000000e+001  2.679492e-001
      vertex -6.550000e+001  2.000000e+001  0.000000e+000
    endloop
  endfacet
  facet normal -9.636107e-001 -6.918483e-002 -2.582014e-001
    outer loop
      vertex -6.750000e+001 -2.000000e+001  2.000000e+000
      vertex -6.723205e+001 -2.000000e+001  1.000000e+000
      vertex -6.723205e+001 -2.050000e+001  1.133975e+000
    endloop
  endfacet
  facet normal -9.636106e-001 -1.890164e-001 -1.890166e-001
    outer loop
      vertex -6.750000e+001 -2.000000e+001  2.000000e+000
      vertex -6.723205e+001 -2.050000e+001  1.133975e+000
      vertex -6.723205e+001 -2.086603e+001  1.500000e+000
    endloop
  endfacet
  facet normal -9.636107e-001 -2.582014e-001 -6.918459e-002
    outer loop
      vertex -6.750000e+001 -2.000000e+001  2.000000e+000
      vertex -6.723205e+001 -2.086603e+001  1.500000e+000
      vertex -6.723205e+001 -2.100000e+001  2.000000e+000
    endloop
  endfacet
  facet normal -6.947476e-001 -6.947458e-001 -1.861559e-001
    outer loop
      vertex -6.723205e+001 -2.100000e+001  2.000000e+000
      vertex -6.723205e+001 -2.086603e+001  1.500000e+000
      vertex -6.650000e+001 -2.173205e+001  2.000000e+000
    endloop
  endfacet
  facet normal -6.947476e-001 -6.947458e-001 -1.861559e-001
    outer loop
      vertex -6.650000e+001 -2.173205e+001  2.000000e+000
      vertex -6.723205e+001 -2.086603e+001  1.500000e+000
      vertex -6.650000e+001 -2.150000e+001  1.133975e+000
    endloop
  endfacet
  facet normal -2.505637e-001 -9.351133e-001 -2.505619e-001
    outer loop
      vertex -6.650000e+001 -2.173205e+001  2.000000e+000
      vertex -6.650000e+001 -2.150000e+001  1.133975e+000
      vertex -6.550000e+001 -2.200000e+001  2.000000e+000
    endloop
  endfacet
  facet normal -2.505621e-001 -9.351131e-001 -2.505636e-001
    outer loop
      vertex -6.550000e+001 -2.200000e+001  2.000000e+000
      vertex -6.650000e+001 -2.150000e+001  1.133975e+000
      vertex -6.550000e+001 -2.173205e+001  1.000000e+000
    endloop
  endfacet
  facet normal -6.947480e-001 -1.861564e-001 -6.947453e-001
    outer loop
      vertex -6.723205e+001 -2.050000e+001  1.133975e+000
      vertex -6.723205e+001 -2.000000e+001  1.000000e+000
      vertex -6.650000e+001 -2.086603e+001  5.000000e-001
    endloop
  endfacet
  facet normal -6.947480e-001 -1.861563e-001 -6.947454e-001
    outer loop
      vertex -6.650000e+001 -2.086603e+001  5.000000e-001
      vertex -6.723205e+001 -2.000000e+001  1.000000e+000
      vertex -6.650000e+001 -2.000000e+001  2.679492e-001
    endloop
  endfacet
  facet normal -2.505627e-001 -2.505627e-001 -9.351133e-001
    outer loop
      vertex -6.650000e+001 -2.086603e+001  5.000000e-001
      vertex -6.650000e+001 -2.000000e+001  2.679492e-001
      vertex -6.550000e+001 -2.100000e+001  2.679492e-001
    endloop
  endfacet
  facet normal -2.505628e-001 -2.505628e-001 -9.351131e-001
    outer loop
      vertex -6.550000e+001 -2.100000e+001  2.679492e-001
      vertex -6.650000e+001 -2.000000e+001  2.679492e-001
      vertex -6.550000e+001 -2.000000e+001  0.000000e+000
    endloop
  endfacet
  facet normal -6.947477e-001 -5.085887e-001 -5.085893e-001
    outer loop
      vertex -6.723205e+001 -2.086603e+001  1.500000e+000
      vertex -6.723205e+001 -2.050000e+001  1.133975e+000
      vertex -6.650000e+001 -2.150000e+001  1.133975e+000
    endloop
  endfacet
  facet normal -6.947481e-001 -5.085890e-001 -5.085886e-001
    outer loop
      vertex -6.650000e+001 -2.150000e+001  1.133975e+000
      vertex -6.723205e+001 -2.050000e+001  1.133975e+000
      vertex -6.650000e+001 -2.086603e+001  5.000000e-001
    endloop
  endfacet
  facet normal -2.505623e-001 -6.845507e-001 -6.845502e-001
    outer loop
      vertex -6.650000e+001 -2.150000e+001  1.133975e+000
      vertex -6.650000e+001 -2.086603e+001  5.000000e-001
      vertex -6.550000e+001 -2.173205e+001  1.000000e+000
    endloop
  endfacet
  facet normal -2.505624e-001 -6.845508e-001 -6.845500e-001
    outer loop
      vertex -6.550000e+001 -2.173205e+001  1.000000e+000
      vertex -6.650000e+001 -2.086603e+001  5.000000e-001
      vertex -6.550000e+001 -2.100000e+001  2.679492e-001
    endloop
  endfacet
  facet normal -2.588198e-001 -9.659256e-001  -0.000000e+000
    outer loop
      vertex -6.550000e+001 -2.200000e+001  2.000000e+000
      vertex -6.550000e+001 -2.200000e+001  2.600000e+001
      vertex -6.650000e+001 -2.173205e+001  2.000000e+000
    endloop
  endfacet
  facet normal -2.588198e-001 -9.659256e-001  0.000000e+000
    outer loop
      vertex -6.650000e+001 -2.173205e+001  2.000000e+000
      vertex -6.550000e+001 -2.200000e+001  2.600000e+001
      vertex -6.650000e+001 -2.173205e+001  2.600000e+001
    endloop
  endfacet
  facet normal -7.071077e-001 -7.071058e-001  -0.000000e+000
    outer loop
      vertex -6.650000e+001 -2.173205e+001  2.000000e+000
      vertex -6.650000e+001 -2.173205e+001  2.600000e+001
      vertex -6.723205e+001 -2.100000e+001  2.000000e+000
    endloop
  endfacet
  facet normal -7.071077e-001 -7.071058e-001  0.000000e+000
    outer loop
      vertex -6.723205e+001 -2.100000e+001  2.000000e+000
      vertex -6.650000e+001 -2.173205e+001  2.600000e+001
      vertex -6.723205e+001 -2.100000e+001  2.600000e+001
    endloop
  endfacet
  facet normal -9.659252e-001 -2.588215e-001  -0.000000e+000
    outer loop
      vertex -6.723205e+001 -2.100000e+001  2.000000e+000
      vertex -6.723205e+001 -2.100000e+001  2.600000e+001
      vertex -6.750000e+001 -2.000000e+001  2.000000e+000
    endloop
  endfacet
  facet normal -9.659252e-001 -2.588215e-001  0.000000e+000
    outer loop
      vertex -6.750000e+001 -2.000000e+001  2.000000e+000
      vertex -6.723205e+001 -2.100000e+001  2.600000e+001
      vertex -6.750000e+001 -2.000000e+001  2.600000e+001
    endloop
  endfacet
  facet normal -9.636107e-001 -2.582014e-001  6.918459e-002
    outer loop
      vertex -6.750000e+001 -2.000000e+001  2.600000e+001
      vertex -6.723205e+001 -2.100000e+001  2.600000e+001
      vertex -6.723205e+001 -2.086603e+001  2.650000e+001
    endloop
  endfacet
  facet normal -9.636106e-001 -1.890164e-001  1.890164e-001
    outer loop
      vertex -6.750000e+001 -2.000000e+001  2.600000e+001
      vertex -6.723205e+001 -2.086603e+001  2.650000e+001
      vertex -6.723205e+001 -2.050000e+001  2.686603e+001
    endloop
  endfacet
  facet normal -9.636107e-001 -6.918459e-002  2.582014e-001
    outer loop
      vertex -6.750000e+001 -2.000000e+001  2.600000e+001
      vertex -6.723205e+001 -2.050000e+001  2.686603e+001
      vertex -6.723205e+001 -2.000000e+001  2.700000e+001
    endloop
  endfacet
  facet normal -6.947476e-001 -1.861558e-001  6.947457e-001
    outer loop
      vertex -6.723205e+001 -2.000000e+001  2.700000e+001
      vertex -6.723205e+001 -2.050000e+001  2.686603e+001
      vertex -6.650000e+001 -2.000000e+001  2.773205e+001
    endloop
  endfacet
  facet normal -6.947476e-001 -1.861558e-001  6.947458e-001
    outer loop
      vertex -6.650000e+001 -2.000000e+001  2.773205e+001
      vertex -6.723205e+001 -2.050000e+001  2.686603e+001
      vertex -6.650000e+001 -2.086603e+001  2.750000e+001
    endloop
  endfacet
  facet normal -2.505637e-001 -2.505617e-001  9.351133e-001
    outer loop
      vertex -6.650000e+001 -2.000000e+001  2.773205e+001
      vertex -6.650000e+001 -2.086603e+001  2.750000e+001
      vertex -6.550000e+001 -2.000000e+001  2.800000e+001
    endloop
  endfacet
  facet normal -2.505620e-001 -2.505636e-001  9.351131e-001
    outer loop
      vertex -6.550000e+001 -2.000000e+001  2.800000e+001
      vertex -6.650000e+001 -2.086603e+001  2.750000e+001
      vertex -6.550000e+001 -2.100000e+001  2.773205e+001
    endloop
  endfacet
  facet normal -6.947477e-001 -6.947457e-001  1.861558e-001
    outer loop
      vertex -6.723205e+001 -2.086603e+001  2.650000e+001
      vertex -6.723205e+001 -2.100000e+001  2.600000e+001
      vertex -6.650000e+001 -2.150000e+001  2.686603e+001
    endloop
  endfacet
  facet normal -6.947476e-001 -6.947459e-001  1.861558e-001
    outer loop
      vertex -6.650000e+001 -2.150000e+001  2.686603e+001
      vertex -6.723205e+001 -2.100000e+001  2.600000e+001
      vertex -6.650000e+001 -2.173205e+001  2.600000e+001
    endloop
  endfacet
  facet normal -2.505619e-001 -9.351136e-001  2.505619e-001
    outer loop
      vertex -6.650000e+001 -2.150000e+001  2.686603e+001
      vertex -6.650000e+001 -2.173205e+001  2.600000e+001
      vertex -6.550000e+001 -2.173205e+001  2.700000e+001
    endloop
  endfacet
  facet normal -2.505635e-001 -9.351127e-001  2.505635e-001
    outer loop
      vertex -6.550000e+001 -2.173205e+001  2.700000e+001
      vertex -6.650000e+001 -2.173205e+001  2.600000e+001
      vertex -6.550000e+001 -2.200000e+001  2.600000e+001
    endloop
  endfacet
  facet normal -6.947479e-001 -5.085889e-001  5.085889e-001
    outer loop
      vertex -6.723205e+001 -2.050000e+001  2.686603e+001
      vertex -6.723205e+001 -2.086603e+001  2.650000e+001
      vertex -6.650000e+001 -2.086603e+001  2.750000e+001
    endloop
  endfacet
  facet normal -6.947480e-001 -5.085889e-001  5.085889e-001
    outer loop
      vertex -6.650000e+001 -2.086603e+001  2.750000e+001
      vertex -6.723205e+001 -2.086603e+001  2.650000e+001
      vertex -6.650000e+001 -2.150000e+001  2.686603e+001
    endloop
  endfacet
  facet normal -2.505620e-001 -6.845505e-001  6.845505e-001
    outer loop
      vertex -6.650000e+001 -2.086603e+001  2.750000e+001
      vertex -6.650000e+001 -2.150000e+001  2.686603e+001
      vertex -6.550000e+001 -2.100000e+001  2.773205e+001
    endloop
  endfacet
  facet normal -2.505619e-001 -6.845505e-001  6.845505e-001
    outer loop
      vertex -6.550000e+001 -2.100000e+001  2.773205e+001
      vertex -6.650000e+001 -2.150000e+001  2.686603e+001
      vertex -6.550000e+001 -2.173205e+001  2.700000e+001
    endloop
  endfacet
  facet normal -2.588198e-001  0.000000e+000  9.659256e-001
    outer loop
      vertex -6.550000e+001 -2.000000e+001  2.800000e+001
      vertex -6.550000e+001  2.000000e+001  2.800000e+001
      vertex -6.650000e+001 -2.000000e+001  2.773205e+001
    endloop
  endfacet
  facet normal -2.588198e-001  0.000000e+000  9.659256e-001
    outer loop
      vertex -6.650000e+001 -2.000000e+001  2.773205e+001
      vertex -6.550000e+001  2.000000e+001  2.800000e+001
      vertex -6.650000e+001  2.000000e+001  2.773205e+001
    endloop
  endfacet
  facet normal -7.071077e-001  0.000000e+000  7.071059e-001
    outer loop
      vertex -6.650000e+001 -2.000000e+001  2.773205e+001
      vertex -6.650000e+001  2.000000e+001  2.773205e+001
      vertex -6.723205e+001 -2.000000e+001  2.700000e+001
    endloop
  endfacet
  facet normal -7.071077e-001  0.000000e+000  7.071059e-001
    outer loop
      vertex -6.723205e+001 -2.000000e+001  2.700000e+001
      vertex -6.650000e+001  2.000000e+001  2.773205e+001
      vertex -6.723205e+001  2.000000e+001  2.700000e+001
    endloop
  endfacet
  facet normal -9.659252e-001  0.000000e+000  2.588215e-001
    outer loop
      vertex -6.723205e+001 -2.000000e+001  2.700000e+001
      vertex -6.723205e+001  2.000000e+001  2.700000e+001
      vertex -6.750000e+001 -2.000000e+001  2.600000e+001
    endloop
  endfacet
  facet normal -9.659252e-001  0.000000e+000  2.588215e-001
    outer loop
      vertex -6.750000e+001 -2.000000e+001  2.600000e+001
      vertex -6.723205e+001  2.000000e+001  2.700000e+001
      vertex -6.750000e+001  2.000000e+001  2.600000e+001
    endloop
  endfacet
  facet normal -9.636107e-001  6.918459e-002  2.582014e-001
    outer loop
      vertex -6.750000e+001  2.000000e+001  2.600000e+001
      vertex -6.723205e+001  2.000000e+001  2.700000e+001
      vertex -6.723205e+001  2.050000e+001  2.686603e+001
    endloop
  endfacet
  facet normal -9.636106e-001  1.890164e-001  1.890164e-001
    outer loop
      vertex -6.750000e+001  2.000000e+001  2.600000e+001
      vertex -6.723205e+001  2.050000e+001  2.686603e+001
      vertex -6.723205e+001  2.086603e+001  2.650000e+001
    endloop
  endfacet
  facet normal -9.636107e-001  2.582014e-001  6.918459e-002
    outer loop
      vertex -6.750000e+001  2.000000e+001  2.600000e+001
      vertex -6.723205e+001  2.086603e+001  2.650000e+001
      vertex -6.723205e+001  2.100000e+001  2.600000e+001
    endloop
  endfacet
  facet normal -6.947476e-001  6.947458e-001  1.861559e-001
    outer loop
      vertex -6.723205e+001  2.100000e+001  2.600000e+001
      vertex -6.723205e+001  2.086603e+001  2.650000e+001
      vertex -6.650000e+001  2.173205e+001  2.600000e+001
    endloop
  endfacet
  facet normal -6.947476e-001  6.947458e-001  1.861558e-001
    outer loop
      vertex -6.650000e+001  2.173205e+001  2.600000e+001
      vertex -6.723205e+001  2.086603e+001  2.650000e+001
      vertex -6.650000e+001  2.150000e+001  2.686603e+001
    endloop
  endfacet
  facet normal -2.505637e-001  9.351133e-001  2.505617e-001
    outer loop
      vertex -6.650000e+001  2.173205e+001  2.600000e+001
      vertex -6.650000e+001  2.150000e+001  2.686603e+001
      vertex -6.550000e+001  2.200000e+001  2.600000e+001
    endloop
  endfacet
  facet normal -2.505620e-001  9.351131e-001  2.505636e-001
    outer loop
      vertex -6.550000e+001  2.200000e+001  2.600000e+001
      vertex -6.650000e+001  2.150000e+001  2.686603e+001
      vertex -6.550000e+001  2.173205e+001  2.700000e+001
    endloop
  endfacet
  facet normal -6.947477e-001  1.861558e-001  6.947457e-001
    outer loop
      vertex -6.723205e+001  2.050000e+001  2.686603e+001
      vertex -6.723205e+001  2.000000e+001  2.700000e+001
      vertex -6.650000e+001  2.086603e+001  2.750000e+001
    endloop
  endfacet
  facet normal -6.947476e-001  1.861558e-001  6.947459e-001
    outer loop
      vertex -6.650000e+001  2.086603e+001  2.750000e+001
      vertex -6.723205e+001  2.000000e+001  2.700000e+001
      vertex -6.650000e+001  2.000000e+001  2.773205e+001
    endloop
  endfacet
  facet normal -2.505619e-001  2.505619e-001  9.351136e-001
    outer loop
      vertex -6.650000e+001  2.086603e+001  2.750000e+001
      vertex -6.650000e+001  2.000000e+001  2.773205e+001
      vertex -6.550000e+001  2.100000e+001  2.773205e+001
    endloop
  endfacet
  facet normal -2.505635e-001  2.505635e-001  9.351127e-001
    outer loop
      vertex -6.550000e+001  2.100000e+001  2.773205e+001
      vertex -6.650000e+001  2.000000e+001  2.773205e+001
      vertex -6.550000e+001  2.000000e+001  2.800000e+001
    endloop
  endfacet
  facet normal -6.947479e-001  5.085889e-001  5.085889e-001
    outer loop
      vertex -6.723205e+001  2.086603e+001  2.650000e+001
      vertex -6.723205e+001  2.050000e+001  2.686603e+001
      vertex -6.650000e+001  2.150000e+001  2.686603e+001
    endloop
  endfacet
  facet normal -6.947480e-001  5.085889e-001  5.085889e-001
    outer loop
      vertex -6.650000e+001  2.150000e+001  2.686603e+001
      vertex -6.723205e+001  2.050000e+001  2.686603e+001
      vertex -6.650000e+001  2.086603e+001  2.750000e+001
    endloop
  endfacet
  facet normal -2.505620e-001  6.845505e-001  6.845505e-001
    outer loop
      vertex -6.650000e+001  2.150000e+001  2.686603e+001
      vertex -6.650000e+001  2.086603e+001  2.750000e+001
      vertex -6.550000e+001  2.173205e+001  2.700000e+001
    endloop
  endfacet
  facet normal -2.505619e-001  6.845505e-001  6.845505e-001
    outer loop
      vertex -6.550000e+001  2.173205e+001  2.700000e+001
      vertex -6.650000e+001  2.086603e+001  2.750000e+001
      vertex -6.550000e+001  2.100000e+001  2.773205e+001
    endloop
  endfacet
  facet normal -9.659252e-001  2.588215e-001  0.000000e+000
    outer loop
      vertex -6.750000e+001  2.000000e+001  2.000000e+000
      vertex -6.750000e+001  2.000000e+001  2.600000e+001
      vertex -6.723205e+001  2.100000e+001  2.000000e+000
    endloop
  endfacet
  facet normal -9.659252e-001  2.588215e-001  0.000000e+000
    outer loop
      vertex -6.723205e+001  2.100000e+001  2.000000e+000
      vertex -6.750000e+001  2.000000e+001  2.600000e+001
      vertex -6.723205e+001  2.100000e+001  2.600000e+001
    endloop
  endfacet
  facet normal -7.071077e-001  7.071058e-001  0.000000e+000
    outer loop
      vertex -6.723205e+001  2.100000e+001  2.000000e+000
      vertex -6.723205e+001  2.100000e+001  2.600000e+001
      vertex -6.650000e+001  2.173205e+001  2.000000e+000
    endloop
  endfacet
  facet normal -7.071077e-001  7.071058e-001  0.000000e+000
    outer loop
      vertex -6.650000e+001  2.173205e+001  2.000000e+000
      vertex -6.723205e+001  2.100000e+001  2.600000e+001
      vertex -6.650000e+001  2.173205e+001  2.600000e+001
    endloop
  endfacet
  facet normal -2.588198e-001  9.659256e-001  0.000000e+000
    outer loop
      vertex -6.650000e+001  2.173205e+001  2.000000e+000
      vertex -6.650000e+001  2.173205e+001  2.600000e+001
      vertex -6.550000e+001  2.200000e+001  2.000000e+000
    endloop
  endfacet
  facet normal -2.588198e-001  9.659256e-001  0.000000e+000
    outer loop
      vertex -6.550000e+001  2.200000e+001  2.000000e+000
      vertex -6.650000e+001  2.173205e+001  2.600000e+001
      vertex -6.550000e+001  2.200000e+001  2.600000e+001
    endloop
  endfacet
endsolid CATIA STL
