solid CATIA STL
  facet normal  0.000000e+000  0.000000e+000 -1.000000e+000
    outer loop
      vertex  1.500000e+001  1.429000e+001 -2.800000e+001
      vertex  6.717142e+000  1.429000e+001 -2.800000e+001
      vertex  1.500000e+001  1.579000e+001 -2.800000e+001
    endloop
  endfacet
  facet normal  0.000000e+000  0.000000e+000 -1.000000e+000
    outer loop
      vertex  1.500000e+001  1.579000e+001 -2.800000e+001
      vertex  6.717142e+000  1.429000e+001 -2.800000e+001
      vertex  0.000000e+000  1.429000e+001 -2.800000e+001
    endloop
  endfacet
  facet normal  0.000000e+000  0.000000e+000 -1.000000e+000
    outer loop
      vertex  1.500000e+001  1.579000e+001 -2.800000e+001
      vertex  0.000000e+000  1.429000e+001 -2.800000e+001
      vertex -6.557321e-016  1.579000e+001 -2.800000e+001
    endloop
  endfacet
  facet normal  -0.000000e+000  0.000000e+000 -1.000000e+000
    outer loop
      vertex  0.000000e+000  1.429000e+001 -2.800000e+001
      vertex  6.717142e+000  1.429000e+001 -2.800000e+001
      vertex  3.179824e+000  1.393172e+001 -2.800000e+001
    endloop
  endfacet
  facet normal  0.000000e+000  0.000000e+000 -1.000000e+000
    outer loop
      vertex  3.179824e+000  1.393172e+001 -2.800000e+001
      vertex  6.717142e+000  1.429000e+001 -2.800000e+001
      vertex  9.276724e+000  1.277758e+001 -2.800000e+001
    endloop
  endfacet
  facet normal  0.000000e+000  0.000000e+000 -1.000000e+000
    outer loop
      vertex  3.179824e+000  1.393172e+001 -2.800000e+001
      vertex  9.276724e+000  1.277758e+001 -2.800000e+001
      vertex  6.200199e+000  1.287485e+001 -2.800000e+001
    endloop
  endfacet
  facet normal  0.000000e+000  0.000000e+000 -1.000000e+000
    outer loop
      vertex  6.200199e+000  1.287485e+001 -2.800000e+001
      vertex  9.276724e+000  1.277758e+001 -2.800000e+001
      vertex  1.150743e+001  1.081217e+001 -2.800000e+001
    endloop
  endfacet
  facet normal  0.000000e+000  0.000000e+000 -1.000000e+000
    outer loop
      vertex  6.200199e+000  1.287485e+001 -2.800000e+001
      vertex  1.150743e+001  1.081217e+001 -2.800000e+001
      vertex  8.909669e+000  1.117237e+001 -2.800000e+001
    endloop
  endfacet
  facet normal  0.000000e+000  0.000000e+000 -1.000000e+000
    outer loop
      vertex  8.909669e+000  1.117237e+001 -2.800000e+001
      vertex  1.150743e+001  1.081217e+001 -2.800000e+001
      vertex  1.333019e+001  8.463464e+000 -2.800000e+001
    endloop
  endfacet
  facet normal  0.000000e+000  0.000000e+000 -9.999999e-001
    outer loop
      vertex  8.909669e+000  1.117237e+001 -2.800000e+001
      vertex  1.333019e+001  8.463464e+000 -2.800000e+001
      vertex  1.117237e+001  8.909669e+000 -2.800000e+001
    endloop
  endfacet
  facet normal  0.000000e+000  0.000000e+000 -1.000000e+000
    outer loop
      vertex  1.117237e+001  8.909669e+000 -2.800000e+001
      vertex  1.333019e+001  8.463464e+000 -2.800000e+001
      vertex  1.468037e+001  5.814712e+000 -2.800000e+001
    endloop
  endfacet
  facet normal  0.000000e+000  0.000000e+000 -1.000000e+000
    outer loop
      vertex  1.117237e+001  8.909669e+000 -2.800000e+001
      vertex  1.468037e+001  5.814712e+000 -2.800000e+001
      vertex  1.287485e+001  6.200199e+000 -2.800000e+001
    endloop
  endfacet
  facet normal  0.000000e+000  0.000000e+000 -1.000000e+000
    outer loop
      vertex  1.287485e+001  6.200199e+000 -2.800000e+001
      vertex  1.468037e+001  5.814712e+000 -2.800000e+001
      vertex  1.551011e+001  2.959821e+000 -2.800000e+001
    endloop
  endfacet
  facet normal  0.000000e+000  0.000000e+000 -1.000000e+000
    outer loop
      vertex  1.287485e+001  6.200199e+000 -2.800000e+001
      vertex  1.551011e+001  2.959821e+000 -2.800000e+001
      vertex  1.393172e+001  3.179824e+000 -2.800000e+001
    endloop
  endfacet
  facet normal  0.000000e+000  0.000000e+000 -1.000000e+000
    outer loop
      vertex  1.393172e+001  3.179824e+000 -2.800000e+001
      vertex  1.551011e+001  2.959821e+000 -2.800000e+001
      vertex  1.579000e+001  0.000000e+000 -2.800000e+001
    endloop
  endfacet
  facet normal  0.000000e+000  0.000000e+000 -1.000000e+000
    outer loop
      vertex  1.393172e+001  3.179824e+000 -2.800000e+001
      vertex  1.579000e+001  0.000000e+000 -2.800000e+001
      vertex  1.429000e+001  0.000000e+000 -2.800000e+001
    endloop
  endfacet
  facet normal  0.000000e+000  -0.000000e+000  1.000000e+000
    outer loop
      vertex -6.557321e-016  1.579000e+001  0.000000e+000
      vertex  0.000000e+000  1.429000e+001  0.000000e+000
      vertex  1.500000e+001  1.579000e+001  0.000000e+000
    endloop
  endfacet
  facet normal  0.000000e+000  0.000000e+000  1.000000e+000
    outer loop
      vertex  1.500000e+001  1.579000e+001  0.000000e+000
      vertex  0.000000e+000  1.429000e+001  0.000000e+000
      vertex  6.717142e+000  1.429000e+001  0.000000e+000
    endloop
  endfacet
  facet normal  0.000000e+000  0.000000e+000  1.000000e+000
    outer loop
      vertex  1.500000e+001  1.579000e+001  0.000000e+000
      vertex  6.717142e+000  1.429000e+001  0.000000e+000
      vertex  1.500000e+001  1.429000e+001  0.000000e+000
    endloop
  endfacet
  facet normal  0.000000e+000  0.000000e+000  1.000000e+000
    outer loop
      vertex  1.429000e+001  0.000000e+000  0.000000e+000
      vertex  1.579000e+001  0.000000e+000  0.000000e+000
      vertex  1.393172e+001  3.179824e+000  0.000000e+000
    endloop
  endfacet
  facet normal  0.000000e+000  0.000000e+000  1.000000e+000
    outer loop
      vertex  1.393172e+001  3.179824e+000  0.000000e+000
      vertex  1.579000e+001  0.000000e+000  0.000000e+000
      vertex  1.551011e+001  2.959821e+000  0.000000e+000
    endloop
  endfacet
  facet normal  0.000000e+000  0.000000e+000  1.000000e+000
    outer loop
      vertex  1.393172e+001  3.179824e+000  0.000000e+000
      vertex  1.551011e+001  2.959821e+000  0.000000e+000
      vertex  1.287485e+001  6.200199e+000  0.000000e+000
    endloop
  endfacet
  facet normal  0.000000e+000  0.000000e+000  1.000000e+000
    outer loop
      vertex  1.287485e+001  6.200199e+000  0.000000e+000
      vertex  1.551011e+001  2.959821e+000  0.000000e+000
      vertex  1.468037e+001  5.814712e+000  0.000000e+000
    endloop
  endfacet
  facet normal  0.000000e+000  0.000000e+000  1.000000e+000
    outer loop
      vertex  1.287485e+001  6.200199e+000  0.000000e+000
      vertex  1.468037e+001  5.814712e+000  0.000000e+000
      vertex  1.117237e+001  8.909669e+000  0.000000e+000
    endloop
  endfacet
  facet normal  0.000000e+000  0.000000e+000  1.000000e+000
    outer loop
      vertex  1.117237e+001  8.909669e+000  0.000000e+000
      vertex  1.468037e+001  5.814712e+000  0.000000e+000
      vertex  1.333019e+001  8.463464e+000  0.000000e+000
    endloop
  endfacet
  facet normal  0.000000e+000  0.000000e+000  9.999999e-001
    outer loop
      vertex  1.117237e+001  8.909669e+000  0.000000e+000
      vertex  1.333019e+001  8.463464e+000  0.000000e+000
      vertex  8.909669e+000  1.117237e+001  0.000000e+000
    endloop
  endfacet
  facet normal  0.000000e+000  0.000000e+000  1.000000e+000
    outer loop
      vertex  8.909669e+000  1.117237e+001  0.000000e+000
      vertex  1.333019e+001  8.463464e+000  0.000000e+000
      vertex  1.150743e+001  1.081217e+001  0.000000e+000
    endloop
  endfacet
  facet normal  0.000000e+000  0.000000e+000  1.000000e+000
    outer loop
      vertex  8.909669e+000  1.117237e+001  0.000000e+000
      vertex  1.150743e+001  1.081217e+001  0.000000e+000
      vertex  6.200199e+000  1.287485e+001  0.000000e+000
    endloop
  endfacet
  facet normal  0.000000e+000  0.000000e+000  1.000000e+000
    outer loop
      vertex  6.200199e+000  1.287485e+001  0.000000e+000
      vertex  1.150743e+001  1.081217e+001  0.000000e+000
      vertex  9.276724e+000  1.277758e+001  0.000000e+000
    endloop
  endfacet
  facet normal  0.000000e+000  0.000000e+000  1.000000e+000
    outer loop
      vertex  6.200199e+000  1.287485e+001  0.000000e+000
      vertex  9.276724e+000  1.277758e+001  0.000000e+000
      vertex  3.179824e+000  1.393172e+001  0.000000e+000
    endloop
  endfacet
  facet normal  -0.000000e+000  0.000000e+000  1.000000e+000
    outer loop
      vertex  3.179824e+000  1.393172e+001  0.000000e+000
      vertex  9.276724e+000  1.277758e+001  0.000000e+000
      vertex  6.717142e+000  1.429000e+001  0.000000e+000
    endloop
  endfacet
  facet normal  0.000000e+000  0.000000e+000  1.000000e+000
    outer loop
      vertex  3.179824e+000  1.393172e+001  0.000000e+000
      vertex  6.717142e+000  1.429000e+001  0.000000e+000
      vertex  0.000000e+000  1.429000e+001  0.000000e+000
    endloop
  endfacet
  facet normal  0.000000e+000 -1.000000e+000  0.000000e+000
    outer loop
      vertex  1.429000e+001  0.000000e+000  0.000000e+000
      vertex  1.429000e+001  0.000000e+000 -2.800000e+001
      vertex  1.579000e+001  0.000000e+000  0.000000e+000
    endloop
  endfacet
  facet normal  0.000000e+000 -1.000000e+000  -0.000000e+000
    outer loop
      vertex  1.579000e+001  0.000000e+000  0.000000e+000
      vertex  1.429000e+001  0.000000e+000 -2.800000e+001
      vertex  1.579000e+001  0.000000e+000 -2.800000e+001
    endloop
  endfacet
  facet normal -5.320322e-001 -8.467241e-001  -0.000000e+000
    outer loop
      vertex  8.909669e+000  1.117237e+001 -2.800000e+001
      vertex  6.200199e+000  1.287485e+001  0.000000e+000
      vertex  6.200199e+000  1.287485e+001 -2.800000e+001
    endloop
  endfacet
  facet normal -3.302789e-001 -9.438834e-001  0.000000e+000
    outer loop
      vertex  6.200199e+000  1.287485e+001 -2.800000e+001
      vertex  6.200199e+000  1.287485e+001  0.000000e+000
      vertex  3.179824e+000  1.393172e+001  0.000000e+000
    endloop
  endfacet
  facet normal -3.302789e-001 -9.438834e-001  -0.000000e+000
    outer loop
      vertex  6.200199e+000  1.287485e+001 -2.800000e+001
      vertex  3.179824e+000  1.393172e+001  0.000000e+000
      vertex  3.179824e+000  1.393172e+001 -2.800000e+001
    endloop
  endfacet
  facet normal -1.119645e-001 -9.937122e-001  0.000000e+000
    outer loop
      vertex  3.179824e+000  1.393172e+001 -2.800000e+001
      vertex  3.179824e+000  1.393172e+001  0.000000e+000
      vertex  0.000000e+000  1.429000e+001  0.000000e+000
    endloop
  endfacet
  facet normal -1.119645e-001 -9.937122e-001  -0.000000e+000
    outer loop
      vertex  3.179824e+000  1.393172e+001 -2.800000e+001
      vertex  0.000000e+000  1.429000e+001  0.000000e+000
      vertex  0.000000e+000  1.429000e+001 -2.800000e+001
    endloop
  endfacet
  facet normal -5.320322e-001 -8.467241e-001  0.000000e+000
    outer loop
      vertex  6.200199e+000  1.287485e+001  0.000000e+000
      vertex  8.909669e+000  1.117237e+001 -2.800000e+001
      vertex  8.909669e+000  1.117237e+001  0.000000e+000
    endloop
  endfacet
  facet normal -7.071068e-001 -7.071068e-001  -0.000000e+000
    outer loop
      vertex  8.909669e+000  1.117237e+001  0.000000e+000
      vertex  8.909669e+000  1.117237e+001 -2.800000e+001
      vertex  1.117237e+001  8.909669e+000 -2.800000e+001
    endloop
  endfacet
  facet normal -7.071068e-001 -7.071068e-001  0.000000e+000
    outer loop
      vertex  8.909669e+000  1.117237e+001  0.000000e+000
      vertex  1.117237e+001  8.909669e+000 -2.800000e+001
      vertex  1.117237e+001  8.909669e+000  0.000000e+000
    endloop
  endfacet
  facet normal -8.467241e-001 -5.320322e-001  -0.000000e+000
    outer loop
      vertex  1.117237e+001  8.909669e+000  0.000000e+000
      vertex  1.117237e+001  8.909669e+000 -2.800000e+001
      vertex  1.287485e+001  6.200199e+000 -2.800000e+001
    endloop
  endfacet
  facet normal -8.467241e-001 -5.320322e-001  0.000000e+000
    outer loop
      vertex  1.117237e+001  8.909669e+000  0.000000e+000
      vertex  1.287485e+001  6.200199e+000 -2.800000e+001
      vertex  1.287485e+001  6.200199e+000  0.000000e+000
    endloop
  endfacet
  facet normal -9.438834e-001 -3.302789e-001  -0.000000e+000
    outer loop
      vertex  1.287485e+001  6.200199e+000  0.000000e+000
      vertex  1.287485e+001  6.200199e+000 -2.800000e+001
      vertex  1.393172e+001  3.179824e+000 -2.800000e+001
    endloop
  endfacet
  facet normal -9.438834e-001 -3.302789e-001  0.000000e+000
    outer loop
      vertex  1.287485e+001  6.200199e+000  0.000000e+000
      vertex  1.393172e+001  3.179824e+000 -2.800000e+001
      vertex  1.393172e+001  3.179824e+000  0.000000e+000
    endloop
  endfacet
  facet normal -9.937122e-001 -1.119645e-001  -0.000000e+000
    outer loop
      vertex  1.393172e+001  3.179824e+000  0.000000e+000
      vertex  1.393172e+001  3.179824e+000 -2.800000e+001
      vertex  1.429000e+001  0.000000e+000 -2.800000e+001
    endloop
  endfacet
  facet normal -9.937122e-001 -1.119645e-001  0.000000e+000
    outer loop
      vertex  1.393172e+001  3.179824e+000  0.000000e+000
      vertex  1.429000e+001  0.000000e+000 -2.800000e+001
      vertex  1.429000e+001  0.000000e+000  0.000000e+000
    endloop
  endfacet
  facet normal -1.000000e+000 -4.371547e-016  0.000000e+000
    outer loop
      vertex  0.000000e+000  1.429000e+001  0.000000e+000
      vertex -6.557321e-016  1.579000e+001  0.000000e+000
      vertex  0.000000e+000  1.429000e+001 -2.800000e+001
    endloop
  endfacet
  facet normal -1.000000e+000 -4.371547e-016  0.000000e+000
    outer loop
      vertex  0.000000e+000  1.429000e+001 -2.800000e+001
      vertex -6.557321e-016  1.579000e+001  0.000000e+000
      vertex -6.557321e-016  1.579000e+001 -2.800000e+001
    endloop
  endfacet
  facet normal  0.000000e+000  1.000000e+000  0.000000e+000
    outer loop
      vertex -6.557321e-016  1.579000e+001  0.000000e+000
      vertex  1.500000e+001  1.579000e+001  0.000000e+000
      vertex -6.557321e-016  1.579000e+001 -2.800000e+001
    endloop
  endfacet
  facet normal  0.000000e+000  1.000000e+000  0.000000e+000
    outer loop
      vertex -6.557321e-016  1.579000e+001 -2.800000e+001
      vertex  1.500000e+001  1.579000e+001  0.000000e+000
      vertex  1.500000e+001  1.579000e+001 -2.800000e+001
    endloop
  endfacet
  facet normal  1.000000e+000  -0.000000e+000  0.000000e+000
    outer loop
      vertex  1.500000e+001  1.579000e+001  0.000000e+000
      vertex  1.500000e+001  1.429000e+001  0.000000e+000
      vertex  1.500000e+001  1.579000e+001 -2.800000e+001
    endloop
  endfacet
  facet normal  1.000000e+000  0.000000e+000  0.000000e+000
    outer loop
      vertex  1.500000e+001  1.579000e+001 -2.800000e+001
      vertex  1.500000e+001  1.429000e+001  0.000000e+000
      vertex  1.500000e+001  1.429000e+001 -2.800000e+001
    endloop
  endfacet
  facet normal  0.000000e+000 -9.999999e-001  0.000000e+000
    outer loop
      vertex  1.500000e+001  1.429000e+001  0.000000e+000
      vertex  6.717142e+000  1.429000e+001  0.000000e+000
      vertex  1.500000e+001  1.429000e+001 -2.800000e+001
    endloop
  endfacet
  facet normal  0.000000e+000 -9.999999e-001  0.000000e+000
    outer loop
      vertex  1.500000e+001  1.429000e+001 -2.800000e+001
      vertex  6.717142e+000  1.429000e+001  0.000000e+000
      vertex  6.717142e+000  1.429000e+001 -2.800000e+001
    endloop
  endfacet
  facet normal  5.087147e-001  8.609352e-001  0.000000e+000
    outer loop
      vertex  6.717142e+000  1.429000e+001 -2.800000e+001
      vertex  6.717142e+000  1.429000e+001  0.000000e+000
      vertex  9.276724e+000  1.277758e+001 -2.800000e+001
    endloop
  endfacet
  facet normal  5.087147e-001  8.609352e-001  -0.000000e+000
    outer loop
      vertex  9.276724e+000  1.277758e+001 -2.800000e+001
      vertex  6.717142e+000  1.429000e+001  0.000000e+000
      vertex  9.276724e+000  1.277758e+001  0.000000e+000
    endloop
  endfacet
  facet normal  6.610792e-001  7.503161e-001  0.000000e+000
    outer loop
      vertex  9.276724e+000  1.277758e+001 -2.800000e+001
      vertex  9.276724e+000  1.277758e+001  0.000000e+000
      vertex  1.150743e+001  1.081217e+001 -2.800000e+001
    endloop
  endfacet
  facet normal  6.610792e-001  7.503161e-001  -0.000000e+000
    outer loop
      vertex  1.150743e+001  1.081217e+001 -2.800000e+001
      vertex  9.276724e+000  1.277758e+001  0.000000e+000
      vertex  1.150743e+001  1.081217e+001  0.000000e+000
    endloop
  endfacet
  facet normal  7.900071e-001  6.130978e-001  0.000000e+000
    outer loop
      vertex  1.150743e+001  1.081217e+001 -2.800000e+001
      vertex  1.150743e+001  1.081217e+001  0.000000e+000
      vertex  1.333019e+001  8.463464e+000 -2.800000e+001
    endloop
  endfacet
  facet normal  7.900071e-001  6.130978e-001  -0.000000e+000
    outer loop
      vertex  1.333019e+001  8.463464e+000 -2.800000e+001
      vertex  1.150743e+001  1.081217e+001  0.000000e+000
      vertex  1.333019e+001  8.463464e+000  0.000000e+000
    endloop
  endfacet
  facet normal  8.909283e-001  4.541440e-001  0.000000e+000
    outer loop
      vertex  1.333019e+001  8.463464e+000 -2.800000e+001
      vertex  1.333019e+001  8.463464e+000  0.000000e+000
      vertex  1.468037e+001  5.814712e+000 -2.800000e+001
    endloop
  endfacet
  facet normal  8.909283e-001  4.541440e-001  -0.000000e+000
    outer loop
      vertex  1.468037e+001  5.814712e+000 -2.800000e+001
      vertex  1.333019e+001  8.463464e+000  0.000000e+000
      vertex  1.468037e+001  5.814712e+000  0.000000e+000
    endloop
  endfacet
  facet normal  9.602647e-001  2.790906e-001  0.000000e+000
    outer loop
      vertex  1.468037e+001  5.814712e+000 -2.800000e+001
      vertex  1.468037e+001  5.814712e+000  0.000000e+000
      vertex  1.551011e+001  2.959821e+000 -2.800000e+001
    endloop
  endfacet
  facet normal  9.602647e-001  2.790906e-001  -0.000000e+000
    outer loop
      vertex  1.551011e+001  2.959821e+000 -2.800000e+001
      vertex  1.468037e+001  5.814712e+000  0.000000e+000
      vertex  1.551011e+001  2.959821e+000  0.000000e+000
    endloop
  endfacet
  facet normal  9.955587e-001  9.414255e-002  0.000000e+000
    outer loop
      vertex  1.551011e+001  2.959821e+000 -2.800000e+001
      vertex  1.551011e+001  2.959821e+000  0.000000e+000
      vertex  1.579000e+001  0.000000e+000 -2.800000e+001
    endloop
  endfacet
  facet normal  9.955587e-001  9.414255e-002  -0.000000e+000
    outer loop
      vertex  1.579000e+001  0.000000e+000 -2.800000e+001
      vertex  1.551011e+001  2.959821e+000  0.000000e+000
      vertex  1.579000e+001  0.000000e+000  0.000000e+000
    endloop
  endfacet
endsolid CATIA STL
